<?xml version="1.0" standalone="no"?>
<mlt LC_NUMERIC="C" version="7.1.0" title="Shotcut version 21.10.31" producer="main_bin">
  <profile description="HD 1080p 25 fps" width="1920" height="1080" progressive="1" sample_aspect_num="1" sample_aspect_den="1" display_aspect_num="16" display_aspect_den="9" frame_rate_num="60" frame_rate_den="1" colorspace="709"/>
  <chain id="chain1" out="00:00:10.033">
    <property name="length">00:00:10.050</property>
    <property name="eof">pause</property>
    <property name="resource">/home/dimitry/Desktop/feta-intro.m4a</property>
    <property name="mlt_service">avformat-novalidate</property>
    <property name="seekable">1</property>
    <property name="audio_index">0</property>
    <property name="video_index">-1</property>
    <property name="mute_on_pause">0</property>
    <property name="xml">was here</property>
    <property name="shotcut:hash">b38f3110177feed9f9d7d6f4a876dc9a</property>
  </chain>
  <chain id="chain0" out="00:48:50.217">
    <property name="length">00:48:50.233</property>
    <property name="eof">pause</property>
    <property name="resource">/home/dimitry/Desktop/theotokis/recording.mp4</property>
    <property name="mlt_service">avformat-novalidate</property>
    <property name="seekable">1</property>
    <property name="audio_index">0</property>
    <property name="video_index">1</property>
    <property name="mute_on_pause">0</property>
    <property name="xml">was here</property>
    <property name="shotcut:hash">7cd63e6a2d44a9c96be6a909d68ad17b</property>
  </chain>
  <producer id="producer0" in="00:00:00.000" out="03:59:59.983">
    <property name="length">04:00:00.000</property>
    <property name="eof">pause</property>
    <property name="resource">/home/dimitry/fetareport/fetareportfinallogo/FETA_REPORT_FINAL-5.png</property>
    <property name="ttl">1</property>
    <property name="aspect_ratio">1</property>
    <property name="progressive">1</property>
    <property name="seekable">1</property>
    <property name="mlt_service">qimage</property>
    <property name="creation_time">2020-05-28T14:07:50</property>
    <property name="xml">was here</property>
    <property name="shotcut:hash">5767969113bde37c518dbea4398f47b1</property>
  </producer>
  <producer id="producer1" in="00:00:00.000" out="03:59:59.983">
    <property name="length">04:00:00.000</property>
    <property name="eof">pause</property>
    <property name="resource">#FFFFFFFF</property>
    <property name="aspect_ratio">1</property>
    <property name="mlt_service">color</property>
    <property name="mlt_image_format">rgba</property>
    <property name="shotcut:caption">#FFFFFFFF</property>
    <property name="shotcut:detail">#FFFFFFFF</property>
    <property name="ignore_points">0</property>
    <property name="xml">was here</property>
    <property name="seekable">1</property>
  </producer>
  <producer id="producer2" in="00:00:00.000" out="03:59:59.983">
    <property name="length">04:00:00.000</property>
    <property name="eof">pause</property>
    <property name="resource">images/01-terracotta-2448264_1920.jpg</property>
    <property name="ttl">1</property>
    <property name="aspect_ratio">1</property>
    <property name="progressive">1</property>
    <property name="seekable">1</property>
    <property name="mlt_service">qimage</property>
    <property name="creation_time">2021-10-28T13:49:37</property>
    <property name="xml">was here</property>
    <property name="shotcut:hash">803482cc16964d3182a3729e9043a5b8</property>
  </producer>
  <producer id="producer3" in="00:00:00.000" out="03:59:59.983">
    <property name="length">04:00:00.000</property>
    <property name="eof">pause</property>
    <property name="resource">/home/dimitry/fetareport/centered_logo.png</property>
    <property name="ttl">1</property>
    <property name="aspect_ratio">1</property>
    <property name="progressive">1</property>
    <property name="seekable">1</property>
    <property name="mlt_service">qimage</property>
    <property name="creation_time">2021-07-19T09:53:25</property>
    <property name="xml">was here</property>
    <property name="shotcut:hash">0fef4ec5bcad304a5b032b37bf1fa80d</property>
  </producer>
  <producer id="producer4" in="00:00:00.000" out="03:59:59.983">
    <property name="length">04:00:00.000</property>
    <property name="eof">pause</property>
    <property name="resource">images/02-art_of_war_book.jpeg</property>
    <property name="ttl">1</property>
    <property name="aspect_ratio">1</property>
    <property name="progressive">1</property>
    <property name="seekable">1</property>
    <property name="mlt_service">qimage</property>
    <property name="creation_time">2021-10-26T15:18:29</property>
    <property name="xml">was here</property>
    <property name="shotcut:hash">4c0f5ce80f64492718af0708aa76482f</property>
  </producer>
  <producer id="producer5" in="00:00:00.000" out="03:59:59.983">
    <property name="length">04:00:00.000</property>
    <property name="eof">pause</property>
    <property name="resource">images/03-five_rings.jpg</property>
    <property name="ttl">1</property>
    <property name="aspect_ratio">1</property>
    <property name="progressive">1</property>
    <property name="seekable">1</property>
    <property name="mlt_service">qimage</property>
    <property name="creation_time">2021-10-26T15:21:44</property>
    <property name="xml">was here</property>
    <property name="shotcut:hash">a3481eee4a0394e24d65925b4f4348f2</property>
  </producer>
  <producer id="producer6" in="00:00:00.000" out="03:59:59.983">
    <property name="length">04:00:00.000</property>
    <property name="eof">pause</property>
    <property name="resource">images/04_byz_expl_logo.png</property>
    <property name="ttl">1</property>
    <property name="aspect_ratio">1</property>
    <property name="progressive">1</property>
    <property name="seekable">1</property>
    <property name="mlt_service">qimage</property>
    <property name="creation_time">2021-06-09T13:47:25</property>
    <property name="xml">was here</property>
    <property name="shotcut:hash">0cda27e1077eb984c238f539e192c009</property>
  </producer>
  <producer id="producer7" in="00:00:00.000" out="03:59:59.983">
    <property name="length">04:00:00.000</property>
    <property name="eof">pause</property>
    <property name="resource">/home/dimitry/notes_materials_collateral/images/militarymanualsimages/fol. 30 (cf. fig. 16)_ the army of Thomas the Rebel-1920x1080.jpg</property>
    <property name="ttl">1</property>
    <property name="aspect_ratio">1</property>
    <property name="progressive">1</property>
    <property name="seekable">1</property>
    <property name="mlt_service">qimage</property>
    <property name="creation_time">2021-10-27T14:23:54</property>
    <property name="xml">was here</property>
    <property name="shotcut:hash">9c7fab439c4e191a64d7692dcbb4ac9d</property>
  </producer>
  <producer id="producer8" in="00:00:00.000" out="03:59:59.983">
    <property name="length">04:00:00.000</property>
    <property name="eof">pause</property>
    <property name="resource">images/09-greek_soldiers.jpg</property>
    <property name="ttl">1</property>
    <property name="aspect_ratio">1</property>
    <property name="progressive">1</property>
    <property name="seekable">1</property>
    <property name="mlt_service">qimage</property>
    <property name="creation_time">2021-10-27T13:49:25</property>
    <property name="xml">was here</property>
    <property name="shotcut:hash">1ea8e01157c821f465d15845eda29f28</property>
  </producer>
  <producer id="producer9" in="00:00:00.000" out="03:59:59.983">
    <property name="length">04:00:00.000</property>
    <property name="eof">pause</property>
    <property name="resource">images/05-Fighting_between_Byzantines_and_Arabs_Chronikon_of_Ioannis_Skylitzes,_end_of_13th_century-1920x1080.jpg</property>
    <property name="ttl">1</property>
    <property name="aspect_ratio">1</property>
    <property name="progressive">1</property>
    <property name="seekable">1</property>
    <property name="mlt_service">qimage</property>
    <property name="creation_time">2021-10-28T13:38:14</property>
    <property name="xml">was here</property>
    <property name="shotcut:hash">0e914d0cdda75529360c14f3bce17008</property>
  </producer>
  <producer id="producer10" in="00:00:00.000" out="03:59:59.983">
    <property name="length">04:00:00.000</property>
    <property name="eof">pause</property>
    <property name="resource">images/05-Fighting_between_Byzantines_and_Arabs_Chronikon_of_Ioannis_Skylitzes,_end_of_13th_century..jpg</property>
    <property name="ttl">1</property>
    <property name="aspect_ratio">1</property>
    <property name="progressive">1</property>
    <property name="seekable">1</property>
    <property name="mlt_service">qimage</property>
    <property name="creation_time">2021-10-26T15:38:47</property>
    <property name="xml">was here</property>
    <property name="shotcut:hash">491b08ddfd16fcf18ed5d3a7eb377d4e</property>
  </producer>
  <producer id="producer11" in="00:00:00.000" out="03:59:59.983">
    <property name="length">04:00:00.000</property>
    <property name="eof">pause</property>
    <property name="resource">images/06-stratigikon.jpeg</property>
    <property name="ttl">1</property>
    <property name="aspect_ratio">1</property>
    <property name="progressive">1</property>
    <property name="seekable">1</property>
    <property name="mlt_service">qimage</property>
    <property name="creation_time">2021-10-26T15:44:50</property>
    <property name="xml">was here</property>
    <property name="shotcut:hash">7be88611c68fd57e5f9dfad189597907</property>
  </producer>
  <producer id="producer12" in="00:00:00.000" out="03:59:59.983">
    <property name="length">04:00:00.000</property>
    <property name="eof">pause</property>
    <property name="resource">images/07-aytokratoros_leontos_taktika.jpeg</property>
    <property name="ttl">1</property>
    <property name="aspect_ratio">1</property>
    <property name="progressive">1</property>
    <property name="seekable">1</property>
    <property name="mlt_service">qimage</property>
    <property name="creation_time">2021-10-26T16:17:10</property>
    <property name="xml">was here</property>
    <property name="shotcut:hash">0ebcb749eb32f0ff4951229f67936b58</property>
  </producer>
  <producer id="producer13" in="00:00:00.000" out="03:59:59.983">
    <property name="length">04:00:00.000</property>
    <property name="eof">pause</property>
    <property name="resource">images/08-Leo_Phokas_defeats_Hambdan_at_Adrassos.png</property>
    <property name="ttl">1</property>
    <property name="aspect_ratio">1</property>
    <property name="progressive">1</property>
    <property name="seekable">1</property>
    <property name="mlt_service">qimage</property>
    <property name="creation_time">2021-10-26T16:20:47</property>
    <property name="xml">was here</property>
    <property name="shotcut:hash">34263a27961d74090b6be577564edc31</property>
  </producer>
  <producer id="producer14" in="00:00:00.000" out="03:59:59.983">
    <property name="length">04:00:00.000</property>
    <property name="eof">pause</property>
    <property name="resource">images/09-greek_soldiers.jpg</property>
    <property name="ttl">1</property>
    <property name="aspect_ratio">1</property>
    <property name="progressive">1</property>
    <property name="seekable">1</property>
    <property name="mlt_service">qimage</property>
    <property name="creation_time">2021-10-27T13:49:25</property>
    <property name="xml">was here</property>
    <property name="shotcut:hash">1ea8e01157c821f465d15845eda29f28</property>
  </producer>
  <producer id="producer15" in="00:00:00.000" out="03:59:59.983">
    <property name="length">04:00:00.000</property>
    <property name="eof">pause</property>
    <property name="resource">images/10-frontinos.png</property>
    <property name="ttl">1</property>
    <property name="aspect_ratio">1</property>
    <property name="progressive">1</property>
    <property name="seekable">1</property>
    <property name="mlt_service">qimage</property>
    <property name="creation_time">2021-10-27T13:58:45</property>
    <property name="xml">was here</property>
    <property name="shotcut:hash">13b371c1de49f2fdaa54e60f1cf9e09d</property>
  </producer>
  <producer id="producer16" in="00:00:00.000" out="00:00:03.983">
    <property name="length">04:00:00.000</property>
    <property name="eof">pause</property>
    <property name="resource">#FFE6E0E2</property>
    <property name="aspect_ratio">1</property>
    <property name="mlt_service">color</property>
    <property name="mlt_image_format">rgba</property>
    <property name="shotcut:caption">Manuscript background</property>
    <property name="shotcut:detail">#FFE6E0E2</property>
    <property name="ignore_points">1</property>
    <property name="xml">was here</property>
    <property name="seekable">1</property>
  </producer>
  <producer id="producer17" in="00:00:00.000" out="03:59:59.983">
    <property name="length">04:00:00.000</property>
    <property name="eof">pause</property>
    <property name="resource">#FF68727B</property>
    <property name="aspect_ratio">1</property>
    <property name="mlt_service">color</property>
    <property name="mlt_image_format">rgba</property>
    <property name="shotcut:caption">Grey for Warhammer</property>
    <property name="shotcut:detail">#FF68727B</property>
    <property name="ignore_points">0</property>
    <property name="xml">was here</property>
    <property name="seekable">1</property>
  </producer>
  <producer id="producer18" in="00:00:00.000" out="03:59:59.983">
    <property name="length">04:00:00.000</property>
    <property name="eof">pause</property>
    <property name="resource">/home/dimitry/notes_materials_collateral/images/militarymanualsimages/Fol. 11v Battle Byzantines - Bulgarians.jpg</property>
    <property name="ttl">1</property>
    <property name="aspect_ratio">1</property>
    <property name="progressive">1</property>
    <property name="seekable">1</property>
    <property name="mlt_service">qimage</property>
    <property name="creation_time">2021-10-27T08:29:02</property>
    <property name="xml">was here</property>
    <property name="shotcut:hash">5b6ea275980335c3347b31c15f21a109</property>
  </producer>
  <producer id="producer19" in="00:00:00.000" out="03:59:59.983">
    <property name="length">04:00:00.000</property>
    <property name="eof">pause</property>
    <property name="resource">/home/dimitry/notes_materials_collateral/images/militarymanualsimages/fol. 130 (cf. fig. 157).jpg</property>
    <property name="ttl">1</property>
    <property name="aspect_ratio">1</property>
    <property name="progressive">1</property>
    <property name="seekable">1</property>
    <property name="mlt_service">qimage</property>
    <property name="creation_time">2021-10-27T08:29:02</property>
    <property name="xml">was here</property>
    <property name="shotcut:hash">915263418f2cff9da01310463545d112</property>
  </producer>
  <producer id="producer20" in="00:00:00.000" out="03:59:59.983">
    <property name="length">04:00:00.000</property>
    <property name="eof">pause</property>
    <property name="resource">images/11-cities-4604230_1920.jpg</property>
    <property name="ttl">1</property>
    <property name="aspect_ratio">1</property>
    <property name="progressive">1</property>
    <property name="seekable">1</property>
    <property name="mlt_service">qimage</property>
    <property name="creation_time">2021-10-27T14:28:38</property>
    <property name="xml">was here</property>
    <property name="shotcut:hash">4fabfde7f5313d17780958b18ba00f09</property>
  </producer>
  <producer id="producer21" in="00:00:00.000" out="03:59:59.983">
    <property name="length">04:00:00.000</property>
    <property name="eof">pause</property>
    <property name="resource">images/12-istanbul-2912248.jpg</property>
    <property name="ttl">1</property>
    <property name="aspect_ratio">1</property>
    <property name="progressive">1</property>
    <property name="seekable">1</property>
    <property name="mlt_service">qimage</property>
    <property name="creation_time">2021-10-27T14:34:25</property>
    <property name="xml">was here</property>
    <property name="shotcut:hash">3dcbdc0a2da10bb8f47db7d5633f457f</property>
  </producer>
  <producer id="producer22" in="00:00:00.000" out="03:59:59.983">
    <property name="length">04:00:00.000</property>
    <property name="eof">pause</property>
    <property name="resource">/home/dimitry/notes_materials_collateral/images/militarymanualsimages/Fol. 129v Byzantines defeat Russians-1920x1080.jpg</property>
    <property name="ttl">1</property>
    <property name="aspect_ratio">1</property>
    <property name="progressive">1</property>
    <property name="seekable">1</property>
    <property name="mlt_service">qimage</property>
    <property name="creation_time">2021-10-27T14:36:13</property>
    <property name="xml">was here</property>
    <property name="shotcut:hash">0308be6780522e961801a3bfb730685f</property>
  </producer>
  <producer id="producer23" in="00:00:00.000" out="03:59:59.983">
    <property name="length">04:00:00.000</property>
    <property name="eof">pause</property>
    <property name="resource">images/12-20_battles.jpg</property>
    <property name="ttl">1</property>
    <property name="aspect_ratio">1</property>
    <property name="progressive">1</property>
    <property name="seekable">1</property>
    <property name="mlt_service">qimage</property>
    <property name="creation_time">2021-10-27T14:40:52</property>
    <property name="xml">was here</property>
    <property name="shotcut:hash">dcd7f3b508e3ad2a7578954e7134b181</property>
  </producer>
  <producer id="producer24" in="00:00:00.000" out="03:59:59.983">
    <property name="length">04:00:00.000</property>
    <property name="eof">pause</property>
    <property name="resource">images/13-bohemond.jpg</property>
    <property name="ttl">1</property>
    <property name="aspect_ratio">1</property>
    <property name="progressive">1</property>
    <property name="seekable">1</property>
    <property name="mlt_service">qimage</property>
    <property name="creation_time">2021-10-27T14:43:09</property>
    <property name="xml">was here</property>
    <property name="shotcut:hash">d627801005dac5cc60c7d3f5136976ed</property>
  </producer>
  <producer id="producer25" in="00:00:00.000" out="03:59:59.983">
    <property name="length">04:00:00.000</property>
    <property name="eof">pause</property>
    <property name="resource">/home/dimitry/notes_materials_collateral/images/militarymanualsimages/Fol. 232v Seljuc Turks defeat Saracens and Persians, bottom-1920x1080-a.jpg</property>
    <property name="ttl">1</property>
    <property name="aspect_ratio">1</property>
    <property name="progressive">1</property>
    <property name="seekable">1</property>
    <property name="mlt_service">qimage</property>
    <property name="creation_time">2021-10-27T14:47:41</property>
    <property name="xml">was here</property>
    <property name="shotcut:hash">2fda11cf12e44f1540c309acc960ac5a</property>
  </producer>
  <producer id="producer26" in="00:00:00.000" out="03:59:59.983">
    <property name="length">04:00:00.000</property>
    <property name="eof">pause</property>
    <property name="resource">images/14-France-000723_-_Tapestry_-_51_(14974906496).jpg</property>
    <property name="ttl">1</property>
    <property name="aspect_ratio">1</property>
    <property name="progressive">1</property>
    <property name="seekable">1</property>
    <property name="mlt_service">qimage</property>
    <property name="creation_time">2021-10-27T14:56:16</property>
    <property name="xml">was here</property>
    <property name="shotcut:hash">3e2071425c28e42400ecb6519eb3c434</property>
  </producer>
  <producer id="producer27" in="00:00:00.000" out="03:59:59.983">
    <property name="length">04:00:00.000</property>
    <property name="eof">pause</property>
    <property name="resource">/home/dimitry/notes_materials_collateral/images/militarymanualsimages/Fol. 232v Seljuc Turks defeat Saracens and Persians, bottom-1920x1080-b.jpg</property>
    <property name="ttl">1</property>
    <property name="aspect_ratio">1</property>
    <property name="progressive">1</property>
    <property name="seekable">1</property>
    <property name="mlt_service">qimage</property>
    <property name="creation_time">2021-10-27T15:01:19</property>
    <property name="xml">was here</property>
    <property name="shotcut:hash">9fc20ae54ce389b4520010adb1645ecf</property>
  </producer>
  <producer id="producer28" in="00:00:00.000" out="03:59:59.983">
    <property name="length">04:00:00.000</property>
    <property name="eof">pause</property>
    <property name="resource">images/15-didyoujust-assume-drth-my-gender-imgflip-com-triggered-feminist-imgflip-52491167.png</property>
    <property name="ttl">1</property>
    <property name="aspect_ratio">1</property>
    <property name="progressive">1</property>
    <property name="seekable">1</property>
    <property name="mlt_service">qimage</property>
    <property name="creation_time">2021-10-27T15:06:56</property>
    <property name="xml">was here</property>
    <property name="shotcut:hash">2464c7c18be361536101e4459b9ce709</property>
  </producer>
  <producer id="producer29" in="00:00:00.000" out="03:59:59.983">
    <property name="length">04:00:00.000</property>
    <property name="eof">pause</property>
    <property name="resource">images/16-iran-6131323_1920.jpg</property>
    <property name="ttl">1</property>
    <property name="aspect_ratio">1</property>
    <property name="progressive">1</property>
    <property name="seekable">1</property>
    <property name="mlt_service">qimage</property>
    <property name="creation_time">2021-10-27T15:13:11</property>
    <property name="xml">was here</property>
    <property name="shotcut:hash">2095eae20e12d43075c1762c4c2fccf2</property>
  </producer>
  <producer id="producer30" in="00:00:00.000" out="00:00:03.983">
    <property name="length">04:00:00.000</property>
    <property name="eof">pause</property>
    <property name="resource">/home/dimitry/notes_materials_collateral/images/militarymanualsimages/fol. 130 (cf. fig. 157)-1920x1080.jpg</property>
    <property name="ttl">1</property>
    <property name="aspect_ratio">1</property>
    <property name="progressive">1</property>
    <property name="seekable">1</property>
    <property name="mlt_service">qimage</property>
    <property name="creation_time">2021-10-27T15:17:57</property>
    <property name="xml">was here</property>
    <property name="shotcut:hash">40bd2b63726644591d0bab54ffd2cccb</property>
    <property name="shotcut:caption">fol. 130 (cf. fig. 157)-1920x1080.jpg</property>
    <property name="ignore_points">1</property>
  </producer>
  <producer id="producer31" in="00:00:00.000" out="03:59:59.983">
    <property name="length">04:00:00.000</property>
    <property name="eof">pause</property>
    <property name="resource">/home/dimitry/notes_materials_collateral/images/militarymanualsimages/fol. 107v (cf. fig. 123)-1920x1080.jpg</property>
    <property name="ttl">1</property>
    <property name="aspect_ratio">1</property>
    <property name="progressive">1</property>
    <property name="seekable">1</property>
    <property name="mlt_service">qimage</property>
    <property name="creation_time">2021-10-27T15:22:52</property>
    <property name="xml">was here</property>
    <property name="shotcut:hash">d20eb813c527149bc988db5c344b478e</property>
  </producer>
  <producer id="producer32" in="00:00:00.000" out="03:59:59.983">
    <property name="length">04:00:00.000</property>
    <property name="eof">pause</property>
    <property name="resource">/home/dimitry/notes_materials_collateral/images/militarymanualsimages/Fol. 11v Battle Byzantines - Bulgarians-1920x1080.jpg</property>
    <property name="ttl">1</property>
    <property name="aspect_ratio">1</property>
    <property name="progressive">1</property>
    <property name="seekable">1</property>
    <property name="mlt_service">qimage</property>
    <property name="creation_time">2021-10-27T20:06:42</property>
    <property name="xml">was here</property>
    <property name="shotcut:hash">fd07810dda2715d04ca6b824d1967959</property>
  </producer>
  <producer id="producer33" in="00:00:00.000" out="03:59:59.983">
    <property name="length">04:00:00.000</property>
    <property name="eof">pause</property>
    <property name="resource">images/17-haldon_book.jpg</property>
    <property name="ttl">1</property>
    <property name="aspect_ratio">1</property>
    <property name="progressive">1</property>
    <property name="seekable">1</property>
    <property name="mlt_service">qimage</property>
    <property name="creation_time">2021-10-27T20:13:52</property>
    <property name="xml">was here</property>
    <property name="shotcut:hash">09f5111e2e2e9d62428d5b2dcb286409</property>
  </producer>
  <producer id="producer34" in="00:00:00.000" out="03:59:59.983">
    <property name="length">04:00:00.000</property>
    <property name="eof">pause</property>
    <property name="resource">images/18-luttwak.jpg</property>
    <property name="ttl">1</property>
    <property name="aspect_ratio">1</property>
    <property name="progressive">1</property>
    <property name="seekable">1</property>
    <property name="mlt_service">qimage</property>
    <property name="creation_time">2021-10-27T20:17:12</property>
    <property name="xml">was here</property>
    <property name="shotcut:hash">a66990c6a6bd7c3ab4e6c01530b0407d</property>
  </producer>
  <producer id="producer35" in="00:00:00.000" out="03:59:59.983">
    <property name="length">04:00:00.000</property>
    <property name="eof">pause</property>
    <property name="resource">images/19-strategikon-dennis.jpg</property>
    <property name="ttl">1</property>
    <property name="aspect_ratio">1</property>
    <property name="progressive">1</property>
    <property name="seekable">1</property>
    <property name="mlt_service">qimage</property>
    <property name="creation_time">2021-10-26T15:43:10</property>
    <property name="xml">was here</property>
    <property name="shotcut:hash">ad81f3887e5f7f244381c64b534d7f96</property>
  </producer>
  <producer id="producer36" in="00:00:00.000" out="03:59:59.983">
    <property name="length">04:00:00.000</property>
    <property name="eof">pause</property>
    <property name="resource">/home/dimitry/notes_materials_collateral/images/militarymanualsimages/Fol. 26v_ Leo V's assassins (813-20)-1920x1080.jpg</property>
    <property name="ttl">1</property>
    <property name="aspect_ratio">1</property>
    <property name="progressive">1</property>
    <property name="seekable">1</property>
    <property name="mlt_service">qimage</property>
    <property name="creation_time">2021-10-27T20:31:32</property>
    <property name="xml">was here</property>
    <property name="shotcut:hash">80183c2f6a41987feae7d2d5a6d6665f</property>
  </producer>
  <producer id="producer37" in="00:00:00.000" out="03:59:59.983">
    <property name="length">04:00:00.000</property>
    <property name="eof">pause</property>
    <property name="resource">images/20-machiaveli.jpg</property>
    <property name="ttl">1</property>
    <property name="aspect_ratio">1</property>
    <property name="progressive">1</property>
    <property name="seekable">1</property>
    <property name="mlt_service">qimage</property>
    <property name="creation_time">2021-10-28T09:29:19</property>
    <property name="xml">was here</property>
    <property name="shotcut:hash">aff71388c88710d1c21b7b877cc69631</property>
  </producer>
  <producer id="producer38" in="00:00:00.000" out="03:59:59.983">
    <property name="length">04:00:00.000</property>
    <property name="eof">pause</property>
    <property name="resource">images/21-istanbul-4785964_1920.jpg</property>
    <property name="ttl">1</property>
    <property name="aspect_ratio">1</property>
    <property name="progressive">1</property>
    <property name="seekable">1</property>
    <property name="mlt_service">qimage</property>
    <property name="creation_time">2021-10-28T09:46:57</property>
    <property name="xml">was here</property>
    <property name="shotcut:hash">38d59f53c5ed6b6768ae175559733ef7</property>
  </producer>
  <producer id="producer39" in="00:00:00.000" out="03:59:59.983">
    <property name="length">04:00:00.000</property>
    <property name="eof">pause</property>
    <property name="resource">/home/dimitry/notes_materials_collateral/images/militarymanualsimages/Fol. 54v Byzantines against Saracens-1920x1080.jpg</property>
    <property name="ttl">1</property>
    <property name="aspect_ratio">1</property>
    <property name="progressive">1</property>
    <property name="seekable">1</property>
    <property name="mlt_service">qimage</property>
    <property name="creation_time">2021-10-28T15:21:36</property>
    <property name="xml">was here</property>
    <property name="shotcut:hash">ca9e5e89d07688266ffc4efa9f061267</property>
  </producer>
  <producer id="producer40" in="00:00:00.000" out="03:59:59.983">
    <property name="length">04:00:00.000</property>
    <property name="eof">pause</property>
    <property name="resource">/home/dimitry/notes_materials_collateral/images/militarymanualsimages/fol. 107v (cf. fig. 123)-1920x1080.jpg</property>
    <property name="ttl">1</property>
    <property name="aspect_ratio">1</property>
    <property name="progressive">1</property>
    <property name="seekable">1</property>
    <property name="mlt_service">qimage</property>
    <property name="creation_time">2021-10-27T15:22:52</property>
    <property name="xml">was here</property>
    <property name="shotcut:hash">d20eb813c527149bc988db5c344b478e</property>
  </producer>
  <producer id="producer41" in="00:00:00.000" out="03:59:59.983">
    <property name="length">04:00:00.000</property>
    <property name="eof">pause</property>
    <property name="resource">#00000000</property>
    <property name="aspect_ratio">1</property>
    <property name="mlt_service">color</property>
    <property name="mlt_image_format">rgba</property>
    <property name="shotcut:caption">transparent</property>
    <property name="shotcut:detail">transparent</property>
    <property name="ignore_points">0</property>
    <property name="xml">was here</property>
    <property name="seekable">1</property>
    <filter id="filter0" out="00:00:03.983">
      <property name="argument">Τελικά έμεινε, δεν κόπηκε</property>
      <property name="geometry">0 810 1920 270 1</property>
      <property name="family">Sans</property>
      <property name="size">80</property>
      <property name="weight">750</property>
      <property name="style">normal</property>
      <property name="fgcolour">#ffffffff</property>
      <property name="bgcolour">#00000000</property>
      <property name="olcolour">#aa000000</property>
      <property name="pad">0</property>
      <property name="halign">center</property>
      <property name="valign">top</property>
      <property name="outline">3</property>
      <property name="mlt_service">dynamictext</property>
      <property name="shotcut:filter">dynamicText</property>
      <property name="shotcut:usePointSize">1</property>
      <property name="shotcut:pointSize">60</property>
    </filter>
  </producer>
  <producer id="producer42" in="00:00:00.000" out="03:59:59.983">
    <property name="length">04:00:00.000</property>
    <property name="eof">pause</property>
    <property name="resource">images/21-warhammer_byzantium_background.jpg</property>
    <property name="ttl">1</property>
    <property name="aspect_ratio">1</property>
    <property name="progressive">1</property>
    <property name="seekable">1</property>
    <property name="mlt_service">qimage</property>
    <property name="creation_time">2021-10-28T10:49:54</property>
    <property name="xml">was here</property>
    <property name="shotcut:hash">21cb5f5d8c7c92f299a3988f17db662c</property>
  </producer>
  <producer id="producer43" in="00:00:00.000" out="03:59:59.983">
    <property name="length">04:00:00.000</property>
    <property name="eof">pause</property>
    <property name="resource">images/22-warhammer_byzantium.jpg</property>
    <property name="ttl">1</property>
    <property name="aspect_ratio">1</property>
    <property name="progressive">1</property>
    <property name="seekable">1</property>
    <property name="mlt_service">qimage</property>
    <property name="creation_time">2021-10-26T16:24:35</property>
    <property name="xml">was here</property>
    <property name="shotcut:hash">6b8140e957714ac28cefc3b55df12e07</property>
  </producer>
  <producer id="producer44" in="00:00:00.000" out="03:59:59.983">
    <property name="length">04:00:00.000</property>
    <property name="eof">pause</property>
    <property name="resource">#00000000</property>
    <property name="aspect_ratio">1</property>
    <property name="mlt_service">color</property>
    <property name="mlt_image_format">rgba</property>
    <property name="shotcut:caption">transparent</property>
    <property name="shotcut:detail">transparent</property>
    <property name="ignore_points">0</property>
    <property name="xml">was here</property>
    <property name="seekable">1</property>
    <filter id="filter1" out="00:00:03.983">
      <property name="argument">Ευχαριστώ στο βιβλιοπωλείο Άβαξ  που βοήθησε στην αγορά βιβλίων για την προετοιμασία του επεισοδίου.

Επίσης τα μέλη της κοινότητας του Podcast Μενέλαος Κ., Κωνσταντίνος και &quot;ακροατής&quot; Χρήστος για τον τεχνικό έλεγχο.</property>
      <property name="geometry">0 535 1920 545 1</property>
      <property name="family">Sans</property>
      <property name="size">80</property>
      <property name="weight">750</property>
      <property name="style">normal</property>
      <property name="fgcolour">#ffffffff</property>
      <property name="bgcolour">#00000000</property>
      <property name="olcolour">#aa000000</property>
      <property name="pad">0</property>
      <property name="halign">center</property>
      <property name="valign">top</property>
      <property name="outline">3</property>
      <property name="mlt_service">dynamictext</property>
      <property name="shotcut:filter">dynamicText</property>
      <property name="shotcut:usePointSize">1</property>
      <property name="shotcut:pointSize">60</property>
    </filter>
  </producer>
  <producer id="producer45" in="00:00:00.000" out="03:59:59.983">
    <property name="length">04:00:00.000</property>
    <property name="eof">pause</property>
    <property name="resource">images/18b-luttwak_rome.jpeg</property>
    <property name="ttl">1</property>
    <property name="aspect_ratio">1</property>
    <property name="progressive">1</property>
    <property name="seekable">1</property>
    <property name="mlt_service">qimage</property>
    <property name="creation_time">2021-11-02T11:33:30</property>
    <property name="xml">was here</property>
    <property name="shotcut:hash">8699d847cd5f18cb5ecd7c424f3a8570</property>
  </producer>
  <playlist id="main_bin">
    <property name="xml_retain">1</property>
    <entry producer="chain1" in="00:00:00.000" out="00:00:10.033"/>
    <entry producer="chain0" in="00:00:00.000" out="00:48:50.217"/>
    <entry producer="producer0" in="00:00:00.000" out="00:00:03.983"/>
    <entry producer="producer1" in="00:00:00.000" out="00:00:03.983"/>
    <entry producer="producer2" in="00:00:00.000" out="00:00:03.983"/>
    <entry producer="producer3" in="00:00:00.000" out="00:00:03.983"/>
    <entry producer="producer4" in="00:00:00.000" out="00:00:03.983"/>
    <entry producer="producer5" in="00:00:00.000" out="00:00:03.983"/>
    <entry producer="producer6" in="00:00:00.000" out="00:00:03.983"/>
    <entry producer="producer7" in="00:00:00.000" out="00:00:03.983"/>
    <entry producer="producer8" in="00:00:00.000" out="00:00:03.983"/>
    <entry producer="producer9" in="00:00:00.000" out="00:00:03.983"/>
    <entry producer="producer10" in="00:00:00.000" out="00:00:03.983"/>
    <entry producer="producer11" in="00:00:00.000" out="00:00:03.983"/>
    <entry producer="producer12" in="00:00:00.000" out="00:00:03.983"/>
    <entry producer="producer13" in="00:00:00.000" out="00:00:03.983"/>
    <entry producer="producer14" in="00:00:00.000" out="00:00:03.983"/>
    <entry producer="producer15" in="00:00:00.000" out="00:00:03.983"/>
    <entry producer="producer16" in="00:00:00.000" out="00:00:03.983"/>
    <entry producer="producer17" in="00:00:00.000" out="00:00:03.983"/>
    <entry producer="producer18" in="00:00:00.000" out="00:00:03.983"/>
    <entry producer="producer19" in="00:00:00.000" out="00:00:03.983"/>
    <entry producer="producer20" in="00:00:00.000" out="00:00:03.983"/>
    <entry producer="producer21" in="00:00:00.000" out="00:00:03.983"/>
    <entry producer="producer22" in="00:00:00.000" out="00:00:03.983"/>
    <entry producer="producer23" in="00:00:00.000" out="00:00:03.983"/>
    <entry producer="producer24" in="00:00:00.000" out="00:00:03.983"/>
    <entry producer="producer25" in="00:00:00.000" out="00:00:03.983"/>
    <entry producer="producer26" in="00:00:00.000" out="00:00:03.983"/>
    <entry producer="producer27" in="00:00:00.000" out="00:00:03.983"/>
    <entry producer="producer28" in="00:00:00.000" out="00:00:03.983"/>
    <entry producer="producer29" in="00:00:00.000" out="00:00:03.983"/>
    <entry producer="producer30" in="00:00:00.000" out="00:00:03.983"/>
    <entry producer="producer31" in="00:00:00.000" out="00:00:03.983"/>
    <entry producer="producer32" in="00:00:00.000" out="00:00:03.983"/>
    <entry producer="producer33" in="00:00:00.000" out="00:00:03.983"/>
    <entry producer="producer34" in="00:00:00.000" out="00:00:03.983"/>
    <entry producer="producer35" in="00:00:00.000" out="00:00:03.983"/>
    <entry producer="producer36" in="00:00:00.000" out="00:00:03.983"/>
    <entry producer="producer37" in="00:00:00.000" out="00:00:03.983"/>
    <entry producer="producer38" in="00:00:00.000" out="00:00:03.983"/>
    <entry producer="producer39" in="00:00:00.000" out="00:00:03.983"/>
    <entry producer="producer40" in="00:00:00.000" out="00:00:03.983"/>
    <entry producer="producer41" in="00:00:00.000" out="00:00:03.983"/>
    <entry producer="producer42" in="00:00:00.000" out="00:00:03.983"/>
    <entry producer="producer43" in="00:00:00.000" out="00:00:03.983"/>
    <entry producer="producer44" in="00:00:00.000" out="00:00:03.983"/>
    <entry producer="producer45" in="00:00:00.000" out="00:00:03.983"/>
  </playlist>
  <producer id="black" in="00:00:00.000" out="00:44:15.183">
    <property name="length">00:44:15.200</property>
    <property name="eof">pause</property>
    <property name="resource">0</property>
    <property name="aspect_ratio">1</property>
    <property name="mlt_service">color</property>
    <property name="mlt_image_format">rgba</property>
    <property name="set.test_audio">0</property>
  </producer>
  <playlist id="background">
    <entry producer="black" in="00:00:00.000" out="00:44:15.183"/>
  </playlist>
  <producer id="producer46" in="00:00:00.000" out="03:59:59.983">
    <property name="length">04:00:00.000</property>
    <property name="eof">pause</property>
    <property name="resource">#FFFFFFFF</property>
    <property name="aspect_ratio">1</property>
    <property name="mlt_service">color</property>
    <property name="mlt_image_format">rgba</property>
    <property name="shotcut:caption">#FFFFFFFF</property>
    <property name="shotcut:detail">#FFFFFFFF</property>
    <property name="ignore_points">0</property>
    <property name="xml">was here</property>
    <property name="seekable">1</property>
  </producer>
  <playlist id="playlist0">
    <property name="shotcut:video">1</property>
    <property name="shotcut:name">Single colour background</property>
    <entry producer="producer46" in="00:00:00.000" out="00:04:31.050"/>
  </playlist>
  <producer id="producer47" in="00:00:00.000" out="00:04:09.983">
    <property name="length">15000</property>
    <property name="eof">pause</property>
    <property name="resource">blank</property>
    <property name="aspect_ratio">1</property>
    <property name="text">INVALID</property>
    <property name="fgcolour">0xffffffff</property>
    <property name="bgcolour">0x00000000</property>
    <property name="olcolour">0x00000000</property>
    <property name="outline">0</property>
    <property name="align">left</property>
    <property name="pad">0</property>
    <property name="family">Sans</property>
    <property name="size">48</property>
    <property name="style">normal</property>
    <property name="weight">400</property>
    <property name="encoding">UTF-8</property>
    <property name="mlt_service">blank</property>
  </producer>
  <producer id="producer48" in="00:00:00.000" out="03:59:59.983">
    <property name="length">04:00:00.000</property>
    <property name="eof">pause</property>
    <property name="resource">images/21-warhammer_byzantium_background.jpg</property>
    <property name="ttl">1</property>
    <property name="aspect_ratio">1</property>
    <property name="progressive">1</property>
    <property name="seekable">1</property>
    <property name="mlt_service">qimage</property>
    <property name="creation_time">2021-10-28T10:49:54</property>
    <property name="xml">was here</property>
    <property name="shotcut:hash">21cb5f5d8c7c92f299a3988f17db662c</property>
    <property name="shotcut:caption">21-warhammer_byzantium_background.jpg</property>
  </producer>
  <tractor id="tractor0" in="00:00:00.000" out="00:00:00.000">
    <property name="shotcut:transition">lumaMix</property>
    <track producer="producer47" in="00:00:17.383" out="00:00:17.383"/>
    <track producer="producer48" in="00:00:00.000" out="00:00:00.000"/>
    <transition id="transition0">
      <property name="a_track">0</property>
      <property name="b_track">1</property>
      <property name="factory">loader</property>
      <property name="mlt_service">luma</property>
      <property name="alpha_over">1</property>
    </transition>
    <transition id="transition1">
      <property name="a_track">0</property>
      <property name="b_track">1</property>
      <property name="mlt_service">mix</property>
      <property name="start">-1</property>
      <property name="accepts_blanks">1</property>
    </transition>
  </tractor>
  <producer id="producer49" in="00:00:00.000" out="03:59:59.983">
    <property name="length">04:00:00.000</property>
    <property name="eof">pause</property>
    <property name="resource">images/01-terracotta-2448264_1920.jpg</property>
    <property name="ttl">1</property>
    <property name="aspect_ratio">1</property>
    <property name="progressive">1</property>
    <property name="seekable">1</property>
    <property name="mlt_service">qimage</property>
    <property name="creation_time">2021-10-28T13:49:37</property>
    <property name="xml">was here</property>
    <property name="shotcut:hash">803482cc16964d3182a3729e9043a5b8</property>
    <property name="shotcut:caption">01-terracotta-2448264_1920.jpg</property>
  </producer>
  <producer id="producer50" in="00:00:00.000" out="03:59:59.983">
    <property name="length">04:00:00.000</property>
    <property name="eof">pause</property>
    <property name="resource">images/04_byz_expl_logo.png</property>
    <property name="ttl">1</property>
    <property name="aspect_ratio">1</property>
    <property name="progressive">1</property>
    <property name="seekable">1</property>
    <property name="mlt_service">qimage</property>
    <property name="creation_time">2021-06-09T13:47:25</property>
    <property name="xml">was here</property>
    <property name="shotcut:hash">0cda27e1077eb984c238f539e192c009</property>
    <property name="shotcut:caption">04_byz_expl_logo.png</property>
  </producer>
  <producer id="producer51" in="00:00:00.000" out="03:59:59.983">
    <property name="length">04:00:00.000</property>
    <property name="eof">pause</property>
    <property name="resource">/home/dimitry/notes_materials_collateral/images/militarymanualsimages/fol. 30 (cf. fig. 16)_ the army of Thomas the Rebel-1920x1080.jpg</property>
    <property name="ttl">1</property>
    <property name="aspect_ratio">1</property>
    <property name="progressive">1</property>
    <property name="seekable">1</property>
    <property name="mlt_service">qimage</property>
    <property name="creation_time">2021-10-27T14:23:54</property>
    <property name="xml">was here</property>
    <property name="shotcut:hash">9c7fab439c4e191a64d7692dcbb4ac9d</property>
    <property name="shotcut:caption">fol. 30 (cf. fig. 16)_ the army of Thomas the Rebel-1920x1080.jpg</property>
  </producer>
  <producer id="producer52" in="00:00:00.000" out="03:59:59.983">
    <property name="length">04:00:00.000</property>
    <property name="eof">pause</property>
    <property name="resource">images/11-cities-4604230_1920.jpg</property>
    <property name="ttl">1</property>
    <property name="aspect_ratio">1</property>
    <property name="progressive">1</property>
    <property name="seekable">1</property>
    <property name="mlt_service">qimage</property>
    <property name="creation_time">2021-10-27T14:28:38</property>
    <property name="xml">was here</property>
    <property name="shotcut:hash">4fabfde7f5313d17780958b18ba00f09</property>
    <property name="shotcut:caption">11-cities-4604230_1920.jpg</property>
  </producer>
  <tractor id="tractor1" in="00:00:00.000" out="00:00:00.017">
    <property name="shotcut:transition">lumaMix</property>
    <track producer="producer51" in="00:04:24.917" out="00:04:24.933"/>
    <track producer="producer52" in="00:00:00.000" out="00:00:00.017"/>
    <transition id="transition2" out="00:00:00.017">
      <property name="a_track">0</property>
      <property name="b_track">1</property>
      <property name="factory">loader</property>
      <property name="mlt_service">luma</property>
      <property name="alpha_over">1</property>
    </transition>
    <transition id="transition3" out="00:00:00.017">
      <property name="a_track">0</property>
      <property name="b_track">1</property>
      <property name="mlt_service">mix</property>
      <property name="start">-1</property>
      <property name="accepts_blanks">1</property>
    </transition>
  </tractor>
  <producer id="producer53" in="00:00:00.000" out="03:59:59.983">
    <property name="length">04:00:00.000</property>
    <property name="eof">pause</property>
    <property name="resource">images/14-France-000723_-_Tapestry_-_51_(14974906496).jpg</property>
    <property name="ttl">1</property>
    <property name="aspect_ratio">1</property>
    <property name="progressive">1</property>
    <property name="seekable">1</property>
    <property name="mlt_service">qimage</property>
    <property name="creation_time">2021-10-27T14:56:16</property>
    <property name="xml">was here</property>
    <property name="shotcut:hash">3e2071425c28e42400ecb6519eb3c434</property>
    <property name="shotcut:caption">14-France-000723_-_Tapestry_-_51_(14974906496).jpg</property>
  </producer>
  <producer id="producer54" in="00:00:00.000" out="03:59:59.983">
    <property name="length">04:00:00.000</property>
    <property name="eof">pause</property>
    <property name="resource">images/12-istanbul-2912248.jpg</property>
    <property name="ttl">1</property>
    <property name="aspect_ratio">1</property>
    <property name="progressive">1</property>
    <property name="seekable">1</property>
    <property name="mlt_service">qimage</property>
    <property name="creation_time">2021-10-27T14:34:25</property>
    <property name="xml">was here</property>
    <property name="shotcut:hash">3dcbdc0a2da10bb8f47db7d5633f457f</property>
    <property name="shotcut:caption">12-istanbul-2912248.jpg</property>
  </producer>
  <tractor id="tractor2" in="00:00:00.000" out="00:00:00.017">
    <property name="shotcut:transition">lumaMix</property>
    <track producer="producer53" in="00:00:25.000" out="00:00:25.017"/>
    <track producer="producer54" in="00:00:00.033" out="00:00:00.050"/>
    <transition id="transition4" out="00:00:00.017">
      <property name="a_track">0</property>
      <property name="b_track">1</property>
      <property name="factory">loader</property>
      <property name="mlt_service">luma</property>
      <property name="alpha_over">1</property>
    </transition>
    <transition id="transition5" out="00:00:00.017">
      <property name="a_track">0</property>
      <property name="b_track">1</property>
      <property name="mlt_service">mix</property>
      <property name="start">-1</property>
      <property name="accepts_blanks">1</property>
    </transition>
  </tractor>
  <producer id="producer55" in="00:00:00.000" out="03:59:59.983">
    <property name="length">04:00:00.000</property>
    <property name="eof">pause</property>
    <property name="resource">images/05-Fighting_between_Byzantines_and_Arabs_Chronikon_of_Ioannis_Skylitzes,_end_of_13th_century-1920x1080.jpg</property>
    <property name="ttl">1</property>
    <property name="aspect_ratio">1</property>
    <property name="progressive">1</property>
    <property name="seekable">1</property>
    <property name="mlt_service">qimage</property>
    <property name="creation_time">2021-10-28T13:38:14</property>
    <property name="xml">was here</property>
    <property name="shotcut:hash">0e914d0cdda75529360c14f3bce17008</property>
    <property name="shotcut:caption">05-Fighting_between_Byzantines_and_Arabs_Chronikon_of_Ioannis_Skylitzes,_end_of_13th_century-1920x1080.jpg</property>
  </producer>
  <producer id="producer56" in="00:00:00.000" out="03:59:59.983">
    <property name="length">04:00:00.000</property>
    <property name="eof">pause</property>
    <property name="resource">/home/dimitry/notes_materials_collateral/images/militarymanualsimages/Fol. 129v Byzantines defeat Russians-1920x1080.jpg</property>
    <property name="ttl">1</property>
    <property name="aspect_ratio">1</property>
    <property name="progressive">1</property>
    <property name="seekable">1</property>
    <property name="mlt_service">qimage</property>
    <property name="creation_time">2021-10-27T14:36:13</property>
    <property name="xml">was here</property>
    <property name="shotcut:hash">0308be6780522e961801a3bfb730685f</property>
    <property name="shotcut:caption">Fol. 129v Byzantines defeat Russians-1920x1080.jpg</property>
  </producer>
  <producer id="producer57" in="00:00:00.000" out="03:59:59.983">
    <property name="length">04:00:00.000</property>
    <property name="eof">pause</property>
    <property name="resource">/home/dimitry/notes_materials_collateral/images/militarymanualsimages/Fol. 232v Seljuc Turks defeat Saracens and Persians, bottom-1920x1080-a.jpg</property>
    <property name="ttl">1</property>
    <property name="aspect_ratio">1</property>
    <property name="progressive">1</property>
    <property name="seekable">1</property>
    <property name="mlt_service">qimage</property>
    <property name="creation_time">2021-10-27T14:47:41</property>
    <property name="xml">was here</property>
    <property name="shotcut:hash">2fda11cf12e44f1540c309acc960ac5a</property>
    <property name="shotcut:caption">Fol. 232v Seljuc Turks defeat Saracens and Persians, bottom-1920x1080-a.jpg</property>
  </producer>
  <producer id="producer58" in="00:00:00.000" out="03:59:59.983">
    <property name="length">04:00:00.000</property>
    <property name="eof">pause</property>
    <property name="resource">/home/dimitry/notes_materials_collateral/images/militarymanualsimages/Fol. 232v Seljuc Turks defeat Saracens and Persians, bottom-1920x1080-b.jpg</property>
    <property name="ttl">1</property>
    <property name="aspect_ratio">1</property>
    <property name="progressive">1</property>
    <property name="seekable">1</property>
    <property name="mlt_service">qimage</property>
    <property name="creation_time">2021-10-27T15:01:19</property>
    <property name="xml">was here</property>
    <property name="shotcut:hash">9fc20ae54ce389b4520010adb1645ecf</property>
    <property name="shotcut:caption">Fol. 232v Seljuc Turks defeat Saracens and Persians, bottom-1920x1080-b.jpg</property>
  </producer>
  <producer id="producer59" in="00:00:00.000" out="03:59:59.983">
    <property name="length">04:00:00.000</property>
    <property name="eof">pause</property>
    <property name="resource">/home/dimitry/notes_materials_collateral/images/militarymanualsimages/Fol. 26v_ Leo V's assassins (813-20)-1920x1080.jpg</property>
    <property name="ttl">1</property>
    <property name="aspect_ratio">1</property>
    <property name="progressive">1</property>
    <property name="seekable">1</property>
    <property name="mlt_service">qimage</property>
    <property name="creation_time">2021-10-27T20:31:32</property>
    <property name="xml">was here</property>
    <property name="shotcut:hash">80183c2f6a41987feae7d2d5a6d6665f</property>
    <property name="shotcut:caption">Fol. 26v_ Leo V's assassins (813-20)-1920x1080.jpg</property>
  </producer>
  <producer id="producer60" in="00:00:00.000" out="03:59:59.983">
    <property name="length">04:00:00.000</property>
    <property name="eof">pause</property>
    <property name="resource">/home/dimitry/notes_materials_collateral/images/militarymanualsimages/fol. 107v (cf. fig. 123)-1920x1080.jpg</property>
    <property name="ttl">1</property>
    <property name="aspect_ratio">1</property>
    <property name="progressive">1</property>
    <property name="seekable">1</property>
    <property name="mlt_service">qimage</property>
    <property name="creation_time">2021-10-27T15:22:52</property>
    <property name="xml">was here</property>
    <property name="shotcut:hash">d20eb813c527149bc988db5c344b478e</property>
    <property name="shotcut:caption">fol. 107v (cf. fig. 123)-1920x1080.jpg</property>
  </producer>
  <producer id="producer61" in="00:00:00.000" out="03:59:59.983">
    <property name="length">04:00:00.000</property>
    <property name="eof">pause</property>
    <property name="resource">/home/dimitry/notes_materials_collateral/images/militarymanualsimages/Fol. 11v Battle Byzantines - Bulgarians-1920x1080.jpg</property>
    <property name="ttl">1</property>
    <property name="aspect_ratio">1</property>
    <property name="progressive">1</property>
    <property name="seekable">1</property>
    <property name="mlt_service">qimage</property>
    <property name="creation_time">2021-10-27T20:06:42</property>
    <property name="xml">was here</property>
    <property name="shotcut:hash">fd07810dda2715d04ca6b824d1967959</property>
    <property name="shotcut:caption">Fol. 11v Battle Byzantines - Bulgarians-1920x1080.jpg</property>
  </producer>
  <producer id="producer62" in="00:00:00.000" out="03:59:59.983">
    <property name="length">04:00:00.000</property>
    <property name="eof">pause</property>
    <property name="resource">/home/dimitry/notes_materials_collateral/images/militarymanualsimages/fol. 30 (cf. fig. 16)_ the army of Thomas the Rebel-1920x1080.jpg</property>
    <property name="ttl">1</property>
    <property name="aspect_ratio">1</property>
    <property name="progressive">1</property>
    <property name="seekable">1</property>
    <property name="mlt_service">qimage</property>
    <property name="creation_time">2021-10-27T14:23:54</property>
    <property name="xml">was here</property>
    <property name="shotcut:hash">9c7fab439c4e191a64d7692dcbb4ac9d</property>
    <property name="shotcut:caption">fol. 30 (cf. fig. 16)_ the army of Thomas the Rebel-1920x1080.jpg</property>
  </producer>
  <producer id="producer63" in="00:00:00.000" out="03:59:59.983">
    <property name="length">04:00:00.000</property>
    <property name="eof">pause</property>
    <property name="resource">images/05-Fighting_between_Byzantines_and_Arabs_Chronikon_of_Ioannis_Skylitzes,_end_of_13th_century-1920x1080.jpg</property>
    <property name="ttl">1</property>
    <property name="aspect_ratio">1</property>
    <property name="progressive">1</property>
    <property name="seekable">1</property>
    <property name="mlt_service">qimage</property>
    <property name="creation_time">2021-10-28T13:38:14</property>
    <property name="xml">was here</property>
    <property name="shotcut:hash">0e914d0cdda75529360c14f3bce17008</property>
    <property name="shotcut:caption">05-Fighting_between_Byzantines_and_Arabs_Chronikon_of_Ioannis_Skylitzes,_end_of_13th_century-1920x1080.jpg</property>
  </producer>
  <producer id="producer64" in="00:00:00.000" out="03:59:59.983">
    <property name="length">04:00:00.000</property>
    <property name="eof">pause</property>
    <property name="resource">images/21-istanbul-4785964_1920.jpg</property>
    <property name="ttl">1</property>
    <property name="aspect_ratio">1</property>
    <property name="progressive">1</property>
    <property name="seekable">1</property>
    <property name="mlt_service">qimage</property>
    <property name="creation_time">2021-10-28T09:46:57</property>
    <property name="xml">was here</property>
    <property name="shotcut:hash">38d59f53c5ed6b6768ae175559733ef7</property>
    <property name="shotcut:caption">21-istanbul-4785964_1920.jpg</property>
  </producer>
  <producer id="producer65" in="00:00:00.000" out="03:59:59.983">
    <property name="length">04:00:00.000</property>
    <property name="eof">pause</property>
    <property name="resource">/home/dimitry/notes_materials_collateral/images/militarymanualsimages/fol. 130 (cf. fig. 157)-1920x1080.jpg</property>
    <property name="ttl">1</property>
    <property name="aspect_ratio">1</property>
    <property name="progressive">1</property>
    <property name="seekable">1</property>
    <property name="mlt_service">qimage</property>
    <property name="creation_time">2021-10-27T15:17:57</property>
    <property name="xml">was here</property>
    <property name="shotcut:hash">40bd2b63726644591d0bab54ffd2cccb</property>
    <property name="shotcut:caption">fol. 130 (cf. fig. 157)-1920x1080.jpg</property>
    <property name="ignore_points">0</property>
  </producer>
  <producer id="producer66" in="00:00:00.000" out="03:59:59.983">
    <property name="length">04:00:00.000</property>
    <property name="eof">pause</property>
    <property name="resource">/home/dimitry/notes_materials_collateral/images/militarymanualsimages/Fol. 54v Byzantines against Saracens-1920x1080.jpg</property>
    <property name="ttl">1</property>
    <property name="aspect_ratio">1</property>
    <property name="progressive">1</property>
    <property name="seekable">1</property>
    <property name="mlt_service">qimage</property>
    <property name="creation_time">2021-10-28T15:21:36</property>
    <property name="xml">was here</property>
    <property name="shotcut:hash">ca9e5e89d07688266ffc4efa9f061267</property>
    <property name="shotcut:caption">Fol. 54v Byzantines against Saracens-1920x1080.jpg</property>
  </producer>
  <producer id="producer67" in="00:00:00.000" out="03:59:59.983">
    <property name="length">04:00:00.000</property>
    <property name="eof">pause</property>
    <property name="resource">/home/dimitry/notes_materials_collateral/images/militarymanualsimages/fol. 107v (cf. fig. 123)-1920x1080.jpg</property>
    <property name="ttl">1</property>
    <property name="aspect_ratio">1</property>
    <property name="progressive">1</property>
    <property name="seekable">1</property>
    <property name="mlt_service">qimage</property>
    <property name="creation_time">2021-10-27T15:22:52</property>
    <property name="xml">was here</property>
    <property name="shotcut:hash">d20eb813c527149bc988db5c344b478e</property>
    <property name="shotcut:caption">fol. 107v (cf. fig. 123)-1920x1080.jpg</property>
  </producer>
  <producer id="producer68" in="00:00:00.000" out="03:59:59.983">
    <property name="length">04:00:00.000</property>
    <property name="eof">pause</property>
    <property name="resource">/home/dimitry/notes_materials_collateral/images/militarymanualsimages/Fol. 232v Seljuc Turks defeat Saracens and Persians, bottom-1920x1080-b.jpg</property>
    <property name="ttl">1</property>
    <property name="aspect_ratio">1</property>
    <property name="progressive">1</property>
    <property name="seekable">1</property>
    <property name="mlt_service">qimage</property>
    <property name="creation_time">2021-10-27T15:01:19</property>
    <property name="xml">was here</property>
    <property name="shotcut:hash">9fc20ae54ce389b4520010adb1645ecf</property>
    <property name="shotcut:caption">Fol. 232v Seljuc Turks defeat Saracens and Persians, bottom-1920x1080-b.jpg</property>
  </producer>
  <producer id="producer69" in="00:00:00.000" out="03:59:59.983">
    <property name="length">04:00:00.000</property>
    <property name="eof">pause</property>
    <property name="resource">/home/dimitry/notes_materials_collateral/images/militarymanualsimages/Fol. 232v Seljuc Turks defeat Saracens and Persians, bottom-1920x1080-a.jpg</property>
    <property name="ttl">1</property>
    <property name="aspect_ratio">1</property>
    <property name="progressive">1</property>
    <property name="seekable">1</property>
    <property name="mlt_service">qimage</property>
    <property name="creation_time">2021-10-27T14:47:41</property>
    <property name="xml">was here</property>
    <property name="shotcut:hash">2fda11cf12e44f1540c309acc960ac5a</property>
    <property name="shotcut:caption">Fol. 232v Seljuc Turks defeat Saracens and Persians, bottom-1920x1080-a.jpg</property>
  </producer>
  <producer id="producer70" in="00:00:00.000" out="03:59:59.983">
    <property name="length">04:00:00.000</property>
    <property name="eof">pause</property>
    <property name="resource">images/21-warhammer_byzantium_background.jpg</property>
    <property name="ttl">1</property>
    <property name="aspect_ratio">1</property>
    <property name="progressive">1</property>
    <property name="seekable">1</property>
    <property name="mlt_service">qimage</property>
    <property name="creation_time">2021-10-28T10:49:54</property>
    <property name="xml">was here</property>
    <property name="shotcut:hash">21cb5f5d8c7c92f299a3988f17db662c</property>
    <property name="shotcut:caption">21-warhammer_byzantium_background.jpg</property>
  </producer>
  <playlist id="playlist1">
    <property name="shotcut:video">1</property>
    <property name="shotcut:name">Background image</property>
    <blank length="00:00:00.033"/>
    <entry producer="tractor0" in="00:00:00.000" out="00:00:00.000"/>
    <entry producer="producer48" in="00:00:00.000" out="00:00:09.900"/>
    <blank length="00:00:00.017"/>
    <entry producer="producer49" in="00:00:00.000" out="00:00:41.267"/>
    <entry producer="producer50" in="00:00:00.000" out="00:00:10.883"/>
    <entry producer="producer51" in="00:00:00.000" out="00:04:24.900"/>
    <entry producer="tractor1" in="00:00:00.000" out="00:00:00.017"/>
    <entry producer="producer52" in="00:00:00.033" out="00:01:33.567"/>
    <entry producer="producer53" in="00:00:00.300" out="00:00:34.400"/>
    <entry producer="tractor2" in="00:00:00.000" out="00:00:00.017"/>
    <entry producer="producer54" in="00:00:00.067" out="00:00:31.767"/>
    <entry producer="producer55" in="00:00:00.000" out="00:02:30.583"/>
    <blank length="00:00:00.100"/>
    <entry producer="producer56" in="00:00:00.000" out="00:02:29.983"/>
    <entry producer="producer57" in="00:00:00.000" out="00:02:30.283"/>
    <blank length="00:00:00.083"/>
    <entry producer="producer58" in="00:00:00.000" out="00:02:29.850"/>
    <entry producer="producer59" in="00:00:00.000" out="00:02:29.983"/>
    <blank length="00:00:00.050"/>
    <entry producer="producer60" in="00:00:00.000" out="00:02:30.500"/>
    <entry producer="producer61" in="00:00:00.017" out="00:02:30.267"/>
    <entry producer="producer62" in="00:00:00.000" out="00:02:36.450"/>
    <entry producer="producer63" in="00:00:00.000" out="00:02:50.817"/>
    <entry producer="producer64" in="00:00:00.000" out="00:02:27.167"/>
    <blank length="00:00:00.067"/>
    <entry producer="producer65" in="00:00:00.000" out="00:02:30.233"/>
    <entry producer="producer66" in="00:00:00.000" out="00:02:29.967"/>
    <entry producer="producer67" in="00:00:00.000" out="00:02:30.083"/>
    <blank length="00:00:00.017"/>
    <entry producer="producer68" in="00:00:00.000" out="00:02:29.983"/>
    <entry producer="producer69" in="00:00:00.000" out="00:00:35.300"/>
    <entry producer="producer70" in="00:00:00.333" out="00:00:06.983"/>
  </playlist>
  <chain id="chain2" out="00:00:10.033">
    <property name="length">00:00:10.050</property>
    <property name="eof">pause</property>
    <property name="resource">/home/dimitry/Desktop/feta-intro.m4a</property>
    <property name="mlt_service">avformat-novalidate</property>
    <property name="seekable">1</property>
    <property name="audio_index">0</property>
    <property name="video_index">-1</property>
    <property name="mute_on_pause">0</property>
    <property name="xml">was here</property>
    <property name="shotcut:hash">b38f3110177feed9f9d7d6f4a876dc9a</property>
    <property name="shotcut:caption">feta-intro.m4a</property>
  </chain>
  <chain id="chain3" out="00:48:50.217">
    <property name="length">00:48:50.233</property>
    <property name="eof">pause</property>
    <property name="resource">/home/dimitry/Desktop/theotokis/recording.mp4</property>
    <property name="mlt_service">avformat-novalidate</property>
    <property name="seekable">1</property>
    <property name="audio_index">0</property>
    <property name="video_index">1</property>
    <property name="mute_on_pause">0</property>
    <property name="xml">was here</property>
    <property name="shotcut:hash">7cd63e6a2d44a9c96be6a909d68ad17b</property>
    <property name="shotcut:caption">recording.mp4</property>
    <filter id="filter2" in="00:00:08.550" out="00:27:19.383">
      <property name="rect">0 258 1920 567 1</property>
      <property name="circle">0</property>
      <property name="color">#00000000</property>
      <property name="radius">0</property>
      <property name="mlt_service">qtcrop</property>
      <property name="shotcut:filter">cropRectangle</property>
      <property name="disable">0</property>
    </filter>
    <filter id="filter3" in="00:00:08.550" out="00:27:19.383">
      <property name="background">color:#00000000</property>
      <property name="mlt_service">affine</property>
      <property name="shotcut:filter">affineSizePosition</property>
      <property name="transition.fill">1</property>
      <property name="transition.distort">0</property>
      <property name="transition.rect">62.7603 35.3027 1794.48 1009.39 1</property>
      <property name="transition.valign">middle</property>
      <property name="transition.halign">center</property>
      <property name="shotcut:animIn">00:00:00.000</property>
      <property name="shotcut:animOut">00:00:00.000</property>
      <property name="transition.threads">0</property>
    </filter>
  </chain>
  <tractor id="tractor3" in="00:00:00.000" out="00:00:00.000">
    <property name="shotcut:transition">lumaMix</property>
    <track producer="chain2" in="00:00:09.983" out="00:00:09.983"/>
    <track producer="chain3" in="00:00:08.550" out="00:00:08.550"/>
    <transition id="transition6">
      <property name="a_track">0</property>
      <property name="b_track">1</property>
      <property name="factory">loader</property>
      <property name="mlt_service">luma</property>
      <property name="alpha_over">1</property>
    </transition>
    <transition id="transition7">
      <property name="a_track">0</property>
      <property name="b_track">1</property>
      <property name="mlt_service">mix</property>
      <property name="start">-1</property>
      <property name="accepts_blanks">1</property>
    </transition>
  </tractor>
  <chain id="chain4" out="00:48:50.217">
    <property name="length">00:48:50.233</property>
    <property name="eof">pause</property>
    <property name="resource">/home/dimitry/Desktop/theotokis/recording.mp4</property>
    <property name="mlt_service">avformat-novalidate</property>
    <property name="seekable">1</property>
    <property name="audio_index">0</property>
    <property name="video_index">1</property>
    <property name="mute_on_pause">0</property>
    <property name="xml">was here</property>
    <property name="shotcut:hash">7cd63e6a2d44a9c96be6a909d68ad17b</property>
    <property name="shotcut:caption">recording.mp4</property>
    <filter id="filter4" in="00:28:08.583" out="00:44:56.250">
      <property name="rect">0 258 1920 567 1</property>
      <property name="circle">0</property>
      <property name="color">#00000000</property>
      <property name="radius">0</property>
      <property name="mlt_service">qtcrop</property>
      <property name="shotcut:filter">cropRectangle</property>
      <property name="disable">0</property>
    </filter>
    <filter id="filter5" in="00:28:08.583" out="00:44:56.250">
      <property name="background">color:#00000000</property>
      <property name="mlt_service">affine</property>
      <property name="shotcut:filter">affineSizePosition</property>
      <property name="transition.fill">1</property>
      <property name="transition.distort">0</property>
      <property name="transition.rect">62.7603 35.3027 1794.48 1009.39 1</property>
      <property name="transition.valign">middle</property>
      <property name="transition.halign">center</property>
      <property name="shotcut:animIn">00:00:00.000</property>
      <property name="shotcut:animOut">00:00:00.000</property>
      <property name="transition.threads">0</property>
    </filter>
  </chain>
  <playlist id="playlist2">
    <property name="shotcut:video">1</property>
    <property name="shotcut:name">Video Line</property>
    <property name="shotcut:lock">1</property>
    <blank length="00:00:00.033"/>
    <entry producer="chain2" in="00:00:00.000" out="00:00:09.967"/>
    <entry producer="tractor3" in="00:00:00.000" out="00:00:00.000"/>
    <entry producer="chain3" in="00:00:08.567" out="00:27:19.383"/>
    <entry producer="chain4" in="00:28:08.583" out="00:44:56.250"/>
  </playlist>
  <producer id="producer71" in="00:00:00.000" out="03:59:59.983">
    <property name="length">04:00:00.000</property>
    <property name="eof">pause</property>
    <property name="resource">/home/dimitry/notes_materials_collateral/images/militarymanualsimages/Fol. 54v Byzantines against Saracens-1920x1080.jpg</property>
    <property name="ttl">1</property>
    <property name="aspect_ratio">1</property>
    <property name="progressive">1</property>
    <property name="seekable">1</property>
    <property name="mlt_service">qimage</property>
    <property name="creation_time">2021-10-28T15:21:36</property>
    <property name="xml">was here</property>
    <property name="shotcut:hash">ca9e5e89d07688266ffc4efa9f061267</property>
    <property name="shotcut:caption">Fol. 54v Byzantines against Saracens-1920x1080.jpg</property>
  </producer>
  <producer id="producer72" in="00:00:00.000" out="03:59:59.983">
    <property name="length">04:00:00.000</property>
    <property name="eof">pause</property>
    <property name="resource">images/02-art_of_war_book.jpeg</property>
    <property name="ttl">1</property>
    <property name="aspect_ratio">1</property>
    <property name="progressive">1</property>
    <property name="seekable">1</property>
    <property name="mlt_service">qimage</property>
    <property name="creation_time">2021-10-26T15:18:29</property>
    <property name="xml">was here</property>
    <property name="shotcut:hash">4c0f5ce80f64492718af0708aa76482f</property>
    <property name="shotcut:caption">02-art_of_war_book.jpeg</property>
    <filter id="filter6" out="00:00:04.833">
      <property name="background">color:#00000000</property>
      <property name="mlt_service">affine</property>
      <property name="shotcut:filter">affineSizePosition</property>
      <property name="transition.fill">1</property>
      <property name="transition.distort">0</property>
      <property name="transition.rect">148.531 14.6939 730.745 1043.27 1</property>
      <property name="transition.valign">middle</property>
      <property name="transition.halign">center</property>
      <property name="shotcut:animIn">00:00:00.000</property>
      <property name="shotcut:animOut">00:00:00.000</property>
      <property name="transition.threads">0</property>
    </filter>
    <filter id="filter7" out="00:00:04.833">
      <property name="start">1</property>
      <property name="level">1</property>
      <property name="mlt_service">brightness</property>
      <property name="shotcut:filter">fadeInBrightness</property>
      <property name="alpha">00:00:00.000=0;00:00:00.983=1</property>
      <property name="shotcut:animIn">00:00:01.000</property>
    </filter>
    <filter id="filter8" out="00:00:04.833">
      <property name="start">1</property>
      <property name="level">1</property>
      <property name="mlt_service">brightness</property>
      <property name="shotcut:filter">fadeOutBrightness</property>
      <property name="alpha">00:00:03.850=1;00:00:04.833=0</property>
      <property name="shotcut:animOut">00:00:01.000</property>
    </filter>
  </producer>
  <producer id="producer73" in="00:00:00.000" out="03:59:59.983">
    <property name="length">04:00:00.000</property>
    <property name="eof">pause</property>
    <property name="resource">images/03-five_rings.jpg</property>
    <property name="ttl">1</property>
    <property name="aspect_ratio">1</property>
    <property name="progressive">1</property>
    <property name="seekable">1</property>
    <property name="mlt_service">qimage</property>
    <property name="creation_time">2021-10-26T15:21:44</property>
    <property name="xml">was here</property>
    <property name="shotcut:hash">a3481eee4a0394e24d65925b4f4348f2</property>
    <property name="shotcut:caption">03-five_rings.jpg</property>
    <filter id="filter9" out="00:00:02.550">
      <property name="background">color:#00000000</property>
      <property name="mlt_service">affine</property>
      <property name="shotcut:filter">affineSizePosition</property>
      <property name="transition.fill">1</property>
      <property name="transition.distort">0</property>
      <property name="transition.rect">147.209 135 665.581 810 1</property>
      <property name="transition.valign">middle</property>
      <property name="transition.halign">center</property>
      <property name="shotcut:animIn">00:00:00.000</property>
      <property name="shotcut:animOut">00:00:00.000</property>
      <property name="transition.threads">0</property>
    </filter>
    <filter id="filter10" out="00:00:02.550">
      <property name="start">1</property>
      <property name="level">1</property>
      <property name="mlt_service">brightness</property>
      <property name="shotcut:filter">fadeInBrightness</property>
      <property name="alpha">00:00:00.000=0;00:00:00.983=1</property>
      <property name="shotcut:animIn">00:00:01.000</property>
    </filter>
    <filter id="filter11" out="00:00:02.550">
      <property name="start">1</property>
      <property name="level">1</property>
      <property name="mlt_service">brightness</property>
      <property name="shotcut:filter">fadeOutBrightness</property>
      <property name="alpha">00:00:01.567=1;00:00:02.550=0</property>
      <property name="shotcut:animOut">00:00:01.000</property>
    </filter>
  </producer>
  <producer id="producer74" in="00:00:00.000" out="03:59:59.983">
    <property name="length">04:00:00.000</property>
    <property name="eof">pause</property>
    <property name="resource">images/06-stratigikon.jpeg</property>
    <property name="ttl">1</property>
    <property name="aspect_ratio">1</property>
    <property name="progressive">1</property>
    <property name="seekable">1</property>
    <property name="mlt_service">qimage</property>
    <property name="creation_time">2021-10-26T15:44:50</property>
    <property name="xml">was here</property>
    <property name="shotcut:hash">7be88611c68fd57e5f9dfad189597907</property>
    <property name="shotcut:caption">06-stratigikon.jpeg</property>
    <filter id="filter12" out="00:00:06.333">
      <property name="background">color:#00000000</property>
      <property name="mlt_service">affine</property>
      <property name="shotcut:filter">affineSizePosition</property>
      <property name="transition.fill">1</property>
      <property name="transition.distort">0</property>
      <property name="transition.rect">171.184 94.5918 622.727 898.163 1</property>
      <property name="transition.valign">middle</property>
      <property name="transition.halign">center</property>
      <property name="shotcut:animIn">00:00:00.000</property>
      <property name="shotcut:animOut">00:00:00.000</property>
      <property name="transition.threads">0</property>
    </filter>
    <filter id="filter13" out="00:00:06.333">
      <property name="start">1</property>
      <property name="level">1</property>
      <property name="mlt_service">brightness</property>
      <property name="shotcut:filter">fadeInBrightness</property>
      <property name="alpha">00:00:00.000=0;00:00:00.983=1</property>
      <property name="shotcut:animIn">00:00:01.000</property>
    </filter>
    <filter id="filter14" out="00:00:06.333">
      <property name="start">1</property>
      <property name="level">1</property>
      <property name="mlt_service">brightness</property>
      <property name="shotcut:filter">fadeOutBrightness</property>
      <property name="alpha">00:00:05.350=1;00:00:06.333=0</property>
      <property name="shotcut:animOut">00:00:01.000</property>
    </filter>
  </producer>
  <producer id="producer75" in="00:00:00.000" out="03:59:59.983">
    <property name="length">04:00:00.000</property>
    <property name="eof">pause</property>
    <property name="resource">images/07-aytokratoros_leontos_taktika.jpeg</property>
    <property name="ttl">1</property>
    <property name="aspect_ratio">1</property>
    <property name="progressive">1</property>
    <property name="seekable">1</property>
    <property name="mlt_service">qimage</property>
    <property name="creation_time">2021-10-26T16:17:10</property>
    <property name="xml">was here</property>
    <property name="shotcut:hash">0ebcb749eb32f0ff4951229f67936b58</property>
    <property name="shotcut:caption">07-aytokratoros_leontos_taktika.jpeg</property>
    <filter id="filter15" out="00:00:03.983">
      <property name="background">color:#00000000</property>
      <property name="mlt_service">affine</property>
      <property name="shotcut:filter">affineSizePosition</property>
      <property name="transition.fill">1</property>
      <property name="transition.distort">0</property>
      <property name="transition.rect">179.201 108.806 601.597 862.388 1</property>
      <property name="transition.valign">middle</property>
      <property name="transition.halign">center</property>
      <property name="shotcut:animIn">00:00:00.000</property>
      <property name="shotcut:animOut">00:00:00.000</property>
      <property name="transition.threads">0</property>
    </filter>
    <filter id="filter16" out="00:00:03.983">
      <property name="start">1</property>
      <property name="level">1</property>
      <property name="mlt_service">brightness</property>
      <property name="shotcut:filter">fadeInBrightness</property>
      <property name="alpha">00:00:00.000=0;00:00:00.983=1</property>
      <property name="shotcut:animIn">00:00:01.000</property>
    </filter>
    <filter id="filter17" out="00:00:03.983">
      <property name="start">1</property>
      <property name="level">1</property>
      <property name="mlt_service">brightness</property>
      <property name="shotcut:filter">fadeOutBrightness</property>
      <property name="alpha">00:00:03.000=1;00:00:03.983=0</property>
      <property name="shotcut:animOut">00:00:01.000</property>
    </filter>
  </producer>
  <producer id="producer76" in="00:00:00.000" out="03:59:59.983">
    <property name="length">04:00:00.000</property>
    <property name="eof">pause</property>
    <property name="resource">images/10-frontinos.png</property>
    <property name="ttl">1</property>
    <property name="aspect_ratio">1</property>
    <property name="progressive">1</property>
    <property name="seekable">1</property>
    <property name="mlt_service">qimage</property>
    <property name="creation_time">2021-10-27T13:58:45</property>
    <property name="xml">was here</property>
    <property name="shotcut:hash">13b371c1de49f2fdaa54e60f1cf9e09d</property>
    <property name="shotcut:caption">10-frontinos.png</property>
    <filter id="filter18" out="00:00:06.033">
      <property name="background">color:#00000000</property>
      <property name="mlt_service">affine</property>
      <property name="shotcut:filter">affineSizePosition</property>
      <property name="transition.fill">1</property>
      <property name="transition.distort">0</property>
      <property name="transition.rect">91.2035 67.5 777.593 945 1</property>
      <property name="transition.valign">middle</property>
      <property name="transition.halign">center</property>
      <property name="shotcut:animIn">00:00:00.000</property>
      <property name="shotcut:animOut">00:00:00.000</property>
      <property name="transition.threads">0</property>
    </filter>
    <filter id="filter19" out="00:00:06.033">
      <property name="start">1</property>
      <property name="level">1</property>
      <property name="mlt_service">brightness</property>
      <property name="shotcut:filter">fadeInBrightness</property>
      <property name="alpha">00:00:00.000=0;00:00:00.983=1</property>
      <property name="shotcut:animIn">00:00:01.000</property>
    </filter>
    <filter id="filter20" out="00:00:06.033">
      <property name="start">1</property>
      <property name="level">1</property>
      <property name="mlt_service">brightness</property>
      <property name="shotcut:filter">fadeOutBrightness</property>
      <property name="alpha">00:00:05.050=1;00:00:06.033=0</property>
      <property name="shotcut:animOut">00:00:01.000</property>
    </filter>
  </producer>
  <producer id="producer77" in="00:00:00.000" out="03:59:59.983">
    <property name="length">04:00:00.000</property>
    <property name="eof">pause</property>
    <property name="resource">images/13-bohemond.jpg</property>
    <property name="ttl">1</property>
    <property name="aspect_ratio">1</property>
    <property name="progressive">1</property>
    <property name="seekable">1</property>
    <property name="mlt_service">qimage</property>
    <property name="creation_time">2021-10-27T14:43:09</property>
    <property name="xml">was here</property>
    <property name="shotcut:hash">d627801005dac5cc60c7d3f5136976ed</property>
    <property name="shotcut:caption">13-bohemond.jpg</property>
    <filter id="filter21" out="00:00:03.983">
      <property name="background">color:#00000000</property>
      <property name="mlt_service">affine</property>
      <property name="shotcut:filter">affineSizePosition</property>
      <property name="transition.fill">1</property>
      <property name="transition.distort">0</property>
      <property name="transition.rect">145.113 40.8293 669.773 998.341 1</property>
      <property name="transition.valign">middle</property>
      <property name="transition.halign">center</property>
      <property name="shotcut:animIn">00:00:00.000</property>
      <property name="shotcut:animOut">00:00:00.000</property>
      <property name="transition.threads">0</property>
    </filter>
    <filter id="filter22" out="00:00:03.983">
      <property name="start">1</property>
      <property name="level">1</property>
      <property name="mlt_service">brightness</property>
      <property name="shotcut:filter">fadeInBrightness</property>
      <property name="alpha">00:00:00.000=0;00:00:00.983=1</property>
      <property name="shotcut:animIn">00:00:01.000</property>
    </filter>
    <filter id="filter23" out="00:00:03.983">
      <property name="start">1</property>
      <property name="level">1</property>
      <property name="mlt_service">brightness</property>
      <property name="shotcut:filter">fadeOutBrightness</property>
      <property name="alpha">00:00:03.000=1;00:00:03.983=0</property>
      <property name="shotcut:animOut">00:00:01.000</property>
    </filter>
  </producer>
  <producer id="producer78" in="00:00:00.000" out="03:59:59.983">
    <property name="length">04:00:00.000</property>
    <property name="eof">pause</property>
    <property name="resource">images/12-20_battles.jpg</property>
    <property name="ttl">1</property>
    <property name="aspect_ratio">1</property>
    <property name="progressive">1</property>
    <property name="seekable">1</property>
    <property name="mlt_service">qimage</property>
    <property name="creation_time">2021-10-27T14:40:52</property>
    <property name="xml">was here</property>
    <property name="shotcut:hash">dcd7f3b508e3ad2a7578954e7134b181</property>
    <property name="shotcut:caption">12-20_battles.jpg</property>
    <filter id="filter24" out="00:00:06.083">
      <property name="background">color:#00000000</property>
      <property name="mlt_service">affine</property>
      <property name="shotcut:filter">affineSizePosition</property>
      <property name="transition.fill">1</property>
      <property name="transition.distort">0</property>
      <property name="transition.rect">145.938 47.4146 668.125 985.171 1</property>
      <property name="transition.valign">middle</property>
      <property name="transition.halign">center</property>
      <property name="shotcut:animIn">00:00:00.000</property>
      <property name="shotcut:animOut">00:00:00.000</property>
      <property name="transition.threads">0</property>
    </filter>
    <filter id="filter25" out="00:00:06.083">
      <property name="start">1</property>
      <property name="level">1</property>
      <property name="mlt_service">brightness</property>
      <property name="shotcut:filter">fadeInBrightness</property>
      <property name="alpha">00:00:00.000=0;00:00:00.983=1</property>
      <property name="shotcut:animIn">00:00:01.000</property>
    </filter>
    <filter id="filter26" out="00:00:06.083">
      <property name="start">1</property>
      <property name="level">1</property>
      <property name="mlt_service">brightness</property>
      <property name="shotcut:filter">fadeOutBrightness</property>
      <property name="alpha">00:00:05.100=1;00:00:06.083=0</property>
      <property name="shotcut:animOut">00:00:01.000</property>
    </filter>
  </producer>
  <producer id="producer79" in="00:00:00.000" out="03:59:59.983">
    <property name="length">04:00:00.000</property>
    <property name="eof">pause</property>
    <property name="resource">images/15-didyoujust-assume-drth-my-gender-imgflip-com-triggered-feminist-imgflip-52491167.png</property>
    <property name="ttl">1</property>
    <property name="aspect_ratio">1</property>
    <property name="progressive">1</property>
    <property name="seekable">1</property>
    <property name="mlt_service">qimage</property>
    <property name="creation_time">2021-10-27T15:06:56</property>
    <property name="xml">was here</property>
    <property name="shotcut:hash">2464c7c18be361536101e4459b9ce709</property>
    <property name="shotcut:caption">15-didyoujust-assume-drth-my-gender-imgflip-com-triggered-feminist-imgflip-52491167.png</property>
    <filter id="filter27" in="00:00:00.333" out="00:00:02.183">
      <property name="background">color:#00000000</property>
      <property name="mlt_service">affine</property>
      <property name="shotcut:filter">affineSizePosition</property>
      <property name="transition.fill">1</property>
      <property name="transition.distort">0</property>
      <property name="transition.rect">32.5678 25.0244 447.068 422.78 1</property>
      <property name="transition.valign">middle</property>
      <property name="transition.halign">center</property>
      <property name="shotcut:animIn">00:00:00.000</property>
      <property name="shotcut:animOut">00:00:00.000</property>
      <property name="transition.threads">0</property>
    </filter>
  </producer>
  <producer id="producer80" in="00:00:00.000" out="03:59:59.983">
    <property name="length">04:00:00.000</property>
    <property name="eof">pause</property>
    <property name="resource">images/17-haldon_book.jpg</property>
    <property name="ttl">1</property>
    <property name="aspect_ratio">1</property>
    <property name="progressive">1</property>
    <property name="seekable">1</property>
    <property name="mlt_service">qimage</property>
    <property name="creation_time">2021-10-27T20:13:52</property>
    <property name="xml">was here</property>
    <property name="shotcut:hash">09f5111e2e2e9d62428d5b2dcb286409</property>
    <property name="shotcut:caption">17-haldon_book.jpg</property>
    <filter id="filter28" out="00:00:05.483">
      <property name="background">color:#00000000</property>
      <property name="mlt_service">affine</property>
      <property name="shotcut:filter">affineSizePosition</property>
      <property name="transition.fill">1</property>
      <property name="transition.distort">0</property>
      <property name="transition.rect">169.394 63.2195 621.212 953.561 1</property>
      <property name="transition.valign">middle</property>
      <property name="transition.halign">center</property>
      <property name="shotcut:animIn">00:00:00.000</property>
      <property name="shotcut:animOut">00:00:00.000</property>
      <property name="transition.threads">0</property>
    </filter>
    <filter id="filter29" out="00:00:05.483">
      <property name="start">1</property>
      <property name="level">1</property>
      <property name="mlt_service">brightness</property>
      <property name="shotcut:filter">fadeInBrightness</property>
      <property name="alpha">00:00:00.000=0;00:00:00.983=1</property>
      <property name="shotcut:animIn">00:00:01.000</property>
    </filter>
    <filter id="filter30" out="00:00:05.483">
      <property name="start">1</property>
      <property name="level">1</property>
      <property name="mlt_service">brightness</property>
      <property name="shotcut:filter">fadeOutBrightness</property>
      <property name="alpha">00:00:04.500=1;00:00:05.483=0</property>
      <property name="shotcut:animOut">00:00:01.000</property>
    </filter>
  </producer>
  <producer id="producer81" in="00:00:00.000" out="03:59:59.983">
    <property name="length">04:00:00.000</property>
    <property name="eof">pause</property>
    <property name="resource">images/18-luttwak.jpg</property>
    <property name="ttl">1</property>
    <property name="aspect_ratio">1</property>
    <property name="progressive">1</property>
    <property name="seekable">1</property>
    <property name="mlt_service">qimage</property>
    <property name="creation_time">2021-10-27T20:17:12</property>
    <property name="xml">was here</property>
    <property name="shotcut:hash">a66990c6a6bd7c3ab4e6c01530b0407d</property>
    <property name="shotcut:caption">18-luttwak.jpg</property>
    <filter id="filter31" out="00:00:10.267">
      <property name="background">color:#00000000</property>
      <property name="mlt_service">affine</property>
      <property name="shotcut:filter">affineSizePosition</property>
      <property name="transition.fill">1</property>
      <property name="transition.distort">0</property>
      <property name="transition.rect">156.797 48.7317 646.406 982.537 1</property>
      <property name="transition.valign">middle</property>
      <property name="transition.halign">center</property>
      <property name="shotcut:animIn">00:00:00.000</property>
      <property name="shotcut:animOut">00:00:00.000</property>
      <property name="transition.threads">0</property>
    </filter>
    <filter id="filter32" out="00:00:10.267">
      <property name="start">1</property>
      <property name="level">1</property>
      <property name="mlt_service">brightness</property>
      <property name="shotcut:filter">fadeInBrightness</property>
      <property name="alpha">00:00:00.000=0;00:00:00.983=1</property>
      <property name="shotcut:animIn">00:00:01.000</property>
    </filter>
    <filter id="filter33" out="00:00:10.267">
      <property name="start">1</property>
      <property name="level">1</property>
      <property name="mlt_service">brightness</property>
      <property name="shotcut:filter">fadeOutBrightness</property>
      <property name="alpha">00:00:09.283=1;00:00:10.267=0</property>
      <property name="shotcut:animOut">00:00:01.000</property>
    </filter>
  </producer>
  <producer id="producer82" in="00:00:00.000" out="03:59:59.983">
    <property name="length">04:00:00.000</property>
    <property name="eof">pause</property>
    <property name="resource">images/18b-luttwak_rome.jpeg</property>
    <property name="ttl">1</property>
    <property name="aspect_ratio">1</property>
    <property name="progressive">1</property>
    <property name="seekable">1</property>
    <property name="mlt_service">qimage</property>
    <property name="creation_time">2021-11-02T11:33:30</property>
    <property name="xml">was here</property>
    <property name="shotcut:hash">8699d847cd5f18cb5ecd7c424f3a8570</property>
    <property name="shotcut:caption">18b-luttwak_rome.jpeg</property>
    <filter id="filter34" out="00:00:06.950">
      <property name="background">color:#00000000</property>
      <property name="mlt_service">affine</property>
      <property name="shotcut:filter">affineSizePosition</property>
      <property name="transition.fill">1</property>
      <property name="transition.distort">0</property>
      <property name="transition.rect">140.152 60.6356 679.695 958.729 1</property>
      <property name="transition.valign">middle</property>
      <property name="transition.halign">center</property>
      <property name="shotcut:animIn">00:00:00.000</property>
      <property name="shotcut:animOut">00:00:00.000</property>
      <property name="transition.threads">0</property>
      <property name="transition.fix_rotate_x">0</property>
    </filter>
    <filter id="filter35" out="00:00:06.950">
      <property name="start">1</property>
      <property name="level">1</property>
      <property name="mlt_service">brightness</property>
      <property name="shotcut:filter">fadeInBrightness</property>
      <property name="alpha">00:00:00.000=0;00:00:00.983=1</property>
      <property name="shotcut:animIn">00:00:01.000</property>
    </filter>
    <filter id="filter36" out="00:00:06.950">
      <property name="start">1</property>
      <property name="level">1</property>
      <property name="mlt_service">brightness</property>
      <property name="shotcut:filter">fadeOutBrightness</property>
      <property name="alpha">00:00:05.967=1;00:00:06.950=0</property>
      <property name="shotcut:animOut">00:00:01.000</property>
    </filter>
  </producer>
  <producer id="producer83" in="00:00:00.000" out="03:59:59.983">
    <property name="length">04:00:00.000</property>
    <property name="eof">pause</property>
    <property name="resource">images/19-strategikon-dennis.jpg</property>
    <property name="ttl">1</property>
    <property name="aspect_ratio">1</property>
    <property name="progressive">1</property>
    <property name="seekable">1</property>
    <property name="mlt_service">qimage</property>
    <property name="creation_time">2021-10-26T15:43:10</property>
    <property name="xml">was here</property>
    <property name="shotcut:hash">ad81f3887e5f7f244381c64b534d7f96</property>
    <property name="shotcut:caption">19-strategikon-dennis.jpg</property>
    <filter id="filter37" out="00:00:05.850">
      <property name="background">color:#00000000</property>
      <property name="mlt_service">affine</property>
      <property name="shotcut:filter">affineSizePosition</property>
      <property name="transition.fill">1</property>
      <property name="transition.distort">0</property>
      <property name="transition.rect">152.958 50.0488 654.085 979.902 1</property>
      <property name="transition.valign">middle</property>
      <property name="transition.halign">center</property>
      <property name="shotcut:animIn">00:00:00.000</property>
      <property name="shotcut:animOut">00:00:00.000</property>
      <property name="transition.threads">0</property>
    </filter>
    <filter id="filter38" out="00:00:05.850">
      <property name="start">1</property>
      <property name="level">1</property>
      <property name="mlt_service">brightness</property>
      <property name="shotcut:filter">fadeInBrightness</property>
      <property name="alpha">00:00:00.000=0;00:00:00.983=1</property>
      <property name="shotcut:animIn">00:00:01.000</property>
    </filter>
    <filter id="filter39" out="00:00:05.850">
      <property name="start">1</property>
      <property name="level">1</property>
      <property name="mlt_service">brightness</property>
      <property name="shotcut:filter">fadeOutBrightness</property>
      <property name="alpha">00:00:04.867=1;00:00:05.850=0</property>
      <property name="shotcut:animOut">00:00:01.000</property>
    </filter>
  </producer>
  <producer id="producer84" in="00:00:00.000" out="03:59:59.983">
    <property name="length">04:00:00.000</property>
    <property name="eof">pause</property>
    <property name="resource">images/20-machiaveli.jpg</property>
    <property name="ttl">1</property>
    <property name="aspect_ratio">1</property>
    <property name="progressive">1</property>
    <property name="seekable">1</property>
    <property name="mlt_service">qimage</property>
    <property name="creation_time">2021-10-28T09:29:19</property>
    <property name="xml">was here</property>
    <property name="shotcut:hash">aff71388c88710d1c21b7b877cc69631</property>
    <property name="shotcut:caption">20-machiaveli.jpg</property>
    <filter id="filter40" out="00:00:15.183">
      <property name="background">color:#00000000</property>
      <property name="mlt_service">affine</property>
      <property name="shotcut:filter">affineSizePosition</property>
      <property name="transition.fill">1</property>
      <property name="transition.distort">0</property>
      <property name="transition.rect">144.667 36.878 670.665 1006.24 1</property>
      <property name="transition.valign">middle</property>
      <property name="transition.halign">center</property>
      <property name="shotcut:animIn">00:00:00.000</property>
      <property name="shotcut:animOut">00:00:00.000</property>
      <property name="transition.threads">0</property>
    </filter>
    <filter id="filter41" out="00:00:15.183">
      <property name="start">1</property>
      <property name="level">1</property>
      <property name="mlt_service">brightness</property>
      <property name="shotcut:filter">fadeInBrightness</property>
      <property name="alpha">00:00:00.000=0;00:00:00.983=1</property>
      <property name="shotcut:animIn">00:00:01.000</property>
    </filter>
    <filter id="filter42" out="00:00:15.183">
      <property name="start">1</property>
      <property name="level">1</property>
      <property name="mlt_service">brightness</property>
      <property name="shotcut:filter">fadeOutBrightness</property>
      <property name="alpha">00:00:14.200=1;00:00:15.183=0</property>
      <property name="shotcut:animOut">00:00:01.000</property>
    </filter>
  </producer>
  <producer id="producer85" in="00:00:00.000" out="03:59:59.983">
    <property name="length">04:00:00.000</property>
    <property name="eof">pause</property>
    <property name="resource">#00000000</property>
    <property name="aspect_ratio">1</property>
    <property name="mlt_service">color</property>
    <property name="mlt_image_format">rgba</property>
    <property name="shotcut:caption">transparent</property>
    <property name="shotcut:detail">transparent</property>
    <property name="ignore_points">0</property>
    <property name="xml">was here</property>
    <property name="seekable">1</property>
    <filter id="filter43" in="00:00:07.650" out="00:00:18.233">
      <property name="argument">Τελικά έμεινε, δεν κόπηκε</property>
      <property name="geometry">0 810 1920 270 1</property>
      <property name="family">Sans</property>
      <property name="size">80</property>
      <property name="weight">750</property>
      <property name="style">normal</property>
      <property name="fgcolour">#ffffffff</property>
      <property name="bgcolour">#00000000</property>
      <property name="olcolour">#aa000000</property>
      <property name="pad">0</property>
      <property name="halign">center</property>
      <property name="valign">top</property>
      <property name="outline">4</property>
      <property name="mlt_service">dynamictext</property>
      <property name="shotcut:filter">dynamicText</property>
      <property name="shotcut:usePointSize">1</property>
      <property name="shotcut:pointSize">60</property>
    </filter>
    <filter id="filter44" in="00:00:07.650" out="00:00:18.233">
      <property name="background">color:#00000000</property>
      <property name="mlt_service">affine</property>
      <property name="shotcut:filter">affineSizePosition</property>
      <property name="transition.fill">1</property>
      <property name="transition.distort">0</property>
      <property name="transition.rect">0 36.6102 1920 1080 1</property>
      <property name="transition.valign">middle</property>
      <property name="transition.halign">center</property>
      <property name="shotcut:animIn">00:00:00.000</property>
      <property name="shotcut:animOut">00:00:00.000</property>
      <property name="transition.threads">0</property>
    </filter>
  </producer>
  <producer id="producer86" in="00:00:00.000" out="03:59:59.983">
    <property name="length">04:00:00.000</property>
    <property name="eof">pause</property>
    <property name="resource">images/22-warhammer_byzantium.jpg</property>
    <property name="ttl">1</property>
    <property name="aspect_ratio">1</property>
    <property name="progressive">1</property>
    <property name="seekable">1</property>
    <property name="mlt_service">qimage</property>
    <property name="creation_time">2021-10-26T16:24:35</property>
    <property name="xml">was here</property>
    <property name="shotcut:hash">6b8140e957714ac28cefc3b55df12e07</property>
    <property name="shotcut:caption">22-warhammer_byzantium.jpg</property>
    <filter id="filter45" out="00:00:06.667">
      <property name="background">color:#00000000</property>
      <property name="mlt_service">affine</property>
      <property name="shotcut:filter">affineSizePosition</property>
      <property name="transition.fill">1</property>
      <property name="transition.distort">0</property>
      <property name="transition.rect">255.035 69.7881 1409.93 940.424 1</property>
      <property name="transition.valign">middle</property>
      <property name="transition.halign">center</property>
      <property name="shotcut:animIn">00:00:00.000</property>
      <property name="shotcut:animOut">00:00:00.000</property>
      <property name="transition.threads">0</property>
      <property name="transition.fix_rotate_x">0</property>
    </filter>
  </producer>
  <playlist id="playlist3">
    <property name="shotcut:video">1</property>
    <property name="shotcut:name">Image on top</property>
    <property name="shotcut:lock">0</property>
    <blank length="00:00:00.117"/>
    <entry producer="producer71" in="00:00:00.000" out="00:00:09.917"/>
    <blank length="00:00:27.100"/>
    <entry producer="producer72" in="00:00:00.000" out="00:00:04.833"/>
    <blank length="00:00:01.500"/>
    <entry producer="producer73" in="00:00:00.000" out="00:00:02.550"/>
    <blank length="00:01:07.900"/>
    <entry producer="producer74" in="00:00:00.000" out="00:00:06.333"/>
    <blank length="00:00:00.300"/>
    <entry producer="producer75" in="00:00:00.000" out="00:00:03.983"/>
    <blank length="00:01:37.500"/>
    <entry producer="producer76" in="00:00:00.000" out="00:00:06.033"/>
    <blank length="00:05:26.500"/>
    <entry producer="producer77" in="00:00:00.000" out="00:00:03.983"/>
    <blank length="00:00:18.050"/>
    <entry producer="producer78" in="00:00:00.000" out="00:00:06.083"/>
    <blank length="00:02:51.117"/>
    <entry producer="producer79" in="00:00:00.333" out="00:00:02.183"/>
    <blank length="00:05:49.233"/>
    <entry producer="producer80" in="00:00:00.000" out="00:00:05.483"/>
    <blank length="00:00:07.533"/>
    <entry producer="producer81" in="00:00:00.000" out="00:00:10.267"/>
    <blank length="00:00:01.417"/>
    <entry producer="producer82" in="00:00:00.000" out="00:00:06.950"/>
    <blank length="00:00:58.967"/>
    <entry producer="producer83" in="00:00:00.000" out="00:00:05.850"/>
    <blank length="00:03:36.883"/>
    <entry producer="producer84" in="00:00:00.000" out="00:00:15.183"/>
    <blank length="00:12:56.533"/>
    <entry producer="producer85" in="00:00:07.650" out="00:00:18.233"/>
    <blank length="00:07:07.717"/>
    <entry producer="producer86" in="00:00:00.000" out="00:00:06.667"/>
  </playlist>
  <producer id="producer87" in="00:00:00.000" out="03:59:59.983">
    <property name="length">04:00:00.000</property>
    <property name="eof">pause</property>
    <property name="resource">/home/dimitry/fetareport/fetareportfinallogo/FETA_REPORT_FINAL-5.png</property>
    <property name="ttl">1</property>
    <property name="aspect_ratio">1</property>
    <property name="progressive">1</property>
    <property name="seekable">1</property>
    <property name="mlt_service">qimage</property>
    <property name="creation_time">2020-05-28T14:07:50</property>
    <property name="xml">was here</property>
    <property name="shotcut:hash">5767969113bde37c518dbea4398f47b1</property>
    <property name="shotcut:caption">FETA_REPORT_FINAL-5.png</property>
    <filter id="filter46" out="00:00:09.933">
      <property name="background">color:#00000000</property>
      <property name="mlt_service">affine</property>
      <property name="shotcut:filter">affineSizePosition</property>
      <property name="transition.fill">1</property>
      <property name="transition.distort">0</property>
      <property name="transition.rect">524.194 69.7881 871.612 940.424 1</property>
      <property name="transition.valign">middle</property>
      <property name="transition.halign">center</property>
      <property name="shotcut:animIn">00:00:00.000</property>
      <property name="shotcut:animOut">00:00:00.000</property>
      <property name="transition.threads">0</property>
    </filter>
    <filter id="filter47" in="00:00:04.917" out="00:00:09.933">
      <property name="version">0.2</property>
      <property name="mlt_service">frei0r.IIRblur</property>
      <property name="shotcut:filter">blur_exponential</property>
      <property name="1">0</property>
      <property name="0">00:00:00.000=0.5;00:00:03.533=1;00:00:03.817=1;00:00:05.017=0.5</property>
      <property name="shotcut:animIn">00:00:03.550</property>
      <property name="shotcut:animOut">00:00:01.217</property>
    </filter>
    <filter id="filter48" out="00:00:09.933">
      <property name="start">1</property>
      <property name="level">1</property>
      <property name="mlt_service">brightness</property>
      <property name="shotcut:filter">fadeOutBrightness</property>
      <property name="alpha">00:00:08.950=1;00:00:09.933=0</property>
      <property name="shotcut:animOut">00:00:01.000</property>
    </filter>
  </producer>
  <producer id="producer88" in="00:00:00.000" out="03:59:59.983">
    <property name="length">04:00:00.000</property>
    <property name="eof">pause</property>
    <property name="resource">#00000000</property>
    <property name="aspect_ratio">1</property>
    <property name="mlt_service">color</property>
    <property name="mlt_image_format">rgba</property>
    <property name="shotcut:caption">transparent</property>
    <property name="shotcut:detail">transparent</property>
    <property name="ignore_points">0</property>
    <property name="xml">was here</property>
    <property name="seekable">1</property>
    <filter id="filter49" out="00:00:03.950">
      <property name="argument">Ευχαριστούμε το βιβλιοπωλείο Άβαξ 
που βοήθησε στην προμήθεια βιβλίων
για την προετοιμασία του επεισοδίου.

Επίσης τα μέλη της κοινότητας του Podcast:
Μενέλαος Κ.,
Κωνσταντίνος 
και &quot;ακροατής&quot; Χρήστος
για τον τεχνικό έλεγχο.</property>
      <property name="geometry">334 270 1252 540 1</property>
      <property name="family">Nasalization</property>
      <property name="size">96</property>
      <property name="weight">750</property>
      <property name="style">normal</property>
      <property name="fgcolour">#eeeeec</property>
      <property name="bgcolour">#aa000000</property>
      <property name="olcolour">#aa000000</property>
      <property name="pad">1</property>
      <property name="halign">center</property>
      <property name="valign">top</property>
      <property name="outline">4</property>
      <property name="mlt_service">dynamictext</property>
      <property name="shotcut:filter">dynamicText</property>
      <property name="shotcut:usePointSize">1</property>
      <property name="shotcut:pointSize">72</property>
    </filter>
    <filter id="filter50" out="00:00:03.950">
      <property name="background">color:#00000000</property>
      <property name="mlt_service">affine</property>
      <property name="shotcut:filter">affineSizePosition</property>
      <property name="transition.fill">1</property>
      <property name="transition.distort">0</property>
      <property name="transition.rect">0 0.0715042 1920 1079.86 1</property>
      <property name="transition.valign">middle</property>
      <property name="transition.halign">center</property>
      <property name="shotcut:animIn">00:00:00.000</property>
      <property name="shotcut:animOut">00:00:00.000</property>
      <property name="transition.threads">0</property>
    </filter>
  </producer>
  <playlist id="playlist4">
    <property name="shotcut:video">1</property>
    <property name="shotcut:name">V5</property>
    <blank length="00:00:00.083"/>
    <entry producer="producer87" in="00:00:00.000" out="00:00:09.933"/>
    <blank length="00:43:58.683"/>
    <entry producer="producer88" in="00:00:00.000" out="00:00:03.950"/>
  </playlist>
  <tractor id="tractor4" title="Shotcut version 21.10.31" in="00:00:00.000" out="00:44:15.183">
    <property name="shotcut">1</property>
    <property name="shotcut:projectAudioChannels">2</property>
    <property name="shotcut:projectFolder">0</property>
    <property name="shotcut:scaleFactor">0.739</property>
    <track producer="background"/>
    <track producer="playlist0"/>
    <track producer="playlist1"/>
    <track producer="playlist2"/>
    <track producer="playlist3"/>
    <track producer="playlist4"/>
    <transition id="transition8">
      <property name="a_track">0</property>
      <property name="b_track">1</property>
      <property name="mlt_service">mix</property>
      <property name="always_active">1</property>
      <property name="sum">1</property>
    </transition>
    <transition id="transition9">
      <property name="a_track">0</property>
      <property name="b_track">1</property>
      <property name="version">0.9</property>
      <property name="mlt_service">frei0r.cairoblend</property>
      <property name="threads">0</property>
      <property name="disable">1</property>
    </transition>
    <transition id="transition10">
      <property name="a_track">0</property>
      <property name="b_track">2</property>
      <property name="mlt_service">mix</property>
      <property name="always_active">1</property>
      <property name="sum">1</property>
    </transition>
    <transition id="transition11">
      <property name="a_track">1</property>
      <property name="b_track">2</property>
      <property name="version">0.9</property>
      <property name="mlt_service">frei0r.cairoblend</property>
      <property name="threads">0</property>
      <property name="disable">0</property>
    </transition>
    <transition id="transition12">
      <property name="a_track">0</property>
      <property name="b_track">3</property>
      <property name="mlt_service">mix</property>
      <property name="always_active">1</property>
      <property name="sum">1</property>
    </transition>
    <transition id="transition13">
      <property name="a_track">1</property>
      <property name="b_track">3</property>
      <property name="version">0.9</property>
      <property name="mlt_service">frei0r.cairoblend</property>
      <property name="threads">0</property>
      <property name="disable">0</property>
    </transition>
    <transition id="transition14">
      <property name="a_track">0</property>
      <property name="b_track">4</property>
      <property name="mlt_service">mix</property>
      <property name="always_active">1</property>
      <property name="sum">1</property>
    </transition>
    <transition id="transition15">
      <property name="a_track">1</property>
      <property name="b_track">4</property>
      <property name="version">0.9</property>
      <property name="mlt_service">frei0r.cairoblend</property>
      <property name="threads">0</property>
      <property name="disable">0</property>
    </transition>
    <transition id="transition16">
      <property name="a_track">0</property>
      <property name="b_track">5</property>
      <property name="mlt_service">mix</property>
      <property name="always_active">1</property>
      <property name="sum">1</property>
    </transition>
    <transition id="transition17">
      <property name="a_track">1</property>
      <property name="b_track">5</property>
      <property name="version">0.9</property>
      <property name="mlt_service">frei0r.cairoblend</property>
      <property name="threads">0</property>
      <property name="disable">0</property>
    </transition>
  </tractor>
</mlt>
