<?xml version="1.0" standalone="no"?>
<mlt LC_NUMERIC="C" version="7.5.0" title="Shotcut version 22.01.30" producer="main_bin">
  <profile description="PAL 4:3 DV or DVD" width="1920" height="1080" progressive="1" sample_aspect_num="1" sample_aspect_den="1" display_aspect_num="16" display_aspect_den="9" frame_rate_num="25" frame_rate_den="1" colorspace="709"/>
  <producer id="producer0" in="00:00:00.000" out="03:59:59.960">
    <property name="length">04:00:00.000</property>
    <property name="eof">pause</property>
    <property name="resource">/home/dimitry/fetareport/fetareportfinallogo/FETA_REPORT_FINAL-5.png</property>
    <property name="ttl">1</property>
    <property name="aspect_ratio">1</property>
    <property name="progressive">1</property>
    <property name="seekable">1</property>
    <property name="mlt_service">qimage</property>
    <property name="creation_time">2020-05-28T14:07:50</property>
    <property name="xml">was here</property>
    <property name="shotcut:hash">5767969113bde37c518dbea4398f47b1</property>
  </producer>
  <chain id="chain0" out="00:00:10.000">
    <property name="length">00:00:10.040</property>
    <property name="eof">pause</property>
    <property name="resource">/home/dimitry/fetareport/feta-intro.m4a</property>
    <property name="mlt_service">avformat-novalidate</property>
    <property name="seekable">1</property>
    <property name="audio_index">0</property>
    <property name="video_index">-1</property>
    <property name="mute_on_pause">0</property>
    <property name="xml">was here</property>
    <property name="shotcut:hash">b38f3110177feed9f9d7d6f4a876dc9a</property>
  </chain>
  <producer id="producer1" in="00:00:00.000" out="03:59:59.960">
    <property name="length">04:00:00.000</property>
    <property name="eof">pause</property>
    <property name="resource">images/title.png</property>
    <property name="ttl">1</property>
    <property name="aspect_ratio">1</property>
    <property name="progressive">1</property>
    <property name="seekable">1</property>
    <property name="mlt_service">qimage</property>
    <property name="creation_time">2022-02-21T10:00:43</property>
    <property name="xml">was here</property>
    <property name="shotcut:hash">fc720100631bfd954aca356faa33a60a</property>
  </producer>
  <chain id="chain1" out="00:28:40.680">
    <property name="length">00:28:40.720</property>
    <property name="eof">pause</property>
    <property name="resource">/home/dimitry/Desktop/seatle/part_1/audioDimitriosMistri11845451950.m4a</property>
    <property name="mlt_service">avformat-novalidate</property>
    <property name="seekable">1</property>
    <property name="audio_index">0</property>
    <property name="video_index">-1</property>
    <property name="mute_on_pause">0</property>
    <property name="xml">was here</property>
    <property name="shotcut:hash">c07698cc53ccb3097653f6505f2a4b20</property>
  </chain>
  <chain id="chain2" out="00:28:40.680">
    <property name="length">00:28:40.720</property>
    <property name="eof">pause</property>
    <property name="resource">/home/dimitry/Desktop/seatle/part_1/audioVasileiosTzioka21845451950.m4a</property>
    <property name="mlt_service">avformat-novalidate</property>
    <property name="seekable">1</property>
    <property name="audio_index">0</property>
    <property name="video_index">-1</property>
    <property name="mute_on_pause">0</property>
    <property name="xml">was here</property>
    <property name="shotcut:hash">7a553457649016a0984d43bae6fa3a1d</property>
  </chain>
  <producer id="producer2" in="00:00:00.000" out="03:59:59.960">
    <property name="length">04:00:00.000</property>
    <property name="eof">pause</property>
    <property name="resource">images/01-pexels-josh-fields-3964406.jpg</property>
    <property name="ttl">1</property>
    <property name="aspect_ratio">1</property>
    <property name="progressive">1</property>
    <property name="seekable">1</property>
    <property name="mlt_service">qimage</property>
    <property name="creation_time">2022-02-18T16:11:10</property>
    <property name="xml">was here</property>
    <property name="shotcut:hash">88891f65a9567b52c3a369a7fcd98ed3</property>
  </producer>
  <producer id="producer5" in="00:00:00.000" out="03:59:59.960">
    <property name="length">04:00:00.000</property>
    <property name="eof">pause</property>
    <property name="resource">images/02-pexels-chait-goli-1796730.jpg</property>
    <property name="ttl">1</property>
    <property name="aspect_ratio">1</property>
    <property name="progressive">1</property>
    <property name="seekable">1</property>
    <property name="mlt_service">qimage</property>
    <property name="creation_time">2022-02-18T17:00:58</property>
    <property name="xml">was here</property>
    <property name="shotcut:hash">fada821995e98912d511dc6b5f934918</property>
  </producer>
  <producer id="producer6" in="00:00:00.000" out="03:59:59.960">
    <property name="length">04:00:00.000</property>
    <property name="eof">pause</property>
    <property name="resource">images/03-pexels-fernando-reyes-6402958.jpg</property>
    <property name="ttl">1</property>
    <property name="aspect_ratio">1</property>
    <property name="progressive">1</property>
    <property name="seekable">1</property>
    <property name="mlt_service">qimage</property>
    <property name="creation_time">2022-02-21T12:02:35</property>
    <property name="xml">was here</property>
    <property name="shotcut:hash">ec15313bf3d5937578eeb75315ec43db</property>
  </producer>
  <producer id="producer7" in="00:00:00.000" out="03:59:59.960">
    <property name="length">04:00:00.000</property>
    <property name="eof">pause</property>
    <property name="resource">images/04-pexels-georgie-devlin-8615702.jpg</property>
    <property name="ttl">1</property>
    <property name="aspect_ratio">1</property>
    <property name="progressive">1</property>
    <property name="seekable">1</property>
    <property name="mlt_service">qimage</property>
    <property name="creation_time">2022-02-21T12:01:10</property>
    <property name="xml">was here</property>
    <property name="shotcut:hash">675c1383bd62132eea8034a91e3ac29a</property>
  </producer>
  <producer id="producer8" in="00:00:00.000" out="03:59:59.960">
    <property name="length">04:00:00.000</property>
    <property name="eof">pause</property>
    <property name="resource">images/05-pexels-jeff-boyce-6817987.jpg</property>
    <property name="ttl">1</property>
    <property name="aspect_ratio">1</property>
    <property name="progressive">1</property>
    <property name="seekable">1</property>
    <property name="mlt_service">qimage</property>
    <property name="creation_time">2022-02-21T12:04:03</property>
    <property name="xml">was here</property>
    <property name="shotcut:hash">02a0003671864423e724f9a08f3f43fc</property>
  </producer>
  <producer id="producer9" in="00:00:00.000" out="03:59:59.960">
    <property name="length">04:00:00.000</property>
    <property name="eof">pause</property>
    <property name="resource">images/06-pexels-lin-zhu-4424285.jpg</property>
    <property name="ttl">1</property>
    <property name="aspect_ratio">1</property>
    <property name="progressive">1</property>
    <property name="seekable">1</property>
    <property name="mlt_service">qimage</property>
    <property name="creation_time">2022-02-21T12:05:09</property>
    <property name="xml">was here</property>
    <property name="shotcut:hash">5f868974758b29613edf369558893a55</property>
  </producer>
  <producer id="producer10" in="00:00:00.000" out="03:59:59.960">
    <property name="length">04:00:00.000</property>
    <property name="eof">pause</property>
    <property name="resource">images/07-pexels-aidan-roof-8930335.jpg</property>
    <property name="ttl">1</property>
    <property name="aspect_ratio">1</property>
    <property name="progressive">1</property>
    <property name="seekable">1</property>
    <property name="mlt_service">qimage</property>
    <property name="creation_time">2022-02-21T12:06:35</property>
    <property name="xml">was here</property>
    <property name="shotcut:hash">4b18bb120eabaa3cfb099de4feef54bc</property>
  </producer>
  <producer id="producer11" in="00:00:00.000" out="03:59:59.960">
    <property name="length">04:00:00.000</property>
    <property name="eof">pause</property>
    <property name="resource">images/08-pexels-lisha-riabinina-37486.jpg</property>
    <property name="ttl">1</property>
    <property name="aspect_ratio">1</property>
    <property name="progressive">1</property>
    <property name="seekable">1</property>
    <property name="mlt_service">qimage</property>
    <property name="creation_time">2022-02-21T12:07:26</property>
    <property name="xml">was here</property>
    <property name="shotcut:hash">e9e7aab52b51628d1d45cfa04db3d62a</property>
  </producer>
  <producer id="producer12" in="00:00:00.000" out="03:59:59.960">
    <property name="length">04:00:00.000</property>
    <property name="eof">pause</property>
    <property name="resource">images/09-pexels-luke-hutcheson-8148630.jpg</property>
    <property name="ttl">1</property>
    <property name="aspect_ratio">1</property>
    <property name="progressive">1</property>
    <property name="seekable">1</property>
    <property name="mlt_service">qimage</property>
    <property name="creation_time">2022-02-21T12:08:05</property>
    <property name="xml">was here</property>
    <property name="shotcut:hash">5b162dba957b2f971d96a4dd2221fdce</property>
  </producer>
  <producer id="producer13" in="00:00:00.000" out="03:59:59.960">
    <property name="length">04:00:00.000</property>
    <property name="eof">pause</property>
    <property name="resource">images/10-pexels-tara-nix-5898966.jpg</property>
    <property name="ttl">1</property>
    <property name="aspect_ratio">1</property>
    <property name="progressive">1</property>
    <property name="seekable">1</property>
    <property name="mlt_service">qimage</property>
    <property name="creation_time">2022-02-21T12:09:11</property>
    <property name="xml">was here</property>
    <property name="shotcut:hash">f142ae0364606b5bd099cff1a5490938</property>
  </producer>
  <chain id="chain3" out="00:28:40.680">
    <property name="length">00:28:40.720</property>
    <property name="eof">pause</property>
    <property name="resource">/home/dimitry/Desktop/seatle/part_1/video1845451950.mp4</property>
    <property name="mlt_service">avformat-novalidate</property>
    <property name="seekable">1</property>
    <property name="audio_index">0</property>
    <property name="video_index">1</property>
    <property name="mute_on_pause">0</property>
    <property name="xml">was here</property>
    <property name="shotcut:hash">3be9ad28969296611a1f5462572334e2</property>
  </chain>
  <producer id="producer3" in="00:00:00.000" out="03:59:59.960">
    <property name="length">04:00:00.000</property>
    <property name="eof">pause</property>
    <property name="resource">images/frame_video_size.png</property>
    <property name="ttl">1</property>
    <property name="aspect_ratio">1</property>
    <property name="progressive">1</property>
    <property name="seekable">1</property>
    <property name="mlt_service">qimage</property>
    <property name="creation_time">2022-02-20T14:21:39</property>
    <property name="xml">was here</property>
    <property name="shotcut:hash">e407882a09efd9e447b8bfc806bfaa9c</property>
  </producer>
  <producer id="producer4" in="00:00:00.000" out="03:59:59.960">
    <property name="length">04:00:00.000</property>
    <property name="eof">pause</property>
    <property name="resource">images/11-microsoft-4608125_1920.jpg</property>
    <property name="ttl">1</property>
    <property name="aspect_ratio">1</property>
    <property name="progressive">1</property>
    <property name="seekable">1</property>
    <property name="mlt_service">qimage</property>
    <property name="creation_time">2022-02-20T14:32:41</property>
    <property name="xml">was here</property>
    <property name="shotcut:hash">e2b63c8bb986dc4388d38e0460e020e8</property>
  </producer>
  <producer id="producer14" in="00:00:00.000" out="03:59:59.960">
    <property name="length">04:00:00.000</property>
    <property name="eof">pause</property>
    <property name="resource">images/11-microsoft-4608125_1920-with_shadow.png</property>
    <property name="ttl">1</property>
    <property name="aspect_ratio">1</property>
    <property name="progressive">1</property>
    <property name="seekable">1</property>
    <property name="mlt_service">qimage</property>
    <property name="creation_time">2022-02-21T09:51:56</property>
    <property name="xml">was here</property>
    <property name="shotcut:hash">7ccc2f224261f8cb44f2c698dbed77b4</property>
  </producer>
  <producer id="producer15" in="00:00:00.000" out="03:59:59.960">
    <property name="length">04:00:00.000</property>
    <property name="eof">pause</property>
    <property name="resource">images/12-MS-Execs-2017-02-Nadella-Satya-Portraits-dropshadow.png</property>
    <property name="ttl">1</property>
    <property name="aspect_ratio">1</property>
    <property name="progressive">1</property>
    <property name="seekable">1</property>
    <property name="mlt_service">qimage</property>
    <property name="creation_time">2022-02-21T12:57:08</property>
    <property name="xml">was here</property>
    <property name="shotcut:hash">495040d4fba105e9c53e82b840cc7fdb</property>
  </producer>
  <producer id="producer16" in="00:00:00.000" out="03:59:59.960">
    <property name="length">04:00:00.000</property>
    <property name="eof">pause</property>
    <property name="resource">images/13-building-g6ac185be0-shadow.png</property>
    <property name="ttl">1</property>
    <property name="aspect_ratio">1</property>
    <property name="progressive">1</property>
    <property name="seekable">1</property>
    <property name="mlt_service">qimage</property>
    <property name="creation_time">2022-02-21T13:01:04</property>
    <property name="xml">was here</property>
    <property name="shotcut:hash">03d1320dc54c25d757b9466ea857aec2</property>
  </producer>
  <producer id="producer17" in="00:00:00.000" out="03:59:59.960">
    <property name="length">04:00:00.000</property>
    <property name="eof">pause</property>
    <property name="resource">images/14-hit_refresh-30835567._SY475_.png</property>
    <property name="ttl">1</property>
    <property name="aspect_ratio">1</property>
    <property name="progressive">1</property>
    <property name="seekable">1</property>
    <property name="mlt_service">qimage</property>
    <property name="creation_time">2022-02-21T13:05:39</property>
    <property name="xml">was here</property>
    <property name="shotcut:hash">431faba7f22b982f201d15ba03d7c97a</property>
  </producer>
  <chain id="chain4" out="00:00:19.680">
    <property name="length">00:00:19.720</property>
    <property name="eof">pause</property>
    <property name="resource">video_samples/Steve Ballmer Developers, Developers, Developers-SaVTHG-Ev4k.mp4</property>
    <property name="mlt_service">avformat-novalidate</property>
    <property name="seekable">1</property>
    <property name="audio_index">1</property>
    <property name="video_index">0</property>
    <property name="mute_on_pause">0</property>
    <property name="xml">was here</property>
    <property name="shotcut:hash">65a84f5dfcdc3ba65f02f537756ad4dd</property>
  </chain>
  <chain id="chain5" out="00:02:22.560">
    <property name="length">00:02:22.600</property>
    <property name="eof">pause</property>
    <property name="resource">video_samples/Ballmer Laughs at iPhone-eywi0h_Y5_U.mkv</property>
    <property name="mlt_service">avformat-novalidate</property>
    <property name="seekable">1</property>
    <property name="audio_index">1</property>
    <property name="video_index">0</property>
    <property name="mute_on_pause">0</property>
    <property name="xml">was here</property>
    <property name="shotcut:hash">49b2e9449b4a6c0f8ab696c0cb4e612b</property>
  </chain>
  <producer id="producer18" in="00:00:00.000" out="03:59:59.960">
    <property name="length">04:00:00.000</property>
    <property name="eof">pause</property>
    <property name="resource">images/15-Seattle_SuperSonics_logo.png</property>
    <property name="ttl">1</property>
    <property name="aspect_ratio">1</property>
    <property name="progressive">1</property>
    <property name="seekable">1</property>
    <property name="mlt_service">qimage</property>
    <property name="creation_time">2022-02-21T13:21:12</property>
    <property name="xml">was here</property>
    <property name="shotcut:hash">f6514282bb7cc9b49838428c4897c657</property>
  </producer>
  <producer id="producer19" in="00:00:00.000" out="03:59:59.960">
    <property name="length">04:00:00.000</property>
    <property name="eof">pause</property>
    <property name="resource">images/16-twitter_monodromos-shadow.png</property>
    <property name="ttl">1</property>
    <property name="aspect_ratio">1</property>
    <property name="progressive">1</property>
    <property name="seekable">1</property>
    <property name="mlt_service">qimage</property>
    <property name="creation_time">2022-02-21T13:37:28</property>
    <property name="xml">was here</property>
    <property name="shotcut:hash">e78352c724454d73ff3365c428713df1</property>
  </producer>
  <chain id="chain6" out="00:00:04.200">
    <property name="length">00:00:04.240</property>
    <property name="eof">pause</property>
    <property name="resource">video_samples/tv static-4NsqFlZhlSo.mp4</property>
    <property name="mlt_service">avformat-novalidate</property>
    <property name="seekable">1</property>
    <property name="audio_index">1</property>
    <property name="video_index">0</property>
    <property name="mute_on_pause">0</property>
    <property name="xml">was here</property>
    <property name="shotcut:hash">6f6590b0b2fa2639b5ed8aec97ee3a9b</property>
  </chain>
  <producer id="producer20" in="00:00:00.000" out="03:59:59.960">
    <property name="length">04:00:00.000</property>
    <property name="eof">pause</property>
    <property name="resource">images/17-pexels-anete-lusina-5721879.jpg</property>
    <property name="ttl">1</property>
    <property name="aspect_ratio">1</property>
    <property name="progressive">1</property>
    <property name="seekable">1</property>
    <property name="mlt_service">qimage</property>
    <property name="creation_time">2022-02-21T14:29:18</property>
    <property name="xml">was here</property>
    <property name="shotcut:hash">d716a3c76b0fd0b4729d50a2a18975aa</property>
  </producer>
  <chain id="chain7" out="00:00:24.120">
    <property name="length">00:00:24.160</property>
    <property name="eof">pause</property>
    <property name="resource">video_samples/ΟΧΙ ΣΚΟΥΠΙΔΙΑ, ΟΧΙ ΠΛΑΣΤΙΚΑ ΣΕ ΘΑΛΑΣΣΕΣ ΚΑΙ ΑΚΤΕΣ (1992)-AoaYOf8zNL4.mp4</property>
    <property name="mlt_service">avformat-novalidate</property>
    <property name="seekable">1</property>
    <property name="audio_index">1</property>
    <property name="video_index">0</property>
    <property name="mute_on_pause">0</property>
    <property name="xml">was here</property>
    <property name="shotcut:hash">8b988c35f74d4ef74cc43eb03e6b1d31</property>
  </chain>
  <chain id="chain8" out="00:27:12.800">
    <property name="length">00:27:12.840</property>
    <property name="eof">pause</property>
    <property name="resource">/home/dimitry/Desktop/seatle/part_2/audioDimitriosMistri11650137169.m4a</property>
    <property name="mlt_service">avformat-novalidate</property>
    <property name="seekable">1</property>
    <property name="audio_index">0</property>
    <property name="video_index">-1</property>
    <property name="mute_on_pause">0</property>
    <property name="xml">was here</property>
    <property name="shotcut:hash">54430b0bfe23e60c25063428fea33322</property>
  </chain>
  <chain id="chain9" out="00:27:12.800">
    <property name="length">00:27:12.840</property>
    <property name="eof">pause</property>
    <property name="resource">/home/dimitry/Desktop/seatle/part_2/audioVasileiosTzioka21650137169.m4a</property>
    <property name="mlt_service">avformat-novalidate</property>
    <property name="seekable">1</property>
    <property name="audio_index">0</property>
    <property name="video_index">-1</property>
    <property name="mute_on_pause">0</property>
    <property name="xml">was here</property>
    <property name="shotcut:hash">e93e472d2036e37e0c811cf84864002d</property>
  </chain>
  <chain id="chain10" out="00:27:12.800">
    <property name="length">00:27:12.840</property>
    <property name="eof">pause</property>
    <property name="resource">/home/dimitry/Desktop/seatle/part_2/video1650137169.mp4</property>
    <property name="mlt_service">avformat-novalidate</property>
    <property name="seekable">1</property>
    <property name="audio_index">0</property>
    <property name="video_index">1</property>
    <property name="mute_on_pause">0</property>
    <property name="xml">was here</property>
    <property name="shotcut:hash">d394a814806d0fc228aa10e9eb0ad810</property>
  </chain>
  <producer id="producer21" in="00:00:00.000" out="03:59:59.960">
    <property name="length">04:00:00.000</property>
    <property name="eof">pause</property>
    <property name="resource">#00000000</property>
    <property name="aspect_ratio">1</property>
    <property name="mlt_service">color</property>
    <property name="mlt_image_format">rgba</property>
    <property name="shotcut:caption">transparent</property>
    <property name="shotcut:detail">transparent</property>
    <property name="ignore_points">0</property>
    <property name="xml">was here</property>
    <property name="seekable">1</property>
    <filter id="filter0" out="00:00:03.960">
      <property name="argument">&quot;είχα διαβάσει μερικά Podasts&quot;
πόσοι από εσάς μπορείτε να το
κάνετε αυτό;</property>
      <property name="geometry">0 810 1920 270 1</property>
      <property name="family">Sans</property>
      <property name="size">80</property>
      <property name="weight">750</property>
      <property name="style">normal</property>
      <property name="fgcolour">#ffffffff</property>
      <property name="bgcolour">#00000000</property>
      <property name="olcolour">#aa000000</property>
      <property name="pad">0</property>
      <property name="halign">center</property>
      <property name="valign">top</property>
      <property name="outline">3</property>
      <property name="mlt_service">dynamictext</property>
      <property name="shotcut:filter">dynamicText</property>
      <property name="shotcut:usePointSize">1</property>
      <property name="shotcut:pointSize">60</property>
    </filter>
  </producer>
  <producer id="producer22" in="00:00:00.000" out="03:59:59.960">
    <property name="length">04:00:00.000</property>
    <property name="eof">pause</property>
    <property name="resource">images/18-podcast0100-image-dropshadow.png</property>
    <property name="ttl">1</property>
    <property name="aspect_ratio">1</property>
    <property name="progressive">1</property>
    <property name="seekable">1</property>
    <property name="mlt_service">qimage</property>
    <property name="creation_time">2022-02-21T15:46:34</property>
    <property name="xml">was here</property>
    <property name="shotcut:hash">edf454b7fd57a7cc2a235dadbc63e728</property>
  </producer>
  <producer id="producer23" in="00:00:00.000" out="03:59:59.960">
    <property name="length">04:00:00.000</property>
    <property name="eof">pause</property>
    <property name="resource">images/19-59335615._SX318-dropshadow.png</property>
    <property name="ttl">1</property>
    <property name="aspect_ratio">1</property>
    <property name="progressive">1</property>
    <property name="seekable">1</property>
    <property name="mlt_service">qimage</property>
    <property name="creation_time">2022-02-21T17:14:36</property>
    <property name="xml">was here</property>
    <property name="shotcut:hash">4c95bd4598bb635376734c7ef6eadc14</property>
  </producer>
  <producer id="producer24" in="00:00:00.000" out="03:59:59.960">
    <property name="length">04:00:00.000</property>
    <property name="eof">pause</property>
    <property name="resource">images/20-deep_thinking-dropshadow.png</property>
    <property name="ttl">1</property>
    <property name="aspect_ratio">1</property>
    <property name="progressive">1</property>
    <property name="seekable">1</property>
    <property name="mlt_service">qimage</property>
    <property name="creation_time">2022-02-22T11:05:53</property>
    <property name="xml">was here</property>
    <property name="shotcut:hash">25ad07d435ef9ee665c9e0e6f6697756</property>
  </producer>
  <producer id="producer25" in="00:00:00.000" out="03:59:59.960">
    <property name="length">04:00:00.000</property>
    <property name="eof">pause</property>
    <property name="resource">images/21-skliroi1-dropshadow.png</property>
    <property name="ttl">1</property>
    <property name="aspect_ratio">1</property>
    <property name="progressive">1</property>
    <property name="seekable">1</property>
    <property name="mlt_service">qimage</property>
    <property name="creation_time">2022-02-22T11:08:58</property>
    <property name="xml">was here</property>
    <property name="shotcut:hash">846d3e7d15537c014f413ea899b20599</property>
  </producer>
  <producer id="producer26" in="00:00:00.000" out="03:59:59.960">
    <property name="length">04:00:00.000</property>
    <property name="eof">pause</property>
    <property name="resource">images/22-skliroi2-dropshadow.png</property>
    <property name="ttl">1</property>
    <property name="aspect_ratio">1</property>
    <property name="progressive">1</property>
    <property name="seekable">1</property>
    <property name="mlt_service">qimage</property>
    <property name="creation_time">2022-02-22T11:09:17</property>
    <property name="xml">was here</property>
    <property name="shotcut:hash">fb4d2cf3dbe7b2470ef014db3f473703</property>
  </producer>
  <producer id="producer27" in="00:00:00.000" out="03:59:59.960">
    <property name="length">04:00:00.000</property>
    <property name="eof">pause</property>
    <property name="resource">images/23-skliroi3-dropshadow.png</property>
    <property name="ttl">1</property>
    <property name="aspect_ratio">1</property>
    <property name="progressive">1</property>
    <property name="seekable">1</property>
    <property name="mlt_service">qimage</property>
    <property name="creation_time">2022-02-22T11:09:34</property>
    <property name="xml">was here</property>
    <property name="shotcut:hash">38ca729d75d51b604fd80bdab089ab5c</property>
  </producer>
  <producer id="producer28" in="00:00:00.000" out="03:59:59.960">
    <property name="length">04:00:00.000</property>
    <property name="eof">pause</property>
    <property name="resource">images/24-human_compatible-dropshadow.png</property>
    <property name="ttl">1</property>
    <property name="aspect_ratio">1</property>
    <property name="progressive">1</property>
    <property name="seekable">1</property>
    <property name="mlt_service">qimage</property>
    <property name="creation_time">2022-02-22T13:10:51</property>
    <property name="xml">was here</property>
    <property name="shotcut:hash">90f704e0d700e9394092a777c28e1873</property>
  </producer>
  <producer id="producer29" in="00:00:00.000" out="03:59:59.960">
    <property name="length">04:00:00.000</property>
    <property name="eof">pause</property>
    <property name="resource">images/25-radical-dropshadow.png</property>
    <property name="ttl">1</property>
    <property name="aspect_ratio">1</property>
    <property name="progressive">1</property>
    <property name="seekable">1</property>
    <property name="mlt_service">qimage</property>
    <property name="creation_time">2022-02-22T13:35:17</property>
    <property name="xml">was here</property>
    <property name="shotcut:hash">e0b0748af6bd77388652de2b8deefbdb</property>
  </producer>
  <producer id="producer30" in="00:00:00.000" out="03:59:59.960">
    <property name="length">04:00:00.000</property>
    <property name="eof">pause</property>
    <property name="resource">images/36-Tsovolas-DHKKI-dropshadow.png</property>
    <property name="ttl">1</property>
    <property name="aspect_ratio">1</property>
    <property name="progressive">1</property>
    <property name="seekable">1</property>
    <property name="mlt_service">qimage</property>
    <property name="creation_time">2022-02-22T13:40:28</property>
    <property name="xml">was here</property>
    <property name="shotcut:hash">3ee25c6105069557fdb400569e0049d2</property>
  </producer>
  <producer id="producer31" in="00:00:00.000" out="03:59:59.960">
    <property name="length">04:00:00.000</property>
    <property name="eof">pause</property>
    <property name="resource">images/37-rational_voter-dropshadow.png</property>
    <property name="ttl">1</property>
    <property name="aspect_ratio">1</property>
    <property name="progressive">1</property>
    <property name="seekable">1</property>
    <property name="mlt_service">qimage</property>
    <property name="creation_time">2022-02-22T13:53:40</property>
    <property name="xml">was here</property>
    <property name="shotcut:hash">3dadd60573dd5e604383636dbde5b50a</property>
  </producer>
  <chain id="chain11" out="00:00:32.320">
    <property name="length">00:00:32.360</property>
    <property name="eof">pause</property>
    <property name="resource">video_samples/CARNATION_σπανιο 1993 greece tv-dpg3Uik38OY.mp4</property>
    <property name="mlt_service">avformat-novalidate</property>
    <property name="seekable">1</property>
    <property name="audio_index">1</property>
    <property name="video_index">0</property>
    <property name="mute_on_pause">0</property>
    <property name="xml">was here</property>
    <property name="shotcut:hash">f84bb8e7f72b99a29afc1859be694595</property>
  </chain>
  <producer id="producer32" in="00:00:00.000" out="03:59:59.960">
    <property name="length">04:00:00.000</property>
    <property name="eof">pause</property>
    <property name="resource">images/38-golden-dropshadow.png</property>
    <property name="ttl">1</property>
    <property name="aspect_ratio">1</property>
    <property name="progressive">1</property>
    <property name="seekable">1</property>
    <property name="mlt_service">qimage</property>
    <property name="creation_time">2022-02-22T16:08:47</property>
    <property name="xml">was here</property>
    <property name="shotcut:hash">9d151215c9518ab4b1e26c7fea145059</property>
  </producer>
  <producer id="producer33" in="00:00:00.000" out="03:59:59.960">
    <property name="length">04:00:00.000</property>
    <property name="eof">pause</property>
    <property name="resource">images/39-notion.png</property>
    <property name="ttl">1</property>
    <property name="aspect_ratio">1</property>
    <property name="progressive">1</property>
    <property name="seekable">1</property>
    <property name="mlt_service">qimage</property>
    <property name="creation_time">2022-02-22T16:11:46</property>
    <property name="xml">was here</property>
    <property name="shotcut:hash">9e195fc889a34bdecb559545b5ccbfe7</property>
  </producer>
  <chain id="chain12" out="00:00:05.040">
    <property name="length">00:00:05.080</property>
    <property name="eof">pause</property>
    <property name="resource">/home/dimitry/fetareport/archive/episode0100-uber_for_x_and_e_food_part3/video_samples/marinakis.mp4</property>
    <property name="mlt_service">avformat-novalidate</property>
    <property name="seekable">1</property>
    <property name="audio_index">1</property>
    <property name="video_index">0</property>
    <property name="mute_on_pause">0</property>
    <property name="xml">was here</property>
    <property name="shotcut:hash">409fab209972d33eac6204ddd05e022e</property>
  </chain>
  <producer id="producer34" in="00:00:00.000" out="03:59:59.960">
    <property name="length">04:00:00.000</property>
    <property name="eof">pause</property>
    <property name="resource">images/40-cover-701-dropsahdow.png</property>
    <property name="ttl">1</property>
    <property name="aspect_ratio">1</property>
    <property name="progressive">1</property>
    <property name="seekable">1</property>
    <property name="mlt_service">qimage</property>
    <property name="creation_time">2022-02-22T17:05:01</property>
    <property name="xml">was here</property>
    <property name="shotcut:hash">4ddc6a8810efae986b5c781bc815e19d</property>
  </producer>
  <producer id="producer35" in="00:00:00.000" out="03:59:59.960">
    <property name="length">04:00:00.000</property>
    <property name="eof">pause</property>
    <property name="resource">images/41-sound_xyz-dropshadow.png</property>
    <property name="ttl">1</property>
    <property name="aspect_ratio">1</property>
    <property name="progressive">1</property>
    <property name="seekable">1</property>
    <property name="mlt_service">qimage</property>
    <property name="creation_time">2022-02-22T17:16:54</property>
    <property name="xml">was here</property>
    <property name="shotcut:hash">16f6b0ced41a3f1da996deb983dd0304</property>
  </producer>
  <producer id="producer36" in="00:00:00.000" out="03:59:59.960">
    <property name="length">04:00:00.000</property>
    <property name="eof">pause</property>
    <property name="resource">images/42-simplerminds-dropshadow.png</property>
    <property name="ttl">1</property>
    <property name="aspect_ratio">1</property>
    <property name="progressive">1</property>
    <property name="seekable">1</property>
    <property name="mlt_service">qimage</property>
    <property name="creation_time">2022-02-22T17:21:56</property>
    <property name="xml">was here</property>
    <property name="shotcut:hash">f79168604bb22090316103c9ebffaafc</property>
  </producer>
  <producer id="producer37" in="00:00:00.000" out="03:59:59.960">
    <property name="length">04:00:00.000</property>
    <property name="eof">pause</property>
    <property name="resource">images/43-why_dna-dropshadow.png</property>
    <property name="ttl">1</property>
    <property name="aspect_ratio">1</property>
    <property name="progressive">1</property>
    <property name="seekable">1</property>
    <property name="mlt_service">qimage</property>
    <property name="creation_time">2022-02-22T20:05:48</property>
    <property name="xml">was here</property>
    <property name="shotcut:hash">55f667434b3fc94513966ed694cb1f62</property>
  </producer>
  <producer id="producer38" in="00:00:00.000" out="03:59:59.960">
    <property name="length">04:00:00.000</property>
    <property name="eof">pause</property>
    <property name="resource">images/44-2034-dropshadow.png</property>
    <property name="ttl">1</property>
    <property name="aspect_ratio">1</property>
    <property name="progressive">1</property>
    <property name="seekable">1</property>
    <property name="mlt_service">qimage</property>
    <property name="creation_time">2022-02-22T20:09:57</property>
    <property name="xml">was here</property>
    <property name="shotcut:hash">ed343d8ad4c9e6de5e8739956f9357fe</property>
  </producer>
  <producer id="producer39" in="00:00:00.000" out="03:59:59.960">
    <property name="length">04:00:00.000</property>
    <property name="eof">pause</property>
    <property name="resource">images/45-stubborn-dropshadow.png</property>
    <property name="ttl">1</property>
    <property name="aspect_ratio">1</property>
    <property name="progressive">1</property>
    <property name="seekable">1</property>
    <property name="mlt_service">qimage</property>
    <property name="creation_time">2022-02-22T20:14:24</property>
    <property name="xml">was here</property>
    <property name="shotcut:hash">a9cd99a7ca85866ef359501ac4c0e605</property>
  </producer>
  <producer id="producer40" in="00:00:00.000" out="03:59:59.960">
    <property name="length">04:00:00.000</property>
    <property name="eof">pause</property>
    <property name="resource">images/46-darwins-dropshadow.png</property>
    <property name="ttl">1</property>
    <property name="aspect_ratio">1</property>
    <property name="progressive">1</property>
    <property name="seekable">1</property>
    <property name="mlt_service">qimage</property>
    <property name="creation_time">2022-02-22T20:17:12</property>
    <property name="xml">was here</property>
    <property name="shotcut:hash">5648d7fbb5b6b24cf65b0e23afd9e51a</property>
  </producer>
  <producer id="producer41" in="00:00:00.000" out="03:59:59.960">
    <property name="length">04:00:00.000</property>
    <property name="eof">pause</property>
    <property name="resource">images/47-ravenna-dropshadow.png</property>
    <property name="ttl">1</property>
    <property name="aspect_ratio">1</property>
    <property name="progressive">1</property>
    <property name="seekable">1</property>
    <property name="mlt_service">qimage</property>
    <property name="creation_time">2022-02-22T20:22:12</property>
    <property name="xml">was here</property>
    <property name="shotcut:hash">87adf2d61744debfe85e1791dd417f26</property>
  </producer>
  <producer id="producer42" in="00:00:00.000" out="03:59:59.960">
    <property name="length">04:00:00.000</property>
    <property name="eof">pause</property>
    <property name="resource">images/48-twenty_battles-dropshadow.png</property>
    <property name="ttl">1</property>
    <property name="aspect_ratio">1</property>
    <property name="progressive">1</property>
    <property name="seekable">1</property>
    <property name="mlt_service">qimage</property>
    <property name="creation_time">2022-02-22T20:26:22</property>
    <property name="xml">was here</property>
    <property name="shotcut:hash">00b1e0d6abb0a92b30a55f5a6a930ee9</property>
  </producer>
  <producer id="producer43" in="00:00:00.000" out="03:59:59.960">
    <property name="length">04:00:00.000</property>
    <property name="eof">pause</property>
    <property name="resource">images/49_never_split-dropshadow.png</property>
    <property name="ttl">1</property>
    <property name="aspect_ratio">1</property>
    <property name="progressive">1</property>
    <property name="seekable">1</property>
    <property name="mlt_service">qimage</property>
    <property name="creation_time">2022-02-22T20:28:54</property>
    <property name="xml">was here</property>
    <property name="shotcut:hash">5d2ded35578efa8426b5789ca70d1d70</property>
  </producer>
  <playlist id="main_bin">
    <property name="xml_retain">1</property>
    <entry producer="producer0" in="00:00:00.000" out="00:00:03.960"/>
    <entry producer="chain0" in="00:00:00.000" out="00:00:10.000"/>
    <entry producer="producer1" in="00:00:00.000" out="00:00:03.960"/>
    <entry producer="chain1" in="00:00:00.000" out="00:28:40.680"/>
    <entry producer="chain2" in="00:00:00.000" out="00:28:40.680"/>
    <entry producer="producer2" in="00:00:00.000" out="00:00:03.960"/>
    <entry producer="producer5" in="00:00:00.000" out="00:00:03.960"/>
    <entry producer="producer6" in="00:00:00.000" out="00:00:03.960"/>
    <entry producer="producer7" in="00:00:00.000" out="00:00:03.960"/>
    <entry producer="producer8" in="00:00:00.000" out="00:00:03.960"/>
    <entry producer="producer9" in="00:00:00.000" out="00:00:03.960"/>
    <entry producer="producer10" in="00:00:00.000" out="00:00:03.960"/>
    <entry producer="producer11" in="00:00:00.000" out="00:00:03.960"/>
    <entry producer="producer12" in="00:00:00.000" out="00:00:03.960"/>
    <entry producer="producer13" in="00:00:00.000" out="00:00:03.960"/>
    <entry producer="chain3" in="00:00:00.000" out="00:28:40.680"/>
    <entry producer="producer3" in="00:00:00.000" out="00:00:03.960"/>
    <entry producer="producer4" in="00:00:00.000" out="00:00:03.960"/>
    <entry producer="producer14" in="00:00:00.000" out="00:00:03.960"/>
    <entry producer="producer15" in="00:00:00.000" out="00:00:03.960"/>
    <entry producer="producer16" in="00:00:00.000" out="00:00:03.960"/>
    <entry producer="producer17" in="00:00:00.000" out="00:00:03.960"/>
    <entry producer="chain4" in="00:00:00.000" out="00:00:19.680"/>
    <entry producer="chain5" in="00:00:00.000" out="00:02:22.560"/>
    <entry producer="producer18" in="00:00:00.000" out="00:00:03.960"/>
    <entry producer="producer19" in="00:00:00.000" out="00:00:03.960"/>
    <entry producer="chain6" in="00:00:00.000" out="00:00:04.200"/>
    <entry producer="producer20" in="00:00:00.000" out="00:00:03.960"/>
    <entry producer="chain7" in="00:00:00.000" out="00:00:24.120"/>
    <entry producer="chain8" in="00:00:00.000" out="00:27:12.800"/>
    <entry producer="chain9" in="00:00:00.000" out="00:27:12.800"/>
    <entry producer="chain10" in="00:00:00.000" out="00:27:12.800"/>
    <entry producer="producer21" in="00:00:00.000" out="00:00:03.960"/>
    <entry producer="producer22" in="00:00:00.000" out="00:00:03.960"/>
    <entry producer="producer23" in="00:00:00.000" out="00:00:03.960"/>
    <entry producer="producer24" in="00:00:00.000" out="00:00:03.960"/>
    <entry producer="producer25" in="00:00:00.000" out="00:00:03.960"/>
    <entry producer="producer26" in="00:00:00.000" out="00:00:03.960"/>
    <entry producer="producer27" in="00:00:00.000" out="00:00:03.960"/>
    <entry producer="producer28" in="00:00:00.000" out="00:00:03.960"/>
    <entry producer="producer29" in="00:00:00.000" out="00:00:03.960"/>
    <entry producer="producer30" in="00:00:00.000" out="00:00:03.960"/>
    <entry producer="producer31" in="00:00:00.000" out="00:00:03.960"/>
    <entry producer="chain11" in="00:00:00.000" out="00:00:32.320"/>
    <entry producer="producer32" in="00:00:00.000" out="00:00:03.960"/>
    <entry producer="producer33" in="00:00:00.000" out="00:00:03.960"/>
    <entry producer="chain12" in="00:00:00.000" out="00:00:05.040"/>
    <entry producer="producer34" in="00:00:00.000" out="00:00:03.960"/>
    <entry producer="producer35" in="00:00:00.000" out="00:00:03.960"/>
    <entry producer="producer36" in="00:00:00.000" out="00:00:03.960"/>
    <entry producer="producer37" in="00:00:00.000" out="00:00:03.960"/>
    <entry producer="producer38" in="00:00:00.000" out="00:00:03.960"/>
    <entry producer="producer39" in="00:00:00.000" out="00:00:03.960"/>
    <entry producer="producer40" in="00:00:00.000" out="00:00:03.960"/>
    <entry producer="producer41" in="00:00:00.000" out="00:00:03.960"/>
    <entry producer="producer42" in="00:00:00.000" out="00:00:03.960"/>
    <entry producer="producer43" in="00:00:00.000" out="00:00:03.960"/>
  </playlist>
  <producer id="black" in="00:00:00.000" out="01:32:58.720">
    <property name="length">01:32:58.760</property>
    <property name="eof">pause</property>
    <property name="resource">0</property>
    <property name="aspect_ratio">1</property>
    <property name="mlt_service">color</property>
    <property name="mlt_image_format">rgba</property>
    <property name="set.test_audio">0</property>
  </producer>
  <playlist id="background">
    <entry producer="black" in="00:00:00.000" out="01:32:58.720"/>
  </playlist>
  <chain id="chain13" out="00:28:40.680">
    <property name="length">00:28:40.720</property>
    <property name="eof">pause</property>
    <property name="resource">/home/dimitry/Desktop/seatle/part_1/audioVasileiosTzioka21845451950.m4a</property>
    <property name="mlt_service">avformat-novalidate</property>
    <property name="seekable">1</property>
    <property name="audio_index">0</property>
    <property name="video_index">-1</property>
    <property name="mute_on_pause">0</property>
    <property name="xml">was here</property>
    <property name="shotcut:hash">7a553457649016a0984d43bae6fa3a1d</property>
    <property name="shotcut:caption">audioVasileiosTzioka21845451950.m4a</property>
  </chain>
  <chain id="chain14" out="00:28:40.680">
    <property name="length">00:28:40.720</property>
    <property name="eof">pause</property>
    <property name="resource">/home/dimitry/Desktop/seatle/part_1/audioVasileiosTzioka21845451950.m4a</property>
    <property name="mlt_service">avformat-novalidate</property>
    <property name="seekable">1</property>
    <property name="audio_index">0</property>
    <property name="video_index">-1</property>
    <property name="mute_on_pause">0</property>
    <property name="xml">was here</property>
    <property name="shotcut:hash">7a553457649016a0984d43bae6fa3a1d</property>
    <property name="shotcut:caption">audioVasileiosTzioka21845451950.m4a</property>
    <filter id="filter1" in="00:02:42.360" out="00:02:43.320">
      <property name="window">75</property>
      <property name="max_gain">20dB</property>
      <property name="level">-42.6</property>
      <property name="mlt_service">volume</property>
    </filter>
  </chain>
  <chain id="chain15" out="00:28:40.680">
    <property name="length">00:28:40.720</property>
    <property name="eof">pause</property>
    <property name="resource">/home/dimitry/Desktop/seatle/part_1/audioVasileiosTzioka21845451950.m4a</property>
    <property name="mlt_service">avformat-novalidate</property>
    <property name="seekable">1</property>
    <property name="audio_index">0</property>
    <property name="video_index">-1</property>
    <property name="mute_on_pause">0</property>
    <property name="xml">was here</property>
    <property name="shotcut:hash">7a553457649016a0984d43bae6fa3a1d</property>
    <property name="shotcut:caption">audioVasileiosTzioka21845451950.m4a</property>
  </chain>
  <chain id="chain16" out="00:28:40.680">
    <property name="length">00:28:40.720</property>
    <property name="eof">pause</property>
    <property name="resource">/home/dimitry/Desktop/seatle/part_1/audioVasileiosTzioka21845451950.m4a</property>
    <property name="mlt_service">avformat-novalidate</property>
    <property name="seekable">1</property>
    <property name="audio_index">0</property>
    <property name="video_index">-1</property>
    <property name="mute_on_pause">0</property>
    <property name="xml">was here</property>
    <property name="shotcut:hash">7a553457649016a0984d43bae6fa3a1d</property>
    <property name="shotcut:caption">audioVasileiosTzioka21845451950.m4a</property>
    <filter id="filter2" in="00:03:42.920" out="00:03:43.280">
      <property name="window">75</property>
      <property name="max_gain">20dB</property>
      <property name="level">-38.8</property>
      <property name="mlt_service">volume</property>
    </filter>
  </chain>
  <chain id="chain17" out="00:28:40.680">
    <property name="length">00:28:40.720</property>
    <property name="eof">pause</property>
    <property name="resource">/home/dimitry/Desktop/seatle/part_1/audioVasileiosTzioka21845451950.m4a</property>
    <property name="mlt_service">avformat-novalidate</property>
    <property name="seekable">1</property>
    <property name="audio_index">0</property>
    <property name="video_index">-1</property>
    <property name="mute_on_pause">0</property>
    <property name="xml">was here</property>
    <property name="shotcut:hash">7a553457649016a0984d43bae6fa3a1d</property>
    <property name="shotcut:caption">audioVasileiosTzioka21845451950.m4a</property>
  </chain>
  <chain id="chain18" out="00:28:40.680">
    <property name="length">00:28:40.720</property>
    <property name="eof">pause</property>
    <property name="resource">/home/dimitry/Desktop/seatle/part_1/audioVasileiosTzioka21845451950.m4a</property>
    <property name="mlt_service">avformat-novalidate</property>
    <property name="seekable">1</property>
    <property name="audio_index">0</property>
    <property name="video_index">-1</property>
    <property name="mute_on_pause">0</property>
    <property name="xml">was here</property>
    <property name="shotcut:hash">7a553457649016a0984d43bae6fa3a1d</property>
    <property name="shotcut:caption">audioVasileiosTzioka21845451950.m4a</property>
    <filter id="filter3" in="00:27:10.560" out="00:27:12.560">
      <property name="window">75</property>
      <property name="max_gain">20dB</property>
      <property name="level">-29.9</property>
      <property name="mlt_service">volume</property>
    </filter>
  </chain>
  <chain id="chain19" out="00:28:40.680">
    <property name="length">00:28:40.720</property>
    <property name="eof">pause</property>
    <property name="resource">/home/dimitry/Desktop/seatle/part_1/audioVasileiosTzioka21845451950.m4a</property>
    <property name="mlt_service">avformat-novalidate</property>
    <property name="seekable">1</property>
    <property name="audio_index">0</property>
    <property name="video_index">-1</property>
    <property name="mute_on_pause">0</property>
    <property name="xml">was here</property>
    <property name="shotcut:hash">7a553457649016a0984d43bae6fa3a1d</property>
    <property name="shotcut:caption">audioVasileiosTzioka21845451950.m4a</property>
  </chain>
  <chain id="chain20" out="00:28:40.680">
    <property name="length">00:28:40.720</property>
    <property name="eof">pause</property>
    <property name="resource">/home/dimitry/Desktop/seatle/part_1/audioVasileiosTzioka21845451950.m4a</property>
    <property name="mlt_service">avformat-novalidate</property>
    <property name="seekable">1</property>
    <property name="audio_index">0</property>
    <property name="video_index">-1</property>
    <property name="mute_on_pause">0</property>
    <property name="xml">was here</property>
    <property name="shotcut:hash">7a553457649016a0984d43bae6fa3a1d</property>
    <property name="shotcut:caption">audioVasileiosTzioka21845451950.m4a</property>
    <filter id="filter4" in="00:27:17.040" out="00:27:19.800">
      <property name="window">75</property>
      <property name="max_gain">20dB</property>
      <property name="level">-38.2</property>
      <property name="mlt_service">volume</property>
    </filter>
  </chain>
  <chain id="chain21" out="00:28:40.680">
    <property name="length">00:28:40.720</property>
    <property name="eof">pause</property>
    <property name="resource">/home/dimitry/Desktop/seatle/part_1/audioVasileiosTzioka21845451950.m4a</property>
    <property name="mlt_service">avformat-novalidate</property>
    <property name="seekable">1</property>
    <property name="audio_index">0</property>
    <property name="video_index">-1</property>
    <property name="mute_on_pause">0</property>
    <property name="xml">was here</property>
    <property name="shotcut:hash">7a553457649016a0984d43bae6fa3a1d</property>
    <property name="shotcut:caption">audioVasileiosTzioka21845451950.m4a</property>
  </chain>
  <playlist id="playlist0">
    <property name="shotcut:audio">1</property>
    <property name="shotcut:name">Audio-Guest</property>
    <blank length="00:00:10.040"/>
    <entry producer="chain13" in="00:01:12.200" out="00:02:42.320"/>
    <entry producer="chain14" in="00:02:42.360" out="00:02:43.320"/>
    <entry producer="chain15" in="00:02:43.360" out="00:03:42.880"/>
    <entry producer="chain16" in="00:03:42.920" out="00:03:43.280"/>
    <entry producer="chain17" in="00:03:43.320" out="00:27:10.520"/>
    <entry producer="chain18" in="00:27:10.560" out="00:27:12.560"/>
    <entry producer="chain19" in="00:27:12.600" out="00:27:17.000"/>
    <entry producer="chain20" in="00:27:17.040" out="00:27:19.800"/>
    <entry producer="chain21" in="00:27:19.840" out="00:28:34.720"/>
  </playlist>
  <chain id="chain22" out="00:28:40.680">
    <property name="length">00:28:40.720</property>
    <property name="eof">pause</property>
    <property name="resource">/home/dimitry/Desktop/seatle/part_1/audioDimitriosMistri11845451950.m4a</property>
    <property name="mlt_service">avformat-novalidate</property>
    <property name="seekable">1</property>
    <property name="audio_index">0</property>
    <property name="video_index">-1</property>
    <property name="mute_on_pause">0</property>
    <property name="xml">was here</property>
    <property name="shotcut:hash">c07698cc53ccb3097653f6505f2a4b20</property>
    <property name="shotcut:caption">audioDimitriosMistri11845451950.m4a</property>
  </chain>
  <chain id="chain23" out="00:28:40.680">
    <property name="length">00:28:40.720</property>
    <property name="eof">pause</property>
    <property name="resource">/home/dimitry/Desktop/seatle/part_1/audioDimitriosMistri11845451950.m4a</property>
    <property name="mlt_service">avformat-novalidate</property>
    <property name="seekable">1</property>
    <property name="audio_index">0</property>
    <property name="video_index">-1</property>
    <property name="mute_on_pause">0</property>
    <property name="xml">was here</property>
    <property name="shotcut:hash">c07698cc53ccb3097653f6505f2a4b20</property>
    <property name="shotcut:caption">audioDimitriosMistri11845451950.m4a</property>
    <filter id="filter5" in="00:01:29.160" out="00:01:29.720">
      <property name="window">75</property>
      <property name="max_gain">20dB</property>
      <property name="level">-58.2</property>
      <property name="mlt_service">volume</property>
    </filter>
  </chain>
  <chain id="chain24" out="00:28:40.680">
    <property name="length">00:28:40.720</property>
    <property name="eof">pause</property>
    <property name="resource">/home/dimitry/Desktop/seatle/part_1/audioDimitriosMistri11845451950.m4a</property>
    <property name="mlt_service">avformat-novalidate</property>
    <property name="seekable">1</property>
    <property name="audio_index">0</property>
    <property name="video_index">-1</property>
    <property name="mute_on_pause">0</property>
    <property name="xml">was here</property>
    <property name="shotcut:hash">c07698cc53ccb3097653f6505f2a4b20</property>
    <property name="shotcut:caption">audioDimitriosMistri11845451950.m4a</property>
  </chain>
  <chain id="chain25" out="00:28:40.680">
    <property name="length">00:28:40.720</property>
    <property name="eof">pause</property>
    <property name="resource">/home/dimitry/Desktop/seatle/part_1/audioDimitriosMistri11845451950.m4a</property>
    <property name="mlt_service">avformat-novalidate</property>
    <property name="seekable">1</property>
    <property name="audio_index">0</property>
    <property name="video_index">-1</property>
    <property name="mute_on_pause">0</property>
    <property name="xml">was here</property>
    <property name="shotcut:hash">c07698cc53ccb3097653f6505f2a4b20</property>
    <property name="shotcut:caption">audioDimitriosMistri11845451950.m4a</property>
    <filter id="filter6" in="00:02:36.960" out="00:02:43.240">
      <property name="window">75</property>
      <property name="max_gain">20dB</property>
      <property name="level">-52.1</property>
      <property name="mlt_service">volume</property>
    </filter>
  </chain>
  <chain id="chain26" out="00:28:40.680">
    <property name="length">00:28:40.720</property>
    <property name="eof">pause</property>
    <property name="resource">/home/dimitry/Desktop/seatle/part_1/audioDimitriosMistri11845451950.m4a</property>
    <property name="mlt_service">avformat-novalidate</property>
    <property name="seekable">1</property>
    <property name="audio_index">0</property>
    <property name="video_index">-1</property>
    <property name="mute_on_pause">0</property>
    <property name="xml">was here</property>
    <property name="shotcut:hash">c07698cc53ccb3097653f6505f2a4b20</property>
    <property name="shotcut:caption">audioDimitriosMistri11845451950.m4a</property>
  </chain>
  <chain id="chain27" out="00:28:40.680">
    <property name="length">00:28:40.720</property>
    <property name="eof">pause</property>
    <property name="resource">/home/dimitry/Desktop/seatle/part_1/audioDimitriosMistri11845451950.m4a</property>
    <property name="mlt_service">avformat-novalidate</property>
    <property name="seekable">1</property>
    <property name="audio_index">0</property>
    <property name="video_index">-1</property>
    <property name="mute_on_pause">0</property>
    <property name="xml">was here</property>
    <property name="shotcut:hash">c07698cc53ccb3097653f6505f2a4b20</property>
    <property name="shotcut:caption">audioDimitriosMistri11845451950.m4a</property>
    <filter id="filter7" in="00:17:22.720" out="00:18:16.720">
      <property name="window">75</property>
      <property name="max_gain">20dB</property>
      <property name="level">9.5</property>
      <property name="mlt_service">volume</property>
    </filter>
  </chain>
  <chain id="chain28" out="00:28:40.680">
    <property name="length">00:28:40.720</property>
    <property name="eof">pause</property>
    <property name="resource">/home/dimitry/Desktop/seatle/part_1/audioDimitriosMistri11845451950.m4a</property>
    <property name="mlt_service">avformat-novalidate</property>
    <property name="seekable">1</property>
    <property name="audio_index">0</property>
    <property name="video_index">-1</property>
    <property name="mute_on_pause">0</property>
    <property name="xml">was here</property>
    <property name="shotcut:hash">c07698cc53ccb3097653f6505f2a4b20</property>
    <property name="shotcut:caption">audioDimitriosMistri11845451950.m4a</property>
    <filter id="filter8" in="00:18:16.760" out="00:28:34.720">
      <property name="window">75</property>
      <property name="max_gain">20dB</property>
      <property name="level">9.5</property>
      <property name="mlt_service">volume</property>
    </filter>
  </chain>
  <chain id="chain29" out="00:27:12.800">
    <property name="length">00:27:12.840</property>
    <property name="eof">pause</property>
    <property name="resource">/home/dimitry/Desktop/seatle/part_2/audioVasileiosTzioka21650137169.m4a</property>
    <property name="mlt_service">avformat-novalidate</property>
    <property name="seekable">1</property>
    <property name="audio_index">0</property>
    <property name="video_index">-1</property>
    <property name="mute_on_pause">0</property>
    <property name="xml">was here</property>
    <property name="shotcut:hash">e93e472d2036e37e0c811cf84864002d</property>
    <property name="shotcut:caption">audioVasileiosTzioka21650137169.m4a</property>
  </chain>
  <chain id="chain30" out="00:37:49.960">
    <property name="length">00:37:50.000</property>
    <property name="eof">pause</property>
    <property name="resource">/home/dimitry/Desktop/seatle/part_3/audioVasileiosTzioka21543416247.m4a</property>
    <property name="mlt_service">avformat-novalidate</property>
    <property name="seekable">1</property>
    <property name="audio_index">0</property>
    <property name="video_index">-1</property>
    <property name="mute_on_pause">0</property>
    <property name="shotcut:hash">f35569663539443c0a7d0d1e4258210d</property>
    <property name="shotcut:caption">audioVasileiosTzioka21543416247.m4a</property>
    <property name="xml">was here</property>
  </chain>
  <playlist id="playlist1">
    <property name="shotcut:audio">1</property>
    <property name="shotcut:name">Audio-Host</property>
    <blank length="00:00:10.040"/>
    <entry producer="chain22" in="00:01:12.200" out="00:01:29.120"/>
    <entry producer="chain23" in="00:01:29.160" out="00:01:29.720"/>
    <entry producer="chain24" in="00:01:29.760" out="00:02:36.920"/>
    <entry producer="chain25" in="00:02:36.960" out="00:02:43.240"/>
    <entry producer="chain26" in="00:02:43.280" out="00:17:22.680"/>
    <entry producer="chain27" in="00:17:22.720" out="00:18:16.720"/>
    <entry producer="chain28" in="00:18:16.760" out="00:28:34.720"/>
    <blank length="00:00:24.560"/>
    <entry producer="chain29" in="00:00:36.120" out="00:26:57.120"/>
    <blank length="00:00:32.760"/>
    <entry producer="chain30" in="00:00:17.120" out="00:37:49.960"/>
  </playlist>
  <chain id="chain31" out="00:00:10.000">
    <property name="length">00:00:10.040</property>
    <property name="eof">pause</property>
    <property name="resource">/home/dimitry/fetareport/feta-intro.m4a</property>
    <property name="mlt_service">avformat-novalidate</property>
    <property name="seekable">1</property>
    <property name="audio_index">0</property>
    <property name="video_index">-1</property>
    <property name="mute_on_pause">0</property>
    <property name="xml">was here</property>
    <property name="shotcut:hash">b38f3110177feed9f9d7d6f4a876dc9a</property>
    <property name="shotcut:caption">feta-intro.m4a</property>
  </chain>
  <chain id="chain32" out="00:27:12.800">
    <property name="length">00:27:12.840</property>
    <property name="eof">pause</property>
    <property name="resource">/home/dimitry/Desktop/seatle/part_2/audioDimitriosMistri11650137169.m4a</property>
    <property name="mlt_service">avformat-novalidate</property>
    <property name="seekable">1</property>
    <property name="audio_index">0</property>
    <property name="video_index">-1</property>
    <property name="mute_on_pause">0</property>
    <property name="xml">was here</property>
    <property name="shotcut:hash">54430b0bfe23e60c25063428fea33322</property>
    <property name="shotcut:caption">audioDimitriosMistri11650137169.m4a</property>
    <filter id="filter9" in="00:00:36.120" out="00:26:57.120">
      <property name="window">75</property>
      <property name="max_gain">20dB</property>
      <property name="level">4.4</property>
      <property name="mlt_service">volume</property>
    </filter>
  </chain>
  <chain id="chain33" out="00:37:49.960">
    <property name="length">00:37:50.000</property>
    <property name="eof">pause</property>
    <property name="resource">/home/dimitry/Desktop/seatle/part_3/audioDimitriosMistri11543416247.m4a</property>
    <property name="mlt_service">avformat-novalidate</property>
    <property name="seekable">1</property>
    <property name="audio_index">0</property>
    <property name="video_index">-1</property>
    <property name="mute_on_pause">0</property>
    <property name="shotcut:hash">dffe76a609d4ba56bc75683b72c85cfe</property>
    <property name="shotcut:caption">audioDimitriosMistri11543416247.m4a</property>
    <property name="xml">was here</property>
    <filter id="filter10" in="00:00:17.120" out="00:37:49.960">
      <property name="window">75</property>
      <property name="max_gain">20dB</property>
      <property name="level">4.4</property>
      <property name="mlt_service">volume</property>
    </filter>
  </chain>
  <playlist id="playlist2">
    <property name="shotcut:audio">1</property>
    <property name="shotcut:name">Audio-intro</property>
    <entry producer="chain31" in="00:00:00.000" out="00:00:10.000"/>
    <blank length="00:27:47.120"/>
    <entry producer="chain32" in="00:00:36.120" out="00:26:57.120"/>
    <blank length="00:00:32.760"/>
    <entry producer="chain33" in="00:00:17.120" out="00:37:49.960"/>
  </playlist>
  <producer id="producer44" in="00:00:00.000" out="03:59:59.960">
    <property name="length">04:00:00.000</property>
    <property name="eof">pause</property>
    <property name="resource">images/01-pexels-josh-fields-3964406.jpg</property>
    <property name="ttl">1</property>
    <property name="aspect_ratio">1</property>
    <property name="progressive">1</property>
    <property name="seekable">1</property>
    <property name="mlt_service">qimage</property>
    <property name="creation_time">2022-02-18T16:11:10</property>
    <property name="shotcut:hash">88891f65a9567b52c3a369a7fcd98ed3</property>
    <property name="shotcut:caption">01-pexels-josh-fields-3964406.jpg</property>
    <property name="xml">was here</property>
  </producer>
  <producer id="producer45" in="00:00:00.000" out="03:59:59.960">
    <property name="length">04:00:00.000</property>
    <property name="eof">pause</property>
    <property name="resource">images/02-pexels-chait-goli-1796730.jpg</property>
    <property name="ttl">1</property>
    <property name="aspect_ratio">1</property>
    <property name="progressive">1</property>
    <property name="seekable">1</property>
    <property name="mlt_service">qimage</property>
    <property name="creation_time">2022-02-18T17:00:58</property>
    <property name="xml">was here</property>
    <property name="shotcut:hash">fada821995e98912d511dc6b5f934918</property>
    <property name="shotcut:caption">02-pexels-chait-goli-1796730.jpg</property>
  </producer>
  <tractor id="tractor0" in="00:00:00.000" out="00:00:05.320">
    <property name="shotcut:transition">lumaMix</property>
    <track producer="producer44" in="00:03:09.720" out="00:03:15.040"/>
    <track producer="producer45" in="00:00:00.000" out="00:00:05.320"/>
    <transition id="transition0" out="00:00:05.320">
      <property name="a_track">0</property>
      <property name="b_track">1</property>
      <property name="factory">loader</property>
      <property name="mlt_service">luma</property>
      <property name="alpha_over">1</property>
    </transition>
    <transition id="transition1" out="00:00:05.320">
      <property name="a_track">0</property>
      <property name="b_track">1</property>
      <property name="mlt_service">mix</property>
      <property name="start">-1</property>
      <property name="accepts_blanks">1</property>
    </transition>
  </tractor>
  <producer id="producer46" in="00:00:00.000" out="03:59:59.960">
    <property name="length">04:00:00.000</property>
    <property name="eof">pause</property>
    <property name="resource">images/03-pexels-fernando-reyes-6402958.jpg</property>
    <property name="ttl">1</property>
    <property name="aspect_ratio">1</property>
    <property name="progressive">1</property>
    <property name="seekable">1</property>
    <property name="mlt_service">qimage</property>
    <property name="creation_time">2022-02-21T12:02:35</property>
    <property name="xml">was here</property>
    <property name="shotcut:hash">ec15313bf3d5937578eeb75315ec43db</property>
    <property name="shotcut:caption">03-pexels-fernando-reyes-6402958.jpg</property>
  </producer>
  <tractor id="tractor1" in="00:00:00.000" out="00:00:03.760">
    <property name="shotcut:transition">lumaMix</property>
    <track producer="producer45" in="00:03:03.280" out="00:03:07.040"/>
    <track producer="producer46" in="00:00:00.000" out="00:00:03.760"/>
    <transition id="transition2" out="00:00:03.760">
      <property name="a_track">0</property>
      <property name="b_track">1</property>
      <property name="factory">loader</property>
      <property name="mlt_service">luma</property>
      <property name="alpha_over">1</property>
    </transition>
    <transition id="transition3" out="00:00:03.760">
      <property name="a_track">0</property>
      <property name="b_track">1</property>
      <property name="mlt_service">mix</property>
      <property name="start">-1</property>
      <property name="accepts_blanks">1</property>
    </transition>
  </tractor>
  <producer id="producer47" in="00:00:00.000" out="03:59:59.960">
    <property name="length">04:00:00.000</property>
    <property name="eof">pause</property>
    <property name="resource">images/04-pexels-georgie-devlin-8615702.jpg</property>
    <property name="ttl">1</property>
    <property name="aspect_ratio">1</property>
    <property name="progressive">1</property>
    <property name="seekable">1</property>
    <property name="mlt_service">qimage</property>
    <property name="creation_time">2022-02-21T12:01:10</property>
    <property name="xml">was here</property>
    <property name="shotcut:hash">675c1383bd62132eea8034a91e3ac29a</property>
    <property name="shotcut:caption">04-pexels-georgie-devlin-8615702.jpg</property>
  </producer>
  <tractor id="tractor2" in="00:00:00.000" out="00:00:04.880">
    <property name="shotcut:transition">lumaMix</property>
    <track producer="producer46" in="00:03:01.240" out="00:03:06.120"/>
    <track producer="producer47" in="00:00:00.000" out="00:00:04.880"/>
    <transition id="transition4" out="00:00:04.880">
      <property name="a_track">0</property>
      <property name="b_track">1</property>
      <property name="factory">loader</property>
      <property name="mlt_service">luma</property>
      <property name="alpha_over">1</property>
    </transition>
    <transition id="transition5" out="00:00:04.880">
      <property name="a_track">0</property>
      <property name="b_track">1</property>
      <property name="mlt_service">mix</property>
      <property name="start">-1</property>
      <property name="accepts_blanks">1</property>
    </transition>
  </tractor>
  <producer id="producer48" in="00:00:00.000" out="03:59:59.960">
    <property name="length">04:00:00.000</property>
    <property name="eof">pause</property>
    <property name="resource">images/05-pexels-jeff-boyce-6817987.jpg</property>
    <property name="ttl">1</property>
    <property name="aspect_ratio">1</property>
    <property name="progressive">1</property>
    <property name="seekable">1</property>
    <property name="mlt_service">qimage</property>
    <property name="creation_time">2022-02-21T12:04:03</property>
    <property name="xml">was here</property>
    <property name="shotcut:hash">02a0003671864423e724f9a08f3f43fc</property>
    <property name="shotcut:caption">05-pexels-jeff-boyce-6817987.jpg</property>
  </producer>
  <tractor id="tractor3" in="00:00:00.000" out="00:00:05.080">
    <property name="shotcut:transition">lumaMix</property>
    <track producer="producer47" in="00:03:02.240" out="00:03:07.320"/>
    <track producer="producer48" in="00:00:00.000" out="00:00:05.080"/>
    <transition id="transition6" out="00:00:05.080">
      <property name="a_track">0</property>
      <property name="b_track">1</property>
      <property name="factory">loader</property>
      <property name="mlt_service">luma</property>
      <property name="alpha_over">1</property>
    </transition>
    <transition id="transition7" out="00:00:05.080">
      <property name="a_track">0</property>
      <property name="b_track">1</property>
      <property name="mlt_service">mix</property>
      <property name="start">-1</property>
      <property name="accepts_blanks">1</property>
    </transition>
  </tractor>
  <producer id="producer49" in="00:00:00.000" out="03:59:59.960">
    <property name="length">04:00:00.000</property>
    <property name="eof">pause</property>
    <property name="resource">images/07-pexels-aidan-roof-8930335.jpg</property>
    <property name="ttl">1</property>
    <property name="aspect_ratio">1</property>
    <property name="progressive">1</property>
    <property name="seekable">1</property>
    <property name="mlt_service">qimage</property>
    <property name="creation_time">2022-02-21T12:06:35</property>
    <property name="xml">was here</property>
    <property name="shotcut:hash">4b18bb120eabaa3cfb099de4feef54bc</property>
    <property name="shotcut:caption">07-pexels-aidan-roof-8930335.jpg</property>
  </producer>
  <tractor id="tractor4" in="00:00:00.000" out="00:00:04.880">
    <property name="shotcut:transition">lumaMix</property>
    <track producer="producer48" in="00:03:02.440" out="00:03:07.320"/>
    <track producer="producer49" in="00:00:00.000" out="00:00:04.880"/>
    <transition id="transition8" out="00:00:04.880">
      <property name="a_track">0</property>
      <property name="b_track">1</property>
      <property name="factory">loader</property>
      <property name="mlt_service">luma</property>
      <property name="alpha_over">1</property>
    </transition>
    <transition id="transition9" out="00:00:04.880">
      <property name="a_track">0</property>
      <property name="b_track">1</property>
      <property name="mlt_service">mix</property>
      <property name="start">-1</property>
      <property name="accepts_blanks">1</property>
    </transition>
  </tractor>
  <producer id="producer50" in="00:00:00.000" out="03:59:59.960">
    <property name="length">04:00:00.000</property>
    <property name="eof">pause</property>
    <property name="resource">images/08-pexels-lisha-riabinina-37486.jpg</property>
    <property name="ttl">1</property>
    <property name="aspect_ratio">1</property>
    <property name="progressive">1</property>
    <property name="seekable">1</property>
    <property name="mlt_service">qimage</property>
    <property name="creation_time">2022-02-21T12:07:26</property>
    <property name="xml">was here</property>
    <property name="shotcut:hash">e9e7aab52b51628d1d45cfa04db3d62a</property>
    <property name="shotcut:caption">08-pexels-lisha-riabinina-37486.jpg</property>
  </producer>
  <tractor id="tractor5" in="00:00:00.000" out="00:00:04.760">
    <property name="shotcut:transition">lumaMix</property>
    <track producer="producer49" in="00:03:01.880" out="00:03:06.640"/>
    <track producer="producer50" in="00:00:00.000" out="00:00:04.760"/>
    <transition id="transition10" out="00:00:04.760">
      <property name="a_track">0</property>
      <property name="b_track">1</property>
      <property name="factory">loader</property>
      <property name="mlt_service">luma</property>
      <property name="alpha_over">1</property>
    </transition>
    <transition id="transition11" out="00:00:04.760">
      <property name="a_track">0</property>
      <property name="b_track">1</property>
      <property name="mlt_service">mix</property>
      <property name="start">-1</property>
      <property name="accepts_blanks">1</property>
    </transition>
  </tractor>
  <producer id="producer51" in="00:00:00.000" out="03:59:59.960">
    <property name="length">04:00:00.000</property>
    <property name="eof">pause</property>
    <property name="resource">images/09-pexels-luke-hutcheson-8148630.jpg</property>
    <property name="ttl">1</property>
    <property name="aspect_ratio">1</property>
    <property name="progressive">1</property>
    <property name="seekable">1</property>
    <property name="mlt_service">qimage</property>
    <property name="creation_time">2022-02-21T12:08:05</property>
    <property name="xml">was here</property>
    <property name="shotcut:hash">5b162dba957b2f971d96a4dd2221fdce</property>
    <property name="shotcut:caption">09-pexels-luke-hutcheson-8148630.jpg</property>
  </producer>
  <tractor id="tractor6" in="00:00:00.000" out="00:00:03.960">
    <property name="shotcut:transition">lumaMix</property>
    <track producer="producer50" in="00:03:02.960" out="00:03:06.920"/>
    <track producer="producer51" in="00:00:00.000" out="00:00:03.960"/>
    <transition id="transition12" out="00:00:03.960">
      <property name="a_track">0</property>
      <property name="b_track">1</property>
      <property name="factory">loader</property>
      <property name="mlt_service">luma</property>
      <property name="alpha_over">1</property>
    </transition>
    <transition id="transition13" out="00:00:03.960">
      <property name="a_track">0</property>
      <property name="b_track">1</property>
      <property name="mlt_service">mix</property>
      <property name="start">-1</property>
      <property name="accepts_blanks">1</property>
    </transition>
  </tractor>
  <producer id="producer52" in="00:00:00.000" out="03:59:59.960">
    <property name="length">04:00:00.000</property>
    <property name="eof">pause</property>
    <property name="resource">images/10-pexels-tara-nix-5898966.jpg</property>
    <property name="ttl">1</property>
    <property name="aspect_ratio">1</property>
    <property name="progressive">1</property>
    <property name="seekable">1</property>
    <property name="mlt_service">qimage</property>
    <property name="creation_time">2022-02-21T12:09:11</property>
    <property name="xml">was here</property>
    <property name="shotcut:hash">f142ae0364606b5bd099cff1a5490938</property>
    <property name="shotcut:caption">10-pexels-tara-nix-5898966.jpg</property>
  </producer>
  <tractor id="tractor7" in="00:00:00.000" out="00:00:04.480">
    <property name="shotcut:transition">lumaMix</property>
    <track producer="producer51" in="00:03:02.440" out="00:03:06.920"/>
    <track producer="producer52" in="00:00:00.000" out="00:00:04.480"/>
    <transition id="transition14" out="00:00:04.480">
      <property name="a_track">0</property>
      <property name="b_track">1</property>
      <property name="factory">loader</property>
      <property name="mlt_service">luma</property>
      <property name="alpha_over">1</property>
    </transition>
    <transition id="transition15" out="00:00:04.480">
      <property name="a_track">0</property>
      <property name="b_track">1</property>
      <property name="mlt_service">mix</property>
      <property name="start">-1</property>
      <property name="accepts_blanks">1</property>
    </transition>
  </tractor>
  <producer id="producer53" in="00:00:00.000" out="03:59:59.960">
    <property name="length">04:00:00.000</property>
    <property name="eof">pause</property>
    <property name="resource">images/01-pexels-josh-fields-3964406.jpg</property>
    <property name="ttl">1</property>
    <property name="aspect_ratio">1</property>
    <property name="progressive">1</property>
    <property name="seekable">1</property>
    <property name="mlt_service">qimage</property>
    <property name="creation_time">2022-02-18T16:11:10</property>
    <property name="xml">was here</property>
    <property name="shotcut:hash">88891f65a9567b52c3a369a7fcd98ed3</property>
    <property name="shotcut:caption">01-pexels-josh-fields-3964406.jpg</property>
  </producer>
  <producer id="producer54" in="00:00:00.000" out="03:59:59.960">
    <property name="length">04:00:00.000</property>
    <property name="eof">pause</property>
    <property name="resource">images/02-pexels-chait-goli-1796730.jpg</property>
    <property name="ttl">1</property>
    <property name="aspect_ratio">1</property>
    <property name="progressive">1</property>
    <property name="seekable">1</property>
    <property name="mlt_service">qimage</property>
    <property name="creation_time">2022-02-18T17:00:58</property>
    <property name="xml">was here</property>
    <property name="shotcut:hash">fada821995e98912d511dc6b5f934918</property>
    <property name="shotcut:caption">02-pexels-chait-goli-1796730.jpg</property>
  </producer>
  <tractor id="tractor8" in="00:00:00.000" out="00:00:08.400">
    <property name="shotcut:transition">lumaMix</property>
    <track producer="producer53" in="00:03:29.640" out="00:03:38.040"/>
    <track producer="producer54" in="00:00:00.000" out="00:00:08.400"/>
    <transition id="transition16" out="00:00:08.400">
      <property name="a_track">0</property>
      <property name="b_track">1</property>
      <property name="factory">loader</property>
      <property name="mlt_service">luma</property>
      <property name="alpha_over">1</property>
    </transition>
    <transition id="transition17" out="00:00:08.400">
      <property name="a_track">0</property>
      <property name="b_track">1</property>
      <property name="mlt_service">mix</property>
      <property name="start">-1</property>
      <property name="accepts_blanks">1</property>
    </transition>
  </tractor>
  <producer id="producer55" in="00:00:00.000" out="03:59:59.960">
    <property name="length">04:00:00.000</property>
    <property name="eof">pause</property>
    <property name="resource">images/03-pexels-fernando-reyes-6402958.jpg</property>
    <property name="ttl">1</property>
    <property name="aspect_ratio">1</property>
    <property name="progressive">1</property>
    <property name="seekable">1</property>
    <property name="mlt_service">qimage</property>
    <property name="creation_time">2022-02-21T12:02:35</property>
    <property name="xml">was here</property>
    <property name="shotcut:hash">ec15313bf3d5937578eeb75315ec43db</property>
    <property name="shotcut:caption">03-pexels-fernando-reyes-6402958.jpg</property>
  </producer>
  <tractor id="tractor9" in="00:00:00.000" out="00:00:09.720">
    <property name="shotcut:transition">lumaMix</property>
    <track producer="producer54" in="00:03:01.640" out="00:03:11.360"/>
    <track producer="producer55" in="00:00:00.000" out="00:00:09.720"/>
    <transition id="transition18" out="00:00:09.720">
      <property name="a_track">0</property>
      <property name="b_track">1</property>
      <property name="factory">loader</property>
      <property name="mlt_service">luma</property>
      <property name="alpha_over">1</property>
    </transition>
    <transition id="transition19" out="00:00:09.720">
      <property name="a_track">0</property>
      <property name="b_track">1</property>
      <property name="mlt_service">mix</property>
      <property name="start">-1</property>
      <property name="accepts_blanks">1</property>
    </transition>
  </tractor>
  <producer id="producer56" in="00:00:00.000" out="03:59:59.960">
    <property name="length">04:00:00.000</property>
    <property name="eof">pause</property>
    <property name="resource">images/04-pexels-georgie-devlin-8615702.jpg</property>
    <property name="ttl">1</property>
    <property name="aspect_ratio">1</property>
    <property name="progressive">1</property>
    <property name="seekable">1</property>
    <property name="mlt_service">qimage</property>
    <property name="creation_time">2022-02-21T12:01:10</property>
    <property name="xml">was here</property>
    <property name="shotcut:hash">675c1383bd62132eea8034a91e3ac29a</property>
    <property name="shotcut:caption">04-pexels-georgie-devlin-8615702.jpg</property>
  </producer>
  <tractor id="tractor10" in="00:00:00.000" out="00:00:08.800">
    <property name="shotcut:transition">lumaMix</property>
    <track producer="producer55" in="00:03:03.400" out="00:03:12.200"/>
    <track producer="producer56" in="00:00:00.000" out="00:00:08.800"/>
    <transition id="transition20" out="00:00:08.800">
      <property name="a_track">0</property>
      <property name="b_track">1</property>
      <property name="factory">loader</property>
      <property name="mlt_service">luma</property>
      <property name="alpha_over">1</property>
    </transition>
    <transition id="transition21" out="00:00:08.800">
      <property name="a_track">0</property>
      <property name="b_track">1</property>
      <property name="mlt_service">mix</property>
      <property name="start">-1</property>
      <property name="accepts_blanks">1</property>
    </transition>
  </tractor>
  <producer id="producer57" in="00:00:00.000" out="03:59:59.960">
    <property name="length">04:00:00.000</property>
    <property name="eof">pause</property>
    <property name="resource">images/05-pexels-jeff-boyce-6817987.jpg</property>
    <property name="ttl">1</property>
    <property name="aspect_ratio">1</property>
    <property name="progressive">1</property>
    <property name="seekable">1</property>
    <property name="mlt_service">qimage</property>
    <property name="creation_time">2022-02-21T12:04:03</property>
    <property name="xml">was here</property>
    <property name="shotcut:hash">02a0003671864423e724f9a08f3f43fc</property>
    <property name="shotcut:caption">05-pexels-jeff-boyce-6817987.jpg</property>
  </producer>
  <tractor id="tractor11" in="00:00:00.000" out="00:00:08.520">
    <property name="shotcut:transition">lumaMix</property>
    <track producer="producer56" in="00:03:02.840" out="00:03:11.360"/>
    <track producer="producer57" in="00:00:00.000" out="00:00:08.520"/>
    <transition id="transition22" out="00:00:08.520">
      <property name="a_track">0</property>
      <property name="b_track">1</property>
      <property name="factory">loader</property>
      <property name="mlt_service">luma</property>
      <property name="alpha_over">1</property>
    </transition>
    <transition id="transition23" out="00:00:08.520">
      <property name="a_track">0</property>
      <property name="b_track">1</property>
      <property name="mlt_service">mix</property>
      <property name="start">-1</property>
      <property name="accepts_blanks">1</property>
    </transition>
  </tractor>
  <producer id="producer58" in="00:00:00.000" out="03:59:59.960">
    <property name="length">04:00:00.000</property>
    <property name="eof">pause</property>
    <property name="resource">images/06-pexels-lin-zhu-4424285.jpg</property>
    <property name="ttl">1</property>
    <property name="aspect_ratio">1</property>
    <property name="progressive">1</property>
    <property name="seekable">1</property>
    <property name="mlt_service">qimage</property>
    <property name="creation_time">2022-02-21T12:05:09</property>
    <property name="xml">was here</property>
    <property name="shotcut:hash">5f868974758b29613edf369558893a55</property>
    <property name="shotcut:caption">06-pexels-lin-zhu-4424285.jpg</property>
  </producer>
  <tractor id="tractor12" in="00:00:00.000" out="00:00:09.520">
    <property name="shotcut:transition">lumaMix</property>
    <track producer="producer57" in="00:03:01.040" out="00:03:10.560"/>
    <track producer="producer58" in="00:00:00.000" out="00:00:09.520"/>
    <transition id="transition24" out="00:00:09.520">
      <property name="a_track">0</property>
      <property name="b_track">1</property>
      <property name="factory">loader</property>
      <property name="mlt_service">luma</property>
      <property name="alpha_over">1</property>
    </transition>
    <transition id="transition25" out="00:00:09.520">
      <property name="a_track">0</property>
      <property name="b_track">1</property>
      <property name="mlt_service">mix</property>
      <property name="start">-1</property>
      <property name="accepts_blanks">1</property>
    </transition>
  </tractor>
  <producer id="producer59" in="00:00:00.000" out="03:59:59.960">
    <property name="length">04:00:00.000</property>
    <property name="eof">pause</property>
    <property name="resource">images/07-pexels-aidan-roof-8930335.jpg</property>
    <property name="ttl">1</property>
    <property name="aspect_ratio">1</property>
    <property name="progressive">1</property>
    <property name="seekable">1</property>
    <property name="mlt_service">qimage</property>
    <property name="creation_time">2022-02-21T12:06:35</property>
    <property name="xml">was here</property>
    <property name="shotcut:hash">4b18bb120eabaa3cfb099de4feef54bc</property>
    <property name="shotcut:caption">07-pexels-aidan-roof-8930335.jpg</property>
  </producer>
  <tractor id="tractor13" in="00:00:00.000" out="00:00:09.440">
    <property name="shotcut:transition">lumaMix</property>
    <track producer="producer58" in="00:01:35.920" out="00:01:45.360"/>
    <track producer="producer59" in="00:00:00.000" out="00:00:09.440"/>
    <transition id="transition26" out="00:00:09.440">
      <property name="a_track">0</property>
      <property name="b_track">1</property>
      <property name="factory">loader</property>
      <property name="mlt_service">luma</property>
      <property name="alpha_over">1</property>
    </transition>
    <transition id="transition27" out="00:00:09.440">
      <property name="a_track">0</property>
      <property name="b_track">1</property>
      <property name="mlt_service">mix</property>
      <property name="start">-1</property>
      <property name="accepts_blanks">1</property>
    </transition>
  </tractor>
  <producer id="producer60" in="00:00:00.000" out="03:59:59.960">
    <property name="length">04:00:00.000</property>
    <property name="eof">pause</property>
    <property name="resource">images/08-pexels-lisha-riabinina-37486.jpg</property>
    <property name="ttl">1</property>
    <property name="aspect_ratio">1</property>
    <property name="progressive">1</property>
    <property name="seekable">1</property>
    <property name="mlt_service">qimage</property>
    <property name="creation_time">2022-02-21T12:07:26</property>
    <property name="xml">was here</property>
    <property name="shotcut:hash">e9e7aab52b51628d1d45cfa04db3d62a</property>
    <property name="shotcut:caption">08-pexels-lisha-riabinina-37486.jpg</property>
  </producer>
  <tractor id="tractor14" in="00:00:00.000" out="00:00:09.240">
    <property name="shotcut:transition">lumaMix</property>
    <track producer="producer59" in="00:03:02.960" out="00:03:12.200"/>
    <track producer="producer60" in="00:00:00.000" out="00:00:09.240"/>
    <transition id="transition28" out="00:00:09.240">
      <property name="a_track">0</property>
      <property name="b_track">1</property>
      <property name="factory">loader</property>
      <property name="mlt_service">luma</property>
      <property name="alpha_over">1</property>
    </transition>
    <transition id="transition29" out="00:00:09.240">
      <property name="a_track">0</property>
      <property name="b_track">1</property>
      <property name="mlt_service">mix</property>
      <property name="start">-1</property>
      <property name="accepts_blanks">1</property>
    </transition>
  </tractor>
  <producer id="producer61" in="00:00:00.000" out="03:59:59.960">
    <property name="length">04:00:00.000</property>
    <property name="eof">pause</property>
    <property name="resource">images/09-pexels-luke-hutcheson-8148630.jpg</property>
    <property name="ttl">1</property>
    <property name="aspect_ratio">1</property>
    <property name="progressive">1</property>
    <property name="seekable">1</property>
    <property name="mlt_service">qimage</property>
    <property name="creation_time">2022-02-21T12:08:05</property>
    <property name="xml">was here</property>
    <property name="shotcut:hash">5b162dba957b2f971d96a4dd2221fdce</property>
    <property name="shotcut:caption">09-pexels-luke-hutcheson-8148630.jpg</property>
  </producer>
  <tractor id="tractor15" in="00:00:00.000" out="00:00:10.080">
    <property name="shotcut:transition">lumaMix</property>
    <track producer="producer60" in="00:02:52.360" out="00:03:02.440"/>
    <track producer="producer61" in="00:00:00.000" out="00:00:10.080"/>
    <transition id="transition30" out="00:00:10.080">
      <property name="a_track">0</property>
      <property name="b_track">1</property>
      <property name="factory">loader</property>
      <property name="mlt_service">luma</property>
      <property name="alpha_over">1</property>
    </transition>
    <transition id="transition31" out="00:00:10.080">
      <property name="a_track">0</property>
      <property name="b_track">1</property>
      <property name="mlt_service">mix</property>
      <property name="start">-1</property>
      <property name="accepts_blanks">1</property>
    </transition>
  </tractor>
  <producer id="producer62" in="00:00:00.000" out="03:59:59.960">
    <property name="length">04:00:00.000</property>
    <property name="eof">pause</property>
    <property name="resource">images/06-pexels-lin-zhu-4424285.jpg</property>
    <property name="ttl">1</property>
    <property name="aspect_ratio">1</property>
    <property name="progressive">1</property>
    <property name="seekable">1</property>
    <property name="mlt_service">qimage</property>
    <property name="creation_time">2022-02-21T12:05:09</property>
    <property name="xml">was here</property>
    <property name="shotcut:hash">5f868974758b29613edf369558893a55</property>
    <property name="shotcut:caption">06-pexels-lin-zhu-4424285.jpg</property>
  </producer>
  <producer id="producer63" in="00:00:00.000" out="03:59:59.960">
    <property name="length">04:00:00.000</property>
    <property name="eof">pause</property>
    <property name="resource">images/07-pexels-aidan-roof-8930335.jpg</property>
    <property name="ttl">1</property>
    <property name="aspect_ratio">1</property>
    <property name="progressive">1</property>
    <property name="seekable">1</property>
    <property name="mlt_service">qimage</property>
    <property name="creation_time">2022-02-21T12:06:35</property>
    <property name="xml">was here</property>
    <property name="shotcut:hash">4b18bb120eabaa3cfb099de4feef54bc</property>
    <property name="shotcut:caption">07-pexels-aidan-roof-8930335.jpg</property>
  </producer>
  <tractor id="tractor16" in="00:00:00.000" out="00:00:08.760">
    <property name="shotcut:transition">lumaMix</property>
    <track producer="producer62" in="00:03:10.360" out="00:03:19.120"/>
    <track producer="producer63" in="00:00:00.000" out="00:00:08.760"/>
    <transition id="transition32" out="00:00:08.760">
      <property name="a_track">0</property>
      <property name="b_track">1</property>
      <property name="factory">loader</property>
      <property name="mlt_service">luma</property>
      <property name="alpha_over">1</property>
    </transition>
    <transition id="transition33" out="00:00:08.760">
      <property name="a_track">0</property>
      <property name="b_track">1</property>
      <property name="mlt_service">mix</property>
      <property name="start">-1</property>
      <property name="accepts_blanks">1</property>
    </transition>
  </tractor>
  <producer id="producer64" in="00:00:00.000" out="03:59:59.960">
    <property name="length">04:00:00.000</property>
    <property name="eof">pause</property>
    <property name="resource">images/08-pexels-lisha-riabinina-37486.jpg</property>
    <property name="ttl">1</property>
    <property name="aspect_ratio">1</property>
    <property name="progressive">1</property>
    <property name="seekable">1</property>
    <property name="mlt_service">qimage</property>
    <property name="creation_time">2022-02-21T12:07:26</property>
    <property name="xml">was here</property>
    <property name="shotcut:hash">e9e7aab52b51628d1d45cfa04db3d62a</property>
    <property name="shotcut:caption">08-pexels-lisha-riabinina-37486.jpg</property>
  </producer>
  <tractor id="tractor17" in="00:00:00.000" out="00:00:07.920">
    <property name="shotcut:transition">lumaMix</property>
    <track producer="producer63" in="00:03:03.560" out="00:03:11.480"/>
    <track producer="producer64" in="00:00:00.000" out="00:00:07.920"/>
    <transition id="transition34" out="00:00:07.920">
      <property name="a_track">0</property>
      <property name="b_track">1</property>
      <property name="factory">loader</property>
      <property name="mlt_service">luma</property>
      <property name="alpha_over">1</property>
    </transition>
    <transition id="transition35" out="00:00:07.920">
      <property name="a_track">0</property>
      <property name="b_track">1</property>
      <property name="mlt_service">mix</property>
      <property name="start">-1</property>
      <property name="accepts_blanks">1</property>
    </transition>
  </tractor>
  <producer id="producer65" in="00:00:00.000" out="03:59:59.960">
    <property name="length">04:00:00.000</property>
    <property name="eof">pause</property>
    <property name="resource">images/09-pexels-luke-hutcheson-8148630.jpg</property>
    <property name="ttl">1</property>
    <property name="aspect_ratio">1</property>
    <property name="progressive">1</property>
    <property name="seekable">1</property>
    <property name="mlt_service">qimage</property>
    <property name="creation_time">2022-02-21T12:08:05</property>
    <property name="xml">was here</property>
    <property name="shotcut:hash">5b162dba957b2f971d96a4dd2221fdce</property>
    <property name="shotcut:caption">09-pexels-luke-hutcheson-8148630.jpg</property>
  </producer>
  <tractor id="tractor18" in="00:00:00.000" out="00:00:09.120">
    <property name="shotcut:transition">lumaMix</property>
    <track producer="producer64" in="00:03:01.560" out="00:03:10.680"/>
    <track producer="producer65" in="00:00:00.000" out="00:00:09.120"/>
    <transition id="transition36" out="00:00:09.120">
      <property name="a_track">0</property>
      <property name="b_track">1</property>
      <property name="factory">loader</property>
      <property name="mlt_service">luma</property>
      <property name="alpha_over">1</property>
    </transition>
    <transition id="transition37" out="00:00:09.120">
      <property name="a_track">0</property>
      <property name="b_track">1</property>
      <property name="mlt_service">mix</property>
      <property name="start">-1</property>
      <property name="accepts_blanks">1</property>
    </transition>
  </tractor>
  <producer id="producer66" in="00:00:00.000" out="03:59:59.960">
    <property name="length">04:00:00.000</property>
    <property name="eof">pause</property>
    <property name="resource">images/10-pexels-tara-nix-5898966.jpg</property>
    <property name="ttl">1</property>
    <property name="aspect_ratio">1</property>
    <property name="progressive">1</property>
    <property name="seekable">1</property>
    <property name="mlt_service">qimage</property>
    <property name="creation_time">2022-02-21T12:09:11</property>
    <property name="xml">was here</property>
    <property name="shotcut:hash">f142ae0364606b5bd099cff1a5490938</property>
    <property name="shotcut:caption">10-pexels-tara-nix-5898966.jpg</property>
  </producer>
  <tractor id="tractor19" in="00:00:00.000" out="00:00:10.320">
    <property name="shotcut:transition">lumaMix</property>
    <track producer="producer65" in="00:03:01.160" out="00:03:11.480"/>
    <track producer="producer66" in="00:00:00.000" out="00:00:10.320"/>
    <transition id="transition38" out="00:00:10.320">
      <property name="a_track">0</property>
      <property name="b_track">1</property>
      <property name="factory">loader</property>
      <property name="mlt_service">luma</property>
      <property name="alpha_over">1</property>
    </transition>
    <transition id="transition39" out="00:00:10.320">
      <property name="a_track">0</property>
      <property name="b_track">1</property>
      <property name="mlt_service">mix</property>
      <property name="start">-1</property>
      <property name="accepts_blanks">1</property>
    </transition>
  </tractor>
  <producer id="producer67" in="00:00:00.000" out="03:59:59.960">
    <property name="length">04:00:00.000</property>
    <property name="eof">pause</property>
    <property name="resource">images/01-pexels-josh-fields-3964406.jpg</property>
    <property name="ttl">1</property>
    <property name="aspect_ratio">1</property>
    <property name="progressive">1</property>
    <property name="seekable">1</property>
    <property name="mlt_service">qimage</property>
    <property name="creation_time">2022-02-18T16:11:10</property>
    <property name="xml">was here</property>
    <property name="shotcut:hash">88891f65a9567b52c3a369a7fcd98ed3</property>
    <property name="shotcut:caption">01-pexels-josh-fields-3964406.jpg</property>
  </producer>
  <tractor id="tractor20" in="00:00:00.000" out="00:00:09.040">
    <property name="shotcut:transition">lumaMix</property>
    <track producer="producer66" in="00:03:04.040" out="00:03:13.080"/>
    <track producer="producer67" in="00:00:00.000" out="00:00:09.040"/>
    <transition id="transition40" out="00:00:09.040">
      <property name="a_track">0</property>
      <property name="b_track">1</property>
      <property name="factory">loader</property>
      <property name="mlt_service">luma</property>
      <property name="alpha_over">1</property>
    </transition>
    <transition id="transition41" out="00:00:09.040">
      <property name="a_track">0</property>
      <property name="b_track">1</property>
      <property name="mlt_service">mix</property>
      <property name="start">-1</property>
      <property name="accepts_blanks">1</property>
    </transition>
  </tractor>
  <producer id="producer68" in="00:00:00.000" out="03:59:59.960">
    <property name="length">04:00:00.000</property>
    <property name="eof">pause</property>
    <property name="resource">images/02-pexels-chait-goli-1796730.jpg</property>
    <property name="ttl">1</property>
    <property name="aspect_ratio">1</property>
    <property name="progressive">1</property>
    <property name="seekable">1</property>
    <property name="mlt_service">qimage</property>
    <property name="creation_time">2022-02-18T17:00:58</property>
    <property name="xml">was here</property>
    <property name="shotcut:hash">fada821995e98912d511dc6b5f934918</property>
    <property name="shotcut:caption">02-pexels-chait-goli-1796730.jpg</property>
  </producer>
  <tractor id="tractor21" in="00:00:00.000" out="00:00:08.680">
    <property name="shotcut:transition">lumaMix</property>
    <track producer="producer67" in="00:03:02.760" out="00:03:11.440"/>
    <track producer="producer68" in="00:00:00.000" out="00:00:08.680"/>
    <transition id="transition42" out="00:00:08.680">
      <property name="a_track">0</property>
      <property name="b_track">1</property>
      <property name="factory">loader</property>
      <property name="mlt_service">luma</property>
      <property name="alpha_over">1</property>
    </transition>
    <transition id="transition43" out="00:00:08.680">
      <property name="a_track">0</property>
      <property name="b_track">1</property>
      <property name="mlt_service">mix</property>
      <property name="start">-1</property>
      <property name="accepts_blanks">1</property>
    </transition>
  </tractor>
  <producer id="producer69" in="00:00:00.000" out="03:59:59.960">
    <property name="length">04:00:00.000</property>
    <property name="eof">pause</property>
    <property name="resource">images/03-pexels-fernando-reyes-6402958.jpg</property>
    <property name="ttl">1</property>
    <property name="aspect_ratio">1</property>
    <property name="progressive">1</property>
    <property name="seekable">1</property>
    <property name="mlt_service">qimage</property>
    <property name="creation_time">2022-02-21T12:02:35</property>
    <property name="xml">was here</property>
    <property name="shotcut:hash">ec15313bf3d5937578eeb75315ec43db</property>
    <property name="shotcut:caption">03-pexels-fernando-reyes-6402958.jpg</property>
  </producer>
  <tractor id="tractor22" in="00:00:00.000" out="00:00:09.480">
    <property name="shotcut:transition">lumaMix</property>
    <track producer="producer68" in="00:03:00.400" out="00:03:09.880"/>
    <track producer="producer69" in="00:00:00.000" out="00:00:09.480"/>
    <transition id="transition44" out="00:00:09.480">
      <property name="a_track">0</property>
      <property name="b_track">1</property>
      <property name="factory">loader</property>
      <property name="mlt_service">luma</property>
      <property name="alpha_over">1</property>
    </transition>
    <transition id="transition45" out="00:00:09.480">
      <property name="a_track">0</property>
      <property name="b_track">1</property>
      <property name="mlt_service">mix</property>
      <property name="start">-1</property>
      <property name="accepts_blanks">1</property>
    </transition>
  </tractor>
  <producer id="producer70" in="00:00:00.000" out="03:59:59.960">
    <property name="length">04:00:00.000</property>
    <property name="eof">pause</property>
    <property name="resource">images/04-pexels-georgie-devlin-8615702.jpg</property>
    <property name="ttl">1</property>
    <property name="aspect_ratio">1</property>
    <property name="progressive">1</property>
    <property name="seekable">1</property>
    <property name="mlt_service">qimage</property>
    <property name="creation_time">2022-02-21T12:01:10</property>
    <property name="xml">was here</property>
    <property name="shotcut:hash">675c1383bd62132eea8034a91e3ac29a</property>
    <property name="shotcut:caption">04-pexels-georgie-devlin-8615702.jpg</property>
  </producer>
  <tractor id="tractor23" in="00:00:00.000" out="00:00:08.720">
    <property name="shotcut:transition">lumaMix</property>
    <track producer="producer69" in="00:03:01.960" out="00:03:10.680"/>
    <track producer="producer70" in="00:00:00.000" out="00:00:08.720"/>
    <transition id="transition46" out="00:00:08.720">
      <property name="a_track">0</property>
      <property name="b_track">1</property>
      <property name="factory">loader</property>
      <property name="mlt_service">luma</property>
      <property name="alpha_over">1</property>
    </transition>
    <transition id="transition47" out="00:00:08.720">
      <property name="a_track">0</property>
      <property name="b_track">1</property>
      <property name="mlt_service">mix</property>
      <property name="start">-1</property>
      <property name="accepts_blanks">1</property>
    </transition>
  </tractor>
  <producer id="producer71" in="00:00:00.000" out="03:59:59.960">
    <property name="length">04:00:00.000</property>
    <property name="eof">pause</property>
    <property name="resource">images/05-pexels-jeff-boyce-6817987.jpg</property>
    <property name="ttl">1</property>
    <property name="aspect_ratio">1</property>
    <property name="progressive">1</property>
    <property name="seekable">1</property>
    <property name="mlt_service">qimage</property>
    <property name="creation_time">2022-02-21T12:04:03</property>
    <property name="xml">was here</property>
    <property name="shotcut:hash">02a0003671864423e724f9a08f3f43fc</property>
    <property name="shotcut:caption">05-pexels-jeff-boyce-6817987.jpg</property>
  </producer>
  <tractor id="tractor24" in="00:00:00.000" out="00:00:08.080">
    <property name="shotcut:transition">lumaMix</property>
    <track producer="producer70" in="00:03:03.400" out="00:03:11.480"/>
    <track producer="producer71" in="00:00:00.000" out="00:00:08.080"/>
    <transition id="transition48" out="00:00:08.080">
      <property name="a_track">0</property>
      <property name="b_track">1</property>
      <property name="factory">loader</property>
      <property name="mlt_service">luma</property>
      <property name="alpha_over">1</property>
    </transition>
    <transition id="transition49" out="00:00:08.080">
      <property name="a_track">0</property>
      <property name="b_track">1</property>
      <property name="mlt_service">mix</property>
      <property name="start">-1</property>
      <property name="accepts_blanks">1</property>
    </transition>
  </tractor>
  <producer id="producer72" in="00:00:00.000" out="03:59:59.960">
    <property name="length">04:00:00.000</property>
    <property name="eof">pause</property>
    <property name="resource">images/06-pexels-lin-zhu-4424285.jpg</property>
    <property name="ttl">1</property>
    <property name="aspect_ratio">1</property>
    <property name="progressive">1</property>
    <property name="seekable">1</property>
    <property name="mlt_service">qimage</property>
    <property name="creation_time">2022-02-21T12:05:09</property>
    <property name="xml">was here</property>
    <property name="shotcut:hash">5f868974758b29613edf369558893a55</property>
    <property name="shotcut:caption">06-pexels-lin-zhu-4424285.jpg</property>
  </producer>
  <tractor id="tractor25" in="00:00:00.000" out="00:00:08.640">
    <property name="shotcut:transition">lumaMix</property>
    <track producer="producer71" in="00:03:02.040" out="00:03:10.680"/>
    <track producer="producer72" in="00:00:00.000" out="00:00:08.640"/>
    <transition id="transition50" out="00:00:08.640">
      <property name="a_track">0</property>
      <property name="b_track">1</property>
      <property name="factory">loader</property>
      <property name="mlt_service">luma</property>
      <property name="alpha_over">1</property>
    </transition>
    <transition id="transition51" out="00:00:08.640">
      <property name="a_track">0</property>
      <property name="b_track">1</property>
      <property name="mlt_service">mix</property>
      <property name="start">-1</property>
      <property name="accepts_blanks">1</property>
    </transition>
  </tractor>
  <producer id="producer73" in="00:00:00.000" out="03:59:59.960">
    <property name="length">04:00:00.000</property>
    <property name="eof">pause</property>
    <property name="resource">images/07-pexels-aidan-roof-8930335.jpg</property>
    <property name="ttl">1</property>
    <property name="aspect_ratio">1</property>
    <property name="progressive">1</property>
    <property name="seekable">1</property>
    <property name="mlt_service">qimage</property>
    <property name="creation_time">2022-02-21T12:06:35</property>
    <property name="xml">was here</property>
    <property name="shotcut:hash">4b18bb120eabaa3cfb099de4feef54bc</property>
    <property name="shotcut:caption">07-pexels-aidan-roof-8930335.jpg</property>
  </producer>
  <tractor id="tractor26" in="00:00:00.000" out="00:00:07.960">
    <property name="shotcut:transition">lumaMix</property>
    <track producer="producer72" in="00:03:01.920" out="00:03:09.880"/>
    <track producer="producer73" in="00:00:00.000" out="00:00:07.960"/>
    <transition id="transition52" out="00:00:07.960">
      <property name="a_track">0</property>
      <property name="b_track">1</property>
      <property name="factory">loader</property>
      <property name="mlt_service">luma</property>
      <property name="alpha_over">1</property>
    </transition>
    <transition id="transition53" out="00:00:07.960">
      <property name="a_track">0</property>
      <property name="b_track">1</property>
      <property name="mlt_service">mix</property>
      <property name="start">-1</property>
      <property name="accepts_blanks">1</property>
    </transition>
  </tractor>
  <producer id="producer74" in="00:00:00.000" out="03:59:59.960">
    <property name="length">04:00:00.000</property>
    <property name="eof">pause</property>
    <property name="resource">images/08-pexels-lisha-riabinina-37486.jpg</property>
    <property name="ttl">1</property>
    <property name="aspect_ratio">1</property>
    <property name="progressive">1</property>
    <property name="seekable">1</property>
    <property name="mlt_service">qimage</property>
    <property name="creation_time">2022-02-21T12:07:26</property>
    <property name="xml">was here</property>
    <property name="shotcut:hash">e9e7aab52b51628d1d45cfa04db3d62a</property>
    <property name="shotcut:caption">08-pexels-lisha-riabinina-37486.jpg</property>
  </producer>
  <tractor id="tractor27" in="00:00:00.000" out="00:00:08.680">
    <property name="shotcut:transition">lumaMix</property>
    <track producer="producer73" in="00:02:56.480" out="00:03:05.160"/>
    <track producer="producer74" in="00:00:00.000" out="00:00:08.680"/>
    <transition id="transition54" out="00:00:08.680">
      <property name="a_track">0</property>
      <property name="b_track">1</property>
      <property name="factory">loader</property>
      <property name="mlt_service">luma</property>
      <property name="alpha_over">1</property>
    </transition>
    <transition id="transition55" out="00:00:08.680">
      <property name="a_track">0</property>
      <property name="b_track">1</property>
      <property name="mlt_service">mix</property>
      <property name="start">-1</property>
      <property name="accepts_blanks">1</property>
    </transition>
  </tractor>
  <playlist id="playlist3">
    <property name="shotcut:video">1</property>
    <property name="shotcut:name">Video-Background Image/other video</property>
    <entry producer="producer44" in="00:00:00.000" out="00:03:09.680"/>
    <entry producer="tractor0" in="00:00:00.000" out="00:00:05.320"/>
    <entry producer="producer45" in="00:00:05.360" out="00:03:03.240"/>
    <entry producer="tractor1" in="00:00:00.000" out="00:00:03.760"/>
    <entry producer="producer46" in="00:00:03.800" out="00:03:01.200"/>
    <entry producer="tractor2" in="00:00:00.000" out="00:00:04.880"/>
    <entry producer="producer47" in="00:00:04.920" out="00:03:02.200"/>
    <entry producer="tractor3" in="00:00:00.000" out="00:00:05.080"/>
    <entry producer="producer48" in="00:00:05.120" out="00:03:02.400"/>
    <entry producer="tractor4" in="00:00:00.000" out="00:00:04.880"/>
    <entry producer="producer49" in="00:00:04.920" out="00:03:01.840"/>
    <entry producer="tractor5" in="00:00:00.000" out="00:00:04.760"/>
    <entry producer="producer50" in="00:00:04.800" out="00:03:02.920"/>
    <entry producer="tractor6" in="00:00:00.000" out="00:00:03.960"/>
    <entry producer="producer51" in="00:00:04.000" out="00:03:02.400"/>
    <entry producer="tractor7" in="00:00:00.000" out="00:00:04.480"/>
    <entry producer="producer52" in="00:00:04.520" out="00:03:06.360"/>
    <blank length="00:00:24.560"/>
    <entry producer="producer53" in="00:00:36.120" out="00:03:29.600"/>
    <entry producer="tractor8" in="00:00:00.000" out="00:00:08.400"/>
    <entry producer="producer54" in="00:00:08.440" out="00:03:01.600"/>
    <entry producer="tractor9" in="00:00:00.000" out="00:00:09.720"/>
    <entry producer="producer55" in="00:00:09.760" out="00:03:03.360"/>
    <entry producer="tractor10" in="00:00:00.000" out="00:00:08.800"/>
    <entry producer="producer56" in="00:00:08.840" out="00:03:02.800"/>
    <entry producer="tractor11" in="00:00:00.000" out="00:00:08.520"/>
    <entry producer="producer57" in="00:00:08.560" out="00:03:01.000"/>
    <entry producer="tractor12" in="00:00:00.000" out="00:00:09.520"/>
    <entry producer="producer58" in="00:00:09.560" out="00:01:35.880"/>
    <entry producer="tractor13" in="00:00:00.000" out="00:00:09.440"/>
    <entry producer="producer59" in="00:00:09.480" out="00:03:02.920"/>
    <entry producer="tractor14" in="00:00:00.000" out="00:00:09.240"/>
    <entry producer="producer60" in="00:00:09.280" out="00:02:52.320"/>
    <entry producer="tractor15" in="00:00:00.000" out="00:00:10.080"/>
    <entry producer="producer61" in="00:00:10.120" out="00:03:47.320"/>
    <blank length="00:00:32.760"/>
    <entry producer="producer62" in="00:00:17.120" out="00:03:10.320"/>
    <entry producer="tractor16" in="00:00:00.000" out="00:00:08.760"/>
    <entry producer="producer63" in="00:00:08.800" out="00:03:03.520"/>
    <entry producer="tractor17" in="00:00:00.000" out="00:00:07.920"/>
    <entry producer="producer64" in="00:00:07.960" out="00:03:01.520"/>
    <entry producer="tractor18" in="00:00:00.000" out="00:00:09.120"/>
    <entry producer="producer65" in="00:00:09.160" out="00:03:01.120"/>
    <entry producer="tractor19" in="00:00:00.000" out="00:00:10.320"/>
    <entry producer="producer66" in="00:00:10.360" out="00:03:04.000"/>
    <entry producer="tractor20" in="00:00:00.000" out="00:00:09.040"/>
    <entry producer="producer67" in="00:00:09.080" out="00:03:02.720"/>
    <entry producer="tractor21" in="00:00:00.000" out="00:00:08.680"/>
    <entry producer="producer68" in="00:00:08.720" out="00:03:00.360"/>
    <entry producer="tractor22" in="00:00:00.000" out="00:00:09.480"/>
    <entry producer="producer69" in="00:00:09.520" out="00:03:01.920"/>
    <entry producer="tractor23" in="00:00:00.000" out="00:00:08.720"/>
    <entry producer="producer70" in="00:00:08.760" out="00:03:03.360"/>
    <entry producer="tractor24" in="00:00:00.000" out="00:00:08.080"/>
    <entry producer="producer71" in="00:00:08.120" out="00:03:02.000"/>
    <entry producer="tractor25" in="00:00:00.000" out="00:00:08.640"/>
    <entry producer="producer72" in="00:00:08.680" out="00:03:01.880"/>
    <entry producer="tractor26" in="00:00:00.000" out="00:00:07.960"/>
    <entry producer="producer73" in="00:00:08.000" out="00:02:56.440"/>
    <entry producer="tractor27" in="00:00:00.000" out="00:00:08.680"/>
    <entry producer="producer74" in="00:00:08.720" out="00:01:55.240"/>
  </playlist>
  <producer id="producer75" in="00:00:00.000" out="03:59:59.960">
    <property name="length">04:00:00.000</property>
    <property name="eof">pause</property>
    <property name="resource">images/frame_video_size.png</property>
    <property name="ttl">1</property>
    <property name="aspect_ratio">1</property>
    <property name="progressive">1</property>
    <property name="seekable">1</property>
    <property name="mlt_service">qimage</property>
    <property name="creation_time">2022-02-20T14:21:39</property>
    <property name="xml">was here</property>
    <property name="shotcut:hash">e407882a09efd9e447b8bfc806bfaa9c</property>
    <property name="shotcut:caption">frame_video_size.png</property>
    <filter id="filter11" out="00:27:14.400">
      <property name="background">color:#00000000</property>
      <property name="mlt_service">affine</property>
      <property name="shotcut:filter">affineSizePosition</property>
      <property name="transition.fill">1</property>
      <property name="transition.distort">0</property>
      <property name="transition.rect">60 575 755 423.315 1</property>
      <property name="transition.valign">middle</property>
      <property name="transition.halign">center</property>
      <property name="shotcut:animIn">00:00:00.000</property>
      <property name="shotcut:animOut">00:00:00.000</property>
      <property name="transition.threads">0</property>
      <property name="transition.fix_rotate_x">0</property>
    </filter>
  </producer>
  <producer id="producer76" in="00:00:00.000" out="03:59:59.960">
    <property name="length">04:00:00.000</property>
    <property name="eof">pause</property>
    <property name="resource">images/frame_video_size.png</property>
    <property name="ttl">1</property>
    <property name="aspect_ratio">1</property>
    <property name="progressive">1</property>
    <property name="seekable">1</property>
    <property name="mlt_service">qimage</property>
    <property name="creation_time">2022-02-20T14:21:39</property>
    <property name="xml">was here</property>
    <property name="shotcut:hash">e407882a09efd9e447b8bfc806bfaa9c</property>
    <property name="shotcut:caption">frame_video_size.png</property>
    <filter id="filter12" in="00:28:15.120" out="00:54:36.160">
      <property name="background">color:#00000000</property>
      <property name="mlt_service">affine</property>
      <property name="shotcut:filter">affineSizePosition</property>
      <property name="transition.fill">1</property>
      <property name="transition.distort">0</property>
      <property name="transition.rect">59.5 575.034 755 423.315 1</property>
      <property name="transition.valign">middle</property>
      <property name="transition.halign">center</property>
      <property name="shotcut:animIn">00:00:00.000</property>
      <property name="shotcut:animOut">00:00:00.000</property>
      <property name="transition.threads">0</property>
      <property name="transition.fix_rotate_x">0</property>
    </filter>
  </producer>
  <producer id="producer77" in="00:00:00.000" out="03:59:59.960">
    <property name="length">04:00:00.000</property>
    <property name="eof">pause</property>
    <property name="resource">images/frame_video_size.png</property>
    <property name="ttl">1</property>
    <property name="aspect_ratio">1</property>
    <property name="progressive">1</property>
    <property name="seekable">1</property>
    <property name="mlt_service">qimage</property>
    <property name="creation_time">2022-02-20T14:21:39</property>
    <property name="xml">was here</property>
    <property name="shotcut:hash">e407882a09efd9e447b8bfc806bfaa9c</property>
    <property name="shotcut:caption">frame_video_size.png</property>
    <filter id="filter13" in="00:55:26.040" out="01:32:58.880">
      <property name="background">color:#00000000</property>
      <property name="mlt_service">affine</property>
      <property name="shotcut:filter">affineSizePosition</property>
      <property name="transition.fill">1</property>
      <property name="transition.distort">0</property>
      <property name="transition.rect">59.5 575.034 755 423.315 1</property>
      <property name="transition.valign">middle</property>
      <property name="transition.halign">center</property>
      <property name="shotcut:animIn">00:00:00.000</property>
      <property name="shotcut:animOut">00:00:00.000</property>
      <property name="transition.threads">0</property>
      <property name="transition.fix_rotate_x">0</property>
    </filter>
  </producer>
  <playlist id="playlist4">
    <property name="shotcut:video">1</property>
    <property name="shotcut:name">Video-Host's Frame</property>
    <blank length="00:00:18.160"/>
    <entry producer="producer75" in="00:00:00.000" out="00:27:14.400"/>
    <blank length="00:00:24.560"/>
    <entry producer="producer76" in="00:28:15.120" out="00:54:36.160"/>
    <blank length="00:00:32.720"/>
    <entry producer="producer77" in="00:55:26.040" out="01:32:58.880"/>
  </playlist>
  <producer id="producer78" in="00:00:00.000" out="03:59:59.960">
    <property name="length">04:00:00.000</property>
    <property name="eof">pause</property>
    <property name="resource">images/frame_video_size.png</property>
    <property name="ttl">1</property>
    <property name="aspect_ratio">1</property>
    <property name="progressive">1</property>
    <property name="seekable">1</property>
    <property name="mlt_service">qimage</property>
    <property name="creation_time">2022-02-20T14:21:39</property>
    <property name="xml">was here</property>
    <property name="shotcut:hash">e407882a09efd9e447b8bfc806bfaa9c</property>
    <property name="shotcut:caption">frame_video_size.png</property>
    <filter id="filter14" out="00:27:14.400">
      <property name="background">color:#00000000</property>
      <property name="mlt_service">affine</property>
      <property name="shotcut:filter">affineSizePosition</property>
      <property name="transition.fill">1</property>
      <property name="transition.distort">0</property>
      <property name="transition.rect">1010.89 30 821.168 460.414 1</property>
      <property name="transition.valign">middle</property>
      <property name="transition.halign">center</property>
      <property name="shotcut:animIn">00:00:00.000</property>
      <property name="shotcut:animOut">00:00:00.000</property>
      <property name="transition.threads">0</property>
    </filter>
  </producer>
  <producer id="producer79" in="00:00:00.000" out="03:59:59.960">
    <property name="length">04:00:00.000</property>
    <property name="eof">pause</property>
    <property name="resource">images/frame_video_size.png</property>
    <property name="ttl">1</property>
    <property name="aspect_ratio">1</property>
    <property name="progressive">1</property>
    <property name="seekable">1</property>
    <property name="mlt_service">qimage</property>
    <property name="creation_time">2022-02-20T14:21:39</property>
    <property name="xml">was here</property>
    <property name="shotcut:hash">e407882a09efd9e447b8bfc806bfaa9c</property>
    <property name="shotcut:caption">frame_video_size.png</property>
    <filter id="filter15" in="00:28:15.120" out="00:54:36.160">
      <property name="background">color:#00000000</property>
      <property name="mlt_service">affine</property>
      <property name="shotcut:filter">affineSizePosition</property>
      <property name="transition.fill">1</property>
      <property name="transition.distort">0</property>
      <property name="transition.rect">1012.47 30.8881 818 458.638 1</property>
      <property name="transition.valign">middle</property>
      <property name="transition.halign">center</property>
      <property name="shotcut:animIn">00:00:00.000</property>
      <property name="shotcut:animOut">00:00:00.000</property>
      <property name="transition.threads">0</property>
      <property name="transition.fix_rotate_x">0</property>
    </filter>
  </producer>
  <producer id="producer80" in="00:00:00.000" out="03:59:59.960">
    <property name="length">04:00:00.000</property>
    <property name="eof">pause</property>
    <property name="resource">images/frame_video_size.png</property>
    <property name="ttl">1</property>
    <property name="aspect_ratio">1</property>
    <property name="progressive">1</property>
    <property name="seekable">1</property>
    <property name="mlt_service">qimage</property>
    <property name="creation_time">2022-02-20T14:21:39</property>
    <property name="xml">was here</property>
    <property name="shotcut:hash">e407882a09efd9e447b8bfc806bfaa9c</property>
    <property name="shotcut:caption">frame_video_size.png</property>
    <filter id="filter16" in="00:55:26.040" out="01:32:58.880">
      <property name="background">color:#00000000</property>
      <property name="mlt_service">affine</property>
      <property name="shotcut:filter">affineSizePosition</property>
      <property name="transition.fill">1</property>
      <property name="transition.distort">0</property>
      <property name="transition.rect">1012.47 30.8881 818 458.638 1</property>
      <property name="transition.valign">middle</property>
      <property name="transition.halign">center</property>
      <property name="shotcut:animIn">00:00:00.000</property>
      <property name="shotcut:animOut">00:00:00.000</property>
      <property name="transition.threads">0</property>
      <property name="transition.fix_rotate_x">0</property>
    </filter>
  </producer>
  <playlist id="playlist5">
    <property name="shotcut:video">1</property>
    <property name="shotcut:name">Video Guest's Frame</property>
    <blank length="00:00:18.160"/>
    <entry producer="producer78" in="00:00:00.000" out="00:27:14.400"/>
    <blank length="00:00:24.560"/>
    <entry producer="producer79" in="00:28:15.120" out="00:54:36.160"/>
    <blank length="00:00:32.720"/>
    <entry producer="producer80" in="00:55:26.040" out="01:32:58.880"/>
  </playlist>
  <chain id="chain34" out="00:28:40.680">
    <property name="length">00:28:40.720</property>
    <property name="eof">pause</property>
    <property name="resource">/home/dimitry/Desktop/seatle/part_1/video1845451950.mp4</property>
    <property name="mlt_service">avformat-novalidate</property>
    <property name="seekable">1</property>
    <property name="audio_index">0</property>
    <property name="video_index">1</property>
    <property name="mute_on_pause">0</property>
    <property name="xml">was here</property>
    <property name="shotcut:hash">3be9ad28969296611a1f5462572334e2</property>
    <property name="shotcut:caption">video1845451950.mp4</property>
    <filter id="filter17" in="00:01:12.200" out="00:28:34.720">
      <property name="rect">0 271 960 539 1</property>
      <property name="circle">0</property>
      <property name="color">#00000000</property>
      <property name="radius">0</property>
      <property name="mlt_service">qtcrop</property>
      <property name="shotcut:filter">cropRectangle</property>
      <property name="disable">0</property>
    </filter>
    <filter id="filter18" in="00:01:12.200" out="00:28:34.720">
      <property name="background">color:#00000000</property>
      <property name="mlt_service">affine</property>
      <property name="shotcut:filter">affineSizePosition</property>
      <property name="transition.fill">1</property>
      <property name="transition.distort">0</property>
      <property name="transition.rect">00:00:01.200=0 0 1920 1080 1;00:00:05.000=112.349 384.858 1429.1 803.866 1;00:06:32.600=77 384.858 1429.1 803.866 1;00:12:58.640=79 384 1429.1 803.866 1</property>
      <property name="transition.valign">middle</property>
      <property name="transition.halign">center</property>
      <property name="shotcut:animIn">00:00:00.000</property>
      <property name="shotcut:animOut">00:00:00.000</property>
      <property name="transition.threads">0</property>
    </filter>
    <filter id="filter19" in="00:01:12.200" out="00:28:34.720">
      <property name="start">1</property>
      <property name="level">1</property>
      <property name="mlt_service">brightness</property>
      <property name="shotcut:filter">fadeOutBrightness</property>
      <property name="alpha">00:27:21.360=1;00:27:22.520=0</property>
      <property name="shotcut:animOut">00:00:01.200</property>
    </filter>
  </chain>
  <chain id="chain35" out="00:00:04.200">
    <property name="length">00:00:04.240</property>
    <property name="eof">pause</property>
    <property name="resource">video_samples/tv static-4NsqFlZhlSo.mp4</property>
    <property name="mlt_service">avformat-novalidate</property>
    <property name="seekable">1</property>
    <property name="audio_index">1</property>
    <property name="video_index">0</property>
    <property name="mute_on_pause">0</property>
    <property name="xml">was here</property>
    <property name="shotcut:hash">6f6590b0b2fa2639b5ed8aec97ee3a9b</property>
    <property name="shotcut:caption">tv static-4NsqFlZhlSo.mp4</property>
  </chain>
  <producer id="producer81" in="00:00:00.000" out="03:59:59.960">
    <property name="length">04:00:00.000</property>
    <property name="eof">pause</property>
    <property name="resource">images/17-pexels-anete-lusina-5721879.jpg</property>
    <property name="ttl">1</property>
    <property name="aspect_ratio">1</property>
    <property name="progressive">1</property>
    <property name="seekable">1</property>
    <property name="mlt_service">qimage</property>
    <property name="creation_time">2022-02-21T14:29:18</property>
    <property name="xml">was here</property>
    <property name="shotcut:hash">d716a3c76b0fd0b4729d50a2a18975aa</property>
    <property name="shotcut:caption">17-pexels-anete-lusina-5721879.jpg</property>
  </producer>
  <chain id="chain36" out="00:27:12.800">
    <property name="length">00:27:12.840</property>
    <property name="eof">pause</property>
    <property name="resource">/home/dimitry/Desktop/seatle/part_2/video1650137169.mp4</property>
    <property name="mlt_service">avformat-novalidate</property>
    <property name="seekable">1</property>
    <property name="audio_index">0</property>
    <property name="video_index">1</property>
    <property name="mute_on_pause">0</property>
    <property name="xml">was here</property>
    <property name="shotcut:hash">d394a814806d0fc228aa10e9eb0ad810</property>
    <property name="shotcut:caption">video1650137169.mp4</property>
    <filter id="filter20" in="00:00:36.120" out="00:26:57.120">
      <property name="rect">0 271 960 539 1</property>
      <property name="circle">0</property>
      <property name="color">#00000000</property>
      <property name="radius">0</property>
      <property name="mlt_service">qtcrop</property>
      <property name="shotcut:filter">cropRectangle</property>
      <property name="disable">0</property>
    </filter>
    <filter id="filter21" in="00:00:36.120" out="00:26:57.120">
      <property name="background">color:#00000000</property>
      <property name="mlt_service">affine</property>
      <property name="shotcut:filter">affineSizePosition</property>
      <property name="transition.fill">1</property>
      <property name="transition.distort">0</property>
      <property name="transition.rect">78.6667 383.718 1430 804.375 1</property>
      <property name="transition.valign">middle</property>
      <property name="transition.halign">center</property>
      <property name="shotcut:animIn">00:00:00.000</property>
      <property name="shotcut:animOut">00:00:00.000</property>
      <property name="transition.threads">0</property>
    </filter>
  </chain>
  <chain id="chain37" out="00:00:04.200">
    <property name="length">00:00:04.240</property>
    <property name="eof">pause</property>
    <property name="resource">video_samples/tv static-4NsqFlZhlSo.mp4</property>
    <property name="mlt_service">avformat-novalidate</property>
    <property name="seekable">1</property>
    <property name="audio_index">1</property>
    <property name="video_index">0</property>
    <property name="mute_on_pause">0</property>
    <property name="xml">was here</property>
    <property name="shotcut:hash">6f6590b0b2fa2639b5ed8aec97ee3a9b</property>
    <property name="shotcut:caption">tv static-4NsqFlZhlSo.mp4</property>
  </chain>
  <producer id="producer82" in="00:00:00.000" out="03:59:59.960">
    <property name="length">04:00:00.000</property>
    <property name="eof">pause</property>
    <property name="resource">images/17-pexels-anete-lusina-5721879.jpg</property>
    <property name="ttl">1</property>
    <property name="aspect_ratio">1</property>
    <property name="progressive">1</property>
    <property name="seekable">1</property>
    <property name="mlt_service">qimage</property>
    <property name="creation_time">2022-02-21T14:29:18</property>
    <property name="xml">was here</property>
    <property name="shotcut:hash">d716a3c76b0fd0b4729d50a2a18975aa</property>
    <property name="shotcut:caption">17-pexels-anete-lusina-5721879.jpg</property>
  </producer>
  <chain id="chain38" out="00:37:49.960">
    <property name="length">00:37:50.000</property>
    <property name="eof">pause</property>
    <property name="resource">/home/dimitry/Desktop/seatle/part_3/video1543416247.mp4</property>
    <property name="mlt_service">avformat-novalidate</property>
    <property name="seekable">1</property>
    <property name="audio_index">0</property>
    <property name="video_index">1</property>
    <property name="mute_on_pause">0</property>
    <property name="shotcut:hash">59f80e8e731f7d4a335d842bd7405ace</property>
    <property name="shotcut:caption">video1543416247.mp4</property>
    <property name="xml">was here</property>
    <filter id="filter22" in="00:00:17.120" out="00:37:49.960">
      <property name="rect">0 271 960 540 1</property>
      <property name="circle">0</property>
      <property name="color">#00000000</property>
      <property name="radius">0</property>
      <property name="mlt_service">qtcrop</property>
      <property name="shotcut:filter">cropRectangle</property>
      <property name="disable">0</property>
    </filter>
    <filter id="filter23" in="00:00:17.120" out="00:37:49.960">
      <property name="background">color:#00000000</property>
      <property name="mlt_service">affine</property>
      <property name="shotcut:filter">affineSizePosition</property>
      <property name="transition.fill">1</property>
      <property name="transition.distort">0</property>
      <property name="transition.rect">78.8333 384 1429.33 804 1</property>
      <property name="transition.valign">middle</property>
      <property name="transition.halign">center</property>
      <property name="shotcut:animIn">00:00:00.000</property>
      <property name="shotcut:animOut">00:00:00.000</property>
      <property name="transition.threads">0</property>
    </filter>
  </chain>
  <playlist id="playlist6">
    <property name="shotcut:video">1</property>
    <property name="shotcut:name">Video - Host</property>
    <blank length="00:00:10.040"/>
    <entry producer="chain34" in="00:01:12.200" out="00:28:34.720"/>
    <entry producer="chain35" in="00:00:00.000" out="00:00:00.360"/>
    <entry producer="producer81" in="00:00:00.000" out="00:00:24.120"/>
    <entry producer="chain36" in="00:00:36.120" out="00:26:57.120"/>
    <entry producer="chain37" in="00:00:00.000" out="00:00:00.360"/>
    <entry producer="producer82" in="00:00:00.000" out="00:00:32.320"/>
    <entry producer="chain38" in="00:00:17.120" out="00:37:49.960"/>
  </playlist>
  <chain id="chain39" out="00:28:40.680">
    <property name="length">00:28:40.720</property>
    <property name="eof">pause</property>
    <property name="resource">/home/dimitry/Desktop/seatle/part_1/video1845451950.mp4</property>
    <property name="mlt_service">avformat-novalidate</property>
    <property name="seekable">1</property>
    <property name="audio_index">0</property>
    <property name="video_index">1</property>
    <property name="mute_on_pause">0</property>
    <property name="xml">was here</property>
    <property name="shotcut:hash">3be9ad28969296611a1f5462572334e2</property>
    <property name="shotcut:caption">video1845451950.mp4</property>
    <filter id="filter24" in="00:01:12.200" out="00:28:34.720">
      <property name="rect">960 271 960 542 1</property>
      <property name="circle">0</property>
      <property name="color">#00000000</property>
      <property name="radius">0</property>
      <property name="mlt_service">qtcrop</property>
      <property name="shotcut:filter">cropRectangle</property>
      <property name="disable">0</property>
    </filter>
    <filter id="filter25" in="00:01:12.200" out="00:28:34.720">
      <property name="background">color:#00000000</property>
      <property name="mlt_service">affine</property>
      <property name="shotcut:filter">affineSizePosition</property>
      <property name="transition.fill">1</property>
      <property name="transition.distort">0</property>
      <property name="transition.rect">00:00:01.200=0 0 1920 1080 1;00:00:05.000=278 -123.221 1526.98 858.926 1;00:01:35.320=270 -171 1538 865.125 1;00:06:32.600=274.379 -170 1534.22 863 1</property>
      <property name="transition.valign">middle</property>
      <property name="transition.halign">center</property>
      <property name="shotcut:animIn">00:00:00.000</property>
      <property name="shotcut:animOut">00:00:00.000</property>
      <property name="transition.threads">0</property>
    </filter>
  </chain>
  <chain id="chain40" out="00:27:12.800">
    <property name="length">00:27:12.840</property>
    <property name="eof">pause</property>
    <property name="resource">/home/dimitry/Desktop/seatle/part_2/video1650137169.mp4</property>
    <property name="mlt_service">avformat-novalidate</property>
    <property name="seekable">1</property>
    <property name="audio_index">0</property>
    <property name="video_index">1</property>
    <property name="mute_on_pause">0</property>
    <property name="xml">was here</property>
    <property name="shotcut:hash">d394a814806d0fc228aa10e9eb0ad810</property>
    <property name="shotcut:caption">video1650137169.mp4</property>
    <filter id="filter26" in="00:00:36.120" out="00:26:57.120">
      <property name="rect">960 271 960 542 1</property>
      <property name="circle">0</property>
      <property name="color">#00000000</property>
      <property name="radius">0</property>
      <property name="mlt_service">qtcrop</property>
      <property name="shotcut:filter">cropRectangle</property>
      <property name="disable">0</property>
    </filter>
    <filter id="filter27" in="00:00:36.120" out="00:26:57.120">
      <property name="background">color:#00000000</property>
      <property name="mlt_service">affine</property>
      <property name="shotcut:filter">affineSizePosition</property>
      <property name="transition.fill">1</property>
      <property name="transition.distort">0</property>
      <property name="transition.rect">270 -171.125 1538 865.125 1</property>
      <property name="transition.valign">middle</property>
      <property name="transition.halign">center</property>
      <property name="shotcut:animIn">00:00:00.000</property>
      <property name="shotcut:animOut">00:00:00.000</property>
      <property name="transition.threads">0</property>
    </filter>
  </chain>
  <chain id="chain41" out="00:37:49.960">
    <property name="length">00:37:50.000</property>
    <property name="eof">pause</property>
    <property name="resource">/home/dimitry/Desktop/seatle/part_3/video1543416247.mp4</property>
    <property name="mlt_service">avformat-novalidate</property>
    <property name="seekable">1</property>
    <property name="audio_index">0</property>
    <property name="video_index">1</property>
    <property name="mute_on_pause">0</property>
    <property name="shotcut:hash">59f80e8e731f7d4a335d842bd7405ace</property>
    <property name="shotcut:caption">video1543416247.mp4</property>
    <property name="xml">was here</property>
    <filter id="filter28" in="00:00:17.120" out="00:37:49.960">
      <property name="rect">960 271 960 542 1</property>
      <property name="circle">0</property>
      <property name="color">#00000000</property>
      <property name="radius">0</property>
      <property name="mlt_service">qtcrop</property>
      <property name="shotcut:filter">cropRectangle</property>
      <property name="disable">0</property>
    </filter>
    <filter id="filter29" in="00:00:17.120" out="00:37:49.960">
      <property name="background">color:#00000000</property>
      <property name="mlt_service">affine</property>
      <property name="shotcut:filter">affineSizePosition</property>
      <property name="transition.fill">1</property>
      <property name="transition.distort">0</property>
      <property name="transition.rect">270 -171.062 1537.78 865 1</property>
      <property name="transition.valign">middle</property>
      <property name="transition.halign">center</property>
      <property name="shotcut:animIn">00:00:00.000</property>
      <property name="shotcut:animOut">00:00:00.000</property>
      <property name="transition.threads">0</property>
    </filter>
  </chain>
  <playlist id="playlist7">
    <property name="shotcut:video">1</property>
    <property name="shotcut:name">Video - Guest</property>
    <blank length="00:00:10.040"/>
    <entry producer="chain39" in="00:01:12.200" out="00:28:34.720"/>
    <blank length="00:00:24.560"/>
    <entry producer="chain40" in="00:00:36.120" out="00:26:57.120"/>
    <blank length="00:00:32.760"/>
    <entry producer="chain41" in="00:00:17.120" out="00:37:49.960"/>
  </playlist>
  <producer id="producer83" in="00:00:00.000" out="03:59:59.960">
    <property name="length">04:00:00.000</property>
    <property name="eof">pause</property>
    <property name="resource">images/11-microsoft-4608125_1920-with_shadow.png</property>
    <property name="ttl">1</property>
    <property name="aspect_ratio">1</property>
    <property name="progressive">1</property>
    <property name="seekable">1</property>
    <property name="mlt_service">qimage</property>
    <property name="creation_time">2022-02-21T09:51:56</property>
    <property name="xml">was here</property>
    <property name="shotcut:hash">7ccc2f224261f8cb44f2c698dbed77b4</property>
    <property name="shotcut:caption">11-microsoft-4608125_1920-with_shadow.png</property>
    <filter id="filter30" out="00:04:56.600">
      <property name="background">color:#00000000</property>
      <property name="mlt_service">affine</property>
      <property name="shotcut:filter">affineSizePosition</property>
      <property name="transition.fill">1</property>
      <property name="transition.distort">0</property>
      <property name="transition.rect">1125.86 597.915 628.281 424.169 1</property>
      <property name="transition.valign">middle</property>
      <property name="transition.halign">center</property>
      <property name="shotcut:animIn">00:00:00.000</property>
      <property name="shotcut:animOut">00:00:00.000</property>
      <property name="transition.threads">0</property>
    </filter>
    <filter id="filter31" out="00:04:56.600">
      <property name="start">1</property>
      <property name="level">00:00:00.000=0;00:00:01.960=1</property>
      <property name="mlt_service">brightness</property>
      <property name="shotcut:filter">fadeInBrightness</property>
      <property name="alpha">1</property>
      <property name="shotcut:animIn">00:00:02.000</property>
    </filter>
  </producer>
  <producer id="producer84" in="00:00:00.000" out="03:59:59.960">
    <property name="length">04:00:00.000</property>
    <property name="eof">pause</property>
    <property name="resource">images/12-MS-Execs-2017-02-Nadella-Satya-Portraits-dropshadow.png</property>
    <property name="ttl">1</property>
    <property name="aspect_ratio">1</property>
    <property name="progressive">1</property>
    <property name="seekable">1</property>
    <property name="mlt_service">qimage</property>
    <property name="creation_time">2022-02-21T12:57:08</property>
    <property name="xml">was here</property>
    <property name="shotcut:hash">495040d4fba105e9c53e82b840cc7fdb</property>
    <property name="shotcut:caption">12-MS-Execs-2017-02-Nadella-Satya-Portraits-dropshadow.png</property>
    <filter id="filter32" out="00:01:02.840">
      <property name="background">color:#00000000</property>
      <property name="mlt_service">affine</property>
      <property name="shotcut:filter">affineSizePosition</property>
      <property name="transition.fill">1</property>
      <property name="transition.distort">0</property>
      <property name="transition.rect">1180.23 609.247 519.539 401.506 1</property>
      <property name="transition.valign">middle</property>
      <property name="transition.halign">center</property>
      <property name="shotcut:animIn">00:00:00.000</property>
      <property name="shotcut:animOut">00:00:00.000</property>
      <property name="transition.threads">0</property>
    </filter>
  </producer>
  <tractor id="tractor28" in="00:00:00.000" out="00:00:05.000">
    <property name="shotcut:transition">lumaMix</property>
    <track producer="producer83" in="00:04:51.600" out="00:04:56.600"/>
    <track producer="producer84" in="00:00:00.000" out="00:00:05.000"/>
    <transition id="transition56" out="00:00:05.000">
      <property name="a_track">0</property>
      <property name="b_track">1</property>
      <property name="factory">loader</property>
      <property name="resource">%luma07.pgm</property>
      <property name="mlt_service">luma</property>
      <property name="alpha_over">1</property>
      <property name="progressive">1</property>
      <property name="invert">0</property>
      <property name="softness">0.2</property>
    </transition>
    <transition id="transition57" out="00:00:05.000">
      <property name="a_track">0</property>
      <property name="b_track">1</property>
      <property name="mlt_service">mix</property>
      <property name="start">-1</property>
      <property name="accepts_blanks">1</property>
    </transition>
  </tractor>
  <producer id="producer85" in="00:00:00.000" out="03:59:59.960">
    <property name="length">04:00:00.000</property>
    <property name="eof">pause</property>
    <property name="resource">images/13-building-g6ac185be0-shadow.png</property>
    <property name="ttl">1</property>
    <property name="aspect_ratio">1</property>
    <property name="progressive">1</property>
    <property name="seekable">1</property>
    <property name="mlt_service">qimage</property>
    <property name="creation_time">2022-02-21T13:01:04</property>
    <property name="xml">was here</property>
    <property name="shotcut:hash">03d1320dc54c25d757b9466ea857aec2</property>
    <property name="shotcut:caption">13-building-g6ac185be0-shadow.png</property>
    <filter id="filter33" out="00:02:14.840">
      <property name="background">color:#00000000</property>
      <property name="mlt_service">affine</property>
      <property name="shotcut:filter">affineSizePosition</property>
      <property name="transition.fill">1</property>
      <property name="transition.distort">0</property>
      <property name="transition.rect">1154.42 594 571.168 432 1</property>
      <property name="transition.valign">middle</property>
      <property name="transition.halign">center</property>
      <property name="shotcut:animIn">00:00:00.000</property>
      <property name="shotcut:animOut">00:00:00.000</property>
      <property name="transition.threads">0</property>
    </filter>
  </producer>
  <tractor id="tractor29" in="00:00:00.000" out="00:00:04.720">
    <property name="shotcut:transition">lumaMix</property>
    <track producer="producer84" in="00:00:58.120" out="00:01:02.840"/>
    <track producer="producer85" in="00:00:00.000" out="00:00:04.720"/>
    <transition id="transition58" out="00:00:04.720">
      <property name="a_track">0</property>
      <property name="b_track">1</property>
      <property name="factory">loader</property>
      <property name="resource">%luma07.pgm</property>
      <property name="mlt_service">luma</property>
      <property name="alpha_over">1</property>
      <property name="progressive">1</property>
      <property name="invert">0</property>
      <property name="softness">0.2</property>
    </transition>
    <transition id="transition59" out="00:00:04.720">
      <property name="a_track">0</property>
      <property name="b_track">1</property>
      <property name="mlt_service">mix</property>
      <property name="start">-1</property>
      <property name="accepts_blanks">1</property>
    </transition>
  </tractor>
  <producer id="producer86" in="00:00:00.000" out="03:59:59.960">
    <property name="length">04:00:00.000</property>
    <property name="eof">pause</property>
    <property name="resource">images/14-hit_refresh-30835567._SY475_.png</property>
    <property name="ttl">1</property>
    <property name="aspect_ratio">1</property>
    <property name="progressive">1</property>
    <property name="seekable">1</property>
    <property name="mlt_service">qimage</property>
    <property name="creation_time">2022-02-21T13:05:39</property>
    <property name="xml">was here</property>
    <property name="shotcut:hash">431faba7f22b982f201d15ba03d7c97a</property>
    <property name="shotcut:caption">14-hit_refresh-30835567._SY475_.png</property>
    <filter id="filter34" out="00:01:30.920">
      <property name="background">color:#00000000</property>
      <property name="mlt_service">affine</property>
      <property name="shotcut:filter">affineSizePosition</property>
      <property name="transition.fill">1</property>
      <property name="transition.distort">0</property>
      <property name="transition.rect">1265.57 558.424 348.853 503.153 1</property>
      <property name="transition.valign">middle</property>
      <property name="transition.halign">center</property>
      <property name="shotcut:animIn">00:00:00.000</property>
      <property name="shotcut:animOut">00:00:00.000</property>
      <property name="transition.threads">0</property>
    </filter>
    <filter id="filter35" out="00:01:30.920">
      <property name="start">1</property>
      <property name="level">1</property>
      <property name="mlt_service">brightness</property>
      <property name="shotcut:filter">fadeOutBrightness</property>
      <property name="alpha">00:01:28.960=1;00:01:30.920=0</property>
      <property name="shotcut:animOut">00:00:02.000</property>
    </filter>
  </producer>
  <tractor id="tractor30" in="00:00:00.000" out="00:00:05.560">
    <property name="shotcut:transition">lumaMix</property>
    <track producer="producer85" in="00:02:09.280" out="00:02:14.840"/>
    <track producer="producer86" in="00:00:00.000" out="00:00:05.560"/>
    <transition id="transition60" out="00:00:05.560">
      <property name="a_track">0</property>
      <property name="b_track">1</property>
      <property name="factory">loader</property>
      <property name="resource">%luma07.pgm</property>
      <property name="mlt_service">luma</property>
      <property name="alpha_over">1</property>
      <property name="progressive">1</property>
      <property name="invert">0</property>
      <property name="softness">0.2</property>
    </transition>
    <transition id="transition61" out="00:00:05.560">
      <property name="a_track">0</property>
      <property name="b_track">1</property>
      <property name="mlt_service">mix</property>
      <property name="start">-1</property>
      <property name="accepts_blanks">1</property>
    </transition>
  </tractor>
  <chain id="chain42" out="00:00:19.680">
    <property name="length">00:00:19.720</property>
    <property name="eof">pause</property>
    <property name="resource">video_samples/Steve Ballmer Developers, Developers, Developers-SaVTHG-Ev4k.mp4</property>
    <property name="mlt_service">avformat-novalidate</property>
    <property name="seekable">1</property>
    <property name="audio_index">1</property>
    <property name="video_index">0</property>
    <property name="mute_on_pause">0</property>
    <property name="xml">was here</property>
    <property name="shotcut:hash">65a84f5dfcdc3ba65f02f537756ad4dd</property>
    <property name="shotcut:caption">Steve Ballmer Developers, Developers, Developers-SaVTHG-Ev4k.mp4</property>
    <filter id="filter36" out="00:00:18.200">
      <property name="background">color:#00000000</property>
      <property name="mlt_service">affine</property>
      <property name="shotcut:filter">affineSizePosition</property>
      <property name="transition.fill">1</property>
      <property name="transition.distort">0</property>
      <property name="transition.rect">1149.88 592.412 580.235 435.176 1</property>
      <property name="transition.valign">middle</property>
      <property name="transition.halign">center</property>
      <property name="shotcut:animIn">00:00:00.000</property>
      <property name="shotcut:animOut">00:00:00.000</property>
      <property name="transition.threads">0</property>
    </filter>
  </chain>
  <chain id="chain43" out="00:00:19.680">
    <property name="length">00:00:19.720</property>
    <property name="eof">pause</property>
    <property name="resource">video_samples/Steve Ballmer Developers, Developers, Developers-SaVTHG-Ev4k.mp4</property>
    <property name="mlt_service">avformat-novalidate</property>
    <property name="seekable">1</property>
    <property name="audio_index">1</property>
    <property name="video_index">0</property>
    <property name="mute_on_pause">0</property>
    <property name="xml">was here</property>
    <property name="shotcut:hash">65a84f5dfcdc3ba65f02f537756ad4dd</property>
    <property name="shotcut:caption">Steve Ballmer Developers, Developers, Developers-SaVTHG-Ev4k.mp4</property>
    <filter id="filter37" out="00:00:18.200">
      <property name="background">color:#00000000</property>
      <property name="mlt_service">affine</property>
      <property name="shotcut:filter">affineSizePosition</property>
      <property name="transition.fill">1</property>
      <property name="transition.distort">0</property>
      <property name="transition.rect">1149.88 592.412 580.235 435.176 1</property>
      <property name="transition.valign">middle</property>
      <property name="transition.halign">center</property>
      <property name="shotcut:animIn">00:00:00.000</property>
      <property name="shotcut:animOut">00:00:00.000</property>
      <property name="transition.threads">0</property>
    </filter>
  </chain>
  <chain id="chain44" out="00:02:22.560">
    <property name="length">00:02:22.600</property>
    <property name="eof">pause</property>
    <property name="resource">video_samples/Ballmer Laughs at iPhone-eywi0h_Y5_U.mkv</property>
    <property name="mlt_service">avformat-novalidate</property>
    <property name="seekable">1</property>
    <property name="audio_index">1</property>
    <property name="video_index">0</property>
    <property name="mute_on_pause">0</property>
    <property name="xml">was here</property>
    <property name="shotcut:hash">49b2e9449b4a6c0f8ab696c0cb4e612b</property>
    <property name="shotcut:caption">Ballmer Laughs at iPhone-eywi0h_Y5_U.mkv</property>
    <filter id="filter38" out="00:02:22.560">
      <property name="background">color:#00000000</property>
      <property name="mlt_service">affine</property>
      <property name="shotcut:filter">affineSizePosition</property>
      <property name="transition.fill">1</property>
      <property name="transition.distort">0</property>
      <property name="transition.rect">1169.17 588.918 541.652 442.165 1</property>
      <property name="transition.valign">middle</property>
      <property name="transition.halign">center</property>
      <property name="shotcut:animIn">00:00:00.000</property>
      <property name="shotcut:animOut">00:00:00.000</property>
      <property name="transition.threads">0</property>
    </filter>
  </chain>
  <producer id="producer87" in="00:00:00.000" out="03:59:59.960">
    <property name="length">04:00:00.000</property>
    <property name="eof">pause</property>
    <property name="resource">images/16-twitter_monodromos-shadow.png</property>
    <property name="ttl">1</property>
    <property name="aspect_ratio">1</property>
    <property name="progressive">1</property>
    <property name="seekable">1</property>
    <property name="mlt_service">qimage</property>
    <property name="creation_time">2022-02-21T13:37:28</property>
    <property name="xml">was here</property>
    <property name="shotcut:hash">e78352c724454d73ff3365c428713df1</property>
    <property name="shotcut:caption">16-twitter_monodromos-shadow.png</property>
    <filter id="filter39" out="00:00:04.800">
      <property name="background">color:#00000000</property>
      <property name="mlt_service">affine</property>
      <property name="shotcut:filter">affineSizePosition</property>
      <property name="transition.fill">1</property>
      <property name="transition.distort">0</property>
      <property name="transition.rect">1046.92 609.971 786.169 400.059 1</property>
      <property name="transition.valign">middle</property>
      <property name="transition.halign">center</property>
      <property name="shotcut:animIn">00:00:00.000</property>
      <property name="shotcut:animOut">00:00:00.000</property>
      <property name="transition.threads">0</property>
    </filter>
    <filter id="filter40" out="00:00:04.800">
      <property name="start">1</property>
      <property name="level">1</property>
      <property name="mlt_service">brightness</property>
      <property name="shotcut:filter">fadeInBrightness</property>
      <property name="alpha">00:00:00.000=0;00:00:00.960=1</property>
      <property name="shotcut:animIn">00:00:01.000</property>
    </filter>
    <filter id="filter41" out="00:00:04.800">
      <property name="start">1</property>
      <property name="level">1</property>
      <property name="mlt_service">brightness</property>
      <property name="shotcut:filter">fadeOutBrightness</property>
      <property name="alpha">00:00:02.840=1;00:00:04.800=0</property>
      <property name="shotcut:animOut">00:00:02.000</property>
    </filter>
  </producer>
  <producer id="producer88" in="00:00:00.000" out="03:59:59.960">
    <property name="length">04:00:00.000</property>
    <property name="eof">pause</property>
    <property name="resource">images/15-Seattle_SuperSonics_logo.png</property>
    <property name="ttl">1</property>
    <property name="aspect_ratio">1</property>
    <property name="progressive">1</property>
    <property name="seekable">1</property>
    <property name="mlt_service">qimage</property>
    <property name="creation_time">2022-02-21T13:21:12</property>
    <property name="xml">was here</property>
    <property name="shotcut:hash">f6514282bb7cc9b49838428c4897c657</property>
    <property name="shotcut:caption">15-Seattle_SuperSonics_logo.png</property>
    <filter id="filter42" out="00:00:28.480">
      <property name="background">color:#00000000</property>
      <property name="mlt_service">affine</property>
      <property name="shotcut:filter">affineSizePosition</property>
      <property name="transition.fill">1</property>
      <property name="transition.distort">0</property>
      <property name="transition.rect">1253.67 613.059 372.659 393.882 1</property>
      <property name="transition.valign">middle</property>
      <property name="transition.halign">center</property>
      <property name="shotcut:animIn">00:00:00.000</property>
      <property name="shotcut:animOut">00:00:00.000</property>
      <property name="transition.threads">0</property>
    </filter>
    <filter id="filter43" out="00:00:28.480">
      <property name="start">1</property>
      <property name="level">00:00:00.000=0;00:00:01.960=1</property>
      <property name="mlt_service">brightness</property>
      <property name="shotcut:filter">fadeInBrightness</property>
      <property name="alpha">1</property>
      <property name="shotcut:animIn">00:00:02.000</property>
    </filter>
    <filter id="filter44" out="00:00:28.480">
      <property name="start">1</property>
      <property name="level">00:00:26.520=1;00:00:28.480=0</property>
      <property name="mlt_service">brightness</property>
      <property name="shotcut:filter">fadeOutBrightness</property>
      <property name="alpha">1</property>
      <property name="shotcut:animOut">00:00:02.000</property>
    </filter>
  </producer>
  <producer id="producer89" in="00:00:00.000" out="03:59:59.960">
    <property name="length">04:00:00.000</property>
    <property name="eof">pause</property>
    <property name="resource">#00000000</property>
    <property name="aspect_ratio">1</property>
    <property name="mlt_service">color</property>
    <property name="mlt_image_format">rgba</property>
    <property name="shotcut:caption">transparent</property>
    <property name="shotcut:detail">transparent</property>
    <property name="ignore_points">0</property>
    <property name="xml">was here</property>
    <property name="seekable">1</property>
    <filter id="filter45" out="00:00:07.880">
      <property name="argument">&quot;Είχα διαβάσει μερικά Podasts&quot;:
πόσοι μπορούν αλήθεια να το
κάνουν αυτό;</property>
      <property name="geometry">0 810 1920 270 1</property>
      <property name="family">Nasa</property>
      <property name="size">80</property>
      <property name="weight">750</property>
      <property name="style">normal</property>
      <property name="fgcolour">#ffffffff</property>
      <property name="bgcolour">#aa000000</property>
      <property name="olcolour">#aa000000</property>
      <property name="pad">10</property>
      <property name="halign">center</property>
      <property name="valign">top</property>
      <property name="outline">5</property>
      <property name="mlt_service">dynamictext</property>
      <property name="shotcut:filter">dynamicText</property>
      <property name="shotcut:usePointSize">1</property>
      <property name="shotcut:pointSize">60</property>
    </filter>
    <filter id="filter46" out="00:00:07.880">
      <property name="background">color:#00000000</property>
      <property name="mlt_service">affine</property>
      <property name="shotcut:filter">affineSizePosition</property>
      <property name="transition.fill">1</property>
      <property name="transition.distort">0</property>
      <property name="transition.rect">934.08 322.16 1011.84 569.16 1</property>
      <property name="transition.valign">middle</property>
      <property name="transition.halign">center</property>
      <property name="shotcut:animIn">00:00:00.000</property>
      <property name="shotcut:animOut">00:00:00.000</property>
      <property name="transition.threads">0</property>
    </filter>
    <filter id="filter47" out="00:00:07.880">
      <property name="start">1</property>
      <property name="level">1</property>
      <property name="mlt_service">brightness</property>
      <property name="shotcut:filter">fadeOutBrightness</property>
      <property name="alpha">00:00:05.920=1;00:00:07.880=0</property>
      <property name="shotcut:animOut">00:00:02.000</property>
    </filter>
  </producer>
  <producer id="producer90" in="00:00:00.000" out="03:59:59.960">
    <property name="length">04:00:00.000</property>
    <property name="eof">pause</property>
    <property name="resource">images/18-podcast0100-image-dropshadow.png</property>
    <property name="ttl">1</property>
    <property name="aspect_ratio">1</property>
    <property name="progressive">1</property>
    <property name="seekable">1</property>
    <property name="mlt_service">qimage</property>
    <property name="creation_time">2022-02-21T15:46:34</property>
    <property name="xml">was here</property>
    <property name="shotcut:hash">edf454b7fd57a7cc2a235dadbc63e728</property>
    <property name="shotcut:caption">18-podcast0100-image-dropshadow.png</property>
    <filter id="filter48" out="00:01:06.920">
      <property name="start">1</property>
      <property name="level">1</property>
      <property name="mlt_service">brightness</property>
      <property name="shotcut:filter">fadeInBrightness</property>
      <property name="alpha">00:00:00.000=0;00:00:01.960=1</property>
      <property name="shotcut:animIn">00:00:02.000</property>
    </filter>
    <filter id="filter49" out="00:01:06.920">
      <property name="start">1</property>
      <property name="level">1</property>
      <property name="mlt_service">brightness</property>
      <property name="shotcut:filter">fadeOutBrightness</property>
      <property name="alpha">00:01:04.960=1;00:01:06.920=0</property>
      <property name="shotcut:animOut">00:00:02.000</property>
    </filter>
    <filter id="filter50" out="00:01:06.920">
      <property name="background">color:#00000000</property>
      <property name="mlt_service">affine</property>
      <property name="shotcut:filter">affineSizePosition</property>
      <property name="transition.fill">1</property>
      <property name="transition.distort">0</property>
      <property name="transition.rect">1223.74 593.744 432.512 432.512 1</property>
      <property name="transition.valign">middle</property>
      <property name="transition.halign">center</property>
      <property name="shotcut:animIn">00:00:00.000</property>
      <property name="shotcut:animOut">00:00:00.000</property>
      <property name="transition.threads">0</property>
      <property name="transition.fix_rotate_x">0</property>
    </filter>
  </producer>
  <producer id="producer91" in="00:00:00.000" out="03:59:59.960">
    <property name="length">04:00:00.000</property>
    <property name="eof">pause</property>
    <property name="resource">images/19-59335615._SX318-dropshadow.png</property>
    <property name="ttl">1</property>
    <property name="aspect_ratio">1</property>
    <property name="progressive">1</property>
    <property name="seekable">1</property>
    <property name="mlt_service">qimage</property>
    <property name="creation_time">2022-02-21T17:14:36</property>
    <property name="xml">was here</property>
    <property name="shotcut:hash">4c95bd4598bb635376734c7ef6eadc14</property>
    <property name="shotcut:caption">19-59335615._SX318-dropshadow.png</property>
    <filter id="filter51" out="00:00:53.760">
      <property name="background">color:#00000000</property>
      <property name="mlt_service">affine</property>
      <property name="shotcut:filter">affineSizePosition</property>
      <property name="transition.fill">1</property>
      <property name="transition.distort">0</property>
      <property name="transition.rect">1283.64 591.185 312.714 437.63 1</property>
      <property name="transition.valign">middle</property>
      <property name="transition.halign">center</property>
      <property name="shotcut:animIn">00:00:00.000</property>
      <property name="shotcut:animOut">00:00:00.000</property>
      <property name="transition.threads">0</property>
    </filter>
    <filter id="filter52" out="00:00:53.760">
      <property name="start">1</property>
      <property name="level">1</property>
      <property name="mlt_service">brightness</property>
      <property name="shotcut:filter">fadeInBrightness</property>
      <property name="alpha">00:00:00.000=0;00:00:01.960=1</property>
      <property name="shotcut:animIn">00:00:02.000</property>
    </filter>
    <filter id="filter53" out="00:00:53.760">
      <property name="start">1</property>
      <property name="level">1</property>
      <property name="mlt_service">brightness</property>
      <property name="shotcut:filter">fadeOutBrightness</property>
      <property name="alpha">00:00:51.800=1;00:00:53.760=0</property>
      <property name="shotcut:animOut">00:00:02.000</property>
    </filter>
  </producer>
  <producer id="producer92" in="00:00:00.000" out="03:59:59.960">
    <property name="length">04:00:00.000</property>
    <property name="eof">pause</property>
    <property name="resource">images/20-deep_thinking-dropshadow.png</property>
    <property name="ttl">1</property>
    <property name="aspect_ratio">1</property>
    <property name="progressive">1</property>
    <property name="seekable">1</property>
    <property name="mlt_service">qimage</property>
    <property name="creation_time">2022-02-22T11:05:53</property>
    <property name="xml">was here</property>
    <property name="shotcut:hash">25ad07d435ef9ee665c9e0e6f6697756</property>
    <property name="shotcut:caption">20-deep_thinking-dropshadow.png</property>
    <filter id="filter54" out="00:01:14.400">
      <property name="start">1</property>
      <property name="level">1</property>
      <property name="mlt_service">brightness</property>
      <property name="shotcut:filter">fadeInBrightness</property>
      <property name="alpha">00:00:00.000=0;00:00:01.960=1</property>
      <property name="shotcut:animIn">00:00:02.000</property>
    </filter>
    <filter id="filter55" out="00:01:14.400">
      <property name="start">1</property>
      <property name="level">1</property>
      <property name="mlt_service">brightness</property>
      <property name="shotcut:filter">fadeOutBrightness</property>
      <property name="alpha">00:01:12.440=1;00:01:14.400=0</property>
      <property name="shotcut:animOut">00:00:02.000</property>
    </filter>
    <filter id="filter56" out="00:01:14.400">
      <property name="background">color:#00000000</property>
      <property name="mlt_service">affine</property>
      <property name="shotcut:filter">affineSizePosition</property>
      <property name="transition.fill">1</property>
      <property name="transition.distort">0</property>
      <property name="transition.rect">1253.31 540 373.371 540 1</property>
      <property name="transition.valign">middle</property>
      <property name="transition.halign">center</property>
      <property name="shotcut:animIn">00:00:00.000</property>
      <property name="shotcut:animOut">00:00:00.000</property>
      <property name="transition.threads">0</property>
      <property name="transition.fix_rotate_x">0</property>
    </filter>
  </producer>
  <producer id="producer93" in="00:00:00.000" out="03:59:59.960">
    <property name="length">04:00:00.000</property>
    <property name="eof">pause</property>
    <property name="resource">images/23-skliroi3-dropshadow.png</property>
    <property name="ttl">1</property>
    <property name="aspect_ratio">1</property>
    <property name="progressive">1</property>
    <property name="seekable">1</property>
    <property name="mlt_service">qimage</property>
    <property name="creation_time">2022-02-22T11:09:34</property>
    <property name="xml">was here</property>
    <property name="shotcut:hash">38ca729d75d51b604fd80bdab089ab5c</property>
    <property name="shotcut:caption">23-skliroi3-dropshadow.png</property>
    <filter id="filter57" out="00:00:50.880">
      <property name="background">color:#00000000</property>
      <property name="mlt_service">affine</property>
      <property name="shotcut:filter">affineSizePosition</property>
      <property name="transition.fill">1</property>
      <property name="transition.distort">0</property>
      <property name="transition.rect">1149.68 589.535 580.631 440.93 1</property>
      <property name="transition.valign">middle</property>
      <property name="transition.halign">center</property>
      <property name="shotcut:animIn">00:00:00.000</property>
      <property name="shotcut:animOut">00:00:00.000</property>
      <property name="transition.threads">0</property>
    </filter>
    <filter id="filter58" out="00:00:50.880">
      <property name="start">1</property>
      <property name="level">1</property>
      <property name="mlt_service">brightness</property>
      <property name="shotcut:filter">fadeInBrightness</property>
      <property name="alpha">00:00:00.000=0;00:00:01.960=1</property>
      <property name="shotcut:animIn">00:00:02.000</property>
    </filter>
  </producer>
  <producer id="producer94" in="00:00:00.000" out="03:59:59.960">
    <property name="length">04:00:00.000</property>
    <property name="eof">pause</property>
    <property name="resource">images/22-skliroi2-dropshadow.png</property>
    <property name="ttl">1</property>
    <property name="aspect_ratio">1</property>
    <property name="progressive">1</property>
    <property name="seekable">1</property>
    <property name="mlt_service">qimage</property>
    <property name="creation_time">2022-02-22T11:09:17</property>
    <property name="xml">was here</property>
    <property name="shotcut:hash">fb4d2cf3dbe7b2470ef014db3f473703</property>
    <property name="shotcut:caption">22-skliroi2-dropshadow.png</property>
    <filter id="filter59" in="00:00:00.080" out="00:00:41.680">
      <property name="start">1</property>
      <property name="level">1</property>
      <property name="mlt_service">brightness</property>
      <property name="shotcut:filter">fadeOutBrightness</property>
      <property name="alpha">00:00:39.640=1;00:00:41.600=0</property>
      <property name="shotcut:animOut">00:00:02.000</property>
    </filter>
    <filter id="filter60" in="00:00:00.080" out="00:00:41.680">
      <property name="background">color:#00000000</property>
      <property name="mlt_service">affine</property>
      <property name="shotcut:filter">affineSizePosition</property>
      <property name="transition.fill">1</property>
      <property name="transition.distort">0</property>
      <property name="transition.rect">1150 590 581 441.211 1</property>
      <property name="transition.valign">middle</property>
      <property name="transition.halign">center</property>
      <property name="shotcut:animIn">00:00:00.000</property>
      <property name="shotcut:animOut">00:00:00.000</property>
      <property name="transition.threads">0</property>
      <property name="transition.fix_rotate_x">0</property>
    </filter>
  </producer>
  <tractor id="tractor31" in="00:00:00.000" out="00:00:10.320">
    <property name="shotcut:transition">lumaMix</property>
    <track producer="producer93" in="00:00:40.560" out="00:00:50.880"/>
    <track producer="producer94" in="00:00:00.080" out="00:00:10.400"/>
    <transition id="transition62" out="00:00:10.320">
      <property name="a_track">0</property>
      <property name="b_track">1</property>
      <property name="factory">loader</property>
      <property name="resource">%luma15.pgm</property>
      <property name="mlt_service">luma</property>
      <property name="alpha_over">1</property>
      <property name="progressive">1</property>
      <property name="invert">0</property>
      <property name="softness">0.2</property>
    </transition>
    <transition id="transition63" out="00:00:10.320">
      <property name="a_track">0</property>
      <property name="b_track">1</property>
      <property name="mlt_service">mix</property>
      <property name="start">-1</property>
      <property name="accepts_blanks">1</property>
    </transition>
  </tractor>
  <producer id="producer95" in="00:00:00.000" out="03:59:59.960">
    <property name="length">04:00:00.000</property>
    <property name="eof">pause</property>
    <property name="resource">images/20-deep_thinking-dropshadow.png</property>
    <property name="ttl">1</property>
    <property name="aspect_ratio">1</property>
    <property name="progressive">1</property>
    <property name="seekable">1</property>
    <property name="mlt_service">qimage</property>
    <property name="creation_time">2022-02-22T11:05:53</property>
    <property name="xml">was here</property>
    <property name="shotcut:hash">25ad07d435ef9ee665c9e0e6f6697756</property>
    <property name="shotcut:caption">20-deep_thinking-dropshadow.png</property>
    <filter id="filter61" out="00:00:51.640">
      <property name="start">1</property>
      <property name="level">1</property>
      <property name="mlt_service">brightness</property>
      <property name="shotcut:filter">fadeInBrightness</property>
      <property name="alpha">00:00:00.000=0;00:00:01.960=1</property>
      <property name="shotcut:animIn">00:00:02.000</property>
    </filter>
    <filter id="filter62" out="00:00:51.640">
      <property name="start">1</property>
      <property name="level">1</property>
      <property name="mlt_service">brightness</property>
      <property name="shotcut:filter">fadeOutBrightness</property>
      <property name="alpha">00:00:49.680=1;00:00:51.640=0</property>
      <property name="shotcut:animOut">00:00:02.000</property>
    </filter>
    <filter id="filter63" out="00:00:51.640">
      <property name="background">color:#00000000</property>
      <property name="mlt_service">affine</property>
      <property name="shotcut:filter">affineSizePosition</property>
      <property name="transition.fill">1</property>
      <property name="transition.distort">0</property>
      <property name="transition.rect">1253.31 540 373.371 540 1</property>
      <property name="transition.valign">middle</property>
      <property name="transition.halign">center</property>
      <property name="shotcut:animIn">00:00:00.000</property>
      <property name="shotcut:animOut">00:00:00.000</property>
      <property name="transition.threads">0</property>
      <property name="transition.fix_rotate_x">0</property>
    </filter>
  </producer>
  <producer id="producer96" in="00:00:00.000" out="03:59:59.960">
    <property name="length">04:00:00.000</property>
    <property name="eof">pause</property>
    <property name="resource">images/24-human_compatible-dropshadow.png</property>
    <property name="ttl">1</property>
    <property name="aspect_ratio">1</property>
    <property name="progressive">1</property>
    <property name="seekable">1</property>
    <property name="mlt_service">qimage</property>
    <property name="creation_time">2022-02-22T13:10:51</property>
    <property name="xml">was here</property>
    <property name="shotcut:hash">90f704e0d700e9394092a777c28e1873</property>
    <property name="shotcut:caption">24-human_compatible-dropshadow.png</property>
    <filter id="filter64" out="00:00:38.760">
      <property name="start">1</property>
      <property name="level">1</property>
      <property name="mlt_service">brightness</property>
      <property name="shotcut:filter">fadeInBrightness</property>
      <property name="alpha">00:00:00.000=0;00:00:01.960=1</property>
      <property name="shotcut:animIn">00:00:02.000</property>
    </filter>
    <filter id="filter65" out="00:00:38.760">
      <property name="start">1</property>
      <property name="level">1</property>
      <property name="mlt_service">brightness</property>
      <property name="shotcut:filter">fadeOutBrightness</property>
      <property name="alpha">00:00:36.800=1;00:00:38.760=0</property>
      <property name="shotcut:animOut">00:00:02.000</property>
    </filter>
    <filter id="filter66" out="00:00:38.760">
      <property name="background">color:#00000000</property>
      <property name="mlt_service">affine</property>
      <property name="shotcut:filter">affineSizePosition</property>
      <property name="transition.fill">1</property>
      <property name="transition.distort">0</property>
      <property name="transition.rect">1279.87 570.349 320.269 479.302 1</property>
      <property name="transition.valign">middle</property>
      <property name="transition.halign">center</property>
      <property name="shotcut:animIn">00:00:00.000</property>
      <property name="shotcut:animOut">00:00:00.000</property>
      <property name="transition.threads">0</property>
    </filter>
  </producer>
  <producer id="producer97" in="00:00:00.000" out="03:59:59.960">
    <property name="length">04:00:00.000</property>
    <property name="eof">pause</property>
    <property name="resource">images/25-radical-dropshadow.png</property>
    <property name="ttl">1</property>
    <property name="aspect_ratio">1</property>
    <property name="progressive">1</property>
    <property name="seekable">1</property>
    <property name="mlt_service">qimage</property>
    <property name="creation_time">2022-02-22T13:35:17</property>
    <property name="xml">was here</property>
    <property name="shotcut:hash">e0b0748af6bd77388652de2b8deefbdb</property>
    <property name="shotcut:caption">25-radical-dropshadow.png</property>
    <filter id="filter67" out="00:01:03.320">
      <property name="start">1</property>
      <property name="level">1</property>
      <property name="mlt_service">brightness</property>
      <property name="shotcut:filter">fadeInBrightness</property>
      <property name="alpha">00:00:00.000=0;00:00:01.960=1</property>
      <property name="shotcut:animIn">00:00:02.000</property>
    </filter>
    <filter id="filter68" out="00:01:03.320">
      <property name="start">1</property>
      <property name="level">1</property>
      <property name="mlt_service">brightness</property>
      <property name="shotcut:filter">fadeOutBrightness</property>
      <property name="alpha">00:01:01.360=1;00:01:03.320=0</property>
      <property name="shotcut:animOut">00:00:02.000</property>
    </filter>
    <filter id="filter69" out="00:01:03.320">
      <property name="background">color:#00000000</property>
      <property name="mlt_service">affine</property>
      <property name="shotcut:filter">affineSizePosition</property>
      <property name="transition.fill">1</property>
      <property name="transition.distort">0</property>
      <property name="transition.rect">1036.21 575.581 807.585 468.837 1</property>
      <property name="transition.valign">middle</property>
      <property name="transition.halign">center</property>
      <property name="shotcut:animIn">00:00:00.000</property>
      <property name="shotcut:animOut">00:00:00.000</property>
      <property name="transition.threads">0</property>
      <property name="transition.fix_rotate_x">0</property>
    </filter>
  </producer>
  <producer id="producer98" in="00:00:00.000" out="03:59:59.960">
    <property name="length">04:00:00.000</property>
    <property name="eof">pause</property>
    <property name="resource">images/36-Tsovolas-DHKKI-dropshadow.png</property>
    <property name="ttl">1</property>
    <property name="aspect_ratio">1</property>
    <property name="progressive">1</property>
    <property name="seekable">1</property>
    <property name="mlt_service">qimage</property>
    <property name="creation_time">2022-02-22T13:40:28</property>
    <property name="xml">was here</property>
    <property name="shotcut:hash">3ee25c6105069557fdb400569e0049d2</property>
    <property name="shotcut:caption">36-Tsovolas-DHKKI-dropshadow.png</property>
    <filter id="filter70" out="00:00:18.560">
      <property name="background">color:#00000000</property>
      <property name="mlt_service">affine</property>
      <property name="shotcut:filter">affineSizePosition</property>
      <property name="transition.fill">1</property>
      <property name="transition.distort">0</property>
      <property name="transition.rect">1103.06 550.465 673.88 519.07 1</property>
      <property name="transition.valign">middle</property>
      <property name="transition.halign">center</property>
      <property name="shotcut:animIn">00:00:00.000</property>
      <property name="shotcut:animOut">00:00:00.000</property>
      <property name="transition.threads">0</property>
    </filter>
    <filter id="filter71" out="00:00:18.560">
      <property name="start">1</property>
      <property name="level">1</property>
      <property name="mlt_service">brightness</property>
      <property name="shotcut:filter">fadeInBrightness</property>
      <property name="alpha">00:00:00.000=0;00:00:01.960=1</property>
      <property name="shotcut:animIn">00:00:02.000</property>
    </filter>
    <filter id="filter72" out="00:00:18.560">
      <property name="start">1</property>
      <property name="level">1</property>
      <property name="mlt_service">brightness</property>
      <property name="shotcut:filter">fadeOutBrightness</property>
      <property name="alpha">00:00:16.600=1;00:00:18.560=0</property>
      <property name="shotcut:animOut">00:00:02.000</property>
    </filter>
  </producer>
  <producer id="producer99" in="00:00:00.000" out="03:59:59.960">
    <property name="length">04:00:00.000</property>
    <property name="eof">pause</property>
    <property name="resource">images/37-rational_voter-dropshadow.png</property>
    <property name="ttl">1</property>
    <property name="aspect_ratio">1</property>
    <property name="progressive">1</property>
    <property name="seekable">1</property>
    <property name="mlt_service">qimage</property>
    <property name="creation_time">2022-02-22T13:53:40</property>
    <property name="xml">was here</property>
    <property name="shotcut:hash">3dadd60573dd5e604383636dbde5b50a</property>
    <property name="shotcut:caption">37-rational_voter-dropshadow.png</property>
    <filter id="filter73" out="00:00:49.080">
      <property name="start">1</property>
      <property name="level">1</property>
      <property name="mlt_service">brightness</property>
      <property name="shotcut:filter">fadeInBrightness</property>
      <property name="alpha">00:00:00.000=0;00:00:01.960=1</property>
      <property name="shotcut:animIn">00:00:02.000</property>
    </filter>
    <filter id="filter74" out="00:00:49.080">
      <property name="start">1</property>
      <property name="level">1</property>
      <property name="mlt_service">brightness</property>
      <property name="shotcut:filter">fadeOutBrightness</property>
      <property name="alpha">00:00:47.120=1;00:00:49.080=0</property>
      <property name="shotcut:animOut">00:00:02.000</property>
    </filter>
    <filter id="filter75" out="00:00:49.080">
      <property name="background">color:#00000000</property>
      <property name="mlt_service">affine</property>
      <property name="shotcut:filter">affineSizePosition</property>
      <property name="transition.fill">1</property>
      <property name="transition.distort">0</property>
      <property name="transition.rect">1270.16 565.814 339.69 488.372 1</property>
      <property name="transition.valign">middle</property>
      <property name="transition.halign">center</property>
      <property name="shotcut:animIn">00:00:00.000</property>
      <property name="shotcut:animOut">00:00:00.000</property>
      <property name="transition.threads">0</property>
      <property name="transition.fix_rotate_x">0</property>
    </filter>
  </producer>
  <chain id="chain45" out="00:00:05.040">
    <property name="length">00:00:05.080</property>
    <property name="eof">pause</property>
    <property name="resource">/home/dimitry/fetareport/archive/episode0100-uber_for_x_and_e_food_part3/video_samples/marinakis.mp4</property>
    <property name="mlt_service">avformat-novalidate</property>
    <property name="seekable">1</property>
    <property name="audio_index">1</property>
    <property name="video_index">0</property>
    <property name="mute_on_pause">0</property>
    <property name="xml">was here</property>
    <property name="shotcut:hash">409fab209972d33eac6204ddd05e022e</property>
    <property name="shotcut:caption">marinakis.mp4</property>
    <filter id="filter76" out="00:00:05.040">
      <property name="background">color:#00000000</property>
      <property name="mlt_service">affine</property>
      <property name="shotcut:filter">affineSizePosition</property>
      <property name="transition.fill">1</property>
      <property name="transition.distort">0</property>
      <property name="transition.rect">1092 614.25 696 391.5 1</property>
      <property name="transition.valign">middle</property>
      <property name="transition.halign">center</property>
      <property name="shotcut:animIn">00:00:00.000</property>
      <property name="shotcut:animOut">00:00:00.000</property>
      <property name="transition.threads">0</property>
    </filter>
  </chain>
  <producer id="producer100" in="00:00:00.000" out="03:59:59.960">
    <property name="length">04:00:00.000</property>
    <property name="eof">pause</property>
    <property name="resource">images/40-cover-701-dropsahdow.png</property>
    <property name="ttl">1</property>
    <property name="aspect_ratio">1</property>
    <property name="progressive">1</property>
    <property name="seekable">1</property>
    <property name="mlt_service">qimage</property>
    <property name="creation_time">2022-02-22T17:05:01</property>
    <property name="xml">was here</property>
    <property name="shotcut:hash">4ddc6a8810efae986b5c781bc815e19d</property>
    <property name="shotcut:caption">40-cover-701-dropsahdow.png</property>
    <filter id="filter77" out="00:00:37.960">
      <property name="background">color:#00000000</property>
      <property name="mlt_service">affine</property>
      <property name="shotcut:filter">affineSizePosition</property>
      <property name="transition.fill">1</property>
      <property name="transition.distort">0</property>
      <property name="transition.rect">1294.38 594 291.231 432 1</property>
      <property name="transition.valign">middle</property>
      <property name="transition.halign">center</property>
      <property name="shotcut:animIn">00:00:00.000</property>
      <property name="shotcut:animOut">00:00:00.000</property>
      <property name="transition.threads">0</property>
    </filter>
    <filter id="filter78" out="00:00:37.960">
      <property name="start">1</property>
      <property name="level">1</property>
      <property name="mlt_service">brightness</property>
      <property name="shotcut:filter">fadeInBrightness</property>
      <property name="alpha">00:00:00.000=0;00:00:01.960=1</property>
      <property name="shotcut:animIn">00:00:02.000</property>
    </filter>
    <filter id="filter79" out="00:00:37.960">
      <property name="start">1</property>
      <property name="level">1</property>
      <property name="mlt_service">brightness</property>
      <property name="shotcut:filter">fadeOutBrightness</property>
      <property name="alpha">00:00:36.000=1;00:00:37.960=0</property>
      <property name="shotcut:animOut">00:00:02.000</property>
    </filter>
  </producer>
  <producer id="producer101" in="00:00:00.000" out="03:59:59.960">
    <property name="length">04:00:00.000</property>
    <property name="eof">pause</property>
    <property name="resource">images/41-sound_xyz-dropshadow.png</property>
    <property name="ttl">1</property>
    <property name="aspect_ratio">1</property>
    <property name="progressive">1</property>
    <property name="seekable">1</property>
    <property name="mlt_service">qimage</property>
    <property name="creation_time">2022-02-22T17:16:54</property>
    <property name="xml">was here</property>
    <property name="shotcut:hash">16f6b0ced41a3f1da996deb983dd0304</property>
    <property name="shotcut:caption">41-sound_xyz-dropshadow.png</property>
    <filter id="filter80" out="00:00:38.000">
      <property name="background">color:#00000000</property>
      <property name="mlt_service">affine</property>
      <property name="shotcut:filter">affineSizePosition</property>
      <property name="transition.fill">1</property>
      <property name="transition.distort">0</property>
      <property name="transition.rect">1047.23 597.25 785.538 425.5 1</property>
      <property name="transition.valign">middle</property>
      <property name="transition.halign">center</property>
      <property name="shotcut:animIn">00:00:00.000</property>
      <property name="shotcut:animOut">00:00:00.000</property>
      <property name="transition.threads">0</property>
    </filter>
    <filter id="filter81" out="00:00:38.000">
      <property name="start">1</property>
      <property name="level">1</property>
      <property name="mlt_service">brightness</property>
      <property name="shotcut:filter">fadeInBrightness</property>
      <property name="alpha">00:00:00.000=0;00:00:01.960=1</property>
      <property name="shotcut:animIn">00:00:02.000</property>
    </filter>
    <filter id="filter82" out="00:00:38.000">
      <property name="start">1</property>
      <property name="level">1</property>
      <property name="mlt_service">brightness</property>
      <property name="shotcut:filter">fadeOutBrightness</property>
      <property name="alpha">00:00:36.040=1;00:00:38.000=0</property>
      <property name="shotcut:animOut">00:00:02.000</property>
    </filter>
  </producer>
  <producer id="producer102" in="00:00:00.000" out="03:59:59.960">
    <property name="length">04:00:00.000</property>
    <property name="eof">pause</property>
    <property name="resource">images/42-simplerminds-dropshadow.png</property>
    <property name="ttl">1</property>
    <property name="aspect_ratio">1</property>
    <property name="progressive">1</property>
    <property name="seekable">1</property>
    <property name="mlt_service">qimage</property>
    <property name="creation_time">2022-02-22T17:21:56</property>
    <property name="xml">was here</property>
    <property name="shotcut:hash">f79168604bb22090316103c9ebffaafc</property>
    <property name="shotcut:caption">42-simplerminds-dropshadow.png</property>
    <filter id="filter83" out="00:00:35.600">
      <property name="background">color:#00000000</property>
      <property name="mlt_service">affine</property>
      <property name="shotcut:filter">affineSizePosition</property>
      <property name="transition.fill">1</property>
      <property name="transition.distort">0</property>
      <property name="transition.rect">1066.2 612.005 747.6 395.991 1</property>
      <property name="transition.valign">middle</property>
      <property name="transition.halign">center</property>
      <property name="shotcut:animIn">00:00:00.000</property>
      <property name="shotcut:animOut">00:00:00.000</property>
      <property name="transition.threads">0</property>
    </filter>
    <filter id="filter84" out="00:00:35.600">
      <property name="start">1</property>
      <property name="level">1</property>
      <property name="mlt_service">brightness</property>
      <property name="shotcut:filter">fadeOutBrightness</property>
      <property name="alpha">00:00:33.640=1;00:00:35.600=0</property>
      <property name="shotcut:animOut">00:00:02.000</property>
    </filter>
    <filter id="filter85" out="00:00:35.600">
      <property name="start">1</property>
      <property name="level">1</property>
      <property name="mlt_service">brightness</property>
      <property name="shotcut:filter">fadeInBrightness</property>
      <property name="alpha">00:00:00.000=0;00:00:01.960=1</property>
      <property name="shotcut:animIn">00:00:02.000</property>
    </filter>
  </producer>
  <producer id="producer103" in="00:00:00.000" out="03:59:59.960">
    <property name="length">04:00:00.000</property>
    <property name="eof">pause</property>
    <property name="resource">images/43-why_dna-dropshadow.png</property>
    <property name="ttl">1</property>
    <property name="aspect_ratio">1</property>
    <property name="progressive">1</property>
    <property name="seekable">1</property>
    <property name="mlt_service">qimage</property>
    <property name="creation_time">2022-02-22T20:05:48</property>
    <property name="xml">was here</property>
    <property name="shotcut:hash">55f667434b3fc94513966ed694cb1f62</property>
    <property name="shotcut:caption">43-why_dna-dropshadow.png</property>
    <filter id="filter86" out="00:00:22.240">
      <property name="background">color:#00000000</property>
      <property name="mlt_service">affine</property>
      <property name="shotcut:filter">affineSizePosition</property>
      <property name="transition.fill">1</property>
      <property name="transition.distort">0</property>
      <property name="transition.rect">1287.34 590.516 305.326 438.968 1</property>
      <property name="transition.valign">middle</property>
      <property name="transition.halign">center</property>
      <property name="shotcut:animIn">00:00:00.000</property>
      <property name="shotcut:animOut">00:00:00.000</property>
      <property name="transition.threads">0</property>
    </filter>
    <filter id="filter87" out="00:00:22.240">
      <property name="start">1</property>
      <property name="level">1</property>
      <property name="mlt_service">brightness</property>
      <property name="shotcut:filter">fadeInBrightness</property>
      <property name="alpha">00:00:00.000=0;00:00:01.960=1</property>
      <property name="shotcut:animIn">00:00:02.000</property>
    </filter>
  </producer>
  <producer id="producer104" in="00:00:00.000" out="03:59:59.960">
    <property name="length">04:00:00.000</property>
    <property name="eof">pause</property>
    <property name="resource">images/44-2034-dropshadow.png</property>
    <property name="ttl">1</property>
    <property name="aspect_ratio">1</property>
    <property name="progressive">1</property>
    <property name="seekable">1</property>
    <property name="mlt_service">qimage</property>
    <property name="creation_time">2022-02-22T20:09:57</property>
    <property name="xml">was here</property>
    <property name="shotcut:hash">ed343d8ad4c9e6de5e8739956f9357fe</property>
    <property name="shotcut:caption">44-2034-dropshadow.png</property>
    <filter id="filter88" out="00:00:36.560">
      <property name="background">color:#00000000</property>
      <property name="mlt_service">affine</property>
      <property name="shotcut:filter">affineSizePosition</property>
      <property name="transition.fill">1</property>
      <property name="transition.distort">0</property>
      <property name="transition.rect">1269.09 565.839 341.826 488.323 1</property>
      <property name="transition.valign">middle</property>
      <property name="transition.halign">center</property>
      <property name="shotcut:animIn">00:00:00.000</property>
      <property name="shotcut:animOut">00:00:00.000</property>
      <property name="transition.threads">0</property>
    </filter>
  </producer>
  <tractor id="tractor32" in="00:00:00.000" out="00:00:02.480">
    <property name="shotcut:transition">lumaMix</property>
    <track producer="producer103" in="00:00:19.760" out="00:00:22.240"/>
    <track producer="producer104" in="00:00:00.000" out="00:00:02.480"/>
    <transition id="transition64" out="00:00:02.480">
      <property name="a_track">0</property>
      <property name="b_track">1</property>
      <property name="factory">loader</property>
      <property name="mlt_service">luma</property>
      <property name="alpha_over">1</property>
    </transition>
    <transition id="transition65" out="00:00:02.480">
      <property name="a_track">0</property>
      <property name="b_track">1</property>
      <property name="mlt_service">mix</property>
      <property name="start">-1</property>
      <property name="accepts_blanks">1</property>
    </transition>
  </tractor>
  <producer id="producer105" in="00:00:00.000" out="03:59:59.960">
    <property name="length">04:00:00.000</property>
    <property name="eof">pause</property>
    <property name="resource">images/45-stubborn-dropshadow.png</property>
    <property name="ttl">1</property>
    <property name="aspect_ratio">1</property>
    <property name="progressive">1</property>
    <property name="seekable">1</property>
    <property name="mlt_service">qimage</property>
    <property name="creation_time">2022-02-22T20:14:24</property>
    <property name="xml">was here</property>
    <property name="shotcut:hash">a9cd99a7ca85866ef359501ac4c0e605</property>
    <property name="shotcut:caption">45-stubborn-dropshadow.png</property>
    <filter id="filter89" out="00:00:17.840">
      <property name="background">color:#00000000</property>
      <property name="mlt_service">affine</property>
      <property name="shotcut:filter">affineSizePosition</property>
      <property name="transition.fill">1</property>
      <property name="transition.distort">0</property>
      <property name="transition.rect">1271.52 571.935 336.953 476.129 1</property>
      <property name="transition.valign">middle</property>
      <property name="transition.halign">center</property>
      <property name="shotcut:animIn">00:00:00.000</property>
      <property name="shotcut:animOut">00:00:00.000</property>
      <property name="transition.threads">0</property>
      <property name="transition.fix_rotate_x">0</property>
    </filter>
  </producer>
  <tractor id="tractor33" in="00:00:00.000" out="00:00:04.320">
    <property name="shotcut:transition">lumaMix</property>
    <track producer="producer104" in="00:00:32.240" out="00:00:36.560"/>
    <track producer="producer105" in="00:00:00.000" out="00:00:04.320"/>
    <transition id="transition66" out="00:00:04.320">
      <property name="a_track">0</property>
      <property name="b_track">1</property>
      <property name="factory">loader</property>
      <property name="mlt_service">luma</property>
      <property name="alpha_over">1</property>
    </transition>
    <transition id="transition67" out="00:00:04.320">
      <property name="a_track">0</property>
      <property name="b_track">1</property>
      <property name="mlt_service">mix</property>
      <property name="start">-1</property>
      <property name="accepts_blanks">1</property>
    </transition>
  </tractor>
  <producer id="producer106" in="00:00:00.000" out="03:59:59.960">
    <property name="length">04:00:00.000</property>
    <property name="eof">pause</property>
    <property name="resource">images/46-darwins-dropshadow.png</property>
    <property name="ttl">1</property>
    <property name="aspect_ratio">1</property>
    <property name="progressive">1</property>
    <property name="seekable">1</property>
    <property name="mlt_service">qimage</property>
    <property name="creation_time">2022-02-22T20:17:12</property>
    <property name="xml">was here</property>
    <property name="shotcut:hash">5648d7fbb5b6b24cf65b0e23afd9e51a</property>
    <property name="shotcut:caption">46-darwins-dropshadow.png</property>
    <filter id="filter90" out="00:00:15.920">
      <property name="background">color:#00000000</property>
      <property name="mlt_service">affine</property>
      <property name="shotcut:filter">affineSizePosition</property>
      <property name="transition.fill">1</property>
      <property name="transition.distort">0</property>
      <property name="transition.rect">1271.52 567 336.96 486 1</property>
      <property name="transition.valign">middle</property>
      <property name="transition.halign">center</property>
      <property name="shotcut:animIn">00:00:00.000</property>
      <property name="shotcut:animOut">00:00:00.000</property>
      <property name="transition.threads">0</property>
    </filter>
    <filter id="filter91" out="00:00:15.920">
      <property name="start">1</property>
      <property name="level">1</property>
      <property name="mlt_service">brightness</property>
      <property name="shotcut:filter">fadeOutBrightness</property>
      <property name="alpha">00:00:13.960=1;00:00:15.920=0</property>
      <property name="shotcut:animOut">00:00:02.000</property>
    </filter>
  </producer>
  <tractor id="tractor34" in="00:00:00.000" out="00:00:04.000">
    <property name="shotcut:transition">lumaMix</property>
    <track producer="producer105" in="00:00:13.840" out="00:00:17.840"/>
    <track producer="producer106" in="00:00:00.000" out="00:00:04.000"/>
    <transition id="transition68" out="00:00:04.000">
      <property name="a_track">0</property>
      <property name="b_track">1</property>
      <property name="factory">loader</property>
      <property name="mlt_service">luma</property>
      <property name="alpha_over">1</property>
    </transition>
    <transition id="transition69" out="00:00:04.000">
      <property name="a_track">0</property>
      <property name="b_track">1</property>
      <property name="mlt_service">mix</property>
      <property name="start">-1</property>
      <property name="accepts_blanks">1</property>
    </transition>
  </tractor>
  <producer id="producer107" in="00:00:00.000" out="03:59:59.960">
    <property name="length">04:00:00.000</property>
    <property name="eof">pause</property>
    <property name="resource">images/47-ravenna-dropshadow.png</property>
    <property name="ttl">1</property>
    <property name="aspect_ratio">1</property>
    <property name="progressive">1</property>
    <property name="seekable">1</property>
    <property name="mlt_service">qimage</property>
    <property name="creation_time">2022-02-22T20:22:12</property>
    <property name="xml">was here</property>
    <property name="shotcut:hash">87adf2d61744debfe85e1791dd417f26</property>
    <property name="shotcut:caption">47-ravenna-dropshadow.png</property>
    <filter id="filter92" out="00:01:30.080">
      <property name="background">color:#00000000</property>
      <property name="mlt_service">affine</property>
      <property name="shotcut:filter">affineSizePosition</property>
      <property name="transition.fill">1</property>
      <property name="transition.distort">0</property>
      <property name="transition.rect">1269.6 562.645 340.8 494.71 1</property>
      <property name="transition.valign">middle</property>
      <property name="transition.halign">center</property>
      <property name="shotcut:animIn">00:00:00.000</property>
      <property name="shotcut:animOut">00:00:00.000</property>
      <property name="transition.threads">0</property>
    </filter>
    <filter id="filter93" out="00:01:30.080">
      <property name="start">1</property>
      <property name="level">1</property>
      <property name="mlt_service">brightness</property>
      <property name="shotcut:filter">fadeInBrightness</property>
      <property name="alpha">00:00:00.000=0;00:00:01.960=1</property>
      <property name="shotcut:animIn">00:00:02.000</property>
    </filter>
    <filter id="filter94" out="00:01:30.080">
      <property name="start">1</property>
      <property name="level">1</property>
      <property name="mlt_service">brightness</property>
      <property name="shotcut:filter">fadeOutBrightness</property>
      <property name="alpha">00:01:28.120=1;00:01:30.080=0</property>
      <property name="shotcut:animOut">00:00:02.000</property>
    </filter>
  </producer>
  <producer id="producer108" in="00:00:00.000" out="03:59:59.960">
    <property name="length">04:00:00.000</property>
    <property name="eof">pause</property>
    <property name="resource">images/48-twenty_battles-dropshadow.png</property>
    <property name="ttl">1</property>
    <property name="aspect_ratio">1</property>
    <property name="progressive">1</property>
    <property name="seekable">1</property>
    <property name="mlt_service">qimage</property>
    <property name="creation_time">2022-02-22T20:26:22</property>
    <property name="xml">was here</property>
    <property name="shotcut:hash">00b1e0d6abb0a92b30a55f5a6a930ee9</property>
    <property name="shotcut:caption">48-twenty_battles-dropshadow.png</property>
    <filter id="filter95" out="00:00:41.200">
      <property name="background">color:#00000000</property>
      <property name="mlt_service">affine</property>
      <property name="shotcut:filter">affineSizePosition</property>
      <property name="transition.fill">1</property>
      <property name="transition.distort">0</property>
      <property name="transition.rect">1263.32 563.226 353.358 493.548 1</property>
      <property name="transition.valign">middle</property>
      <property name="transition.halign">center</property>
      <property name="shotcut:animIn">00:00:00.000</property>
      <property name="shotcut:animOut">00:00:00.000</property>
      <property name="transition.threads">0</property>
    </filter>
    <filter id="filter96" out="00:00:41.200">
      <property name="start">1</property>
      <property name="level">1</property>
      <property name="mlt_service">brightness</property>
      <property name="shotcut:filter">fadeInBrightness</property>
      <property name="alpha">00:00:00.000=0;00:00:01.960=1</property>
      <property name="shotcut:animIn">00:00:02.000</property>
    </filter>
    <filter id="filter97" out="00:00:41.200">
      <property name="start">1</property>
      <property name="level">1</property>
      <property name="mlt_service">brightness</property>
      <property name="shotcut:filter">fadeOutBrightness</property>
      <property name="alpha">00:00:39.240=1;00:00:41.200=0</property>
      <property name="shotcut:animOut">00:00:02.000</property>
    </filter>
  </producer>
  <producer id="producer109" in="00:00:00.000" out="03:59:59.960">
    <property name="length">04:00:00.000</property>
    <property name="eof">pause</property>
    <property name="resource">images/49_never_split-dropshadow.png</property>
    <property name="ttl">1</property>
    <property name="aspect_ratio">1</property>
    <property name="progressive">1</property>
    <property name="seekable">1</property>
    <property name="mlt_service">qimage</property>
    <property name="creation_time">2022-02-22T20:28:54</property>
    <property name="xml">was here</property>
    <property name="shotcut:hash">5d2ded35578efa8426b5789ca70d1d70</property>
    <property name="shotcut:caption">49_never_split-dropshadow.png</property>
    <filter id="filter98" out="00:00:27.680">
      <property name="background">color:#00000000</property>
      <property name="mlt_service">affine</property>
      <property name="shotcut:filter">affineSizePosition</property>
      <property name="transition.fill">1</property>
      <property name="transition.distort">0</property>
      <property name="transition.rect">1276.76 571.935 326.488 476.129 1</property>
      <property name="transition.valign">middle</property>
      <property name="transition.halign">center</property>
      <property name="shotcut:animIn">00:00:00.000</property>
      <property name="shotcut:animOut">00:00:00.000</property>
      <property name="transition.threads">0</property>
    </filter>
    <filter id="filter99" out="00:00:27.680">
      <property name="start">1</property>
      <property name="level">1</property>
      <property name="mlt_service">brightness</property>
      <property name="shotcut:filter">fadeInBrightness</property>
      <property name="alpha">00:00:00.000=0;00:00:01.960=1</property>
      <property name="shotcut:animIn">00:00:02.000</property>
    </filter>
    <filter id="filter100" out="00:00:27.680">
      <property name="start">1</property>
      <property name="level">1</property>
      <property name="mlt_service">brightness</property>
      <property name="shotcut:filter">fadeOutBrightness</property>
      <property name="alpha">00:00:25.720=1;00:00:27.680=0</property>
      <property name="shotcut:animOut">00:00:02.000</property>
    </filter>
  </producer>
  <playlist id="playlist8">
    <property name="shotcut:video">1</property>
    <property name="shotcut:name">Logo + Images + Videos: Layer 1</property>
    <blank length="00:01:42.280"/>
    <entry producer="producer83" in="00:00:00.000" out="00:04:51.560"/>
    <entry producer="tractor28" in="00:00:00.000" out="00:00:05.000"/>
    <entry producer="producer84" in="00:00:05.040" out="00:00:58.080"/>
    <entry producer="tractor29" in="00:00:00.000" out="00:00:04.720"/>
    <entry producer="producer85" in="00:00:04.760" out="00:02:09.240"/>
    <entry producer="tractor30" in="00:00:00.000" out="00:00:05.560"/>
    <entry producer="producer86" in="00:00:05.600" out="00:01:30.920"/>
    <entry producer="chain42" in="00:00:00.000" out="00:00:18.200"/>
    <entry producer="chain43" in="00:00:00.000" out="00:00:18.200"/>
    <entry producer="chain44" in="00:00:00.000" out="00:02:22.560"/>
    <blank length="00:09:46.240"/>
    <entry producer="producer87" in="00:00:00.000" out="00:00:04.800"/>
    <blank length="00:00:18.840"/>
    <entry producer="producer88" in="00:00:00.000" out="00:00:28.480"/>
    <blank length="00:03:41.600"/>
    <entry producer="producer89" in="00:00:00.000" out="00:00:07.880"/>
    <blank length="00:00:06.400"/>
    <entry producer="producer90" in="00:00:00.000" out="00:01:06.920"/>
    <blank length="00:01:20.880"/>
    <entry producer="producer91" in="00:00:00.000" out="00:00:53.760"/>
    <blank length="00:03:27.200"/>
    <entry producer="producer92" in="00:00:00.000" out="00:01:14.400"/>
    <blank length="00:00:15.600"/>
    <entry producer="producer93" in="00:00:00.000" out="00:00:40.520"/>
    <entry producer="tractor31" in="00:00:00.000" out="00:00:10.320"/>
    <entry producer="producer94" in="00:00:10.440" out="00:00:41.680"/>
    <entry producer="producer95" in="00:00:00.000" out="00:00:51.640"/>
    <blank length="00:00:09.880"/>
    <entry producer="producer96" in="00:00:00.000" out="00:00:38.760"/>
    <blank length="00:02:53.280"/>
    <entry producer="producer97" in="00:00:00.000" out="00:01:03.320"/>
    <blank length="00:00:22.640"/>
    <entry producer="producer98" in="00:00:00.000" out="00:00:18.560"/>
    <blank length="00:08:15.200"/>
    <entry producer="producer99" in="00:00:00.000" out="00:00:49.080"/>
    <blank length="00:16:22.160"/>
    <entry producer="chain45" in="00:00:00.000" out="00:00:05.040"/>
    <blank length="00:04:51.600"/>
    <entry producer="producer100" in="00:00:00.000" out="00:00:37.960"/>
    <blank length="00:04:57.480"/>
    <entry producer="producer101" in="00:00:00.000" out="00:00:38.000"/>
    <blank length="00:00:22.880"/>
    <entry producer="producer102" in="00:00:00.000" out="00:00:35.600"/>
    <blank length="00:03:52.040"/>
    <entry producer="producer103" in="00:00:00.000" out="00:00:19.720"/>
    <entry producer="tractor32" in="00:00:00.000" out="00:00:02.480"/>
    <entry producer="producer104" in="00:00:02.520" out="00:00:32.200"/>
    <entry producer="tractor33" in="00:00:00.000" out="00:00:04.320"/>
    <entry producer="producer105" in="00:00:04.360" out="00:00:13.800"/>
    <entry producer="tractor34" in="00:00:00.000" out="00:00:04.000"/>
    <entry producer="producer106" in="00:00:04.040" out="00:00:15.920"/>
    <blank length="00:00:54.440"/>
    <entry producer="producer107" in="00:00:00.000" out="00:01:30.080"/>
    <blank length="00:00:23.640"/>
    <entry producer="producer108" in="00:00:00.000" out="00:00:41.200"/>
    <blank length="00:00:11.560"/>
    <entry producer="producer109" in="00:00:00.000" out="00:00:27.680"/>
  </playlist>
  <producer id="producer110" in="00:00:00.000" out="03:59:59.960">
    <property name="length">04:00:00.000</property>
    <property name="eof">pause</property>
    <property name="resource">/home/dimitry/fetareport/fetareportfinallogo/FETA_REPORT_FINAL-5.png</property>
    <property name="ttl">1</property>
    <property name="aspect_ratio">1</property>
    <property name="progressive">1</property>
    <property name="seekable">1</property>
    <property name="mlt_service">qimage</property>
    <property name="creation_time">2020-05-28T14:07:50</property>
    <property name="xml">was here</property>
    <property name="shotcut:hash">5767969113bde37c518dbea4398f47b1</property>
    <property name="shotcut:caption">FETA_REPORT_FINAL-5.png</property>
    <filter id="filter101" out="00:00:12.360">
      <property name="start">1</property>
      <property name="level">1</property>
      <property name="mlt_service">brightness</property>
      <property name="shotcut:filter">fadeOutBrightness</property>
      <property name="alpha">00:00:10.400=1;00:00:12.360=0</property>
      <property name="shotcut:animOut">00:00:02.000</property>
    </filter>
  </producer>
  <chain id="chain46" out="00:00:24.120">
    <property name="length">00:00:24.160</property>
    <property name="eof">pause</property>
    <property name="resource">video_samples/ΟΧΙ ΣΚΟΥΠΙΔΙΑ, ΟΧΙ ΠΛΑΣΤΙΚΑ ΣΕ ΘΑΛΑΣΣΕΣ ΚΑΙ ΑΚΤΕΣ (1992)-AoaYOf8zNL4.mp4</property>
    <property name="mlt_service">avformat-novalidate</property>
    <property name="seekable">1</property>
    <property name="audio_index">1</property>
    <property name="video_index">0</property>
    <property name="mute_on_pause">0</property>
    <property name="xml">was here</property>
    <property name="shotcut:hash">8b988c35f74d4ef74cc43eb03e6b1d31</property>
    <property name="shotcut:caption">ΟΧΙ ΣΚΟΥΠΙΔΙΑ, ΟΧΙ ΠΛΑΣΤΙΚΑ ΣΕ ΘΑΛΑΣΣΕΣ ΚΑΙ ΑΚΤΕΣ (1992)-AoaYOf8zNL4.mp4</property>
    <filter id="filter102" out="00:00:24.120">
      <property name="background">color:#00000000</property>
      <property name="mlt_service">affine</property>
      <property name="shotcut:filter">affineSizePosition</property>
      <property name="transition.fill">1</property>
      <property name="transition.distort">0</property>
      <property name="transition.rect">688.094 287.153 531.953 398.965 1</property>
      <property name="transition.valign">middle</property>
      <property name="transition.halign">center</property>
      <property name="shotcut:animIn">00:00:00.000</property>
      <property name="shotcut:animOut">00:00:00.000</property>
      <property name="transition.threads">0</property>
    </filter>
    <filter id="filter103" out="00:00:24.120">
      <property name="rect">700 295 503 379 1</property>
      <property name="circle">0</property>
      <property name="color">#00000000</property>
      <property name="radius">0</property>
      <property name="mlt_service">qtcrop</property>
      <property name="shotcut:filter">cropRectangle</property>
      <property name="disable">0</property>
    </filter>
  </chain>
  <chain id="chain47" out="00:00:32.320">
    <property name="length">00:00:32.360</property>
    <property name="eof">pause</property>
    <property name="resource">video_samples/CARNATION_σπανιο 1993 greece tv-dpg3Uik38OY.mp4</property>
    <property name="mlt_service">avformat-novalidate</property>
    <property name="seekable">1</property>
    <property name="audio_index">1</property>
    <property name="video_index">0</property>
    <property name="mute_on_pause">0</property>
    <property name="xml">was here</property>
    <property name="shotcut:hash">f84bb8e7f72b99a29afc1859be694595</property>
    <property name="shotcut:caption">CARNATION_σπανιο 1993 greece tv-dpg3Uik38OY.mp4</property>
    <filter id="filter104" out="00:00:32.320">
      <property name="background">color:#00000000</property>
      <property name="mlt_service">affine</property>
      <property name="shotcut:filter">affineSizePosition</property>
      <property name="transition.fill">1</property>
      <property name="transition.distort">0</property>
      <property name="transition.rect">697.674 290.233 517.209 387.907 1</property>
      <property name="transition.valign">middle</property>
      <property name="transition.halign">center</property>
      <property name="shotcut:animIn">00:00:00.000</property>
      <property name="shotcut:animOut">00:00:00.000</property>
      <property name="transition.threads">0</property>
    </filter>
    <filter id="filter105" out="00:00:32.320">
      <property name="window">75</property>
      <property name="max_gain">20dB</property>
      <property name="level">-7.8</property>
      <property name="mlt_service">volume</property>
    </filter>
  </chain>
  <producer id="producer111" in="00:00:00.000" out="03:59:59.960">
    <property name="length">04:00:00.000</property>
    <property name="eof">pause</property>
    <property name="resource">images/38-golden-dropshadow.png</property>
    <property name="ttl">1</property>
    <property name="aspect_ratio">1</property>
    <property name="progressive">1</property>
    <property name="seekable">1</property>
    <property name="mlt_service">qimage</property>
    <property name="creation_time">2022-02-22T16:08:47</property>
    <property name="xml">was here</property>
    <property name="shotcut:hash">9d151215c9518ab4b1e26c7fea145059</property>
    <property name="shotcut:caption">38-golden-dropshadow.png</property>
    <filter id="filter106" out="00:00:53.320">
      <property name="background">color:#00000000</property>
      <property name="mlt_service">affine</property>
      <property name="shotcut:filter">affineSizePosition</property>
      <property name="transition.fill">1</property>
      <property name="transition.distort">0</property>
      <property name="transition.rect">1021.49 618.713 837.013 382.573 1</property>
      <property name="transition.valign">middle</property>
      <property name="transition.halign">center</property>
      <property name="shotcut:animIn">00:00:00.000</property>
      <property name="shotcut:animOut">00:00:00.000</property>
      <property name="transition.threads">0</property>
    </filter>
    <filter id="filter107" out="00:00:53.320">
      <property name="start">1</property>
      <property name="level">1</property>
      <property name="mlt_service">brightness</property>
      <property name="shotcut:filter">fadeInBrightness</property>
      <property name="alpha">00:00:00.000=0;00:00:01.960=1</property>
      <property name="shotcut:animIn">00:00:02.000</property>
    </filter>
  </producer>
  <producer id="producer112" in="00:00:00.000" out="03:59:59.960">
    <property name="length">04:00:00.000</property>
    <property name="eof">pause</property>
    <property name="resource">images/39-notion-dropshadow.png</property>
    <property name="ttl">1</property>
    <property name="aspect_ratio">1</property>
    <property name="progressive">1</property>
    <property name="seekable">1</property>
    <property name="mlt_service">qimage</property>
    <property name="creation_time">2022-02-22T16:12:44</property>
    <property name="shotcut:hash">a50a975dd73e59cb49a584fde6a07765</property>
    <property name="shotcut:caption">39-notion-dropshadow.png</property>
    <filter id="filter108" out="00:00:13.880">
      <property name="background">color:#00000000</property>
      <property name="mlt_service">affine</property>
      <property name="shotcut:filter">affineSizePosition</property>
      <property name="transition.fill">1</property>
      <property name="transition.distort">0</property>
      <property name="transition.rect">1068.42 628.129 743.167 363.743 1</property>
      <property name="transition.valign">middle</property>
      <property name="transition.halign">center</property>
      <property name="shotcut:animIn">00:00:00.000</property>
      <property name="shotcut:animOut">00:00:00.000</property>
      <property name="transition.threads">0</property>
    </filter>
    <filter id="filter109" out="00:00:13.880">
      <property name="start">1</property>
      <property name="level">1</property>
      <property name="mlt_service">brightness</property>
      <property name="shotcut:filter">fadeOutBrightness</property>
      <property name="alpha">00:00:11.920=1;00:00:13.880=0</property>
      <property name="shotcut:animOut">00:00:02.000</property>
    </filter>
  </producer>
  <tractor id="tractor35" in="00:00:00.000" out="00:00:05.440">
    <property name="shotcut:transition">lumaMix</property>
    <track producer="producer111" in="00:00:47.880" out="00:00:53.320"/>
    <track producer="producer112" in="00:00:00.000" out="00:00:05.440"/>
    <transition id="transition70" out="00:00:05.440">
      <property name="a_track">0</property>
      <property name="b_track">1</property>
      <property name="factory">loader</property>
      <property name="mlt_service">luma</property>
      <property name="alpha_over">1</property>
    </transition>
    <transition id="transition71" out="00:00:05.440">
      <property name="a_track">0</property>
      <property name="b_track">1</property>
      <property name="mlt_service">mix</property>
      <property name="start">-1</property>
      <property name="accepts_blanks">1</property>
    </transition>
  </tractor>
  <playlist id="playlist9">
    <property name="shotcut:video">1</property>
    <property name="shotcut:name">Logo + Images + Videos: Layer 2</property>
    <entry producer="producer110" in="00:00:00.000" out="00:00:12.360"/>
    <blank length="00:27:20.600"/>
    <entry producer="chain46" in="00:00:00.000" out="00:00:24.120"/>
    <blank length="00:26:21.440"/>
    <entry producer="chain47" in="00:00:00.000" out="00:00:32.320"/>
    <blank length="00:07:10.120"/>
    <entry producer="producer111" in="00:00:00.000" out="00:00:47.840"/>
    <entry producer="tractor35" in="00:00:00.000" out="00:00:05.440"/>
    <entry producer="producer112" in="00:00:05.480" out="00:00:13.880"/>
  </playlist>
  <producer id="producer113" in="00:00:00.000" out="03:59:59.960">
    <property name="length">04:00:00.000</property>
    <property name="eof">pause</property>
    <property name="resource">images/title.png</property>
    <property name="ttl">1</property>
    <property name="aspect_ratio">1</property>
    <property name="progressive">1</property>
    <property name="seekable">1</property>
    <property name="mlt_service">qimage</property>
    <property name="creation_time">2022-02-21T10:00:43</property>
    <property name="xml">was here</property>
    <property name="shotcut:hash">fc720100631bfd954aca356faa33a60a</property>
    <property name="shotcut:caption">title.png</property>
    <filter id="filter110" out="00:27:32.560">
      <property name="start">1</property>
      <property name="level">1</property>
      <property name="mlt_service">brightness</property>
      <property name="shotcut:filter">fadeInBrightness</property>
      <property name="alpha">00:00:00.000=0;00:00:06.960=1</property>
      <property name="shotcut:animIn">00:00:07.000</property>
    </filter>
    <filter id="filter111" out="00:27:32.560">
      <property name="background">color:#00000000</property>
      <property name="mlt_service">affine</property>
      <property name="shotcut:filter">affineSizePosition</property>
      <property name="transition.fill">1</property>
      <property name="transition.distort">0</property>
      <property name="transition.rect">60 30 278.894 96.3577 1</property>
      <property name="transition.valign">middle</property>
      <property name="transition.halign">center</property>
      <property name="shotcut:animIn">00:00:00.000</property>
      <property name="shotcut:animOut">00:00:00.000</property>
      <property name="transition.threads">0</property>
      <property name="transition.fix_rotate_x">0</property>
    </filter>
  </producer>
  <producer id="producer114" in="00:00:00.000" out="03:59:59.960">
    <property name="length">04:00:00.000</property>
    <property name="eof">pause</property>
    <property name="resource">images/title.png</property>
    <property name="ttl">1</property>
    <property name="aspect_ratio">1</property>
    <property name="progressive">1</property>
    <property name="seekable">1</property>
    <property name="mlt_service">qimage</property>
    <property name="creation_time">2022-02-21T10:00:43</property>
    <property name="xml">was here</property>
    <property name="shotcut:hash">fc720100631bfd954aca356faa33a60a</property>
    <property name="shotcut:caption">title.png</property>
    <filter id="filter112" in="00:27:33.000" out="00:54:18.160">
      <property name="background">color:#00000000</property>
      <property name="mlt_service">affine</property>
      <property name="shotcut:filter">affineSizePosition</property>
      <property name="transition.fill">1</property>
      <property name="transition.distort">0</property>
      <property name="transition.rect">60 30 278.894 96.3577 1</property>
      <property name="transition.valign">middle</property>
      <property name="transition.halign">center</property>
      <property name="shotcut:animIn">00:00:00.000</property>
      <property name="shotcut:animOut">00:00:00.000</property>
      <property name="transition.threads">0</property>
      <property name="transition.fix_rotate_x">0</property>
    </filter>
  </producer>
  <producer id="producer115" in="00:00:00.000" out="03:59:59.960">
    <property name="length">04:00:00.000</property>
    <property name="eof">pause</property>
    <property name="resource">images/title.png</property>
    <property name="ttl">1</property>
    <property name="aspect_ratio">1</property>
    <property name="progressive">1</property>
    <property name="seekable">1</property>
    <property name="mlt_service">qimage</property>
    <property name="creation_time">2022-02-21T10:00:43</property>
    <property name="xml">was here</property>
    <property name="shotcut:hash">fc720100631bfd954aca356faa33a60a</property>
    <property name="shotcut:caption">title.png</property>
    <filter id="filter113" in="00:54:18.600" out="01:32:58.720">
      <property name="background">color:#00000000</property>
      <property name="mlt_service">affine</property>
      <property name="shotcut:filter">affineSizePosition</property>
      <property name="transition.fill">1</property>
      <property name="transition.distort">0</property>
      <property name="transition.rect">60 30 278.894 96.3577 1</property>
      <property name="transition.valign">middle</property>
      <property name="transition.halign">center</property>
      <property name="shotcut:animIn">00:00:00.000</property>
      <property name="shotcut:animOut">00:00:00.000</property>
      <property name="transition.threads">0</property>
      <property name="transition.fix_rotate_x">0</property>
    </filter>
  </producer>
  <playlist id="playlist10">
    <property name="shotcut:video">1</property>
    <property name="shotcut:name">Top logo + Title</property>
    <entry producer="producer113" in="00:00:00.000" out="00:27:32.560"/>
    <blank length="00:00:00.400"/>
    <entry producer="producer114" in="00:27:33.000" out="00:54:18.160"/>
    <blank length="00:00:00.400"/>
    <entry producer="producer115" in="00:54:18.600" out="01:32:58.720"/>
  </playlist>
  <tractor id="tractor36" title="Shotcut version 22.01.30" in="00:00:00.000" out="01:32:58.720">
    <property name="shotcut">1</property>
    <property name="shotcut:projectAudioChannels">2</property>
    <property name="shotcut:projectFolder">0</property>
    <property name="shotcut:scaleFactor">0.300132</property>
    <track producer="background"/>
    <track producer="playlist0" hide="video"/>
    <track producer="playlist1" hide="video"/>
    <track producer="playlist2" hide="video"/>
    <track producer="playlist3" hide="audio"/>
    <track producer="playlist4"/>
    <track producer="playlist5" hide="audio"/>
    <track producer="playlist6" hide="audio"/>
    <track producer="playlist7" hide="audio"/>
    <track producer="playlist8" hide="audio"/>
    <track producer="playlist9"/>
    <track producer="playlist10"/>
    <transition id="transition72">
      <property name="a_track">0</property>
      <property name="b_track">1</property>
      <property name="mlt_service">mix</property>
      <property name="always_active">1</property>
      <property name="sum">1</property>
    </transition>
    <transition id="transition73">
      <property name="a_track">0</property>
      <property name="b_track">2</property>
      <property name="mlt_service">mix</property>
      <property name="always_active">1</property>
      <property name="sum">1</property>
    </transition>
    <transition id="transition74">
      <property name="a_track">0</property>
      <property name="b_track">3</property>
      <property name="mlt_service">mix</property>
      <property name="always_active">1</property>
      <property name="sum">1</property>
    </transition>
    <transition id="transition75">
      <property name="a_track">0</property>
      <property name="b_track">4</property>
      <property name="mlt_service">mix</property>
      <property name="always_active">1</property>
      <property name="sum">1</property>
    </transition>
    <transition id="transition76">
      <property name="a_track">0</property>
      <property name="b_track">4</property>
      <property name="version">0.1</property>
      <property name="mlt_service">frei0r.cairoblend</property>
      <property name="threads">0</property>
      <property name="disable">1</property>
    </transition>
    <transition id="transition77">
      <property name="a_track">0</property>
      <property name="b_track">5</property>
      <property name="mlt_service">mix</property>
      <property name="always_active">1</property>
      <property name="sum">1</property>
    </transition>
    <transition id="transition78">
      <property name="a_track">4</property>
      <property name="b_track">5</property>
      <property name="version">0.1</property>
      <property name="mlt_service">frei0r.cairoblend</property>
      <property name="threads">0</property>
      <property name="disable">0</property>
    </transition>
    <transition id="transition79">
      <property name="a_track">0</property>
      <property name="b_track">6</property>
      <property name="mlt_service">mix</property>
      <property name="always_active">1</property>
      <property name="sum">1</property>
    </transition>
    <transition id="transition80">
      <property name="a_track">4</property>
      <property name="b_track">6</property>
      <property name="version">0.1</property>
      <property name="mlt_service">frei0r.cairoblend</property>
      <property name="threads">0</property>
      <property name="disable">0</property>
    </transition>
    <transition id="transition81">
      <property name="a_track">0</property>
      <property name="b_track">7</property>
      <property name="mlt_service">mix</property>
      <property name="always_active">1</property>
      <property name="sum">1</property>
    </transition>
    <transition id="transition82">
      <property name="a_track">4</property>
      <property name="b_track">7</property>
      <property name="version">0.1</property>
      <property name="mlt_service">frei0r.cairoblend</property>
      <property name="threads">0</property>
      <property name="disable">0</property>
    </transition>
    <transition id="transition83">
      <property name="a_track">0</property>
      <property name="b_track">8</property>
      <property name="mlt_service">mix</property>
      <property name="always_active">1</property>
      <property name="sum">1</property>
    </transition>
    <transition id="transition84">
      <property name="a_track">4</property>
      <property name="b_track">8</property>
      <property name="version">0.1</property>
      <property name="mlt_service">frei0r.cairoblend</property>
      <property name="threads">0</property>
      <property name="disable">0</property>
    </transition>
    <transition id="transition85">
      <property name="a_track">0</property>
      <property name="b_track">9</property>
      <property name="mlt_service">mix</property>
      <property name="always_active">1</property>
      <property name="sum">1</property>
    </transition>
    <transition id="transition86">
      <property name="a_track">4</property>
      <property name="b_track">9</property>
      <property name="version">0.1</property>
      <property name="mlt_service">frei0r.cairoblend</property>
      <property name="threads">0</property>
      <property name="disable">0</property>
    </transition>
    <transition id="transition87">
      <property name="a_track">0</property>
      <property name="b_track">10</property>
      <property name="mlt_service">mix</property>
      <property name="always_active">1</property>
      <property name="sum">1</property>
    </transition>
    <transition id="transition88">
      <property name="a_track">4</property>
      <property name="b_track">10</property>
      <property name="version">0.1</property>
      <property name="mlt_service">frei0r.cairoblend</property>
      <property name="threads">0</property>
      <property name="disable">0</property>
    </transition>
    <transition id="transition89">
      <property name="a_track">0</property>
      <property name="b_track">11</property>
      <property name="mlt_service">mix</property>
      <property name="always_active">1</property>
      <property name="sum">1</property>
    </transition>
    <transition id="transition90">
      <property name="a_track">4</property>
      <property name="b_track">11</property>
      <property name="version">0.1</property>
      <property name="mlt_service">frei0r.cairoblend</property>
      <property name="threads">0</property>
      <property name="disable">0</property>
    </transition>
  </tractor>
</mlt>
