<?xml version="1.0" standalone="no"?>
<mlt LC_NUMERIC="C" version="7.7.0" title="Shotcut version 22.04.25" producer="main_bin">
  <profile description="PAL 4:3 DV or DVD" width="1920" height="1080" progressive="1" sample_aspect_num="1" sample_aspect_den="1" display_aspect_num="16" display_aspect_den="9" frame_rate_num="25" frame_rate_den="1" colorspace="709"/>
  <chain id="chain0" out="00:00:24.880">
    <property name="length">00:00:24.920</property>
    <property name="eof">pause</property>
    <property name="resource">/home/dimitry/notes_materials_collateral/podcast/intro.wav</property>
    <property name="mlt_service">avformat-novalidate</property>
    <property name="seekable">1</property>
    <property name="audio_index">0</property>
    <property name="video_index">-1</property>
    <property name="mute_on_pause">0</property>
    <property name="xml">was here</property>
    <property name="shotcut:hash">b8f9d4b9098b4df425223ddc770a63cf</property>
  </chain>
  <producer id="producer0" in="00:00:00.000" out="03:59:59.960">
    <property name="length">04:00:00.000</property>
    <property name="eof">pause</property>
    <property name="resource">images/01-photo_comicon-1920x1080.jpg</property>
    <property name="ttl">1</property>
    <property name="aspect_ratio">1</property>
    <property name="progressive">1</property>
    <property name="seekable">1</property>
    <property name="mlt_service">qimage</property>
    <property name="creation_time">2022-05-18T09:10:17</property>
    <property name="xml">was here</property>
    <property name="shotcut:hash">aa9b568787d31b30210a60f8532df3b0</property>
  </producer>
  <chain id="chain1" out="01:15:20.520">
    <property name="length">01:15:20.560</property>
    <property name="eof">pause</property>
    <property name="resource">recording/audioKostasFragkiada11004719839.m4a</property>
    <property name="mlt_service">avformat-novalidate</property>
    <property name="seekable">1</property>
    <property name="audio_index">0</property>
    <property name="video_index">-1</property>
    <property name="mute_on_pause">0</property>
    <property name="xml">was here</property>
    <property name="shotcut:hash">4e5ef5d2eb564a51044c7acb3cc01aa3</property>
  </chain>
  <chain id="chain2" out="01:15:20.520">
    <property name="length">01:15:20.560</property>
    <property name="eof">pause</property>
    <property name="resource">recording/audioΔημήτριο21004719839.m4a</property>
    <property name="mlt_service">avformat-novalidate</property>
    <property name="seekable">1</property>
    <property name="audio_index">0</property>
    <property name="video_index">-1</property>
    <property name="mute_on_pause">0</property>
    <property name="xml">was here</property>
    <property name="shotcut:hash">2428ac455b73788ece0fb535c0b7f142</property>
  </chain>
  <chain id="chain3" out="01:15:20.520">
    <property name="length">01:15:20.560</property>
    <property name="eof">pause</property>
    <property name="resource">recording/video1004719839.mp4</property>
    <property name="mlt_service">avformat-novalidate</property>
    <property name="seekable">1</property>
    <property name="audio_index">0</property>
    <property name="video_index">1</property>
    <property name="mute_on_pause">0</property>
    <property name="xml">was here</property>
    <property name="shotcut:hash">937a56c6e2778bd9e525d67b05d2b5e6</property>
  </chain>
  <producer id="producer1" in="00:00:00.000" out="03:59:59.960">
    <property name="length">04:00:00.000</property>
    <property name="eof">pause</property>
    <property name="resource">/home/dimitry/notes_materials_collateral/podcast/fetareport-logo/FETA_REPORT_FINAL-5.png</property>
    <property name="ttl">1</property>
    <property name="aspect_ratio">1</property>
    <property name="progressive">1</property>
    <property name="seekable">1</property>
    <property name="mlt_service">qimage</property>
    <property name="creation_time">2020-09-18T14:04:55</property>
    <property name="xml">was here</property>
    <property name="shotcut:hash">5767969113bde37c518dbea4398f47b1</property>
  </producer>
  <producer id="producer2" in="00:00:00.000" out="03:59:59.960">
    <property name="length">04:00:00.000</property>
    <property name="eof">pause</property>
    <property name="resource">images/logo_white_320.png</property>
    <property name="ttl">1</property>
    <property name="aspect_ratio">1</property>
    <property name="progressive">1</property>
    <property name="seekable">1</property>
    <property name="mlt_service">qimage</property>
    <property name="creation_time">2022-05-08T20:21:22</property>
    <property name="xml">was here</property>
    <property name="shotcut:hash">fa81aa59329bb21c17d44131d2d0ef7a</property>
  </producer>
  <chain id="chain4" out="00:00:07.800">
    <property name="length">00:00:07.840</property>
    <property name="eof">pause</property>
    <property name="resource">/home/dimitry/fetareport/archive/other_material/subscribe_prompt_isnogood.mp4</property>
    <property name="mlt_service">avformat-novalidate</property>
    <property name="seekable">1</property>
    <property name="audio_index">1</property>
    <property name="video_index">0</property>
    <property name="mute_on_pause">0</property>
    <property name="xml">was here</property>
    <property name="shotcut:hash">a5f47990b817edeabcf82f263bf1750e</property>
  </chain>
  <producer id="producer3" in="00:00:00.000" out="03:59:59.960">
    <property name="length">04:00:00.000</property>
    <property name="eof">pause</property>
    <property name="resource">images/02-Agori1-shadow.png</property>
    <property name="ttl">1</property>
    <property name="aspect_ratio">1</property>
    <property name="progressive">1</property>
    <property name="seekable">1</property>
    <property name="mlt_service">qimage</property>
    <property name="creation_time">2022-05-18T11:19:07</property>
    <property name="xml">was here</property>
    <property name="shotcut:hash">8e4bbfae90c8f46fa5e712eb1fe931bf</property>
  </producer>
  <producer id="producer4" in="00:00:00.000" out="03:59:59.960">
    <property name="length">04:00:00.000</property>
    <property name="eof">pause</property>
    <property name="resource">images/03-mikros-iros_mplek022-shadow.jpg</property>
    <property name="ttl">1</property>
    <property name="aspect_ratio">1</property>
    <property name="progressive">1</property>
    <property name="seekable">1</property>
    <property name="mlt_service">qimage</property>
    <property name="creation_time">2022-05-18T12:21:27</property>
    <property name="xml">was here</property>
    <property name="shotcut:hash">91d05aa61020a7549fd6a376cc85f47f</property>
  </producer>
  <producer id="producer5" in="00:00:00.000" out="03:59:59.960">
    <property name="length">04:00:00.000</property>
    <property name="eof">pause</property>
    <property name="resource">images/04-mythos-shadow.png</property>
    <property name="ttl">1</property>
    <property name="aspect_ratio">1</property>
    <property name="progressive">1</property>
    <property name="seekable">1</property>
    <property name="mlt_service">qimage</property>
    <property name="creation_time">2022-05-18T12:30:32</property>
    <property name="xml">was here</property>
    <property name="shotcut:hash">54a5d48a3848cca44c1feeabfb365eb5</property>
  </producer>
  <producer id="producer6" in="00:00:00.000" out="03:59:59.960">
    <property name="length">04:00:00.000</property>
    <property name="eof">pause</property>
    <property name="resource">images/05-clipart1831367.png</property>
    <property name="ttl">1</property>
    <property name="aspect_ratio">1</property>
    <property name="progressive">1</property>
    <property name="seekable">1</property>
    <property name="mlt_service">qimage</property>
    <property name="creation_time">2022-05-19T10:42:39</property>
    <property name="xml">was here</property>
    <property name="shotcut:hash">eea3b8072bcafaf1cb7506f2ceebb164</property>
  </producer>
  <producer id="producer7" in="00:00:00.000" out="03:59:59.960">
    <property name="length">04:00:00.000</property>
    <property name="eof">pause</property>
    <property name="resource">images/06-kompra-press-conan-small-shadow.jpg</property>
    <property name="ttl">1</property>
    <property name="aspect_ratio">1</property>
    <property name="progressive">1</property>
    <property name="seekable">1</property>
    <property name="mlt_service">qimage</property>
    <property name="creation_time">2022-05-19T10:51:47</property>
    <property name="xml">was here</property>
    <property name="shotcut:hash">c3ddaa02bf6588f587c93da87462545e</property>
  </producer>
  <producer id="producer8" in="00:00:00.000" out="03:59:59.960">
    <property name="length">04:00:00.000</property>
    <property name="eof">pause</property>
    <property name="resource">images/07-ennea-shadow.png</property>
    <property name="ttl">1</property>
    <property name="aspect_ratio">1</property>
    <property name="progressive">1</property>
    <property name="seekable">1</property>
    <property name="mlt_service">qimage</property>
    <property name="creation_time">2022-05-19T11:00:29</property>
    <property name="xml">was here</property>
    <property name="shotcut:hash">7414604ab1d8d1327ca573c4c67cc60f</property>
  </producer>
  <producer id="producer9" in="00:00:00.000" out="03:59:59.960">
    <property name="length">04:00:00.000</property>
    <property name="eof">pause</property>
    <property name="resource">images/08-festival_vavel-shadow.png</property>
    <property name="ttl">1</property>
    <property name="aspect_ratio">1</property>
    <property name="progressive">1</property>
    <property name="seekable">1</property>
    <property name="mlt_service">qimage</property>
    <property name="creation_time">2022-05-19T11:09:51</property>
    <property name="xml">was here</property>
    <property name="shotcut:hash">59ed89969d72066361c98701dc6df2f4</property>
  </producer>
  <producer id="producer10" in="00:00:00.000" out="03:59:59.960">
    <property name="length">04:00:00.000</property>
    <property name="eof">pause</property>
    <property name="resource">#00000000</property>
    <property name="aspect_ratio">1</property>
    <property name="mlt_service">color</property>
    <property name="mlt_image_format">rgba</property>
    <property name="shotcut:caption">transparent</property>
    <property name="shotcut:detail">transparent</property>
    <property name="ignore_points">0</property>
    <property name="xml">was here</property>
    <property name="seekable">1</property>
    <filter id="filter0" out="00:00:03.960">
      <property name="argument">Αυτό που οι Αγγλοσάξωνές αναφέρουν ως &quot;blessed&quot;.</property>
      <property name="geometry">19 824 1920 270 1</property>
      <property name="family">Sans</property>
      <property name="size">80</property>
      <property name="weight">750</property>
      <property name="style">normal</property>
      <property name="fgcolour">#ffffffff</property>
      <property name="bgcolour">#00000000</property>
      <property name="olcolour">#aa000000</property>
      <property name="pad">0</property>
      <property name="halign">center</property>
      <property name="valign">top</property>
      <property name="outline">3</property>
      <property name="mlt_service">dynamictext</property>
      <property name="shotcut:filter">dynamicText</property>
      <property name="shotcut:usePointSize">1</property>
      <property name="shotcut:pointSize">60</property>
    </filter>
  </producer>
  <producer id="producer11" in="00:00:00.000" out="03:59:59.960">
    <property name="length">04:00:00.000</property>
    <property name="eof">pause</property>
    <property name="resource">images/09-957988_025647_updates.webp</property>
    <property name="ttl">1</property>
    <property name="aspect_ratio">1</property>
    <property name="progressive">1</property>
    <property name="seekable">1</property>
    <property name="mlt_service">qimage</property>
    <property name="creation_time">2022-05-19T11:26:44</property>
    <property name="xml">was here</property>
    <property name="shotcut:hash">78dc0d2b98d89d2faca41fb67dc1307c</property>
  </producer>
  <producer id="producer12" in="00:00:00.000" out="03:59:59.960">
    <property name="length">04:00:00.000</property>
    <property name="eof">pause</property>
    <property name="resource">#00000000</property>
    <property name="aspect_ratio">1</property>
    <property name="mlt_service">color</property>
    <property name="mlt_image_format">rgba</property>
    <property name="shotcut:caption">transparent</property>
    <property name="shotcut:detail">transparent</property>
    <property name="ignore_points">0</property>
    <property name="xml">was here</property>
    <property name="seekable">1</property>
    <filter id="filter1" out="00:00:03.960">
      <property name="argument">Μπορεί να υπάρχει παντόφλα,
αλλά έχω και κάποια...¨ &quot;προνόμια&quot;</property>
      <property name="geometry">0 810 1920 270 1</property>
      <property name="family">Sans</property>
      <property name="size">80</property>
      <property name="weight">750</property>
      <property name="style">normal</property>
      <property name="fgcolour">#ffffffff</property>
      <property name="bgcolour">#00000000</property>
      <property name="olcolour">#aa000000</property>
      <property name="pad">0</property>
      <property name="halign">center</property>
      <property name="valign">top</property>
      <property name="outline">3</property>
      <property name="mlt_service">dynamictext</property>
      <property name="shotcut:filter">dynamicText</property>
      <property name="shotcut:usePointSize">1</property>
      <property name="shotcut:pointSize">60</property>
    </filter>
  </producer>
  <producer id="producer13" in="00:00:00.000" out="03:59:59.960">
    <property name="length">04:00:00.000</property>
    <property name="eof">pause</property>
    <property name="resource">images/10-Mythos-The_Labyrinth-shadow.png</property>
    <property name="ttl">1</property>
    <property name="aspect_ratio">1</property>
    <property name="progressive">1</property>
    <property name="seekable">1</property>
    <property name="mlt_service">qimage</property>
    <property name="creation_time">2022-05-19T12:30:27</property>
    <property name="xml">was here</property>
    <property name="shotcut:hash">84f6b45fa4ba0c3a63a5e14f3d80679a</property>
  </producer>
  <producer id="producer14" in="00:00:00.000" out="03:59:59.960">
    <property name="length">04:00:00.000</property>
    <property name="eof">pause</property>
    <property name="resource">images/11-tis_psixis-removebg.png</property>
    <property name="ttl">1</property>
    <property name="aspect_ratio">1</property>
    <property name="progressive">1</property>
    <property name="seekable">1</property>
    <property name="mlt_service">qimage</property>
    <property name="creation_time">2022-05-19T12:27:59</property>
    <property name="xml">was here</property>
    <property name="shotcut:hash">ede041ede411e0c025e7f1ba3219ca4e</property>
  </producer>
  <producer id="producer15" in="00:00:00.000" out="03:59:59.960">
    <property name="length">04:00:00.000</property>
    <property name="eof">pause</property>
    <property name="resource">images/12-joinus-shadow.png</property>
    <property name="ttl">1</property>
    <property name="aspect_ratio">1</property>
    <property name="progressive">1</property>
    <property name="seekable">1</property>
    <property name="mlt_service">qimage</property>
    <property name="creation_time">2022-05-19T13:44:02</property>
    <property name="xml">was here</property>
    <property name="shotcut:hash">3eecfd033d27cb1916765df686d7b73e</property>
  </producer>
  <producer id="producer16" in="00:00:00.000" out="03:59:59.960">
    <property name="length">04:00:00.000</property>
    <property name="eof">pause</property>
    <property name="resource">images/13-epifany-cropped-shadow.png</property>
    <property name="ttl">1</property>
    <property name="aspect_ratio">1</property>
    <property name="progressive">1</property>
    <property name="seekable">1</property>
    <property name="mlt_service">qimage</property>
    <property name="creation_time">2022-05-19T13:56:47</property>
    <property name="xml">was here</property>
    <property name="shotcut:hash">c89cb8d331af3735b35849534985129f</property>
  </producer>
  <producer id="producer17" in="00:00:00.000" out="03:59:59.960">
    <property name="length">04:00:00.000</property>
    <property name="eof">pause</property>
    <property name="resource">images/14-console_hunter-removebg.png</property>
    <property name="ttl">1</property>
    <property name="aspect_ratio">1</property>
    <property name="progressive">1</property>
    <property name="seekable">1</property>
    <property name="mlt_service">qimage</property>
    <property name="creation_time">2022-05-19T14:21:34</property>
    <property name="xml">was here</property>
    <property name="shotcut:hash">ed0a98828635d5e51158535bc2658dba</property>
  </producer>
  <producer id="producer18" in="00:00:00.000" out="03:59:59.960">
    <property name="length">04:00:00.000</property>
    <property name="eof">pause</property>
    <property name="resource">images/15-logicomix-shadow.png</property>
    <property name="ttl">1</property>
    <property name="aspect_ratio">1</property>
    <property name="progressive">1</property>
    <property name="seekable">1</property>
    <property name="mlt_service">qimage</property>
    <property name="creation_time">2022-05-19T14:47:10</property>
    <property name="xml">was here</property>
    <property name="shotcut:hash">9697e31afd297725be1e692e361bb649</property>
  </producer>
  <producer id="producer19" in="00:00:00.000" out="03:59:59.960">
    <property name="length">04:00:00.000</property>
    <property name="eof">pause</property>
    <property name="resource">images/16-erotokritos1-dropshadow.png</property>
    <property name="ttl">1</property>
    <property name="aspect_ratio">1</property>
    <property name="progressive">1</property>
    <property name="seekable">1</property>
    <property name="mlt_service">qimage</property>
    <property name="creation_time">2022-05-19T14:50:21</property>
    <property name="xml">was here</property>
    <property name="shotcut:hash">7dd905a72858c4f27c951f676c342bed</property>
  </producer>
  <producer id="producer20" in="00:00:00.000" out="03:59:59.960">
    <property name="length">04:00:00.000</property>
    <property name="eof">pause</property>
    <property name="resource">images/17-rubus_avatar-shadow.png</property>
    <property name="ttl">1</property>
    <property name="aspect_ratio">1</property>
    <property name="progressive">1</property>
    <property name="seekable">1</property>
    <property name="mlt_service">qimage</property>
    <property name="creation_time">2022-05-19T14:53:34</property>
    <property name="xml">was here</property>
    <property name="shotcut:hash">a7888bddc2dfbb2da4d9fd25f218d88e</property>
  </producer>
  <producer id="producer21" in="00:00:00.000" out="03:59:59.960">
    <property name="length">04:00:00.000</property>
    <property name="eof">pause</property>
    <property name="resource">images/18-dardana_small-shadow.png</property>
    <property name="ttl">1</property>
    <property name="aspect_ratio">1</property>
    <property name="progressive">1</property>
    <property name="seekable">1</property>
    <property name="mlt_service">qimage</property>
    <property name="creation_time">2022-05-19T14:59:19</property>
    <property name="xml">was here</property>
    <property name="shotcut:hash">9103cf09bfc57ad5e92bddeda50ab5cc</property>
  </producer>
  <producer id="producer22" in="00:00:00.000" out="03:59:59.960">
    <property name="length">04:00:00.000</property>
    <property name="eof">pause</property>
    <property name="resource">images/19-listarxoi-shadow.png</property>
    <property name="ttl">1</property>
    <property name="aspect_ratio">1</property>
    <property name="progressive">1</property>
    <property name="seekable">1</property>
    <property name="mlt_service">qimage</property>
    <property name="creation_time">2022-05-19T15:07:05</property>
    <property name="xml">was here</property>
    <property name="shotcut:hash">c45642b6070d79588ae012ecd8b8d3f0</property>
  </producer>
  <chain id="chain5" out="00:00:04.200">
    <property name="length">00:00:04.240</property>
    <property name="eof">pause</property>
    <property name="resource">/home/dimitry/fetareport/archive/advertisments/tv static-4NsqFlZhlSo.mp4</property>
    <property name="mlt_service">avformat-novalidate</property>
    <property name="seekable">1</property>
    <property name="audio_index">1</property>
    <property name="video_index">0</property>
    <property name="mute_on_pause">0</property>
    <property name="xml">was here</property>
    <property name="shotcut:hash">6f6590b0b2fa2639b5ed8aec97ee3a9b</property>
  </chain>
  <chain id="chain6" out="00:00:34.160">
    <property name="length">00:00:34.200</property>
    <property name="eof">pause</property>
    <property name="resource">/home/dimitry/fetareport/archive/advertisments/byz-tales-large_set.mp4</property>
    <property name="mlt_service">avformat-novalidate</property>
    <property name="seekable">1</property>
    <property name="audio_index">1</property>
    <property name="video_index">0</property>
    <property name="mute_on_pause">0</property>
    <property name="xml">was here</property>
    <property name="shotcut:hash">73be697f2dd2a7145034d99e98e33a33</property>
  </chain>
  <producer id="producer23" in="00:00:00.000" out="03:59:59.960">
    <property name="length">04:00:00.000</property>
    <property name="eof">pause</property>
    <property name="resource">images/20-o_tetrakosaris-shadow.png</property>
    <property name="ttl">1</property>
    <property name="aspect_ratio">1</property>
    <property name="progressive">1</property>
    <property name="seekable">1</property>
    <property name="mlt_service">qimage</property>
    <property name="creation_time">2022-05-20T13:14:36</property>
    <property name="xml">was here</property>
    <property name="shotcut:hash">2a85af8f70908d06d5899284bda4e9a8</property>
  </producer>
  <producer id="producer24" in="00:00:00.000" out="03:59:59.960">
    <property name="length">04:00:00.000</property>
    <property name="eof">pause</property>
    <property name="resource">images/21-leoktratis_anemodouras.png</property>
    <property name="ttl">1</property>
    <property name="aspect_ratio">1</property>
    <property name="progressive">1</property>
    <property name="seekable">1</property>
    <property name="mlt_service">qimage</property>
    <property name="creation_time">2022-05-20T13:22:01</property>
    <property name="xml">was here</property>
    <property name="shotcut:hash">a5f86b6db5f2312ffef8065d5b5f2668</property>
  </producer>
  <producer id="producer25" in="00:00:00.000" out="03:59:59.960">
    <property name="length">04:00:00.000</property>
    <property name="eof">pause</property>
    <property name="resource">images/22-mplek-shadow.png</property>
    <property name="ttl">1</property>
    <property name="aspect_ratio">1</property>
    <property name="progressive">1</property>
    <property name="seekable">1</property>
    <property name="mlt_service">qimage</property>
    <property name="creation_time">2022-05-20T13:29:00</property>
    <property name="xml">was here</property>
    <property name="shotcut:hash">fe0c847ec9dfb42b0f00230f31aed928</property>
  </producer>
  <producer id="producer26" in="00:00:00.000" out="03:59:59.960">
    <property name="length">04:00:00.000</property>
    <property name="eof">pause</property>
    <property name="resource">images/23-mikros_iroas-shadow.png</property>
    <property name="ttl">1</property>
    <property name="aspect_ratio">1</property>
    <property name="progressive">1</property>
    <property name="seekable">1</property>
    <property name="mlt_service">qimage</property>
    <property name="creation_time">2022-05-20T13:32:27</property>
    <property name="xml">was here</property>
    <property name="shotcut:hash">01d603671c4397e9256231ee1957c89e</property>
  </producer>
  <producer id="producer27" in="00:00:00.000" out="03:59:59.960">
    <property name="length">04:00:00.000</property>
    <property name="eof">pause</property>
    <property name="resource">images/24-mikros_cow_boy.png</property>
    <property name="ttl">1</property>
    <property name="aspect_ratio">1</property>
    <property name="progressive">1</property>
    <property name="seekable">1</property>
    <property name="mlt_service">qimage</property>
    <property name="creation_time">2022-05-20T13:35:14</property>
    <property name="xml">was here</property>
    <property name="shotcut:hash">c66b83269d41f5437757caf80f67fc68</property>
  </producer>
  <producer id="producer28" in="00:00:00.000" out="03:59:59.960">
    <property name="length">04:00:00.000</property>
    <property name="eof">pause</property>
    <property name="resource">images/25-mousika-kare-shadow.png</property>
    <property name="ttl">1</property>
    <property name="aspect_ratio">1</property>
    <property name="progressive">1</property>
    <property name="seekable">1</property>
    <property name="mlt_service">qimage</property>
    <property name="creation_time">2022-05-20T13:38:25</property>
    <property name="xml">was here</property>
    <property name="shotcut:hash">f420cf53cd31b6b3128785fd8735fd2e</property>
  </producer>
  <producer id="producer29" in="00:00:00.000" out="03:59:59.960">
    <property name="length">04:00:00.000</property>
    <property name="eof">pause</property>
    <property name="resource">images/26-the_flash-shadow.png</property>
    <property name="ttl">1</property>
    <property name="aspect_ratio">1</property>
    <property name="progressive">1</property>
    <property name="seekable">1</property>
    <property name="mlt_service">qimage</property>
    <property name="creation_time">2022-05-20T14:44:54</property>
    <property name="xml">was here</property>
    <property name="shotcut:hash">02a3e84af428f34aa39907960fd0ea90</property>
  </producer>
  <producer id="producer30" in="00:00:00.000" out="03:59:59.960">
    <property name="length">04:00:00.000</property>
    <property name="eof">pause</property>
    <property name="resource">images/27-cool-someone-3d-printed-the-save-icon-shadow.png</property>
    <property name="ttl">1</property>
    <property name="aspect_ratio">1</property>
    <property name="progressive">1</property>
    <property name="seekable">1</property>
    <property name="mlt_service">qimage</property>
    <property name="creation_time">2022-05-20T14:47:28</property>
    <property name="xml">was here</property>
    <property name="shotcut:hash">2983c6a4d4ac76790c21d07b2fa5cecd</property>
  </producer>
  <producer id="producer31" in="00:00:00.000" out="03:59:59.960">
    <property name="length">04:00:00.000</property>
    <property name="eof">pause</property>
    <property name="resource">images/28-karampalios-shadow.png</property>
    <property name="ttl">1</property>
    <property name="aspect_ratio">1</property>
    <property name="progressive">1</property>
    <property name="seekable">1</property>
    <property name="mlt_service">qimage</property>
    <property name="creation_time">2022-05-20T14:53:46</property>
    <property name="xml">was here</property>
    <property name="shotcut:hash">17f11b94c4ebf1dd9132697f797ec163</property>
  </producer>
  <producer id="producer32" in="00:00:00.000" out="03:59:59.960">
    <property name="length">04:00:00.000</property>
    <property name="eof">pause</property>
    <property name="resource">images/29-mythomacjusfinal.png</property>
    <property name="ttl">1</property>
    <property name="aspect_ratio">1</property>
    <property name="progressive">1</property>
    <property name="seekable">1</property>
    <property name="mlt_service">qimage</property>
    <property name="creation_time">2022-05-20T14:58:06</property>
    <property name="xml">was here</property>
    <property name="shotcut:hash">f15fb67febb8fd35246ef629fbe24046</property>
  </producer>
  <producer id="producer33" in="00:00:00.000" out="03:59:59.960">
    <property name="length">04:00:00.000</property>
    <property name="eof">pause</property>
    <property name="resource">#00000000</property>
    <property name="aspect_ratio">1</property>
    <property name="mlt_service">color</property>
    <property name="mlt_image_format">rgba</property>
    <property name="shotcut:caption">transparent</property>
    <property name="shotcut:detail">transparent</property>
    <property name="ignore_points">0</property>
    <property name="xml">was here</property>
    <property name="seekable">1</property>
    <filter id="filter2" out="00:00:03.960">
      <property name="argument">https://www.mythoscomics.gr/</property>
      <property name="geometry">0 810 1920 270 1</property>
      <property name="family">Sans</property>
      <property name="size">80</property>
      <property name="weight">750</property>
      <property name="style">normal</property>
      <property name="fgcolour">#ffffffff</property>
      <property name="bgcolour">#00000000</property>
      <property name="olcolour">#aa000000</property>
      <property name="pad">0</property>
      <property name="halign">center</property>
      <property name="valign">top</property>
      <property name="outline">3</property>
      <property name="mlt_service">dynamictext</property>
      <property name="shotcut:filter">dynamicText</property>
      <property name="shotcut:usePointSize">1</property>
      <property name="shotcut:pointSize">60</property>
    </filter>
  </producer>
  <producer id="producer34" in="00:00:00.000" out="03:59:59.960">
    <property name="length">04:00:00.000</property>
    <property name="eof">pause</property>
    <property name="resource">background_images/01-batman.tif</property>
    <property name="ttl">1</property>
    <property name="aspect_ratio">1</property>
    <property name="progressive">1</property>
    <property name="seekable">1</property>
    <property name="mlt_service">qimage</property>
    <property name="creation_time">2022-05-20T15:38:04</property>
    <property name="xml">was here</property>
    <property name="shotcut:hash">db7d134c594e29843917b79fb969a8b2</property>
  </producer>
  <producer id="producer35" in="00:00:00.000" out="03:59:59.960">
    <property name="length">04:00:00.000</property>
    <property name="eof">pause</property>
    <property name="resource">background_images/02-daredevil.png</property>
    <property name="ttl">1</property>
    <property name="aspect_ratio">1</property>
    <property name="progressive">1</property>
    <property name="seekable">1</property>
    <property name="mlt_service">qimage</property>
    <property name="creation_time">2022-05-20T15:46:54</property>
    <property name="xml">was here</property>
    <property name="shotcut:hash">61106e5f37c68248590a3359b347b3b6</property>
  </producer>
  <producer id="producer36" in="00:00:00.000" out="03:59:59.960">
    <property name="length">04:00:00.000</property>
    <property name="eof">pause</property>
    <property name="resource">background_images/03-odysseas-1.png</property>
    <property name="ttl">1</property>
    <property name="aspect_ratio">1</property>
    <property name="progressive">1</property>
    <property name="seekable">1</property>
    <property name="mlt_service">qimage</property>
    <property name="creation_time">2022-05-20T15:50:00</property>
    <property name="xml">was here</property>
    <property name="shotcut:hash">60093964d288eb472377d8bfd18f647f</property>
  </producer>
  <producer id="producer37" in="00:00:00.000" out="03:59:59.960">
    <property name="length">04:00:00.000</property>
    <property name="eof">pause</property>
    <property name="resource">background_images/04-odysseas-2.png</property>
    <property name="ttl">1</property>
    <property name="aspect_ratio">1</property>
    <property name="progressive">1</property>
    <property name="seekable">1</property>
    <property name="mlt_service">qimage</property>
    <property name="creation_time">2022-05-20T15:50:24</property>
    <property name="xml">was here</property>
    <property name="shotcut:hash">7709467c894bbf78caf4d2e356c302cc</property>
  </producer>
  <producer id="producer38" in="00:00:00.000" out="03:59:59.960">
    <property name="length">04:00:00.000</property>
    <property name="eof">pause</property>
    <property name="resource">background_images/05-dredd-1.png</property>
    <property name="ttl">1</property>
    <property name="aspect_ratio">1</property>
    <property name="progressive">1</property>
    <property name="seekable">1</property>
    <property name="mlt_service">qimage</property>
    <property name="creation_time">2022-05-20T15:51:26</property>
    <property name="xml">was here</property>
    <property name="shotcut:hash">cffa27885f17d92d05f8f89f97861e12</property>
  </producer>
  <producer id="producer39" in="00:00:00.000" out="03:59:59.960">
    <property name="length">04:00:00.000</property>
    <property name="eof">pause</property>
    <property name="resource">background_images/06-dredd-2.png</property>
    <property name="ttl">1</property>
    <property name="aspect_ratio">1</property>
    <property name="progressive">1</property>
    <property name="seekable">1</property>
    <property name="mlt_service">qimage</property>
    <property name="creation_time">2022-05-20T15:58:26</property>
    <property name="xml">was here</property>
    <property name="shotcut:hash">80cf037932098d0f2270f30c4ac5fa01</property>
  </producer>
  <producer id="producer40" in="00:00:00.000" out="03:59:59.960">
    <property name="length">04:00:00.000</property>
    <property name="eof">pause</property>
    <property name="resource">background_images/07-cowboy-1.png</property>
    <property name="ttl">1</property>
    <property name="aspect_ratio">1</property>
    <property name="progressive">1</property>
    <property name="seekable">1</property>
    <property name="mlt_service">qimage</property>
    <property name="creation_time">2022-05-20T15:53:06</property>
    <property name="xml">was here</property>
    <property name="shotcut:hash">5ea96fe31962f02d97c3d23252f3396d</property>
  </producer>
  <producer id="producer41" in="00:00:00.000" out="03:59:59.960">
    <property name="length">04:00:00.000</property>
    <property name="eof">pause</property>
    <property name="resource">background_images/08-magic.png</property>
    <property name="ttl">1</property>
    <property name="aspect_ratio">1</property>
    <property name="progressive">1</property>
    <property name="seekable">1</property>
    <property name="mlt_service">qimage</property>
    <property name="creation_time">2022-05-20T15:52:16</property>
    <property name="xml">was here</property>
    <property name="shotcut:hash">f44cdddfe4e52ca0a3a449095073af15</property>
  </producer>
  <producer id="producer42" in="00:00:00.000" out="03:59:59.960">
    <property name="length">04:00:00.000</property>
    <property name="eof">pause</property>
    <property name="resource">background_images/09-thundercats-1.png</property>
    <property name="ttl">1</property>
    <property name="aspect_ratio">1</property>
    <property name="progressive">1</property>
    <property name="seekable">1</property>
    <property name="mlt_service">qimage</property>
    <property name="creation_time">2022-05-20T15:55:16</property>
    <property name="xml">was here</property>
    <property name="shotcut:hash">be7fa68f10dbeff7c90b3ef773c58c6a</property>
  </producer>
  <producer id="producer43" in="00:00:00.000" out="03:59:59.960">
    <property name="length">04:00:00.000</property>
    <property name="eof">pause</property>
    <property name="resource">background_images/10-thundercats-2.png</property>
    <property name="ttl">1</property>
    <property name="aspect_ratio">1</property>
    <property name="progressive">1</property>
    <property name="seekable">1</property>
    <property name="mlt_service">qimage</property>
    <property name="creation_time">2022-05-20T15:55:46</property>
    <property name="xml">was here</property>
    <property name="shotcut:hash">3a3cb1ddede22e6d4a8425b019ca6489</property>
  </producer>
  <producer id="producer44" in="00:00:00.000" out="03:59:59.960">
    <property name="length">04:00:00.000</property>
    <property name="eof">pause</property>
    <property name="resource">background_images/11-spiderman.png</property>
    <property name="ttl">1</property>
    <property name="aspect_ratio">1</property>
    <property name="progressive">1</property>
    <property name="seekable">1</property>
    <property name="mlt_service">qimage</property>
    <property name="creation_time">2022-05-20T15:57:36</property>
    <property name="xml">was here</property>
    <property name="shotcut:hash">a45ee88f6c0dddeeb993c2b5eacc4cca</property>
  </producer>
  <producer id="producer45" in="00:00:00.000" out="03:59:59.960">
    <property name="length">04:00:00.000</property>
    <property name="eof">pause</property>
    <property name="resource">background_images/12-blek.png</property>
    <property name="ttl">1</property>
    <property name="aspect_ratio">1</property>
    <property name="progressive">1</property>
    <property name="seekable">1</property>
    <property name="mlt_service">qimage</property>
    <property name="creation_time">2022-05-20T16:01:52</property>
    <property name="xml">was here</property>
    <property name="shotcut:hash">7ba8145a138ee0c09845d513810cd7a5</property>
  </producer>
  <producer id="producer46" in="00:00:00.000" out="03:59:59.960">
    <property name="length">04:00:00.000</property>
    <property name="eof">pause</property>
    <property name="resource">background_images/13-mark-1.png</property>
    <property name="ttl">1</property>
    <property name="aspect_ratio">1</property>
    <property name="progressive">1</property>
    <property name="seekable">1</property>
    <property name="mlt_service">qimage</property>
    <property name="creation_time">2022-05-20T16:02:40</property>
    <property name="xml">was here</property>
    <property name="shotcut:hash">b4a73a599ef9f9426c1f51435b16f309</property>
  </producer>
  <producer id="producer47" in="00:00:00.000" out="03:59:59.960">
    <property name="length">04:00:00.000</property>
    <property name="eof">pause</property>
    <property name="resource">background_images/14-mark-2.png</property>
    <property name="ttl">1</property>
    <property name="aspect_ratio">1</property>
    <property name="progressive">1</property>
    <property name="seekable">1</property>
    <property name="mlt_service">qimage</property>
    <property name="creation_time">2022-05-20T16:03:26</property>
    <property name="xml">was here</property>
    <property name="shotcut:hash">f93e4ca9c667f87a2bb6d86a629ca8a0</property>
  </producer>
  <producer id="producer48" in="00:00:00.000" out="03:59:59.960">
    <property name="length">04:00:00.000</property>
    <property name="eof">pause</property>
    <property name="resource">background_images/15-adams-1.png</property>
    <property name="ttl">1</property>
    <property name="aspect_ratio">1</property>
    <property name="progressive">1</property>
    <property name="seekable">1</property>
    <property name="mlt_service">qimage</property>
    <property name="creation_time">2022-05-20T16:04:56</property>
    <property name="xml">was here</property>
    <property name="shotcut:hash">dc379ee144ca02b584ee79b0953c918f</property>
  </producer>
  <producer id="producer49" in="00:00:00.000" out="03:59:59.960">
    <property name="length">04:00:00.000</property>
    <property name="eof">pause</property>
    <property name="resource">background_images/16-joker.png</property>
    <property name="ttl">1</property>
    <property name="aspect_ratio">1</property>
    <property name="progressive">1</property>
    <property name="seekable">1</property>
    <property name="mlt_service">qimage</property>
    <property name="creation_time">2022-05-20T16:05:48</property>
    <property name="xml">was here</property>
    <property name="shotcut:hash">592fd96e8ac7c8ba1a19d6e2074dd66a</property>
  </producer>
  <producer id="producer50" in="00:00:00.000" out="03:59:59.960">
    <property name="length">04:00:00.000</property>
    <property name="eof">pause</property>
    <property name="resource">background_images/17-miktos-1.png</property>
    <property name="ttl">1</property>
    <property name="aspect_ratio">1</property>
    <property name="progressive">1</property>
    <property name="seekable">1</property>
    <property name="mlt_service">qimage</property>
    <property name="creation_time">2022-05-20T16:08:32</property>
    <property name="xml">was here</property>
    <property name="shotcut:hash">fe3d3db53005883c1f7fa75f4e8c43c6</property>
  </producer>
  <producer id="producer51" in="00:00:00.000" out="03:59:59.960">
    <property name="length">04:00:00.000</property>
    <property name="eof">pause</property>
    <property name="resource">background_images/18-odysseas-3.png</property>
    <property name="ttl">1</property>
    <property name="aspect_ratio">1</property>
    <property name="progressive">1</property>
    <property name="seekable">1</property>
    <property name="mlt_service">qimage</property>
    <property name="creation_time">2022-05-20T16:10:08</property>
    <property name="xml">was here</property>
    <property name="shotcut:hash">8dc7f45c4cd1f98d527ce6b5b1562730</property>
  </producer>
  <producer id="producer52" in="00:00:00.000" out="03:59:59.960">
    <property name="length">04:00:00.000</property>
    <property name="eof">pause</property>
    <property name="resource">background_images/19-odysseas-4.png</property>
    <property name="ttl">1</property>
    <property name="aspect_ratio">1</property>
    <property name="progressive">1</property>
    <property name="seekable">1</property>
    <property name="mlt_service">qimage</property>
    <property name="creation_time">2022-05-20T16:10:38</property>
    <property name="xml">was here</property>
    <property name="shotcut:hash">d5354c9b076f3713461ebe5df93e7fc7</property>
  </producer>
  <producer id="producer53" in="00:00:00.000" out="03:59:59.960">
    <property name="length">04:00:00.000</property>
    <property name="eof">pause</property>
    <property name="resource">background_images/20-portrait-1.png</property>
    <property name="ttl">1</property>
    <property name="aspect_ratio">1</property>
    <property name="progressive">1</property>
    <property name="seekable">1</property>
    <property name="mlt_service">qimage</property>
    <property name="creation_time">2022-05-20T19:53:08</property>
    <property name="xml">was here</property>
    <property name="shotcut:hash">32b87a7846d363105d199d1c23e8d18a</property>
  </producer>
  <playlist id="main_bin">
    <property name="xml_retain">1</property>
    <entry producer="chain0" in="00:00:00.000" out="00:00:24.880"/>
    <entry producer="producer0" in="00:00:00.000" out="00:00:03.960"/>
    <entry producer="chain1" in="00:00:00.000" out="01:15:20.520"/>
    <entry producer="chain2" in="00:00:00.000" out="01:15:20.520"/>
    <entry producer="chain3" in="00:00:00.000" out="01:15:20.520"/>
    <entry producer="producer1" in="00:00:00.000" out="00:00:03.960"/>
    <entry producer="producer2" in="00:00:00.000" out="00:00:03.960"/>
    <entry producer="chain4" in="00:00:00.000" out="00:00:07.800"/>
    <entry producer="producer3" in="00:00:00.000" out="00:00:03.960"/>
    <entry producer="producer4" in="00:00:00.000" out="00:00:03.960"/>
    <entry producer="producer5" in="00:00:00.000" out="00:00:03.960"/>
    <entry producer="producer6" in="00:00:00.000" out="00:00:03.960"/>
    <entry producer="producer7" in="00:00:00.000" out="00:00:03.960"/>
    <entry producer="producer8" in="00:00:00.000" out="00:00:03.960"/>
    <entry producer="producer9" in="00:00:00.000" out="00:00:03.960"/>
    <entry producer="producer10" in="00:00:00.000" out="00:00:03.960"/>
    <entry producer="producer11" in="00:00:00.000" out="00:00:03.960"/>
    <entry producer="producer12" in="00:00:00.000" out="00:00:03.960"/>
    <entry producer="producer13" in="00:00:00.000" out="00:00:03.960"/>
    <entry producer="producer14" in="00:00:00.000" out="00:00:03.960"/>
    <entry producer="producer15" in="00:00:00.000" out="00:00:03.960"/>
    <entry producer="producer16" in="00:00:00.000" out="00:00:03.960"/>
    <entry producer="producer17" in="00:00:00.000" out="00:00:03.960"/>
    <entry producer="producer18" in="00:00:00.000" out="00:00:03.960"/>
    <entry producer="producer19" in="00:00:00.000" out="00:00:03.960"/>
    <entry producer="producer20" in="00:00:00.000" out="00:00:03.960"/>
    <entry producer="producer21" in="00:00:00.000" out="00:00:03.960"/>
    <entry producer="producer22" in="00:00:00.000" out="00:00:03.960"/>
    <entry producer="chain5" in="00:00:00.000" out="00:00:04.200"/>
    <entry producer="chain6" in="00:00:00.000" out="00:00:34.160"/>
    <entry producer="producer23" in="00:00:00.000" out="00:00:03.960"/>
    <entry producer="producer24" in="00:00:00.000" out="00:00:03.960"/>
    <entry producer="producer25" in="00:00:00.000" out="00:00:03.960"/>
    <entry producer="producer26" in="00:00:00.000" out="00:00:03.960"/>
    <entry producer="producer27" in="00:00:00.000" out="00:00:03.960"/>
    <entry producer="producer28" in="00:00:00.000" out="00:00:03.960"/>
    <entry producer="producer29" in="00:00:00.000" out="00:00:03.960"/>
    <entry producer="producer30" in="00:00:00.000" out="00:00:03.960"/>
    <entry producer="producer31" in="00:00:00.000" out="00:00:03.960"/>
    <entry producer="producer32" in="00:00:00.000" out="00:00:03.960"/>
    <entry producer="producer33" in="00:00:00.000" out="00:00:03.960"/>
    <entry producer="producer34" in="00:00:00.000" out="00:00:03.960"/>
    <entry producer="producer35" in="00:00:00.000" out="00:00:03.960"/>
    <entry producer="producer36" in="00:00:00.000" out="00:00:03.960"/>
    <entry producer="producer37" in="00:00:00.000" out="00:00:03.960"/>
    <entry producer="producer38" in="00:00:00.000" out="00:00:03.960"/>
    <entry producer="producer39" in="00:00:00.000" out="00:00:03.960"/>
    <entry producer="producer40" in="00:00:00.000" out="00:00:03.960"/>
    <entry producer="producer41" in="00:00:00.000" out="00:00:03.960"/>
    <entry producer="producer42" in="00:00:00.000" out="00:00:03.960"/>
    <entry producer="producer43" in="00:00:00.000" out="00:00:03.960"/>
    <entry producer="producer44" in="00:00:00.000" out="00:00:03.960"/>
    <entry producer="producer45" in="00:00:00.000" out="00:00:03.960"/>
    <entry producer="producer46" in="00:00:00.000" out="00:00:03.960"/>
    <entry producer="producer47" in="00:00:00.000" out="00:00:03.960"/>
    <entry producer="producer48" in="00:00:00.000" out="00:00:03.960"/>
    <entry producer="producer49" in="00:00:00.000" out="00:00:03.960"/>
    <entry producer="producer50" in="00:00:00.000" out="00:00:03.960"/>
    <entry producer="producer51" in="00:00:00.000" out="00:00:03.960"/>
    <entry producer="producer52" in="00:00:00.000" out="00:00:03.960"/>
    <entry producer="producer53" in="00:00:00.000" out="00:00:03.960"/>
  </playlist>
  <producer id="black" in="00:00:00.000" out="01:13:32.600">
    <property name="length">01:13:32.640</property>
    <property name="eof">pause</property>
    <property name="resource">0</property>
    <property name="aspect_ratio">1</property>
    <property name="mlt_service">color</property>
    <property name="mlt_image_format">rgba</property>
    <property name="set.test_audio">0</property>
  </producer>
  <playlist id="background">
    <entry producer="black" in="00:00:00.000" out="01:13:32.600"/>
  </playlist>
  <chain id="chain7" out="01:15:20.520">
    <property name="length">01:15:20.560</property>
    <property name="eof">pause</property>
    <property name="resource">recording/audioKostasFragkiada11004719839.m4a</property>
    <property name="mlt_service">avformat-novalidate</property>
    <property name="seekable">1</property>
    <property name="audio_index">0</property>
    <property name="video_index">-1</property>
    <property name="mute_on_pause">0</property>
    <property name="xml">was here</property>
    <property name="shotcut:hash">4e5ef5d2eb564a51044c7acb3cc01aa3</property>
    <property name="shotcut:caption">audioKostasFragkiada11004719839.m4a</property>
  </chain>
  <chain id="chain8" out="01:15:20.520">
    <property name="length">01:15:20.560</property>
    <property name="eof">pause</property>
    <property name="resource">recording/audioKostasFragkiada11004719839.m4a</property>
    <property name="mlt_service">avformat-novalidate</property>
    <property name="seekable">1</property>
    <property name="audio_index">0</property>
    <property name="video_index">-1</property>
    <property name="mute_on_pause">0</property>
    <property name="xml">was here</property>
    <property name="shotcut:hash">4e5ef5d2eb564a51044c7acb3cc01aa3</property>
    <property name="shotcut:caption">audioKostasFragkiada11004719839.m4a</property>
  </chain>
  <playlist id="playlist0">
    <property name="shotcut:audio">1</property>
    <property name="shotcut:name">Audio-Guest</property>
    <blank length="00:00:20.000"/>
    <entry producer="chain7" in="00:01:47.240" out="00:46:42.480"/>
    <blank length="00:00:36.040"/>
    <entry producer="chain8" in="00:47:46.520" out="01:15:15.800"/>
  </playlist>
  <chain id="chain9" out="01:15:20.520">
    <property name="length">01:15:20.560</property>
    <property name="eof">pause</property>
    <property name="resource">recording/audioΔημήτριο21004719839.m4a</property>
    <property name="mlt_service">avformat-novalidate</property>
    <property name="seekable">1</property>
    <property name="audio_index">0</property>
    <property name="video_index">-1</property>
    <property name="mute_on_pause">0</property>
    <property name="xml">was here</property>
    <property name="shotcut:hash">2428ac455b73788ece0fb535c0b7f142</property>
    <property name="shotcut:caption">audioΔημήτριο21004719839.m4a</property>
    <filter id="filter3" in="00:01:47.240" out="00:05:37.640">
      <property name="window">75</property>
      <property name="max_gain">20dB</property>
      <property name="level">3</property>
      <property name="mlt_service">volume</property>
    </filter>
  </chain>
  <chain id="chain10" out="01:15:20.520">
    <property name="length">01:15:20.560</property>
    <property name="eof">pause</property>
    <property name="resource">recording/audioΔημήτριο21004719839.m4a</property>
    <property name="mlt_service">avformat-novalidate</property>
    <property name="seekable">1</property>
    <property name="audio_index">0</property>
    <property name="video_index">-1</property>
    <property name="mute_on_pause">0</property>
    <property name="xml">was here</property>
    <property name="shotcut:hash">2428ac455b73788ece0fb535c0b7f142</property>
    <property name="shotcut:caption">audioΔημήτριο21004719839.m4a</property>
    <filter id="filter4" in="00:05:37.680" out="00:06:19.400">
      <property name="window">75</property>
      <property name="max_gain">20dB</property>
      <property name="level">8.2</property>
      <property name="mlt_service">volume</property>
    </filter>
  </chain>
  <chain id="chain11" out="01:15:20.520">
    <property name="length">01:15:20.560</property>
    <property name="eof">pause</property>
    <property name="resource">recording/audioΔημήτριο21004719839.m4a</property>
    <property name="mlt_service">avformat-novalidate</property>
    <property name="seekable">1</property>
    <property name="audio_index">0</property>
    <property name="video_index">-1</property>
    <property name="mute_on_pause">0</property>
    <property name="xml">was here</property>
    <property name="shotcut:hash">2428ac455b73788ece0fb535c0b7f142</property>
    <property name="shotcut:caption">audioΔημήτριο21004719839.m4a</property>
    <filter id="filter5" in="00:06:19.440" out="00:46:42.480">
      <property name="window">75</property>
      <property name="max_gain">20dB</property>
      <property name="level">3</property>
      <property name="mlt_service">volume</property>
    </filter>
  </chain>
  <chain id="chain12" out="01:15:20.520">
    <property name="length">01:15:20.560</property>
    <property name="eof">pause</property>
    <property name="resource">recording/audioΔημήτριο21004719839.m4a</property>
    <property name="mlt_service">avformat-novalidate</property>
    <property name="seekable">1</property>
    <property name="audio_index">0</property>
    <property name="video_index">-1</property>
    <property name="mute_on_pause">0</property>
    <property name="xml">was here</property>
    <property name="shotcut:hash">2428ac455b73788ece0fb535c0b7f142</property>
    <property name="shotcut:caption">audioΔημήτριο21004719839.m4a</property>
    <filter id="filter6" in="00:47:46.520" out="01:15:15.800">
      <property name="window">75</property>
      <property name="max_gain">20dB</property>
      <property name="level">3</property>
      <property name="mlt_service">volume</property>
    </filter>
  </chain>
  <playlist id="playlist1">
    <property name="shotcut:audio">1</property>
    <property name="shotcut:name">Audio-Host</property>
    <blank length="00:00:20.000"/>
    <entry producer="chain9" in="00:01:47.240" out="00:05:37.640"/>
    <entry producer="chain10" in="00:05:37.680" out="00:06:19.400"/>
    <entry producer="chain11" in="00:06:19.440" out="00:46:42.480"/>
    <blank length="00:00:36.040"/>
    <entry producer="chain12" in="00:47:46.520" out="01:15:15.800"/>
  </playlist>
  <chain id="chain13" out="00:00:24.880">
    <property name="length">00:00:24.920</property>
    <property name="eof">pause</property>
    <property name="resource">/home/dimitry/notes_materials_collateral/podcast/intro.wav</property>
    <property name="mlt_service">avformat-novalidate</property>
    <property name="seekable">1</property>
    <property name="audio_index">0</property>
    <property name="video_index">-1</property>
    <property name="mute_on_pause">0</property>
    <property name="xml">was here</property>
    <property name="shotcut:hash">b8f9d4b9098b4df425223ddc770a63cf</property>
    <property name="shotcut:caption">intro.wav</property>
    <filter id="filter7" out="00:00:24.880">
      <property name="window">75</property>
      <property name="max_gain">20dB</property>
      <property name="level">00:00:20.520=0;00:00:24.880=-60</property>
      <property name="mlt_service">volume</property>
      <property name="shotcut:filter">fadeOutVolume</property>
      <property name="shotcut:animOut">00:00:04.400</property>
    </filter>
  </chain>
  <playlist id="playlist2">
    <property name="shotcut:audio">1</property>
    <property name="shotcut:name">Audio-intro</property>
    <entry producer="chain13" in="00:00:00.000" out="00:00:24.880"/>
  </playlist>
  <producer id="producer54" in="00:00:00.000" out="03:59:59.960">
    <property name="length">04:00:00.000</property>
    <property name="eof">pause</property>
    <property name="resource">images/01-photo_comicon-1920x1080.jpg</property>
    <property name="ttl">1</property>
    <property name="aspect_ratio">1</property>
    <property name="progressive">1</property>
    <property name="seekable">1</property>
    <property name="mlt_service">qimage</property>
    <property name="creation_time">2022-05-18T09:10:17</property>
    <property name="xml">was here</property>
    <property name="shotcut:hash">aa9b568787d31b30210a60f8532df3b0</property>
    <property name="shotcut:caption">01-photo_comicon-1920x1080.jpg</property>
  </producer>
  <producer id="producer55" in="00:00:00.000" out="03:59:59.960">
    <property name="length">04:00:00.000</property>
    <property name="eof">pause</property>
    <property name="resource">images/01-photo_comicon-1920x1080.jpg</property>
    <property name="ttl">1</property>
    <property name="aspect_ratio">1</property>
    <property name="progressive">1</property>
    <property name="seekable">1</property>
    <property name="mlt_service">qimage</property>
    <property name="creation_time">2022-05-18T09:10:17</property>
    <property name="xml">was here</property>
    <property name="shotcut:hash">aa9b568787d31b30210a60f8532df3b0</property>
    <property name="shotcut:caption">01-photo_comicon-1920x1080.jpg</property>
  </producer>
  <producer id="producer56" in="00:00:00.000" out="03:59:59.960">
    <property name="length">04:00:00.000</property>
    <property name="eof">pause</property>
    <property name="resource">background_images/01-batman.tif</property>
    <property name="ttl">1</property>
    <property name="aspect_ratio">1</property>
    <property name="progressive">1</property>
    <property name="seekable">1</property>
    <property name="mlt_service">qimage</property>
    <property name="creation_time">2022-05-20T15:38:04</property>
    <property name="xml">was here</property>
    <property name="shotcut:hash">db7d134c594e29843917b79fb969a8b2</property>
    <property name="shotcut:caption">01-batman.tif</property>
  </producer>
  <tractor id="tractor0" in="00:00:00.000" out="00:00:02.880">
    <property name="shotcut:transition">lumaMix</property>
    <track producer="producer55" in="00:04:47.320" out="00:04:50.200"/>
    <track producer="producer56" in="00:00:00.000" out="00:00:02.880"/>
    <transition id="transition0" out="00:00:02.880">
      <property name="a_track">0</property>
      <property name="b_track">1</property>
      <property name="factory">loader</property>
      <property name="mlt_service">luma</property>
      <property name="alpha_over">1</property>
    </transition>
    <transition id="transition1" out="00:00:02.880">
      <property name="a_track">0</property>
      <property name="b_track">1</property>
      <property name="mlt_service">mix</property>
      <property name="start">-1</property>
      <property name="accepts_blanks">1</property>
    </transition>
  </tractor>
  <producer id="producer57" in="00:00:00.000" out="03:59:59.960">
    <property name="length">04:00:00.000</property>
    <property name="eof">pause</property>
    <property name="resource">background_images/02-daredevil.png</property>
    <property name="ttl">1</property>
    <property name="aspect_ratio">1</property>
    <property name="progressive">1</property>
    <property name="seekable">1</property>
    <property name="mlt_service">qimage</property>
    <property name="creation_time">2022-05-20T15:46:54</property>
    <property name="xml">was here</property>
    <property name="shotcut:hash">61106e5f37c68248590a3359b347b3b6</property>
    <property name="shotcut:caption">02-daredevil.png</property>
  </producer>
  <tractor id="tractor1" in="00:00:00.000" out="00:00:05.520">
    <property name="shotcut:transition">lumaMix</property>
    <track producer="producer56" in="00:03:07.440" out="00:03:12.960"/>
    <track producer="producer57" in="00:00:00.000" out="00:00:05.520"/>
    <transition id="transition2" out="00:00:05.520">
      <property name="a_track">0</property>
      <property name="b_track">1</property>
      <property name="factory">loader</property>
      <property name="mlt_service">luma</property>
      <property name="alpha_over">1</property>
    </transition>
    <transition id="transition3" out="00:00:05.520">
      <property name="a_track">0</property>
      <property name="b_track">1</property>
      <property name="mlt_service">mix</property>
      <property name="start">-1</property>
      <property name="accepts_blanks">1</property>
    </transition>
  </tractor>
  <producer id="producer58" in="00:00:00.000" out="03:59:59.960">
    <property name="length">04:00:00.000</property>
    <property name="eof">pause</property>
    <property name="resource">background_images/03-odysseas-1.png</property>
    <property name="ttl">1</property>
    <property name="aspect_ratio">1</property>
    <property name="progressive">1</property>
    <property name="seekable">1</property>
    <property name="mlt_service">qimage</property>
    <property name="creation_time">2022-05-20T15:50:00</property>
    <property name="xml">was here</property>
    <property name="shotcut:hash">60093964d288eb472377d8bfd18f647f</property>
    <property name="shotcut:caption">03-odysseas-1.png</property>
  </producer>
  <tractor id="tractor2" in="00:00:00.000" out="00:00:05.480">
    <property name="shotcut:transition">lumaMix</property>
    <track producer="producer57" in="00:03:11.600" out="00:03:17.080"/>
    <track producer="producer58" in="00:00:00.000" out="00:00:05.480"/>
    <transition id="transition4" out="00:00:05.480">
      <property name="a_track">0</property>
      <property name="b_track">1</property>
      <property name="factory">loader</property>
      <property name="mlt_service">luma</property>
      <property name="alpha_over">1</property>
    </transition>
    <transition id="transition5" out="00:00:05.480">
      <property name="a_track">0</property>
      <property name="b_track">1</property>
      <property name="mlt_service">mix</property>
      <property name="start">-1</property>
      <property name="accepts_blanks">1</property>
    </transition>
  </tractor>
  <producer id="producer59" in="00:00:00.000" out="03:59:59.960">
    <property name="length">04:00:00.000</property>
    <property name="eof">pause</property>
    <property name="resource">background_images/04-odysseas-2.png</property>
    <property name="ttl">1</property>
    <property name="aspect_ratio">1</property>
    <property name="progressive">1</property>
    <property name="seekable">1</property>
    <property name="mlt_service">qimage</property>
    <property name="creation_time">2022-05-20T15:50:24</property>
    <property name="xml">was here</property>
    <property name="shotcut:hash">7709467c894bbf78caf4d2e356c302cc</property>
    <property name="shotcut:caption">04-odysseas-2.png</property>
  </producer>
  <tractor id="tractor3" in="00:00:00.000" out="00:00:04.760">
    <property name="shotcut:transition">lumaMix</property>
    <track producer="producer58" in="00:03:10.840" out="00:03:15.600"/>
    <track producer="producer59" in="00:00:00.000" out="00:00:04.760"/>
    <transition id="transition6" out="00:00:04.760">
      <property name="a_track">0</property>
      <property name="b_track">1</property>
      <property name="factory">loader</property>
      <property name="mlt_service">luma</property>
      <property name="alpha_over">1</property>
    </transition>
    <transition id="transition7" out="00:00:04.760">
      <property name="a_track">0</property>
      <property name="b_track">1</property>
      <property name="mlt_service">mix</property>
      <property name="start">-1</property>
      <property name="accepts_blanks">1</property>
    </transition>
  </tractor>
  <producer id="producer60" in="00:00:00.000" out="03:59:59.960">
    <property name="length">04:00:00.000</property>
    <property name="eof">pause</property>
    <property name="resource">background_images/05-dredd-1.png</property>
    <property name="ttl">1</property>
    <property name="aspect_ratio">1</property>
    <property name="progressive">1</property>
    <property name="seekable">1</property>
    <property name="mlt_service">qimage</property>
    <property name="creation_time">2022-05-20T15:51:26</property>
    <property name="xml">was here</property>
    <property name="shotcut:hash">cffa27885f17d92d05f8f89f97861e12</property>
    <property name="shotcut:caption">05-dredd-1.png</property>
  </producer>
  <tractor id="tractor4" in="00:00:00.000" out="00:00:05.120">
    <property name="shotcut:transition">lumaMix</property>
    <track producer="producer59" in="00:03:10.000" out="00:03:15.120"/>
    <track producer="producer60" in="00:00:00.000" out="00:00:05.120"/>
    <transition id="transition8" out="00:00:05.120">
      <property name="a_track">0</property>
      <property name="b_track">1</property>
      <property name="factory">loader</property>
      <property name="mlt_service">luma</property>
      <property name="alpha_over">1</property>
    </transition>
    <transition id="transition9" out="00:00:05.120">
      <property name="a_track">0</property>
      <property name="b_track">1</property>
      <property name="mlt_service">mix</property>
      <property name="start">-1</property>
      <property name="accepts_blanks">1</property>
    </transition>
  </tractor>
  <producer id="producer61" in="00:00:00.000" out="03:59:59.960">
    <property name="length">04:00:00.000</property>
    <property name="eof">pause</property>
    <property name="resource">background_images/06-dredd-2.png</property>
    <property name="ttl">1</property>
    <property name="aspect_ratio">1</property>
    <property name="progressive">1</property>
    <property name="seekable">1</property>
    <property name="mlt_service">qimage</property>
    <property name="creation_time">2022-05-20T15:58:26</property>
    <property name="xml">was here</property>
    <property name="shotcut:hash">80cf037932098d0f2270f30c4ac5fa01</property>
    <property name="shotcut:caption">06-dredd-2.png</property>
  </producer>
  <tractor id="tractor5" in="00:00:00.000" out="00:00:05.280">
    <property name="shotcut:transition">lumaMix</property>
    <track producer="producer60" in="00:03:10.240" out="00:03:15.520"/>
    <track producer="producer61" in="00:00:00.000" out="00:00:05.280"/>
    <transition id="transition10" out="00:00:05.280">
      <property name="a_track">0</property>
      <property name="b_track">1</property>
      <property name="factory">loader</property>
      <property name="mlt_service">luma</property>
      <property name="alpha_over">1</property>
    </transition>
    <transition id="transition11" out="00:00:05.280">
      <property name="a_track">0</property>
      <property name="b_track">1</property>
      <property name="mlt_service">mix</property>
      <property name="start">-1</property>
      <property name="accepts_blanks">1</property>
    </transition>
  </tractor>
  <producer id="producer62" in="00:00:00.000" out="03:59:59.960">
    <property name="length">04:00:00.000</property>
    <property name="eof">pause</property>
    <property name="resource">background_images/07-cowboy-1.png</property>
    <property name="ttl">1</property>
    <property name="aspect_ratio">1</property>
    <property name="progressive">1</property>
    <property name="seekable">1</property>
    <property name="mlt_service">qimage</property>
    <property name="creation_time">2022-05-20T15:53:06</property>
    <property name="xml">was here</property>
    <property name="shotcut:hash">5ea96fe31962f02d97c3d23252f3396d</property>
    <property name="shotcut:caption">07-cowboy-1.png</property>
  </producer>
  <tractor id="tractor6" in="00:00:00.000" out="00:00:05.320">
    <property name="shotcut:transition">lumaMix</property>
    <track producer="producer61" in="00:03:10.160" out="00:03:15.480"/>
    <track producer="producer62" in="00:00:00.000" out="00:00:05.320"/>
    <transition id="transition12" out="00:00:05.320">
      <property name="a_track">0</property>
      <property name="b_track">1</property>
      <property name="factory">loader</property>
      <property name="mlt_service">luma</property>
      <property name="alpha_over">1</property>
    </transition>
    <transition id="transition13" out="00:00:05.320">
      <property name="a_track">0</property>
      <property name="b_track">1</property>
      <property name="mlt_service">mix</property>
      <property name="start">-1</property>
      <property name="accepts_blanks">1</property>
    </transition>
  </tractor>
  <producer id="producer63" in="00:00:00.000" out="03:59:59.960">
    <property name="length">04:00:00.000</property>
    <property name="eof">pause</property>
    <property name="resource">background_images/08-magic.png</property>
    <property name="ttl">1</property>
    <property name="aspect_ratio">1</property>
    <property name="progressive">1</property>
    <property name="seekable">1</property>
    <property name="mlt_service">qimage</property>
    <property name="creation_time">2022-05-20T15:52:16</property>
    <property name="xml">was here</property>
    <property name="shotcut:hash">f44cdddfe4e52ca0a3a449095073af15</property>
    <property name="shotcut:caption">08-magic.png</property>
  </producer>
  <tractor id="tractor7" in="00:00:00.000" out="00:00:06.320">
    <property name="shotcut:transition">lumaMix</property>
    <track producer="producer62" in="00:03:09.560" out="00:03:15.880"/>
    <track producer="producer63" in="00:00:00.000" out="00:00:06.320"/>
    <transition id="transition14" out="00:00:06.320">
      <property name="a_track">0</property>
      <property name="b_track">1</property>
      <property name="factory">loader</property>
      <property name="mlt_service">luma</property>
      <property name="alpha_over">1</property>
    </transition>
    <transition id="transition15" out="00:00:06.320">
      <property name="a_track">0</property>
      <property name="b_track">1</property>
      <property name="mlt_service">mix</property>
      <property name="start">-1</property>
      <property name="accepts_blanks">1</property>
    </transition>
  </tractor>
  <producer id="producer64" in="00:00:00.000" out="03:59:59.960">
    <property name="length">04:00:00.000</property>
    <property name="eof">pause</property>
    <property name="resource">background_images/09-thundercats-1.png</property>
    <property name="ttl">1</property>
    <property name="aspect_ratio">1</property>
    <property name="progressive">1</property>
    <property name="seekable">1</property>
    <property name="mlt_service">qimage</property>
    <property name="creation_time">2022-05-20T15:55:16</property>
    <property name="xml">was here</property>
    <property name="shotcut:hash">be7fa68f10dbeff7c90b3ef773c58c6a</property>
    <property name="shotcut:caption">09-thundercats-1.png</property>
  </producer>
  <tractor id="tractor8" in="00:00:00.000" out="00:00:06.280">
    <property name="shotcut:transition">lumaMix</property>
    <track producer="producer63" in="00:03:10.600" out="00:03:16.880"/>
    <track producer="producer64" in="00:00:00.000" out="00:00:06.280"/>
    <transition id="transition16" out="00:00:06.280">
      <property name="a_track">0</property>
      <property name="b_track">1</property>
      <property name="factory">loader</property>
      <property name="mlt_service">luma</property>
      <property name="alpha_over">1</property>
    </transition>
    <transition id="transition17" out="00:00:06.280">
      <property name="a_track">0</property>
      <property name="b_track">1</property>
      <property name="mlt_service">mix</property>
      <property name="start">-1</property>
      <property name="accepts_blanks">1</property>
    </transition>
  </tractor>
  <producer id="producer65" in="00:00:00.000" out="03:59:59.960">
    <property name="length">04:00:00.000</property>
    <property name="eof">pause</property>
    <property name="resource">background_images/10-thundercats-2.png</property>
    <property name="ttl">1</property>
    <property name="aspect_ratio">1</property>
    <property name="progressive">1</property>
    <property name="seekable">1</property>
    <property name="mlt_service">qimage</property>
    <property name="creation_time">2022-05-20T15:55:46</property>
    <property name="xml">was here</property>
    <property name="shotcut:hash">3a3cb1ddede22e6d4a8425b019ca6489</property>
    <property name="shotcut:caption">10-thundercats-2.png</property>
  </producer>
  <tractor id="tractor9" in="00:00:00.000" out="00:00:08.600">
    <property name="shotcut:transition">lumaMix</property>
    <track producer="producer64" in="00:03:08.760" out="00:03:17.360"/>
    <track producer="producer65" in="00:00:00.000" out="00:00:08.600"/>
    <transition id="transition18" out="00:00:08.600">
      <property name="a_track">0</property>
      <property name="b_track">1</property>
      <property name="factory">loader</property>
      <property name="mlt_service">luma</property>
      <property name="alpha_over">1</property>
    </transition>
    <transition id="transition19" out="00:00:08.600">
      <property name="a_track">0</property>
      <property name="b_track">1</property>
      <property name="mlt_service">mix</property>
      <property name="start">-1</property>
      <property name="accepts_blanks">1</property>
    </transition>
  </tractor>
  <producer id="producer66" in="00:00:00.000" out="03:59:59.960">
    <property name="length">04:00:00.000</property>
    <property name="eof">pause</property>
    <property name="resource">background_images/11-spiderman.png</property>
    <property name="ttl">1</property>
    <property name="aspect_ratio">1</property>
    <property name="progressive">1</property>
    <property name="seekable">1</property>
    <property name="mlt_service">qimage</property>
    <property name="creation_time">2022-05-20T15:57:36</property>
    <property name="xml">was here</property>
    <property name="shotcut:hash">a45ee88f6c0dddeeb993c2b5eacc4cca</property>
    <property name="shotcut:caption">11-spiderman.png</property>
  </producer>
  <tractor id="tractor10" in="00:00:00.000" out="00:00:10.000">
    <property name="shotcut:transition">lumaMix</property>
    <track producer="producer65" in="00:03:09.240" out="00:03:19.240"/>
    <track producer="producer66" in="00:00:00.000" out="00:00:10.000"/>
    <transition id="transition20" out="00:00:10.000">
      <property name="a_track">0</property>
      <property name="b_track">1</property>
      <property name="factory">loader</property>
      <property name="mlt_service">luma</property>
      <property name="alpha_over">1</property>
    </transition>
    <transition id="transition21" out="00:00:10.000">
      <property name="a_track">0</property>
      <property name="b_track">1</property>
      <property name="mlt_service">mix</property>
      <property name="start">-1</property>
      <property name="accepts_blanks">1</property>
    </transition>
  </tractor>
  <producer id="producer67" in="00:00:00.000" out="03:59:59.960">
    <property name="length">04:00:00.000</property>
    <property name="eof">pause</property>
    <property name="resource">background_images/12-blek.png</property>
    <property name="ttl">1</property>
    <property name="aspect_ratio">1</property>
    <property name="progressive">1</property>
    <property name="seekable">1</property>
    <property name="mlt_service">qimage</property>
    <property name="creation_time">2022-05-20T16:01:52</property>
    <property name="xml">was here</property>
    <property name="shotcut:hash">7ba8145a138ee0c09845d513810cd7a5</property>
    <property name="shotcut:caption">12-blek.png</property>
  </producer>
  <tractor id="tractor11" in="00:00:00.000" out="00:00:09.280">
    <property name="shotcut:transition">lumaMix</property>
    <track producer="producer66" in="00:03:10.920" out="00:03:20.200"/>
    <track producer="producer67" in="00:00:00.000" out="00:00:09.280"/>
    <transition id="transition22" out="00:00:09.280">
      <property name="a_track">0</property>
      <property name="b_track">1</property>
      <property name="factory">loader</property>
      <property name="mlt_service">luma</property>
      <property name="alpha_over">1</property>
    </transition>
    <transition id="transition23" out="00:00:09.280">
      <property name="a_track">0</property>
      <property name="b_track">1</property>
      <property name="mlt_service">mix</property>
      <property name="start">-1</property>
      <property name="accepts_blanks">1</property>
    </transition>
  </tractor>
  <producer id="producer68" in="00:00:00.000" out="03:59:59.960">
    <property name="length">04:00:00.000</property>
    <property name="eof">pause</property>
    <property name="resource">background_images/13-mark-1.png</property>
    <property name="ttl">1</property>
    <property name="aspect_ratio">1</property>
    <property name="progressive">1</property>
    <property name="seekable">1</property>
    <property name="mlt_service">qimage</property>
    <property name="creation_time">2022-05-20T16:02:40</property>
    <property name="xml">was here</property>
    <property name="shotcut:hash">b4a73a599ef9f9426c1f51435b16f309</property>
    <property name="shotcut:caption">13-mark-1.png</property>
  </producer>
  <tractor id="tractor12" in="00:00:00.000" out="00:00:07.280">
    <property name="shotcut:transition">lumaMix</property>
    <track producer="producer67" in="00:03:12.000" out="00:03:19.280"/>
    <track producer="producer68" in="00:00:00.000" out="00:00:07.280"/>
    <transition id="transition24" out="00:00:07.280">
      <property name="a_track">0</property>
      <property name="b_track">1</property>
      <property name="factory">loader</property>
      <property name="mlt_service">luma</property>
      <property name="alpha_over">1</property>
    </transition>
    <transition id="transition25" out="00:00:07.280">
      <property name="a_track">0</property>
      <property name="b_track">1</property>
      <property name="mlt_service">mix</property>
      <property name="start">-1</property>
      <property name="accepts_blanks">1</property>
    </transition>
  </tractor>
  <producer id="producer69" in="00:00:00.000" out="03:59:59.960">
    <property name="length">04:00:00.000</property>
    <property name="eof">pause</property>
    <property name="resource">background_images/14-mark-2.png</property>
    <property name="ttl">1</property>
    <property name="aspect_ratio">1</property>
    <property name="progressive">1</property>
    <property name="seekable">1</property>
    <property name="mlt_service">qimage</property>
    <property name="creation_time">2022-05-20T16:03:26</property>
    <property name="xml">was here</property>
    <property name="shotcut:hash">f93e4ca9c667f87a2bb6d86a629ca8a0</property>
    <property name="shotcut:caption">14-mark-2.png</property>
  </producer>
  <producer id="producer70" in="00:00:00.000" out="03:59:59.960">
    <property name="length">04:00:00.000</property>
    <property name="eof">pause</property>
    <property name="resource">background_images/15-adams-1.png</property>
    <property name="ttl">1</property>
    <property name="aspect_ratio">1</property>
    <property name="progressive">1</property>
    <property name="seekable">1</property>
    <property name="mlt_service">qimage</property>
    <property name="creation_time">2022-05-20T16:04:56</property>
    <property name="xml">was here</property>
    <property name="shotcut:hash">dc379ee144ca02b584ee79b0953c918f</property>
    <property name="shotcut:caption">15-adams-1.png</property>
  </producer>
  <tractor id="tractor13" in="00:00:00.000" out="00:00:06.400">
    <property name="shotcut:transition">lumaMix</property>
    <track producer="producer69" in="00:03:03.720" out="00:03:10.120"/>
    <track producer="producer70" in="00:00:00.000" out="00:00:06.400"/>
    <transition id="transition26" out="00:00:06.400">
      <property name="a_track">0</property>
      <property name="b_track">1</property>
      <property name="factory">loader</property>
      <property name="mlt_service">luma</property>
      <property name="alpha_over">1</property>
    </transition>
    <transition id="transition27" out="00:00:06.400">
      <property name="a_track">0</property>
      <property name="b_track">1</property>
      <property name="mlt_service">mix</property>
      <property name="start">-1</property>
      <property name="accepts_blanks">1</property>
    </transition>
  </tractor>
  <producer id="producer71" in="00:00:00.000" out="03:59:59.960">
    <property name="length">04:00:00.000</property>
    <property name="eof">pause</property>
    <property name="resource">background_images/16-joker.png</property>
    <property name="ttl">1</property>
    <property name="aspect_ratio">1</property>
    <property name="progressive">1</property>
    <property name="seekable">1</property>
    <property name="mlt_service">qimage</property>
    <property name="creation_time">2022-05-20T16:05:48</property>
    <property name="xml">was here</property>
    <property name="shotcut:hash">592fd96e8ac7c8ba1a19d6e2074dd66a</property>
    <property name="shotcut:caption">16-joker.png</property>
  </producer>
  <tractor id="tractor14" in="00:00:00.000" out="00:00:08.040">
    <property name="shotcut:transition">lumaMix</property>
    <track producer="producer70" in="00:03:07.120" out="00:03:15.160"/>
    <track producer="producer71" in="00:00:00.000" out="00:00:08.040"/>
    <transition id="transition28" out="00:00:08.040">
      <property name="a_track">0</property>
      <property name="b_track">1</property>
      <property name="factory">loader</property>
      <property name="mlt_service">luma</property>
      <property name="alpha_over">1</property>
    </transition>
    <transition id="transition29" out="00:00:08.040">
      <property name="a_track">0</property>
      <property name="b_track">1</property>
      <property name="mlt_service">mix</property>
      <property name="start">-1</property>
      <property name="accepts_blanks">1</property>
    </transition>
  </tractor>
  <producer id="producer72" in="00:00:00.000" out="03:59:59.960">
    <property name="length">04:00:00.000</property>
    <property name="eof">pause</property>
    <property name="resource">background_images/17-miktos-1.png</property>
    <property name="ttl">1</property>
    <property name="aspect_ratio">1</property>
    <property name="progressive">1</property>
    <property name="seekable">1</property>
    <property name="mlt_service">qimage</property>
    <property name="creation_time">2022-05-20T16:08:32</property>
    <property name="xml">was here</property>
    <property name="shotcut:hash">fe3d3db53005883c1f7fa75f4e8c43c6</property>
    <property name="shotcut:caption">17-miktos-1.png</property>
  </producer>
  <tractor id="tractor15" in="00:00:00.000" out="00:00:07.480">
    <property name="shotcut:transition">lumaMix</property>
    <track producer="producer71" in="00:03:10.720" out="00:03:18.200"/>
    <track producer="producer72" in="00:00:00.000" out="00:00:07.480"/>
    <transition id="transition30" out="00:00:07.480">
      <property name="a_track">0</property>
      <property name="b_track">1</property>
      <property name="factory">loader</property>
      <property name="mlt_service">luma</property>
      <property name="alpha_over">1</property>
    </transition>
    <transition id="transition31" out="00:00:07.480">
      <property name="a_track">0</property>
      <property name="b_track">1</property>
      <property name="mlt_service">mix</property>
      <property name="start">-1</property>
      <property name="accepts_blanks">1</property>
    </transition>
  </tractor>
  <producer id="producer73" in="00:00:00.000" out="03:59:59.960">
    <property name="length">04:00:00.000</property>
    <property name="eof">pause</property>
    <property name="resource">background_images/18-odysseas-3.png</property>
    <property name="ttl">1</property>
    <property name="aspect_ratio">1</property>
    <property name="progressive">1</property>
    <property name="seekable">1</property>
    <property name="mlt_service">qimage</property>
    <property name="creation_time">2022-05-20T16:10:08</property>
    <property name="xml">was here</property>
    <property name="shotcut:hash">8dc7f45c4cd1f98d527ce6b5b1562730</property>
    <property name="shotcut:caption">18-odysseas-3.png</property>
  </producer>
  <tractor id="tractor16" in="00:00:00.000" out="00:00:07.640">
    <property name="shotcut:transition">lumaMix</property>
    <track producer="producer72" in="00:03:10.760" out="00:03:18.400"/>
    <track producer="producer73" in="00:00:00.000" out="00:00:07.640"/>
    <transition id="transition32" out="00:00:07.640">
      <property name="a_track">0</property>
      <property name="b_track">1</property>
      <property name="factory">loader</property>
      <property name="mlt_service">luma</property>
      <property name="alpha_over">1</property>
    </transition>
    <transition id="transition33" out="00:00:07.640">
      <property name="a_track">0</property>
      <property name="b_track">1</property>
      <property name="mlt_service">mix</property>
      <property name="start">-1</property>
      <property name="accepts_blanks">1</property>
    </transition>
  </tractor>
  <producer id="producer74" in="00:00:00.000" out="03:59:59.960">
    <property name="length">04:00:00.000</property>
    <property name="eof">pause</property>
    <property name="resource">background_images/19-odysseas-4.png</property>
    <property name="ttl">1</property>
    <property name="aspect_ratio">1</property>
    <property name="progressive">1</property>
    <property name="seekable">1</property>
    <property name="mlt_service">qimage</property>
    <property name="creation_time">2022-05-20T16:10:38</property>
    <property name="xml">was here</property>
    <property name="shotcut:hash">d5354c9b076f3713461ebe5df93e7fc7</property>
    <property name="shotcut:caption">19-odysseas-4.png</property>
  </producer>
  <tractor id="tractor17" in="00:00:00.000" out="00:00:07.560">
    <property name="shotcut:transition">lumaMix</property>
    <track producer="producer73" in="00:03:10.360" out="00:03:17.920"/>
    <track producer="producer74" in="00:00:00.000" out="00:00:07.560"/>
    <transition id="transition34" out="00:00:07.560">
      <property name="a_track">0</property>
      <property name="b_track">1</property>
      <property name="factory">loader</property>
      <property name="mlt_service">luma</property>
      <property name="alpha_over">1</property>
    </transition>
    <transition id="transition35" out="00:00:07.560">
      <property name="a_track">0</property>
      <property name="b_track">1</property>
      <property name="mlt_service">mix</property>
      <property name="start">-1</property>
      <property name="accepts_blanks">1</property>
    </transition>
  </tractor>
  <producer id="producer75" in="00:00:00.000" out="03:59:59.960">
    <property name="length">04:00:00.000</property>
    <property name="eof">pause</property>
    <property name="resource">background_images/20-portrait-1.png</property>
    <property name="ttl">1</property>
    <property name="aspect_ratio">1</property>
    <property name="progressive">1</property>
    <property name="seekable">1</property>
    <property name="mlt_service">qimage</property>
    <property name="creation_time">2022-05-20T19:53:08</property>
    <property name="xml">was here</property>
    <property name="shotcut:hash">32b87a7846d363105d199d1c23e8d18a</property>
    <property name="shotcut:caption">20-portrait-1.png</property>
  </producer>
  <tractor id="tractor18" in="00:00:00.000" out="00:00:09.120">
    <property name="shotcut:transition">lumaMix</property>
    <track producer="producer74" in="00:03:09.040" out="00:03:18.160"/>
    <track producer="producer75" in="00:00:00.000" out="00:00:09.120"/>
    <transition id="transition36" out="00:00:09.120">
      <property name="a_track">0</property>
      <property name="b_track">1</property>
      <property name="factory">loader</property>
      <property name="mlt_service">luma</property>
      <property name="alpha_over">1</property>
    </transition>
    <transition id="transition37" out="00:00:09.120">
      <property name="a_track">0</property>
      <property name="b_track">1</property>
      <property name="mlt_service">mix</property>
      <property name="start">-1</property>
      <property name="accepts_blanks">1</property>
    </transition>
  </tractor>
  <playlist id="playlist3">
    <property name="shotcut:video">1</property>
    <property name="shotcut:name">Video-Background Image/other video</property>
    <entry producer="producer54" in="00:00:00.000" out="00:00:19.960"/>
    <entry producer="producer55" in="00:02:07.240" out="00:04:47.280"/>
    <entry producer="tractor0" in="00:00:00.000" out="00:00:02.880"/>
    <entry producer="producer56" in="00:00:02.920" out="00:03:07.400"/>
    <entry producer="tractor1" in="00:00:00.000" out="00:00:05.520"/>
    <entry producer="producer57" in="00:00:05.560" out="00:03:11.560"/>
    <entry producer="tractor2" in="00:00:00.000" out="00:00:05.480"/>
    <entry producer="producer58" in="00:00:05.520" out="00:03:10.800"/>
    <entry producer="tractor3" in="00:00:00.000" out="00:00:04.760"/>
    <entry producer="producer59" in="00:00:04.800" out="00:03:09.960"/>
    <entry producer="tractor4" in="00:00:00.000" out="00:00:05.120"/>
    <entry producer="producer60" in="00:00:05.160" out="00:03:10.200"/>
    <entry producer="tractor5" in="00:00:00.000" out="00:00:05.280"/>
    <entry producer="producer61" in="00:00:05.320" out="00:03:10.120"/>
    <entry producer="tractor6" in="00:00:00.000" out="00:00:05.320"/>
    <entry producer="producer62" in="00:00:05.360" out="00:03:09.520"/>
    <entry producer="tractor7" in="00:00:00.000" out="00:00:06.320"/>
    <entry producer="producer63" in="00:00:06.360" out="00:03:10.560"/>
    <entry producer="tractor8" in="00:00:00.000" out="00:00:06.280"/>
    <entry producer="producer64" in="00:00:06.320" out="00:03:08.720"/>
    <entry producer="tractor9" in="00:00:00.000" out="00:00:08.600"/>
    <entry producer="producer65" in="00:00:08.640" out="00:03:09.200"/>
    <entry producer="tractor10" in="00:00:00.000" out="00:00:10.000"/>
    <entry producer="producer66" in="00:00:10.040" out="00:03:10.880"/>
    <entry producer="tractor11" in="00:00:00.000" out="00:00:09.280"/>
    <entry producer="producer67" in="00:00:09.320" out="00:03:11.960"/>
    <entry producer="tractor12" in="00:00:00.000" out="00:00:07.280"/>
    <entry producer="producer68" in="00:00:07.320" out="00:04:13.800"/>
    <blank length="00:00:36.040"/>
    <entry producer="producer69" in="00:00:00.000" out="00:03:03.680"/>
    <entry producer="tractor13" in="00:00:00.000" out="00:00:06.400"/>
    <entry producer="producer70" in="00:00:06.440" out="00:03:07.080"/>
    <entry producer="tractor14" in="00:00:00.000" out="00:00:08.040"/>
    <entry producer="producer71" in="00:00:08.080" out="00:03:10.680"/>
    <entry producer="tractor15" in="00:00:00.000" out="00:00:07.480"/>
    <entry producer="producer72" in="00:00:07.520" out="00:03:10.720"/>
    <entry producer="tractor16" in="00:00:00.000" out="00:00:07.640"/>
    <entry producer="producer73" in="00:00:07.680" out="00:03:10.320"/>
    <entry producer="tractor17" in="00:00:00.000" out="00:00:07.560"/>
    <entry producer="producer74" in="00:00:07.600" out="00:03:09.000"/>
    <entry producer="tractor18" in="00:00:00.000" out="00:00:09.120"/>
    <entry producer="producer75" in="00:00:09.160" out="00:06:51.800"/>
  </playlist>
  <chain id="chain14" out="00:00:04.200">
    <property name="length">00:00:04.240</property>
    <property name="eof">pause</property>
    <property name="resource">/home/dimitry/fetareport/archive/advertisments/tv static-4NsqFlZhlSo.mp4</property>
    <property name="mlt_service">avformat-novalidate</property>
    <property name="seekable">1</property>
    <property name="audio_index">1</property>
    <property name="video_index">0</property>
    <property name="mute_on_pause">0</property>
    <property name="xml">was here</property>
    <property name="shotcut:hash">6f6590b0b2fa2639b5ed8aec97ee3a9b</property>
    <property name="shotcut:caption">tv static-4NsqFlZhlSo.mp4</property>
    <filter id="filter8" out="00:00:01.800">
      <property name="window">75</property>
      <property name="max_gain">20dB</property>
      <property name="level">-26</property>
      <property name="mlt_service">volume</property>
    </filter>
  </chain>
  <chain id="chain15" out="00:00:34.160">
    <property name="length">00:00:34.200</property>
    <property name="eof">pause</property>
    <property name="resource">/home/dimitry/fetareport/archive/advertisments/byz-tales-large_set.mp4</property>
    <property name="mlt_service">avformat-novalidate</property>
    <property name="seekable">1</property>
    <property name="audio_index">1</property>
    <property name="video_index">0</property>
    <property name="mute_on_pause">0</property>
    <property name="xml">was here</property>
    <property name="shotcut:hash">73be697f2dd2a7145034d99e98e33a33</property>
    <property name="shotcut:caption">byz-tales-large_set.mp4</property>
  </chain>
  <playlist id="playlist4">
    <property name="shotcut:video">1</property>
    <property name="shotcut:name">Video-Host's Frame</property>
    <blank length="00:45:15.280"/>
    <entry producer="chain14" in="00:00:00.000" out="00:00:01.800"/>
    <entry producer="chain15" in="00:00:00.000" out="00:00:34.160"/>
  </playlist>
  <playlist id="playlist5">
    <property name="shotcut:video">1</property>
    <property name="shotcut:name">Video Guest's Frame</property>
    <blank length="00:00:00.040"/>
  </playlist>
  <chain id="chain16" out="01:15:20.520">
    <property name="length">01:15:20.560</property>
    <property name="eof">pause</property>
    <property name="resource">recording/video1004719839.mp4</property>
    <property name="mlt_service">avformat-novalidate</property>
    <property name="seekable">1</property>
    <property name="audio_index">0</property>
    <property name="video_index">1</property>
    <property name="mute_on_pause">0</property>
    <property name="xml">was here</property>
    <property name="shotcut:hash">937a56c6e2778bd9e525d67b05d2b5e6</property>
    <property name="shotcut:caption">video1004719839.mp4</property>
    <filter id="filter9" in="00:01:47.240" out="00:46:42.480">
      <property name="rect">84 275 720 534 1</property>
      <property name="circle">0</property>
      <property name="color">#00000000</property>
      <property name="radius">0</property>
      <property name="mlt_service">qtcrop</property>
      <property name="shotcut:filter">cropRectangle</property>
      <property name="disable">0</property>
    </filter>
    <filter id="filter10" in="00:01:47.240" out="00:46:42.480">
      <property name="background">color:#00000000</property>
      <property name="mlt_service">affine</property>
      <property name="shotcut:filter">affineSizePosition</property>
      <property name="transition.fill">1</property>
      <property name="transition.distort">0</property>
      <property name="transition.rect">13.5829 177 2016 1134 1</property>
      <property name="transition.valign">middle</property>
      <property name="transition.halign">center</property>
      <property name="shotcut:animIn">00:00:00.000</property>
      <property name="shotcut:animOut">00:00:00.000</property>
      <property name="transition.threads">0</property>
    </filter>
  </chain>
  <chain id="chain17" out="01:15:20.520">
    <property name="length">01:15:20.560</property>
    <property name="eof">pause</property>
    <property name="resource">recording/video1004719839.mp4</property>
    <property name="mlt_service">avformat-novalidate</property>
    <property name="seekable">1</property>
    <property name="audio_index">0</property>
    <property name="video_index">1</property>
    <property name="mute_on_pause">0</property>
    <property name="xml">was here</property>
    <property name="shotcut:hash">937a56c6e2778bd9e525d67b05d2b5e6</property>
    <property name="shotcut:caption">video1004719839.mp4</property>
    <filter id="filter11" in="00:47:46.520" out="01:15:15.800">
      <property name="rect">84 275 720 534 1</property>
      <property name="circle">0</property>
      <property name="color">#00000000</property>
      <property name="radius">0</property>
      <property name="mlt_service">qtcrop</property>
      <property name="shotcut:filter">cropRectangle</property>
      <property name="disable">0</property>
    </filter>
    <filter id="filter12" in="00:47:46.520" out="01:15:15.800">
      <property name="background">color:#00000000</property>
      <property name="mlt_service">affine</property>
      <property name="shotcut:filter">affineSizePosition</property>
      <property name="transition.fill">1</property>
      <property name="transition.distort">0</property>
      <property name="transition.rect">13.5829 177 2016 1134 1</property>
      <property name="transition.valign">middle</property>
      <property name="transition.halign">center</property>
      <property name="shotcut:animIn">00:00:00.000</property>
      <property name="shotcut:animOut">00:00:00.000</property>
      <property name="transition.threads">0</property>
    </filter>
  </chain>
  <playlist id="playlist6">
    <property name="shotcut:video">1</property>
    <property name="shotcut:name">Video - Host</property>
    <blank length="00:00:20.000"/>
    <entry producer="chain16" in="00:01:47.240" out="00:46:42.480"/>
    <blank length="00:00:36.040"/>
    <entry producer="chain17" in="00:47:46.520" out="01:15:15.800"/>
  </playlist>
  <chain id="chain18" out="01:15:20.520">
    <property name="length">01:15:20.560</property>
    <property name="eof">pause</property>
    <property name="resource">recording/video1004719839.mp4</property>
    <property name="mlt_service">avformat-novalidate</property>
    <property name="seekable">1</property>
    <property name="audio_index">0</property>
    <property name="video_index">1</property>
    <property name="mute_on_pause">0</property>
    <property name="xml">was here</property>
    <property name="shotcut:hash">937a56c6e2778bd9e525d67b05d2b5e6</property>
    <property name="shotcut:caption">video1004719839.mp4</property>
    <filter id="filter13" in="00:01:47.240" out="00:46:42.480">
      <property name="rect">1082 275 720 534 1</property>
      <property name="circle">0</property>
      <property name="color">#00000000</property>
      <property name="radius">0</property>
      <property name="mlt_service">qtcrop</property>
      <property name="shotcut:filter">cropRectangle</property>
      <property name="disable">0</property>
    </filter>
    <filter id="filter14" in="00:01:47.240" out="00:46:42.480">
      <property name="background">color:#00000000</property>
      <property name="mlt_service">affine</property>
      <property name="shotcut:filter">affineSizePosition</property>
      <property name="transition.fill">1</property>
      <property name="transition.distort">0</property>
      <property name="transition.rect">-160 -243 2112 1188 1</property>
      <property name="transition.valign">middle</property>
      <property name="transition.halign">center</property>
      <property name="shotcut:animIn">00:00:00.000</property>
      <property name="shotcut:animOut">00:00:00.000</property>
      <property name="transition.threads">0</property>
    </filter>
  </chain>
  <chain id="chain19" out="01:15:20.520">
    <property name="length">01:15:20.560</property>
    <property name="eof">pause</property>
    <property name="resource">recording/video1004719839.mp4</property>
    <property name="mlt_service">avformat-novalidate</property>
    <property name="seekable">1</property>
    <property name="audio_index">0</property>
    <property name="video_index">1</property>
    <property name="mute_on_pause">0</property>
    <property name="xml">was here</property>
    <property name="shotcut:hash">937a56c6e2778bd9e525d67b05d2b5e6</property>
    <property name="shotcut:caption">video1004719839.mp4</property>
    <filter id="filter15" in="00:47:46.520" out="01:15:15.800">
      <property name="rect">1082 275 720 534 1</property>
      <property name="circle">0</property>
      <property name="color">#00000000</property>
      <property name="radius">0</property>
      <property name="mlt_service">qtcrop</property>
      <property name="shotcut:filter">cropRectangle</property>
      <property name="disable">0</property>
    </filter>
    <filter id="filter16" in="00:47:46.520" out="01:15:15.800">
      <property name="background">color:#00000000</property>
      <property name="mlt_service">affine</property>
      <property name="shotcut:filter">affineSizePosition</property>
      <property name="transition.fill">1</property>
      <property name="transition.distort">0</property>
      <property name="transition.rect">-160 -243 2112 1188 1</property>
      <property name="transition.valign">middle</property>
      <property name="transition.halign">center</property>
      <property name="shotcut:animIn">00:00:00.000</property>
      <property name="shotcut:animOut">00:00:00.000</property>
      <property name="transition.threads">0</property>
    </filter>
  </chain>
  <playlist id="playlist7">
    <property name="shotcut:video">1</property>
    <property name="shotcut:name">Video - Guest</property>
    <blank length="00:00:20.000"/>
    <entry producer="chain18" in="00:01:47.240" out="00:46:42.480"/>
    <blank length="00:00:36.040"/>
    <entry producer="chain19" in="00:47:46.520" out="01:15:15.800"/>
  </playlist>
  <chain id="chain20" out="00:00:07.800">
    <property name="length">00:00:07.840</property>
    <property name="eof">pause</property>
    <property name="resource">/home/dimitry/fetareport/archive/other_material/subscribe_prompt_isnogood.mp4</property>
    <property name="mlt_service">avformat-novalidate</property>
    <property name="seekable">1</property>
    <property name="audio_index">1</property>
    <property name="video_index">0</property>
    <property name="mute_on_pause">0</property>
    <property name="xml">was here</property>
    <property name="shotcut:hash">a5f47990b817edeabcf82f263bf1750e</property>
    <property name="shotcut:caption">subscribe_prompt_isnogood.mp4</property>
    <filter id="filter17" out="00:00:07.800">
      <property name="rect">437 54 1050 1020 1</property>
      <property name="circle">0</property>
      <property name="color">#00000000</property>
      <property name="radius">0</property>
      <property name="mlt_service">qtcrop</property>
      <property name="shotcut:filter">cropRectangle</property>
      <property name="disable">0</property>
    </filter>
    <filter id="filter18" out="00:00:07.800">
      <property name="background">color:#00000000</property>
      <property name="mlt_service">affine</property>
      <property name="shotcut:filter">affineSizePosition</property>
      <property name="transition.fill">1</property>
      <property name="transition.distort">1</property>
      <property name="transition.rect">933.166 561.709 1020.6 493.869 1</property>
      <property name="transition.valign">middle</property>
      <property name="transition.halign">center</property>
      <property name="shotcut:animIn">00:00:00.000</property>
      <property name="shotcut:animOut">00:00:00.000</property>
      <property name="transition.threads">0</property>
    </filter>
  </chain>
  <producer id="producer76" in="00:00:00.000" out="03:59:59.960">
    <property name="length">04:00:00.000</property>
    <property name="eof">pause</property>
    <property name="resource">images/02-Agori1-shadow.png</property>
    <property name="ttl">1</property>
    <property name="aspect_ratio">1</property>
    <property name="progressive">1</property>
    <property name="seekable">1</property>
    <property name="mlt_service">qimage</property>
    <property name="creation_time">2022-05-18T11:19:07</property>
    <property name="xml">was here</property>
    <property name="shotcut:hash">8e4bbfae90c8f46fa5e712eb1fe931bf</property>
    <property name="shotcut:caption">02-Agori1-shadow.jpg</property>
    <filter id="filter19" out="00:00:12.920">
      <property name="background">color:#00000000</property>
      <property name="mlt_service">affine</property>
      <property name="shotcut:filter">affineSizePosition</property>
      <property name="transition.fill">1</property>
      <property name="transition.distort">0</property>
      <property name="transition.rect">1306.72 681.106 243.797 352.764 1</property>
      <property name="transition.valign">middle</property>
      <property name="transition.halign">center</property>
      <property name="shotcut:animIn">00:00:00.000</property>
      <property name="shotcut:animOut">00:00:00.000</property>
      <property name="transition.threads">0</property>
      <property name="transition.fix_rotate_x">0</property>
    </filter>
    <filter id="filter20" out="00:00:12.920">
      <property name="start">1</property>
      <property name="level">1</property>
      <property name="mlt_service">brightness</property>
      <property name="shotcut:filter">fadeInBrightness</property>
      <property name="alpha">00:00:00.000=0;00:00:01.960=1</property>
      <property name="shotcut:animIn">00:00:02.000</property>
    </filter>
    <filter id="filter21" out="00:00:12.920">
      <property name="start">1</property>
      <property name="level">1</property>
      <property name="mlt_service">brightness</property>
      <property name="shotcut:filter">fadeOutBrightness</property>
      <property name="alpha">00:00:10.960=1;00:00:12.920=0</property>
      <property name="shotcut:animOut">00:00:02.000</property>
    </filter>
  </producer>
  <producer id="producer77" in="00:00:00.000" out="03:59:59.960">
    <property name="length">04:00:00.000</property>
    <property name="eof">pause</property>
    <property name="resource">images/03-mikros-iros_mplek022-shadow.png</property>
    <property name="ttl">1</property>
    <property name="aspect_ratio">1</property>
    <property name="progressive">1</property>
    <property name="seekable">1</property>
    <property name="mlt_service">qimage</property>
    <property name="creation_time">2022-05-18T12:21:27</property>
    <property name="xml">was here</property>
    <property name="shotcut:hash">91d05aa61020a7549fd6a376cc85f47f</property>
    <property name="shotcut:caption">03-mikros-iros_mplek022-shadow.png</property>
    <filter id="filter22" out="00:00:11.760">
      <property name="background">color:#00000000</property>
      <property name="mlt_service">affine</property>
      <property name="shotcut:filter">affineSizePosition</property>
      <property name="transition.fill">1</property>
      <property name="transition.distort">0</property>
      <property name="transition.rect">1284.02 694.673 266.92 369.045 1</property>
      <property name="transition.valign">middle</property>
      <property name="transition.halign">center</property>
      <property name="shotcut:animIn">00:00:00.000</property>
      <property name="shotcut:animOut">00:00:00.000</property>
      <property name="transition.threads">0</property>
    </filter>
    <filter id="filter23" out="00:00:11.760">
      <property name="start">1</property>
      <property name="level">1</property>
      <property name="mlt_service">brightness</property>
      <property name="shotcut:filter">fadeInBrightness</property>
      <property name="alpha">00:00:00.000=0;00:00:01.960=1</property>
      <property name="shotcut:animIn">00:00:02.000</property>
    </filter>
  </producer>
  <producer id="producer78" in="00:00:00.000" out="03:59:59.960">
    <property name="length">04:00:00.000</property>
    <property name="eof">pause</property>
    <property name="resource">images/04-mythos-shadow.png</property>
    <property name="ttl">1</property>
    <property name="aspect_ratio">1</property>
    <property name="progressive">1</property>
    <property name="seekable">1</property>
    <property name="mlt_service">qimage</property>
    <property name="creation_time">2022-05-18T12:30:32</property>
    <property name="xml">was here</property>
    <property name="shotcut:hash">54a5d48a3848cca44c1feeabfb365eb5</property>
    <property name="shotcut:caption">04-mythos-shadow.png</property>
    <filter id="filter24" out="00:00:08.480">
      <property name="background">color:#00000000</property>
      <property name="mlt_service">affine</property>
      <property name="shotcut:filter">affineSizePosition</property>
      <property name="transition.fill">1</property>
      <property name="transition.distort">0</property>
      <property name="transition.rect">1284 695 265.872 374.472 1</property>
      <property name="transition.valign">middle</property>
      <property name="transition.halign">center</property>
      <property name="shotcut:animIn">00:00:00.000</property>
      <property name="shotcut:animOut">00:00:00.000</property>
      <property name="transition.threads">0</property>
      <property name="transition.fix_rotate_x">0</property>
    </filter>
    <filter id="filter25" out="00:00:08.480">
      <property name="start">1</property>
      <property name="level">1</property>
      <property name="mlt_service">brightness</property>
      <property name="shotcut:filter">fadeOutBrightness</property>
      <property name="alpha">00:00:06.520=1;00:00:08.480=0</property>
      <property name="shotcut:animOut">00:00:02.000</property>
    </filter>
  </producer>
  <tractor id="tractor19" in="00:00:00.000" out="00:00:01.600">
    <property name="shotcut:transition">lumaMix</property>
    <track producer="producer77" in="00:00:10.160" out="00:00:11.760"/>
    <track producer="producer78" in="00:00:00.000" out="00:00:01.600"/>
    <transition id="transition38" out="00:00:01.600">
      <property name="a_track">0</property>
      <property name="b_track">1</property>
      <property name="factory">loader</property>
      <property name="mlt_service">luma</property>
      <property name="alpha_over">1</property>
    </transition>
    <transition id="transition39" out="00:00:01.600">
      <property name="a_track">0</property>
      <property name="b_track">1</property>
      <property name="mlt_service">mix</property>
      <property name="start">-1</property>
      <property name="accepts_blanks">1</property>
    </transition>
  </tractor>
  <producer id="producer79" in="00:00:00.000" out="03:59:59.960">
    <property name="length">04:00:00.000</property>
    <property name="eof">pause</property>
    <property name="resource">images/05-clipart1831367.png</property>
    <property name="ttl">1</property>
    <property name="aspect_ratio">1</property>
    <property name="progressive">1</property>
    <property name="seekable">1</property>
    <property name="mlt_service">qimage</property>
    <property name="creation_time">2022-05-19T10:42:39</property>
    <property name="xml">was here</property>
    <property name="shotcut:hash">eea3b8072bcafaf1cb7506f2ceebb164</property>
    <property name="shotcut:caption">05-clipart1831367.png</property>
    <filter id="filter26" out="00:00:28.360">
      <property name="background">color:#00000000</property>
      <property name="mlt_service">affine</property>
      <property name="shotcut:filter">affineSizePosition</property>
      <property name="transition.fill">1</property>
      <property name="transition.distort">0</property>
      <property name="transition.rect">1110.22 672.965 651.873 379.899 1</property>
      <property name="transition.valign">middle</property>
      <property name="transition.halign">center</property>
      <property name="shotcut:animIn">00:00:00.000</property>
      <property name="shotcut:animOut">00:00:00.000</property>
      <property name="transition.threads">0</property>
    </filter>
    <filter id="filter27" out="00:00:28.360">
      <property name="start">1</property>
      <property name="level">1</property>
      <property name="mlt_service">brightness</property>
      <property name="shotcut:filter">fadeInBrightness</property>
      <property name="alpha">00:00:00.000=0;00:00:01.960=1</property>
      <property name="shotcut:animIn">00:00:02.000</property>
    </filter>
    <filter id="filter28" out="00:00:28.360">
      <property name="start">1</property>
      <property name="level">00:00:26.400=1;00:00:28.360=0</property>
      <property name="mlt_service">brightness</property>
      <property name="shotcut:filter">fadeOutBrightness</property>
      <property name="alpha">1</property>
      <property name="shotcut:animOut">00:00:02.000</property>
    </filter>
  </producer>
  <producer id="producer80" in="00:00:00.000" out="03:59:59.960">
    <property name="length">04:00:00.000</property>
    <property name="eof">pause</property>
    <property name="resource">images/06-kompra-press-conan-small-shadow.jpg</property>
    <property name="ttl">1</property>
    <property name="aspect_ratio">1</property>
    <property name="progressive">1</property>
    <property name="seekable">1</property>
    <property name="mlt_service">qimage</property>
    <property name="creation_time">2022-05-19T10:51:47</property>
    <property name="xml">was here</property>
    <property name="shotcut:hash">c3ddaa02bf6588f587c93da87462545e</property>
    <property name="shotcut:caption">06-kompra-press-conan-small-shadow.jpg</property>
    <filter id="filter29" out="00:00:10.480">
      <property name="start">1</property>
      <property name="level">1</property>
      <property name="mlt_service">brightness</property>
      <property name="shotcut:filter">fadeInBrightness</property>
      <property name="alpha">00:00:00.000=0;00:00:01.960=1</property>
      <property name="shotcut:animIn">00:00:02.000</property>
    </filter>
    <filter id="filter30" out="00:00:10.480">
      <property name="start">1</property>
      <property name="level">1</property>
      <property name="mlt_service">brightness</property>
      <property name="shotcut:filter">fadeOutBrightness</property>
      <property name="alpha">00:00:08.520=1;00:00:10.480=0</property>
      <property name="shotcut:animOut">00:00:02.000</property>
    </filter>
    <filter id="filter31" out="00:00:10.480">
      <property name="background">color:#00000000</property>
      <property name="mlt_service">affine</property>
      <property name="shotcut:filter">affineSizePosition</property>
      <property name="transition.fill">1</property>
      <property name="transition.distort">0</property>
      <property name="transition.rect">1165.38 672.965 511.928 407.035 1</property>
      <property name="transition.valign">middle</property>
      <property name="transition.halign">center</property>
      <property name="shotcut:animIn">00:00:00.000</property>
      <property name="shotcut:animOut">00:00:00.000</property>
      <property name="transition.threads">0</property>
      <property name="transition.fix_rotate_x">0</property>
    </filter>
  </producer>
  <producer id="producer81" in="00:00:00.000" out="03:59:59.960">
    <property name="length">04:00:00.000</property>
    <property name="eof">pause</property>
    <property name="resource">images/07-ennea-shadow.png</property>
    <property name="ttl">1</property>
    <property name="aspect_ratio">1</property>
    <property name="progressive">1</property>
    <property name="seekable">1</property>
    <property name="mlt_service">qimage</property>
    <property name="creation_time">2022-05-19T11:00:29</property>
    <property name="xml">was here</property>
    <property name="shotcut:hash">7414604ab1d8d1327ca573c4c67cc60f</property>
    <property name="shotcut:caption">07-ennea-shadow.png</property>
    <filter id="filter32" out="00:00:16.160">
      <property name="start">1</property>
      <property name="level">1</property>
      <property name="mlt_service">brightness</property>
      <property name="shotcut:filter">fadeInBrightness</property>
      <property name="alpha">00:00:00.000=0;00:00:01.960=1</property>
      <property name="shotcut:animIn">00:00:02.000</property>
    </filter>
    <filter id="filter33" out="00:00:16.160">
      <property name="start">1</property>
      <property name="level">1</property>
      <property name="mlt_service">brightness</property>
      <property name="shotcut:filter">fadeOutBrightness</property>
      <property name="alpha">00:00:14.200=1;00:00:16.160=0</property>
      <property name="shotcut:animOut">00:00:02.000</property>
    </filter>
    <filter id="filter34" out="00:00:16.160">
      <property name="background">color:#00000000</property>
      <property name="mlt_service">affine</property>
      <property name="shotcut:filter">affineSizePosition</property>
      <property name="transition.fill">1</property>
      <property name="transition.distort">0</property>
      <property name="transition.rect">1300.66 686.533 278.591 366.332 1</property>
      <property name="transition.valign">middle</property>
      <property name="transition.halign">center</property>
      <property name="shotcut:animIn">00:00:00.000</property>
      <property name="shotcut:animOut">00:00:00.000</property>
      <property name="transition.threads">0</property>
    </filter>
  </producer>
  <producer id="producer82" in="00:00:00.000" out="03:59:59.960">
    <property name="length">04:00:00.000</property>
    <property name="eof">pause</property>
    <property name="resource">images/08-festival_vavel-shadow.png</property>
    <property name="ttl">1</property>
    <property name="aspect_ratio">1</property>
    <property name="progressive">1</property>
    <property name="seekable">1</property>
    <property name="mlt_service">qimage</property>
    <property name="creation_time">2022-05-19T11:09:51</property>
    <property name="xml">was here</property>
    <property name="shotcut:hash">59ed89969d72066361c98701dc6df2f4</property>
    <property name="shotcut:caption">08-festival_vavel-shadow.png</property>
    <filter id="filter35" out="00:00:10.720">
      <property name="start">1</property>
      <property name="level">1</property>
      <property name="mlt_service">brightness</property>
      <property name="shotcut:filter">fadeOutBrightness</property>
      <property name="alpha">00:00:08.760=1;00:00:10.720=0</property>
      <property name="shotcut:animOut">00:00:02.000</property>
    </filter>
    <filter id="filter36" out="00:00:10.720">
      <property name="start">1</property>
      <property name="level">1</property>
      <property name="mlt_service">brightness</property>
      <property name="shotcut:filter">fadeInBrightness</property>
      <property name="alpha">00:00:00.000=0;00:00:01.960=1</property>
      <property name="shotcut:animIn">00:00:02.000</property>
    </filter>
    <filter id="filter37" out="00:00:10.720">
      <property name="background">color:#00000000</property>
      <property name="mlt_service">affine</property>
      <property name="shotcut:filter">affineSizePosition</property>
      <property name="transition.fill">1</property>
      <property name="transition.distort">0</property>
      <property name="transition.rect">1351.96 683.819 200.334 385.327 1</property>
      <property name="transition.valign">middle</property>
      <property name="transition.halign">center</property>
      <property name="shotcut:animIn">00:00:00.000</property>
      <property name="shotcut:animOut">00:00:00.000</property>
      <property name="transition.threads">0</property>
      <property name="transition.fix_rotate_x">0</property>
    </filter>
  </producer>
  <producer id="producer83" in="00:00:00.000" out="03:59:59.960">
    <property name="length">04:00:00.000</property>
    <property name="eof">pause</property>
    <property name="resource">#00000000</property>
    <property name="aspect_ratio">1</property>
    <property name="mlt_service">color</property>
    <property name="mlt_image_format">rgba</property>
    <property name="shotcut:caption">transparent</property>
    <property name="shotcut:detail">transparent</property>
    <property name="ignore_points">0</property>
    <property name="xml">was here</property>
    <property name="seekable">1</property>
    <filter id="filter38" out="00:00:28.680">
      <property name="argument">Αυτό που οι  Αγγλοσάξωνές
ονομάζουνε &quot;blessed&quot;.</property>
      <property name="geometry">899 780 1002 313 1</property>
      <property name="family">Sans</property>
      <property name="size">80</property>
      <property name="weight">750</property>
      <property name="style">normal</property>
      <property name="fgcolour">#ffffffff</property>
      <property name="bgcolour">#c9c9c9</property>
      <property name="olcolour">#aa000000</property>
      <property name="pad">0</property>
      <property name="halign">center</property>
      <property name="valign">top</property>
      <property name="outline">5</property>
      <property name="mlt_service">dynamictext</property>
      <property name="shotcut:filter">dynamicText</property>
      <property name="shotcut:usePointSize">1</property>
      <property name="shotcut:pointSize">60</property>
    </filter>
  </producer>
  <producer id="producer84" in="00:00:00.000" out="03:59:59.960">
    <property name="length">04:00:00.000</property>
    <property name="eof">pause</property>
    <property name="resource">images/09-957988_025647_updates.webp</property>
    <property name="ttl">1</property>
    <property name="aspect_ratio">1</property>
    <property name="progressive">1</property>
    <property name="seekable">1</property>
    <property name="mlt_service">qimage</property>
    <property name="creation_time">2022-05-19T11:26:44</property>
    <property name="xml">was here</property>
    <property name="shotcut:hash">78dc0d2b98d89d2faca41fb67dc1307c</property>
    <property name="shotcut:caption">09-957988_025647_updates.webp</property>
    <filter id="filter39" out="00:00:08.680">
      <property name="start">1</property>
      <property name="level">1</property>
      <property name="mlt_service">brightness</property>
      <property name="shotcut:filter">fadeInBrightness</property>
      <property name="alpha">00:00:00.000=0;00:00:01.960=1</property>
      <property name="shotcut:animIn">00:00:02.000</property>
    </filter>
    <filter id="filter40" out="00:00:08.680">
      <property name="start">1</property>
      <property name="level">1</property>
      <property name="mlt_service">brightness</property>
      <property name="shotcut:filter">fadeOutBrightness</property>
      <property name="alpha">00:00:06.720=1;00:00:08.680=0</property>
      <property name="shotcut:animOut">00:00:02.000</property>
    </filter>
    <filter id="filter41" out="00:00:08.680">
      <property name="background">color:#00000000</property>
      <property name="mlt_service">affine</property>
      <property name="shotcut:filter">affineSizePosition</property>
      <property name="transition.fill">1</property>
      <property name="transition.distort">0</property>
      <property name="transition.rect">1127.56 708.241 617.337 352.764 1</property>
      <property name="transition.valign">middle</property>
      <property name="transition.halign">center</property>
      <property name="shotcut:animIn">00:00:00.000</property>
      <property name="shotcut:animOut">00:00:00.000</property>
      <property name="transition.threads">0</property>
      <property name="transition.fix_rotate_x">0</property>
    </filter>
  </producer>
  <producer id="producer85" in="00:00:00.000" out="03:59:59.960">
    <property name="length">04:00:00.000</property>
    <property name="eof">pause</property>
    <property name="resource">#00000000</property>
    <property name="aspect_ratio">1</property>
    <property name="mlt_service">color</property>
    <property name="mlt_image_format">rgba</property>
    <property name="shotcut:caption">transparent</property>
    <property name="shotcut:detail">transparent</property>
    <property name="ignore_points">0</property>
    <property name="xml">was here</property>
    <property name="seekable">1</property>
    <filter id="filter42" out="00:00:12.320">
      <property name="argument">Υπάρχει παντόφλα,
 αλλά έχω και κάποια... 
&quot;προνόμια&quot;</property>
      <property name="geometry">923 761 992 227 1</property>
      <property name="family">Sans</property>
      <property name="size">80</property>
      <property name="weight">750</property>
      <property name="style">normal</property>
      <property name="fgcolour">#ffffffff</property>
      <property name="bgcolour">#c9c9c9</property>
      <property name="olcolour">#aa000000</property>
      <property name="pad">0</property>
      <property name="halign">center</property>
      <property name="valign">top</property>
      <property name="outline">5</property>
      <property name="mlt_service">dynamictext</property>
      <property name="shotcut:filter">dynamicText</property>
      <property name="shotcut:usePointSize">1</property>
      <property name="shotcut:pointSize">60</property>
    </filter>
  </producer>
  <producer id="producer86" in="00:00:00.000" out="03:59:59.960">
    <property name="length">04:00:00.000</property>
    <property name="eof">pause</property>
    <property name="resource">images/10-Mythos-The_Labyrinth-shadow.png</property>
    <property name="ttl">1</property>
    <property name="aspect_ratio">1</property>
    <property name="progressive">1</property>
    <property name="seekable">1</property>
    <property name="mlt_service">qimage</property>
    <property name="creation_time">2022-05-19T12:30:27</property>
    <property name="xml">was here</property>
    <property name="shotcut:hash">84f6b45fa4ba0c3a63a5e14f3d80679a</property>
    <property name="shotcut:caption">10-Mythos-The_Labyrinth-shadow.png</property>
    <filter id="filter43" out="00:06:06.960">
      <property name="start">1</property>
      <property name="level">1</property>
      <property name="mlt_service">brightness</property>
      <property name="shotcut:filter">fadeInBrightness</property>
      <property name="alpha">00:00:00.000=0;00:00:01.960=1</property>
      <property name="shotcut:animIn">00:00:02.000</property>
    </filter>
    <filter id="filter44" out="00:06:06.960">
      <property name="start">1</property>
      <property name="level">1</property>
      <property name="mlt_service">brightness</property>
      <property name="shotcut:filter">fadeOutBrightness</property>
      <property name="alpha">00:06:05.000=1;00:06:06.960=0</property>
      <property name="shotcut:animOut">00:00:02.000</property>
      <property name="disable">1</property>
    </filter>
    <filter id="filter45" out="00:06:06.960">
      <property name="background">color:#00000000</property>
      <property name="mlt_service">affine</property>
      <property name="shotcut:filter">affineSizePosition</property>
      <property name="transition.fill">1</property>
      <property name="transition.distort">0</property>
      <property name="transition.rect">1288.34 691.96 301.749 377.186 1</property>
      <property name="transition.valign">middle</property>
      <property name="transition.halign">center</property>
      <property name="shotcut:animIn">00:00:00.000</property>
      <property name="shotcut:animOut">00:00:00.000</property>
      <property name="transition.threads">0</property>
      <property name="transition.fix_rotate_x">0</property>
    </filter>
  </producer>
  <producer id="producer87" in="00:00:00.000" out="03:59:59.960">
    <property name="length">04:00:00.000</property>
    <property name="eof">pause</property>
    <property name="resource">images/11-tis_psixis-removebg.png</property>
    <property name="ttl">1</property>
    <property name="aspect_ratio">1</property>
    <property name="progressive">1</property>
    <property name="seekable">1</property>
    <property name="mlt_service">qimage</property>
    <property name="creation_time">2022-05-19T12:27:59</property>
    <property name="xml">was here</property>
    <property name="shotcut:hash">ede041ede411e0c025e7f1ba3219ca4e</property>
    <property name="shotcut:caption">11-tis_psixis-removebg.png</property>
    <filter id="filter46" out="00:00:35.800">
      <property name="background">color:#00000000</property>
      <property name="mlt_service">affine</property>
      <property name="shotcut:filter">affineSizePosition</property>
      <property name="transition.fill">1</property>
      <property name="transition.distort">0</property>
      <property name="transition.rect">1290.8 681.106 288.555 409.749 1</property>
      <property name="transition.valign">middle</property>
      <property name="transition.halign">center</property>
      <property name="shotcut:animIn">00:00:00.000</property>
      <property name="shotcut:animOut">00:00:00.000</property>
      <property name="transition.threads">0</property>
      <property name="transition.fix_rotate_x">0</property>
    </filter>
  </producer>
  <tractor id="tractor20" in="00:00:00.000" out="00:00:02.320">
    <property name="shotcut:transition">lumaMix</property>
    <track producer="producer86" in="00:06:04.640" out="00:06:06.960"/>
    <track producer="producer87" in="00:00:00.000" out="00:00:02.320"/>
    <transition id="transition40" out="00:00:02.320">
      <property name="a_track">0</property>
      <property name="b_track">1</property>
      <property name="factory">loader</property>
      <property name="resource">%luma01.pgm</property>
      <property name="mlt_service">luma</property>
      <property name="alpha_over">1</property>
      <property name="progressive">1</property>
      <property name="invert">0</property>
      <property name="softness">0.2</property>
    </transition>
    <transition id="transition41" out="00:00:02.320">
      <property name="a_track">0</property>
      <property name="b_track">1</property>
      <property name="mlt_service">mix</property>
      <property name="start">-1</property>
      <property name="accepts_blanks">1</property>
    </transition>
  </tractor>
  <producer id="producer88" in="00:00:00.000" out="03:59:59.960">
    <property name="length">04:00:00.000</property>
    <property name="eof">pause</property>
    <property name="resource">images/10-Mythos-The_Labyrinth-shadow.png</property>
    <property name="ttl">1</property>
    <property name="aspect_ratio">1</property>
    <property name="progressive">1</property>
    <property name="seekable">1</property>
    <property name="mlt_service">qimage</property>
    <property name="creation_time">2022-05-19T12:30:27</property>
    <property name="xml">was here</property>
    <property name="shotcut:hash">84f6b45fa4ba0c3a63a5e14f3d80679a</property>
    <property name="shotcut:caption">10-Mythos-The_Labyrinth-shadow.png</property>
    <filter id="filter47" out="00:02:08.240">
      <property name="start">1</property>
      <property name="level">1</property>
      <property name="mlt_service">brightness</property>
      <property name="shotcut:filter">fadeInBrightness</property>
      <property name="alpha">00:00:00.000=0;00:00:01.960=1</property>
      <property name="shotcut:animIn">00:00:02.000</property>
      <property name="disable">1</property>
    </filter>
    <filter id="filter48" out="00:02:08.240">
      <property name="start">1</property>
      <property name="level">1</property>
      <property name="mlt_service">brightness</property>
      <property name="shotcut:filter">fadeOutBrightness</property>
      <property name="alpha">00:02:06.280=1;00:02:08.240=0</property>
      <property name="shotcut:animOut">00:00:02.000</property>
      <property name="disable">0</property>
    </filter>
    <filter id="filter49" out="00:02:08.240">
      <property name="background">color:#00000000</property>
      <property name="mlt_service">affine</property>
      <property name="shotcut:filter">affineSizePosition</property>
      <property name="transition.fill">1</property>
      <property name="transition.distort">0</property>
      <property name="transition.rect">1288.34 691.96 301.749 377.186 1</property>
      <property name="transition.valign">middle</property>
      <property name="transition.halign">center</property>
      <property name="shotcut:animIn">00:00:00.000</property>
      <property name="shotcut:animOut">00:00:00.000</property>
      <property name="transition.threads">0</property>
      <property name="transition.fix_rotate_x">0</property>
    </filter>
  </producer>
  <tractor id="tractor21" in="00:00:00.000" out="00:00:01.560">
    <property name="shotcut:transition">lumaMix</property>
    <track producer="producer87" in="00:00:34.240" out="00:00:35.800"/>
    <track producer="producer88" in="00:00:00.000" out="00:00:01.560"/>
    <transition id="transition42" out="00:00:01.560">
      <property name="a_track">0</property>
      <property name="b_track">1</property>
      <property name="factory">loader</property>
      <property name="resource">%luma01.pgm</property>
      <property name="mlt_service">luma</property>
      <property name="alpha_over">1</property>
      <property name="progressive">1</property>
      <property name="invert">0</property>
      <property name="softness">0.2</property>
    </transition>
    <transition id="transition43" out="00:00:01.560">
      <property name="a_track">0</property>
      <property name="b_track">1</property>
      <property name="mlt_service">mix</property>
      <property name="start">-1</property>
      <property name="accepts_blanks">1</property>
    </transition>
  </tractor>
  <producer id="producer89" in="00:00:00.000" out="03:59:59.960">
    <property name="length">04:00:00.000</property>
    <property name="eof">pause</property>
    <property name="resource">images/13-epifany-cropped-shadow.png</property>
    <property name="ttl">1</property>
    <property name="aspect_ratio">1</property>
    <property name="progressive">1</property>
    <property name="seekable">1</property>
    <property name="mlt_service">qimage</property>
    <property name="creation_time">2022-05-19T13:56:47</property>
    <property name="xml">was here</property>
    <property name="shotcut:hash">c89cb8d331af3735b35849534985129f</property>
    <property name="shotcut:caption">13-epifany-cropped-shadow.png</property>
    <filter id="filter50" out="00:00:05.760">
      <property name="start">1</property>
      <property name="level">1</property>
      <property name="mlt_service">brightness</property>
      <property name="shotcut:filter">fadeInBrightness</property>
      <property name="alpha">00:00:00.000=0;00:00:01.960=1</property>
      <property name="shotcut:animIn">00:00:02.000</property>
    </filter>
    <filter id="filter51" out="00:00:05.760">
      <property name="start">1</property>
      <property name="level">00:00:03.800=1;00:00:05.760=0</property>
      <property name="mlt_service">brightness</property>
      <property name="shotcut:filter">fadeOutBrightness</property>
      <property name="alpha">1</property>
      <property name="shotcut:animOut">00:00:02.000</property>
    </filter>
    <filter id="filter52" out="00:00:05.760">
      <property name="background">color:#00000000</property>
      <property name="mlt_service">affine</property>
      <property name="shotcut:filter">affineSizePosition</property>
      <property name="transition.fill">1</property>
      <property name="transition.distort">0</property>
      <property name="transition.rect">1157.56 721.809 539.788 312.06 1</property>
      <property name="transition.valign">middle</property>
      <property name="transition.halign">center</property>
      <property name="shotcut:animIn">00:00:00.000</property>
      <property name="shotcut:animOut">00:00:00.000</property>
      <property name="transition.threads">0</property>
      <property name="transition.fix_rotate_x">0</property>
    </filter>
  </producer>
  <producer id="producer90" in="00:00:00.000" out="03:59:59.960">
    <property name="length">04:00:00.000</property>
    <property name="eof">pause</property>
    <property name="resource">images/14-console_hunter-removebg.png</property>
    <property name="ttl">1</property>
    <property name="aspect_ratio">1</property>
    <property name="progressive">1</property>
    <property name="seekable">1</property>
    <property name="mlt_service">qimage</property>
    <property name="creation_time">2022-05-19T14:21:34</property>
    <property name="xml">was here</property>
    <property name="shotcut:hash">ed0a98828635d5e51158535bc2658dba</property>
    <property name="shotcut:caption">14-console_hunter-removebg.png</property>
    <filter id="filter53" out="00:00:08.240">
      <property name="start">1</property>
      <property name="level">1</property>
      <property name="mlt_service">brightness</property>
      <property name="shotcut:filter">fadeInBrightness</property>
      <property name="alpha">00:00:00.000=0;00:00:01.960=1</property>
      <property name="shotcut:animIn">00:00:02.000</property>
    </filter>
    <filter id="filter54" out="00:00:08.240">
      <property name="start">1</property>
      <property name="level">1</property>
      <property name="mlt_service">brightness</property>
      <property name="shotcut:filter">fadeOutBrightness</property>
      <property name="alpha">00:00:06.280=1;00:00:08.240=0</property>
      <property name="shotcut:animOut">00:00:02.000</property>
    </filter>
    <filter id="filter55" out="00:00:08.240">
      <property name="background">color:#00000000</property>
      <property name="mlt_service">affine</property>
      <property name="shotcut:filter">affineSizePosition</property>
      <property name="transition.fill">1</property>
      <property name="transition.distort">0</property>
      <property name="transition.rect">1318.19 754.372 249.648 249.648 1</property>
      <property name="transition.valign">middle</property>
      <property name="transition.halign">center</property>
      <property name="shotcut:animIn">00:00:00.000</property>
      <property name="shotcut:animOut">00:00:00.000</property>
      <property name="transition.threads">0</property>
      <property name="transition.fix_rotate_x">0</property>
    </filter>
  </producer>
  <producer id="producer91" in="00:00:00.000" out="03:59:59.960">
    <property name="length">04:00:00.000</property>
    <property name="eof">pause</property>
    <property name="resource">images/15-logicomix-shadow.png</property>
    <property name="ttl">1</property>
    <property name="aspect_ratio">1</property>
    <property name="progressive">1</property>
    <property name="seekable">1</property>
    <property name="mlt_service">qimage</property>
    <property name="creation_time">2022-05-19T14:47:10</property>
    <property name="xml">was here</property>
    <property name="shotcut:hash">9697e31afd297725be1e692e361bb649</property>
    <property name="shotcut:caption">15-logicomix-shadow.png</property>
    <filter id="filter56" out="00:00:04.400">
      <property name="start">1</property>
      <property name="level">1</property>
      <property name="mlt_service">brightness</property>
      <property name="shotcut:filter">fadeOutBrightness</property>
      <property name="alpha">00:00:02.440=1;00:00:04.400=0</property>
      <property name="shotcut:animOut">00:00:02.000</property>
    </filter>
    <filter id="filter57" out="00:00:04.400">
      <property name="start">1</property>
      <property name="level">1</property>
      <property name="mlt_service">brightness</property>
      <property name="shotcut:filter">fadeInBrightness</property>
      <property name="alpha">00:00:00.000=0;00:00:01.960=1</property>
      <property name="shotcut:animIn">00:00:02.000</property>
    </filter>
    <filter id="filter58" out="00:00:04.400">
      <property name="background">color:#00000000</property>
      <property name="mlt_service">affine</property>
      <property name="shotcut:filter">affineSizePosition</property>
      <property name="transition.fill">1</property>
      <property name="transition.distort">0</property>
      <property name="transition.rect">1298.58 694.673 269.516 374.472 1</property>
      <property name="transition.valign">middle</property>
      <property name="transition.halign">center</property>
      <property name="shotcut:animIn">00:00:00.000</property>
      <property name="shotcut:animOut">00:00:00.000</property>
      <property name="transition.threads">0</property>
      <property name="transition.fix_rotate_x">0</property>
    </filter>
  </producer>
  <producer id="producer92" in="00:00:00.000" out="03:59:59.960">
    <property name="length">04:00:00.000</property>
    <property name="eof">pause</property>
    <property name="resource">images/16-erotokritos1-dropshadow.png</property>
    <property name="ttl">1</property>
    <property name="aspect_ratio">1</property>
    <property name="progressive">1</property>
    <property name="seekable">1</property>
    <property name="mlt_service">qimage</property>
    <property name="creation_time">2022-05-19T14:50:21</property>
    <property name="xml">was here</property>
    <property name="shotcut:hash">7dd905a72858c4f27c951f676c342bed</property>
    <property name="shotcut:caption">16-erotokritos1-dropshadow.png</property>
    <filter id="filter59" out="00:00:06.400">
      <property name="start">1</property>
      <property name="level">1</property>
      <property name="mlt_service">brightness</property>
      <property name="shotcut:filter">fadeInBrightness</property>
      <property name="alpha">00:00:00.000=0;00:00:01.960=1</property>
      <property name="shotcut:animIn">00:00:02.000</property>
    </filter>
    <filter id="filter60" out="00:00:06.400">
      <property name="start">1</property>
      <property name="level">1</property>
      <property name="mlt_service">brightness</property>
      <property name="shotcut:filter">fadeOutBrightness</property>
      <property name="alpha">00:00:04.440=1;00:00:06.400=0</property>
      <property name="shotcut:animOut">00:00:02.000</property>
    </filter>
    <filter id="filter61" out="00:00:06.400">
      <property name="background">color:#00000000</property>
      <property name="mlt_service">affine</property>
      <property name="shotcut:filter">affineSizePosition</property>
      <property name="transition.fill">1</property>
      <property name="transition.distort">0</property>
      <property name="transition.rect">1221.58 724.523 436.036 303.92 1</property>
      <property name="transition.valign">middle</property>
      <property name="transition.halign">center</property>
      <property name="shotcut:animIn">00:00:00.000</property>
      <property name="shotcut:animOut">00:00:00.000</property>
      <property name="transition.threads">0</property>
      <property name="transition.fix_rotate_x">0</property>
    </filter>
  </producer>
  <producer id="producer93" in="00:00:00.000" out="03:59:59.960">
    <property name="length">04:00:00.000</property>
    <property name="eof">pause</property>
    <property name="resource">images/17-rubus_avatar-shadow.png</property>
    <property name="ttl">1</property>
    <property name="aspect_ratio">1</property>
    <property name="progressive">1</property>
    <property name="seekable">1</property>
    <property name="mlt_service">qimage</property>
    <property name="creation_time">2022-05-19T14:53:34</property>
    <property name="xml">was here</property>
    <property name="shotcut:hash">a7888bddc2dfbb2da4d9fd25f218d88e</property>
    <property name="shotcut:caption">17-rubus_avatar-shadow.png</property>
    <filter id="filter62" out="00:00:07.200">
      <property name="start">1</property>
      <property name="level">1</property>
      <property name="mlt_service">brightness</property>
      <property name="shotcut:filter">fadeInBrightness</property>
      <property name="alpha">00:00:00.000=0;00:00:01.960=1</property>
      <property name="shotcut:animIn">00:00:02.000</property>
    </filter>
    <filter id="filter63" out="00:00:07.200">
      <property name="start">1</property>
      <property name="level">1</property>
      <property name="mlt_service">brightness</property>
      <property name="shotcut:filter">fadeOutBrightness</property>
      <property name="alpha">00:00:05.240=1;00:00:07.200=0</property>
      <property name="shotcut:animOut">00:00:02.000</property>
    </filter>
    <filter id="filter64" out="00:00:07.200">
      <property name="background">color:#00000000</property>
      <property name="mlt_service">affine</property>
      <property name="shotcut:filter">affineSizePosition</property>
      <property name="transition.fill">1</property>
      <property name="transition.distort">0</property>
      <property name="transition.rect">1282.54 719.095 309.657 317.487 1</property>
      <property name="transition.valign">middle</property>
      <property name="transition.halign">center</property>
      <property name="shotcut:animIn">00:00:00.000</property>
      <property name="shotcut:animOut">00:00:00.000</property>
      <property name="transition.threads">0</property>
      <property name="transition.fix_rotate_x">0</property>
    </filter>
  </producer>
  <producer id="producer94" in="00:00:00.000" out="03:59:59.960">
    <property name="length">04:00:00.000</property>
    <property name="eof">pause</property>
    <property name="resource">images/18-dardana_small-shadow.png</property>
    <property name="ttl">1</property>
    <property name="aspect_ratio">1</property>
    <property name="progressive">1</property>
    <property name="seekable">1</property>
    <property name="mlt_service">qimage</property>
    <property name="creation_time">2022-05-19T14:59:19</property>
    <property name="xml">was here</property>
    <property name="shotcut:hash">9103cf09bfc57ad5e92bddeda50ab5cc</property>
    <property name="shotcut:caption">18-dardana_small-shadow.png</property>
    <filter id="filter65" out="00:00:07.920">
      <property name="start">1</property>
      <property name="level">1</property>
      <property name="mlt_service">brightness</property>
      <property name="shotcut:filter">fadeInBrightness</property>
      <property name="alpha">00:00:00.000=0;00:00:01.960=1</property>
      <property name="shotcut:animIn">00:00:02.000</property>
    </filter>
    <filter id="filter66" out="00:00:07.920">
      <property name="start">1</property>
      <property name="level">1</property>
      <property name="mlt_service">brightness</property>
      <property name="shotcut:filter">fadeOutBrightness</property>
      <property name="alpha">00:00:05.960=1;00:00:07.920=0</property>
      <property name="shotcut:animOut">00:00:02.000</property>
    </filter>
    <filter id="filter67" out="00:00:07.920">
      <property name="background">color:#00000000</property>
      <property name="mlt_service">affine</property>
      <property name="shotcut:filter">affineSizePosition</property>
      <property name="transition.fill">1</property>
      <property name="transition.distort">0</property>
      <property name="transition.rect">1078.78 715.839 727.252 327.598 1</property>
      <property name="transition.valign">middle</property>
      <property name="transition.halign">center</property>
      <property name="shotcut:animIn">00:00:00.000</property>
      <property name="shotcut:animOut">00:00:00.000</property>
      <property name="transition.threads">0</property>
      <property name="transition.fix_rotate_x">0</property>
    </filter>
  </producer>
  <producer id="producer95" in="00:00:00.000" out="03:59:59.960">
    <property name="length">04:00:00.000</property>
    <property name="eof">pause</property>
    <property name="resource">images/19-listarxoi-shadow.png</property>
    <property name="ttl">1</property>
    <property name="aspect_ratio">1</property>
    <property name="progressive">1</property>
    <property name="seekable">1</property>
    <property name="mlt_service">qimage</property>
    <property name="creation_time">2022-05-19T15:07:05</property>
    <property name="xml">was here</property>
    <property name="shotcut:hash">c45642b6070d79588ae012ecd8b8d3f0</property>
    <property name="shotcut:caption">19-listarxoi-shadow.png</property>
    <filter id="filter68" out="00:00:23.520">
      <property name="start">1</property>
      <property name="level">1</property>
      <property name="mlt_service">brightness</property>
      <property name="shotcut:filter">fadeInBrightness</property>
      <property name="alpha">00:00:00.000=0;00:00:01.960=1</property>
      <property name="shotcut:animIn">00:00:02.000</property>
    </filter>
    <filter id="filter69" out="00:00:23.520">
      <property name="start">1</property>
      <property name="level">1</property>
      <property name="mlt_service">brightness</property>
      <property name="shotcut:filter">fadeOutBrightness</property>
      <property name="alpha">00:00:21.560=1;00:00:23.520=0</property>
      <property name="shotcut:animOut">00:00:02.000</property>
    </filter>
    <filter id="filter70" out="00:00:23.520">
      <property name="background">color:#00000000</property>
      <property name="mlt_service">affine</property>
      <property name="shotcut:filter">affineSizePosition</property>
      <property name="transition.fill">1</property>
      <property name="transition.distort">0</property>
      <property name="transition.rect">1257.64 697.387 359.61 366.332 1</property>
      <property name="transition.valign">middle</property>
      <property name="transition.halign">center</property>
      <property name="shotcut:animIn">00:00:00.000</property>
      <property name="shotcut:animOut">00:00:00.000</property>
      <property name="transition.threads">0</property>
    </filter>
  </producer>
  <producer id="producer96" in="00:00:00.000" out="03:59:59.960">
    <property name="length">04:00:00.000</property>
    <property name="eof">pause</property>
    <property name="resource">images/20-o_tetrakosaris-shadow.png</property>
    <property name="ttl">1</property>
    <property name="aspect_ratio">1</property>
    <property name="progressive">1</property>
    <property name="seekable">1</property>
    <property name="mlt_service">qimage</property>
    <property name="creation_time">2022-05-20T13:14:36</property>
    <property name="xml">was here</property>
    <property name="shotcut:hash">2a85af8f70908d06d5899284bda4e9a8</property>
    <property name="shotcut:caption">20-o_tetrakosaris-shadow.png</property>
    <filter id="filter71" out="00:03:46.600">
      <property name="start">1</property>
      <property name="level">1</property>
      <property name="mlt_service">brightness</property>
      <property name="shotcut:filter">fadeInBrightness</property>
      <property name="alpha">00:00:00.000=0;00:00:01.960=1</property>
      <property name="shotcut:animIn">00:00:02.000</property>
    </filter>
    <filter id="filter72" out="00:03:46.600">
      <property name="background">color:#00000000</property>
      <property name="mlt_service">affine</property>
      <property name="shotcut:filter">affineSizePosition</property>
      <property name="transition.fill">1</property>
      <property name="transition.distort">0</property>
      <property name="transition.rect">1303.54 688.825 272.926 377.349 1</property>
      <property name="transition.valign">middle</property>
      <property name="transition.halign">center</property>
      <property name="shotcut:animIn">00:00:00.000</property>
      <property name="shotcut:animOut">00:00:00.000</property>
      <property name="transition.threads">0</property>
      <property name="transition.fix_rotate_x">0</property>
    </filter>
  </producer>
  <producer id="producer97" in="00:00:00.000" out="03:59:59.960">
    <property name="length">04:00:00.000</property>
    <property name="eof">pause</property>
    <property name="resource">images/21-leoktratis_anemodouras.png</property>
    <property name="ttl">1</property>
    <property name="aspect_ratio">1</property>
    <property name="progressive">1</property>
    <property name="seekable">1</property>
    <property name="mlt_service">qimage</property>
    <property name="creation_time">2022-05-20T13:22:01</property>
    <property name="xml">was here</property>
    <property name="shotcut:hash">a5f86b6db5f2312ffef8065d5b5f2668</property>
    <property name="shotcut:caption">21-leoktratis_anemodouras.png</property>
    <filter id="filter73" out="00:00:58.880">
      <property name="background">color:#00000000</property>
      <property name="mlt_service">affine</property>
      <property name="shotcut:filter">affineSizePosition</property>
      <property name="transition.fill">1</property>
      <property name="transition.distort">0</property>
      <property name="transition.rect">1282.08 691.428 315.849 372.145 1</property>
      <property name="transition.valign">middle</property>
      <property name="transition.halign">center</property>
      <property name="shotcut:animIn">00:00:00.000</property>
      <property name="shotcut:animOut">00:00:00.000</property>
      <property name="transition.threads">0</property>
    </filter>
  </producer>
  <tractor id="tractor22" in="00:00:00.000" out="00:00:02.760">
    <property name="shotcut:transition">lumaMix</property>
    <track producer="producer96" in="00:03:43.840" out="00:03:46.600"/>
    <track producer="producer97" in="00:00:00.000" out="00:00:02.760"/>
    <transition id="transition44" out="00:00:02.760">
      <property name="a_track">0</property>
      <property name="b_track">1</property>
      <property name="factory">loader</property>
      <property name="mlt_service">luma</property>
      <property name="alpha_over">1</property>
    </transition>
    <transition id="transition45" out="00:00:02.760">
      <property name="a_track">0</property>
      <property name="b_track">1</property>
      <property name="mlt_service">mix</property>
      <property name="start">-1</property>
      <property name="accepts_blanks">1</property>
    </transition>
  </tractor>
  <producer id="producer98" in="00:00:00.000" out="03:59:59.960">
    <property name="length">04:00:00.000</property>
    <property name="eof">pause</property>
    <property name="resource">images/20-o_tetrakosaris-shadow.png</property>
    <property name="ttl">1</property>
    <property name="aspect_ratio">1</property>
    <property name="progressive">1</property>
    <property name="seekable">1</property>
    <property name="mlt_service">qimage</property>
    <property name="creation_time">2022-05-20T13:14:36</property>
    <property name="xml">was here</property>
    <property name="shotcut:hash">2a85af8f70908d06d5899284bda4e9a8</property>
    <property name="shotcut:caption">20-o_tetrakosaris-shadow.png</property>
    <filter id="filter74" in="00:03:46.640" out="00:04:25.840">
      <property name="start">1</property>
      <property name="level">1</property>
      <property name="mlt_service">brightness</property>
      <property name="shotcut:filter">fadeOutBrightness</property>
      <property name="alpha">00:00:37.240=1;00:00:39.200=0</property>
      <property name="shotcut:animOut">00:00:02.000</property>
    </filter>
    <filter id="filter75" in="00:03:46.640" out="00:04:25.840">
      <property name="background">color:#00000000</property>
      <property name="mlt_service">affine</property>
      <property name="shotcut:filter">affineSizePosition</property>
      <property name="transition.fill">1</property>
      <property name="transition.distort">0</property>
      <property name="transition.rect">1303.54 688.825 272.926 377.349 1</property>
      <property name="transition.valign">middle</property>
      <property name="transition.halign">center</property>
      <property name="shotcut:animIn">00:00:00.000</property>
      <property name="shotcut:animOut">00:00:00.000</property>
      <property name="transition.threads">0</property>
      <property name="transition.fix_rotate_x">0</property>
    </filter>
  </producer>
  <tractor id="tractor23" in="00:00:00.000" out="00:00:02.120">
    <property name="shotcut:transition">lumaMix</property>
    <track producer="producer97" in="00:00:56.760" out="00:00:58.880"/>
    <track producer="producer98" in="00:03:46.640" out="00:03:48.760"/>
    <transition id="transition46" out="00:00:02.120">
      <property name="a_track">0</property>
      <property name="b_track">1</property>
      <property name="factory">loader</property>
      <property name="mlt_service">luma</property>
      <property name="alpha_over">1</property>
    </transition>
    <transition id="transition47" out="00:00:02.120">
      <property name="a_track">0</property>
      <property name="b_track">1</property>
      <property name="mlt_service">mix</property>
      <property name="start">-1</property>
      <property name="accepts_blanks">1</property>
    </transition>
  </tractor>
  <producer id="producer99" in="00:00:00.000" out="03:59:59.960">
    <property name="length">04:00:00.000</property>
    <property name="eof">pause</property>
    <property name="resource">images/22-mplek-shadow.png</property>
    <property name="ttl">1</property>
    <property name="aspect_ratio">1</property>
    <property name="progressive">1</property>
    <property name="seekable">1</property>
    <property name="mlt_service">qimage</property>
    <property name="creation_time">2022-05-20T13:29:00</property>
    <property name="xml">was here</property>
    <property name="shotcut:hash">fe0c847ec9dfb42b0f00230f31aed928</property>
    <property name="shotcut:caption">22-mplek-shadow.png</property>
    <filter id="filter76" out="00:01:39.440">
      <property name="start">1</property>
      <property name="level">1</property>
      <property name="mlt_service">brightness</property>
      <property name="shotcut:filter">fadeInBrightness</property>
      <property name="alpha">00:00:00.000=0;00:00:01.960=1</property>
      <property name="shotcut:animIn">00:00:02.000</property>
    </filter>
    <filter id="filter77" out="00:01:39.440">
      <property name="start">1</property>
      <property name="level">1</property>
      <property name="mlt_service">brightness</property>
      <property name="shotcut:filter">fadeOutBrightness</property>
      <property name="alpha">00:01:37.480=1;00:01:39.440=0</property>
      <property name="shotcut:animOut">00:00:02.000</property>
    </filter>
    <filter id="filter78" out="00:01:39.440">
      <property name="background">color:#00000000</property>
      <property name="mlt_service">affine</property>
      <property name="shotcut:filter">affineSizePosition</property>
      <property name="transition.fill">1</property>
      <property name="transition.distort">0</property>
      <property name="transition.rect">1270.46 708.75 339.073 337.5 1</property>
      <property name="transition.valign">middle</property>
      <property name="transition.halign">center</property>
      <property name="shotcut:animIn">00:00:00.000</property>
      <property name="shotcut:animOut">00:00:00.000</property>
      <property name="transition.threads">0</property>
      <property name="transition.fix_rotate_x">0</property>
    </filter>
  </producer>
  <producer id="producer100" in="00:00:00.000" out="03:59:59.960">
    <property name="length">04:00:00.000</property>
    <property name="eof">pause</property>
    <property name="resource">images/23-mikros_iroas-shadow.png</property>
    <property name="ttl">1</property>
    <property name="aspect_ratio">1</property>
    <property name="progressive">1</property>
    <property name="seekable">1</property>
    <property name="mlt_service">qimage</property>
    <property name="creation_time">2022-05-20T13:32:27</property>
    <property name="xml">was here</property>
    <property name="shotcut:hash">01d603671c4397e9256231ee1957c89e</property>
    <property name="shotcut:caption">23-mikros_iroas-shadow.png</property>
    <filter id="filter79" out="00:00:43.120">
      <property name="start">1</property>
      <property name="level">1</property>
      <property name="mlt_service">brightness</property>
      <property name="shotcut:filter">fadeInBrightness</property>
      <property name="alpha">00:00:00.000=0;00:00:01.960=1</property>
      <property name="shotcut:animIn">00:00:02.000</property>
    </filter>
    <filter id="filter80" out="00:00:43.120">
      <property name="start">1</property>
      <property name="level">1</property>
      <property name="mlt_service">brightness</property>
      <property name="shotcut:filter">fadeOutBrightness</property>
      <property name="alpha">00:00:41.160=1;00:00:43.120=0</property>
      <property name="shotcut:animOut">00:00:02.000</property>
    </filter>
    <filter id="filter81" out="00:00:43.120">
      <property name="background">color:#00000000</property>
      <property name="mlt_service">affine</property>
      <property name="shotcut:filter">affineSizePosition</property>
      <property name="transition.fill">1</property>
      <property name="transition.distort">0</property>
      <property name="transition.rect">1282.55 694.599 314.897 365.801 1</property>
      <property name="transition.valign">middle</property>
      <property name="transition.halign">center</property>
      <property name="shotcut:animIn">00:00:00.000</property>
      <property name="shotcut:animOut">00:00:00.000</property>
      <property name="transition.threads">0</property>
      <property name="transition.fix_rotate_x">0</property>
    </filter>
  </producer>
  <producer id="producer101" in="00:00:00.000" out="03:59:59.960">
    <property name="length">04:00:00.000</property>
    <property name="eof">pause</property>
    <property name="resource">images/24-mikros_cow_boy.png</property>
    <property name="ttl">1</property>
    <property name="aspect_ratio">1</property>
    <property name="progressive">1</property>
    <property name="seekable">1</property>
    <property name="mlt_service">qimage</property>
    <property name="creation_time">2022-05-20T13:35:14</property>
    <property name="xml">was here</property>
    <property name="shotcut:hash">c66b83269d41f5437757caf80f67fc68</property>
    <property name="shotcut:caption">24-mikros_cow_boy.png</property>
    <filter id="filter82" out="00:00:08.800">
      <property name="start">1</property>
      <property name="level">1</property>
      <property name="mlt_service">brightness</property>
      <property name="shotcut:filter">fadeInBrightness</property>
      <property name="alpha">00:00:00.000=0;00:00:01.960=1</property>
      <property name="shotcut:animIn">00:00:02.000</property>
    </filter>
    <filter id="filter83" out="00:00:08.800">
      <property name="start">1</property>
      <property name="level">1</property>
      <property name="mlt_service">brightness</property>
      <property name="shotcut:filter">fadeOutBrightness</property>
      <property name="alpha">00:00:06.840=1;00:00:08.800=0</property>
      <property name="shotcut:animOut">00:00:02.000</property>
    </filter>
    <filter id="filter84" out="00:00:08.800">
      <property name="background">color:#00000000</property>
      <property name="mlt_service">affine</property>
      <property name="shotcut:filter">affineSizePosition</property>
      <property name="transition.fill">1</property>
      <property name="transition.distort">0</property>
      <property name="transition.rect">1179.91 708.75 520.181 337.5 1</property>
      <property name="transition.valign">middle</property>
      <property name="transition.halign">center</property>
      <property name="shotcut:animIn">00:00:00.000</property>
      <property name="shotcut:animOut">00:00:00.000</property>
      <property name="transition.threads">0</property>
      <property name="transition.fix_rotate_x">0</property>
    </filter>
  </producer>
  <producer id="producer102" in="00:00:00.000" out="03:59:59.960">
    <property name="length">04:00:00.000</property>
    <property name="eof">pause</property>
    <property name="resource">images/25-mousika-kare-shadow.png</property>
    <property name="ttl">1</property>
    <property name="aspect_ratio">1</property>
    <property name="progressive">1</property>
    <property name="seekable">1</property>
    <property name="mlt_service">qimage</property>
    <property name="creation_time">2022-05-20T13:38:25</property>
    <property name="xml">was here</property>
    <property name="shotcut:hash">f420cf53cd31b6b3128785fd8735fd2e</property>
    <property name="shotcut:caption">25-mousika-kare-shadow.png</property>
    <filter id="filter85" out="00:00:12.840">
      <property name="start">1</property>
      <property name="level">1</property>
      <property name="mlt_service">brightness</property>
      <property name="shotcut:filter">fadeInBrightness</property>
      <property name="alpha">00:00:00.000=0;00:00:01.960=1</property>
      <property name="shotcut:animIn">00:00:02.000</property>
    </filter>
    <filter id="filter86" out="00:00:12.840">
      <property name="start">1</property>
      <property name="level">1</property>
      <property name="mlt_service">brightness</property>
      <property name="shotcut:filter">fadeOutBrightness</property>
      <property name="alpha">00:00:10.880=1;00:00:12.840=0</property>
      <property name="shotcut:animOut">00:00:02.000</property>
    </filter>
    <filter id="filter87" out="00:00:12.840">
      <property name="background">color:#00000000</property>
      <property name="mlt_service">affine</property>
      <property name="shotcut:filter">affineSizePosition</property>
      <property name="transition.fill">1</property>
      <property name="transition.distort">0</property>
      <property name="transition.rect">1281.24 708.75 317.53 337.5 1</property>
      <property name="transition.valign">middle</property>
      <property name="transition.halign">center</property>
      <property name="shotcut:animIn">00:00:00.000</property>
      <property name="shotcut:animOut">00:00:00.000</property>
      <property name="transition.threads">0</property>
      <property name="transition.fix_rotate_x">0</property>
    </filter>
  </producer>
  <producer id="producer103" in="00:00:00.000" out="03:59:59.960">
    <property name="length">04:00:00.000</property>
    <property name="eof">pause</property>
    <property name="resource">images/26-the_flash-shadow.png</property>
    <property name="ttl">1</property>
    <property name="aspect_ratio">1</property>
    <property name="progressive">1</property>
    <property name="seekable">1</property>
    <property name="mlt_service">qimage</property>
    <property name="creation_time">2022-05-20T14:44:54</property>
    <property name="xml">was here</property>
    <property name="shotcut:hash">02a3e84af428f34aa39907960fd0ea90</property>
    <property name="shotcut:caption">26-the_flash-shadow.png</property>
    <filter id="filter88" out="00:01:15.320">
      <property name="start">1</property>
      <property name="level">1</property>
      <property name="mlt_service">brightness</property>
      <property name="shotcut:filter">fadeInBrightness</property>
      <property name="alpha">00:00:00.000=0;00:00:01.960=1</property>
      <property name="shotcut:animIn">00:00:02.000</property>
    </filter>
    <filter id="filter89" out="00:01:15.320">
      <property name="start">1</property>
      <property name="level">1</property>
      <property name="mlt_service">brightness</property>
      <property name="shotcut:filter">fadeOutBrightness</property>
      <property name="alpha">00:01:13.360=1;00:01:15.320=0</property>
      <property name="shotcut:animOut">00:00:02.000</property>
    </filter>
    <filter id="filter90" out="00:01:15.320">
      <property name="background">color:#00000000</property>
      <property name="mlt_service">affine</property>
      <property name="shotcut:filter">affineSizePosition</property>
      <property name="transition.fill">1</property>
      <property name="transition.distort">0</property>
      <property name="transition.rect">1296.23 675 287.546 405 1</property>
      <property name="transition.valign">middle</property>
      <property name="transition.halign">center</property>
      <property name="shotcut:animIn">00:00:00.000</property>
      <property name="shotcut:animOut">00:00:00.000</property>
      <property name="transition.threads">0</property>
      <property name="transition.fix_rotate_x">0</property>
    </filter>
  </producer>
  <producer id="producer104" in="00:00:00.000" out="03:59:59.960">
    <property name="length">04:00:00.000</property>
    <property name="eof">pause</property>
    <property name="resource">images/28-karampalios-shadow.png</property>
    <property name="ttl">1</property>
    <property name="aspect_ratio">1</property>
    <property name="progressive">1</property>
    <property name="seekable">1</property>
    <property name="mlt_service">qimage</property>
    <property name="creation_time">2022-05-20T14:53:46</property>
    <property name="xml">was here</property>
    <property name="shotcut:hash">17f11b94c4ebf1dd9132697f797ec163</property>
    <property name="shotcut:caption">28-karampalios-shadow.png</property>
    <filter id="filter91" out="00:00:28.800">
      <property name="start">1</property>
      <property name="level">1</property>
      <property name="mlt_service">brightness</property>
      <property name="shotcut:filter">fadeInBrightness</property>
      <property name="alpha">00:00:00.000=0;00:00:01.960=1</property>
      <property name="shotcut:animIn">00:00:02.000</property>
    </filter>
    <filter id="filter92" out="00:00:28.800">
      <property name="start">1</property>
      <property name="level">1</property>
      <property name="mlt_service">brightness</property>
      <property name="shotcut:filter">fadeOutBrightness</property>
      <property name="alpha">00:00:26.840=1;00:00:28.800=0</property>
      <property name="shotcut:animOut">00:00:02.000</property>
    </filter>
    <filter id="filter93" out="00:00:28.800">
      <property name="background">color:#00000000</property>
      <property name="mlt_service">affine</property>
      <property name="shotcut:filter">affineSizePosition</property>
      <property name="transition.fill">1</property>
      <property name="transition.distort">0</property>
      <property name="transition.rect">1220.2 696.522 419.163 360 1</property>
      <property name="transition.valign">middle</property>
      <property name="transition.halign">center</property>
      <property name="shotcut:animIn">00:00:00.000</property>
      <property name="shotcut:animOut">00:00:00.000</property>
      <property name="transition.threads">0</property>
      <property name="transition.fix_rotate_x">0</property>
    </filter>
  </producer>
  <producer id="producer105" in="00:00:00.000" out="03:59:59.960">
    <property name="length">04:00:00.000</property>
    <property name="eof">pause</property>
    <property name="resource">images/29-mythomacjusfinal.png</property>
    <property name="ttl">1</property>
    <property name="aspect_ratio">1</property>
    <property name="progressive">1</property>
    <property name="seekable">1</property>
    <property name="mlt_service">qimage</property>
    <property name="creation_time">2022-05-20T14:58:06</property>
    <property name="xml">was here</property>
    <property name="shotcut:hash">f15fb67febb8fd35246ef629fbe24046</property>
    <property name="shotcut:caption">29-mythomacjusfinal.png</property>
    <filter id="filter94" out="00:00:36.680">
      <property name="start">1</property>
      <property name="level">1</property>
      <property name="mlt_service">brightness</property>
      <property name="shotcut:filter">fadeInBrightness</property>
      <property name="alpha">00:00:00.000=0;00:00:01.960=1</property>
      <property name="shotcut:animIn">00:00:02.000</property>
    </filter>
    <filter id="filter95" out="00:00:36.680">
      <property name="start">1</property>
      <property name="level">1</property>
      <property name="mlt_service">brightness</property>
      <property name="shotcut:filter">fadeOutBrightness</property>
      <property name="alpha">00:00:34.720=1;00:00:36.680=0</property>
      <property name="shotcut:animOut">00:00:02.000</property>
    </filter>
    <filter id="filter96" out="00:00:36.680">
      <property name="background">color:#00000000</property>
      <property name="mlt_service">affine</property>
      <property name="shotcut:filter">affineSizePosition</property>
      <property name="transition.fill">1</property>
      <property name="transition.distort">0</property>
      <property name="transition.rect">1306.11 688.696 249.858 379.565 1</property>
      <property name="transition.valign">middle</property>
      <property name="transition.halign">center</property>
      <property name="shotcut:animIn">00:00:00.000</property>
      <property name="shotcut:animOut">00:00:00.000</property>
      <property name="transition.threads">0</property>
    </filter>
  </producer>
  <producer id="producer106" in="00:00:00.000" out="03:59:59.960">
    <property name="length">04:00:00.000</property>
    <property name="eof">pause</property>
    <property name="resource">#00000000</property>
    <property name="aspect_ratio">1</property>
    <property name="mlt_service">color</property>
    <property name="mlt_image_format">rgba</property>
    <property name="shotcut:caption">transparent</property>
    <property name="shotcut:detail">transparent</property>
    <property name="ignore_points">0</property>
    <property name="xml">was here</property>
    <property name="seekable">1</property>
    <filter id="filter97" out="00:00:03.960">
      <property name="argument">https://www.mythoscomics.gr/</property>
      <property name="geometry">13 870 1920 270 1</property>
      <property name="family">Sans</property>
      <property name="size">80</property>
      <property name="weight">750</property>
      <property name="style">normal</property>
      <property name="fgcolour">#ffffffff</property>
      <property name="bgcolour">#00000000</property>
      <property name="olcolour">#aa000000</property>
      <property name="pad">0</property>
      <property name="halign">center</property>
      <property name="valign">top</property>
      <property name="outline">3</property>
      <property name="mlt_service">dynamictext</property>
      <property name="shotcut:filter">dynamicText</property>
      <property name="shotcut:usePointSize">1</property>
      <property name="shotcut:pointSize">60</property>
    </filter>
  </producer>
  <playlist id="playlist8">
    <property name="shotcut:video">1</property>
    <property name="shotcut:name">Logo + Images + Videos: Layer 1</property>
    <blank length="00:00:29.760"/>
    <entry producer="chain20" in="00:00:00.000" out="00:00:07.800"/>
    <blank length="00:00:37.360"/>
    <entry producer="producer76" in="00:00:00.000" out="00:00:12.920"/>
    <blank length="00:00:37.160"/>
    <entry producer="producer77" in="00:00:00.000" out="00:00:10.120"/>
    <entry producer="tractor19" in="00:00:00.000" out="00:00:01.600"/>
    <entry producer="producer78" in="00:00:01.640" out="00:00:08.480"/>
    <blank length="00:04:07.280"/>
    <entry producer="producer79" in="00:00:00.000" out="00:00:28.360"/>
    <blank length="00:00:04.960"/>
    <entry producer="producer80" in="00:00:00.000" out="00:00:10.480"/>
    <blank length="00:01:56.320"/>
    <entry producer="producer81" in="00:00:00.000" out="00:00:16.160"/>
    <blank length="00:00:01.800"/>
    <entry producer="producer82" in="00:00:00.000" out="00:00:10.720"/>
    <blank length="00:02:24.680"/>
    <entry producer="producer83" in="00:00:00.000" out="00:00:28.680"/>
    <blank length="00:00:01.360"/>
    <entry producer="producer84" in="00:00:00.000" out="00:00:08.680"/>
    <blank length="00:05:16.000"/>
    <entry producer="producer85" in="00:00:00.000" out="00:00:12.320"/>
    <blank length="00:04:38.920"/>
    <entry producer="producer86" in="00:00:00.000" out="00:06:04.600"/>
    <entry producer="tractor20" in="00:00:00.000" out="00:00:02.320"/>
    <entry producer="producer87" in="00:00:02.360" out="00:00:34.200"/>
    <entry producer="tractor21" in="00:00:00.000" out="00:00:01.560"/>
    <entry producer="producer88" in="00:00:01.600" out="00:02:08.240"/>
    <blank length="00:00:49.600"/>
    <entry producer="producer89" in="00:00:00.000" out="00:00:05.760"/>
    <blank length="00:02:29.240"/>
    <entry producer="producer90" in="00:00:00.000" out="00:00:08.240"/>
    <blank length="00:02:50.080"/>
    <entry producer="producer91" in="00:00:00.000" out="00:00:04.400"/>
    <blank length="00:00:07.520"/>
    <entry producer="producer92" in="00:00:00.000" out="00:00:06.400"/>
    <blank length="00:00:26.520"/>
    <entry producer="producer93" in="00:00:00.000" out="00:00:07.200"/>
    <blank length="00:00:02.800"/>
    <entry producer="producer94" in="00:00:00.000" out="00:00:07.920"/>
    <blank length="00:00:18.640"/>
    <entry producer="producer95" in="00:00:00.000" out="00:00:23.520"/>
    <blank length="00:06:09.120"/>
    <entry producer="producer96" in="00:00:00.000" out="00:03:43.800"/>
    <entry producer="tractor22" in="00:00:00.000" out="00:00:02.760"/>
    <entry producer="producer97" in="00:00:02.800" out="00:00:56.720"/>
    <entry producer="tractor23" in="00:00:00.000" out="00:00:02.120"/>
    <entry producer="producer98" in="00:03:48.800" out="00:04:25.840"/>
    <blank length="00:00:10.560"/>
    <entry producer="producer99" in="00:00:00.000" out="00:01:39.440"/>
    <blank length="00:00:05.560"/>
    <entry producer="producer100" in="00:00:00.000" out="00:00:43.120"/>
    <blank length="00:00:09.880"/>
    <entry producer="producer101" in="00:00:00.000" out="00:00:08.800"/>
    <blank length="00:00:10.640"/>
    <entry producer="producer102" in="00:00:00.000" out="00:00:12.840"/>
    <blank length="00:10:26.400"/>
    <entry producer="producer103" in="00:00:00.000" out="00:01:15.320"/>
    <blank length="00:00:38.840"/>
    <entry producer="producer104" in="00:00:00.000" out="00:00:28.800"/>
    <blank length="00:01:06.800"/>
    <entry producer="producer105" in="00:00:00.000" out="00:00:36.680"/>
    <blank length="00:02:21.920"/>
    <entry producer="producer106" in="00:00:00.000" out="00:00:03.960"/>
  </playlist>
  <producer id="producer107" in="00:00:00.000" out="03:59:59.960">
    <property name="length">04:00:00.000</property>
    <property name="eof">pause</property>
    <property name="resource">images/12-joinus-shadow.png</property>
    <property name="ttl">1</property>
    <property name="aspect_ratio">1</property>
    <property name="progressive">1</property>
    <property name="seekable">1</property>
    <property name="mlt_service">qimage</property>
    <property name="creation_time">2022-05-19T13:44:02</property>
    <property name="xml">was here</property>
    <property name="shotcut:hash">3eecfd033d27cb1916765df686d7b73e</property>
    <property name="shotcut:caption">12-joinus-shadow.png</property>
    <filter id="filter98" out="00:00:02.720">
      <property name="start">1</property>
      <property name="level">1</property>
      <property name="mlt_service">brightness</property>
      <property name="shotcut:filter">fadeInBrightness</property>
      <property name="alpha">00:00:00.000=0;00:00:01.160=1</property>
      <property name="shotcut:animIn">00:00:01.200</property>
    </filter>
    <filter id="filter99" out="00:00:02.720">
      <property name="start">1</property>
      <property name="level">1</property>
      <property name="mlt_service">brightness</property>
      <property name="shotcut:filter">fadeOutBrightness</property>
      <property name="alpha">00:00:01.560=1;00:00:02.720=0</property>
      <property name="shotcut:animOut">00:00:01.200</property>
    </filter>
    <filter id="filter100" out="00:00:02.720">
      <property name="background">color:#00000000</property>
      <property name="mlt_service">affine</property>
      <property name="shotcut:filter">affineSizePosition</property>
      <property name="transition.fill">1</property>
      <property name="transition.distort">0</property>
      <property name="transition.rect">305.075 179.095 347.599 206.231 1</property>
      <property name="transition.valign">middle</property>
      <property name="transition.halign">center</property>
      <property name="shotcut:animIn">00:00:00.000</property>
      <property name="shotcut:animOut">00:00:00.000</property>
      <property name="transition.threads">0</property>
    </filter>
  </producer>
  <producer id="producer108" in="00:00:00.000" out="03:59:59.960">
    <property name="length">04:00:00.000</property>
    <property name="eof">pause</property>
    <property name="resource">images/27-cool-someone-3d-printed-the-save-icon-shadow.png</property>
    <property name="ttl">1</property>
    <property name="aspect_ratio">1</property>
    <property name="progressive">1</property>
    <property name="seekable">1</property>
    <property name="mlt_service">qimage</property>
    <property name="creation_time">2022-05-20T14:47:28</property>
    <property name="xml">was here</property>
    <property name="shotcut:hash">2983c6a4d4ac76790c21d07b2fa5cecd</property>
    <property name="shotcut:caption">27-cool-someone-3d-printed-the-save-icon-shadow.png</property>
    <filter id="filter101" out="00:00:18.240">
      <property name="background">color:#00000000</property>
      <property name="mlt_service">affine</property>
      <property name="shotcut:filter">affineSizePosition</property>
      <property name="transition.fill">1</property>
      <property name="transition.distort">0</property>
      <property name="transition.rect">287.674 134 384.652 303.75 1</property>
      <property name="transition.valign">middle</property>
      <property name="transition.halign">center</property>
      <property name="shotcut:animIn">00:00:00.000</property>
      <property name="shotcut:animOut">00:00:00.000</property>
      <property name="transition.threads">0</property>
      <property name="transition.fix_rotate_x">0</property>
    </filter>
  </producer>
  <playlist id="playlist9">
    <property name="shotcut:video">1</property>
    <property name="shotcut:name">Logo + Images + Videos: Layer 2</property>
    <blank length="00:31:10.040"/>
    <entry producer="producer107" in="00:00:00.000" out="00:00:02.720"/>
    <blank length="00:34:35.520"/>
    <entry producer="producer108" in="00:00:00.000" out="00:00:18.240"/>
  </playlist>
  <producer id="producer109" in="00:00:00.000" out="03:59:59.960">
    <property name="length">04:00:00.000</property>
    <property name="eof">pause</property>
    <property name="resource">/home/dimitry/notes_materials_collateral/podcast/fetareport-logo/FETA_REPORT_FINAL-5.png</property>
    <property name="ttl">1</property>
    <property name="aspect_ratio">1</property>
    <property name="progressive">1</property>
    <property name="seekable">1</property>
    <property name="mlt_service">qimage</property>
    <property name="creation_time">2020-09-18T14:04:55</property>
    <property name="xml">was here</property>
    <property name="shotcut:hash">5767969113bde37c518dbea4398f47b1</property>
    <property name="shotcut:caption">FETA_REPORT_FINAL-5.png</property>
  </producer>
  <producer id="producer110" in="00:00:00.000" out="03:59:59.960">
    <property name="length">04:00:00.000</property>
    <property name="eof">pause</property>
    <property name="resource">/home/dimitry/notes_materials_collateral/podcast/fetareport-logo/FETA_REPORT_FINAL-5.png</property>
    <property name="ttl">1</property>
    <property name="aspect_ratio">1</property>
    <property name="progressive">1</property>
    <property name="seekable">1</property>
    <property name="mlt_service">qimage</property>
    <property name="creation_time">2020-09-18T14:04:55</property>
    <property name="xml">was here</property>
    <property name="shotcut:hash">5767969113bde37c518dbea4398f47b1</property>
    <property name="shotcut:caption">FETA_REPORT_FINAL-5.png</property>
    <filter id="filter102" in="00:00:00.400" out="00:44:55.640">
      <property name="background">color:#00000000</property>
      <property name="mlt_service">affine</property>
      <property name="shotcut:filter">affineSizePosition</property>
      <property name="transition.fill">1</property>
      <property name="transition.distort">0</property>
      <property name="transition.rect">37 26 130.781 141.106 1</property>
      <property name="transition.valign">middle</property>
      <property name="transition.halign">center</property>
      <property name="shotcut:animIn">00:00:00.000</property>
      <property name="shotcut:animOut">00:00:00.000</property>
      <property name="transition.threads">0</property>
      <property name="transition.fix_rotate_x">0</property>
    </filter>
  </producer>
  <producer id="producer111" in="00:00:00.000" out="03:59:59.960">
    <property name="length">04:00:00.000</property>
    <property name="eof">pause</property>
    <property name="resource">/home/dimitry/notes_materials_collateral/podcast/fetareport-logo/FETA_REPORT_FINAL-5.png</property>
    <property name="ttl">1</property>
    <property name="aspect_ratio">1</property>
    <property name="progressive">1</property>
    <property name="seekable">1</property>
    <property name="mlt_service">qimage</property>
    <property name="creation_time">2020-09-18T14:04:55</property>
    <property name="xml">was here</property>
    <property name="shotcut:hash">5767969113bde37c518dbea4398f47b1</property>
    <property name="shotcut:caption">FETA_REPORT_FINAL-5.png</property>
    <filter id="filter103" in="00:39:47.520" out="01:07:28.800">
      <property name="background">color:#00000000</property>
      <property name="mlt_service">affine</property>
      <property name="shotcut:filter">affineSizePosition</property>
      <property name="transition.fill">1</property>
      <property name="transition.distort">0</property>
      <property name="transition.rect">37 26 130.781 141.106 1</property>
      <property name="transition.valign">middle</property>
      <property name="transition.halign">center</property>
      <property name="shotcut:animIn">00:00:00.000</property>
      <property name="shotcut:animOut">00:00:00.000</property>
      <property name="transition.threads">0</property>
      <property name="transition.fix_rotate_x">0</property>
    </filter>
  </producer>
  <playlist id="playlist10">
    <property name="shotcut:video">1</property>
    <property name="shotcut:name">Logo</property>
    <entry producer="producer109" in="00:00:00.000" out="00:00:19.960"/>
    <entry producer="producer110" in="00:00:00.400" out="00:44:55.640"/>
    <blank length="00:00:36.040"/>
    <entry producer="producer111" in="00:39:47.520" out="01:07:28.800"/>
  </playlist>
  <producer id="producer112" in="00:00:00.000" out="03:59:59.960">
    <property name="length">04:00:00.000</property>
    <property name="eof">pause</property>
    <property name="resource">images/logo_white_320.png</property>
    <property name="ttl">1</property>
    <property name="aspect_ratio">1</property>
    <property name="progressive">1</property>
    <property name="seekable">1</property>
    <property name="mlt_service">qimage</property>
    <property name="creation_time">2022-05-08T20:21:22</property>
    <property name="xml">was here</property>
    <property name="shotcut:hash">fa81aa59329bb21c17d44131d2d0ef7a</property>
    <property name="shotcut:caption">logo_white_320.png</property>
    <filter id="filter104" out="00:44:55.240">
      <property name="background">color:#00000000</property>
      <property name="mlt_service">affine</property>
      <property name="shotcut:filter">affineSizePosition</property>
      <property name="transition.fill">1</property>
      <property name="transition.distort">0</property>
      <property name="transition.rect">180 62 482.412 60.3015 1</property>
      <property name="transition.valign">middle</property>
      <property name="transition.halign">center</property>
      <property name="shotcut:animIn">00:00:00.000</property>
      <property name="shotcut:animOut">00:00:00.000</property>
      <property name="transition.threads">0</property>
      <property name="transition.fix_rotate_x">0</property>
    </filter>
  </producer>
  <producer id="producer113" in="00:00:00.000" out="03:59:59.960">
    <property name="length">04:00:00.000</property>
    <property name="eof">pause</property>
    <property name="resource">images/logo_white_320.png</property>
    <property name="ttl">1</property>
    <property name="aspect_ratio">1</property>
    <property name="progressive">1</property>
    <property name="seekable">1</property>
    <property name="mlt_service">qimage</property>
    <property name="creation_time">2022-05-08T20:21:22</property>
    <property name="xml">was here</property>
    <property name="shotcut:hash">fa81aa59329bb21c17d44131d2d0ef7a</property>
    <property name="shotcut:caption">logo_white_320.png</property>
    <filter id="filter105" in="00:45:59.280" out="01:13:40.560">
      <property name="background">color:#00000000</property>
      <property name="mlt_service">affine</property>
      <property name="shotcut:filter">affineSizePosition</property>
      <property name="transition.fill">1</property>
      <property name="transition.distort">0</property>
      <property name="transition.rect">180 62 482.412 60.3015 1</property>
      <property name="transition.valign">middle</property>
      <property name="transition.halign">center</property>
      <property name="shotcut:animIn">00:00:00.000</property>
      <property name="shotcut:animOut">00:00:00.000</property>
      <property name="transition.threads">0</property>
      <property name="transition.fix_rotate_x">0</property>
    </filter>
  </producer>
  <playlist id="playlist11">
    <property name="shotcut:video">1</property>
    <property name="shotcut:name">Title</property>
    <blank length="00:00:20.000"/>
    <entry producer="producer112" in="00:00:00.000" out="00:44:55.240"/>
    <blank length="00:00:36.040"/>
    <entry producer="producer113" in="00:45:59.280" out="01:13:40.560"/>
  </playlist>
  <tractor id="tractor24" title="Shotcut version 22.04.25" in="00:00:00.000" out="01:13:32.600">
    <property name="shotcut">1</property>
    <property name="shotcut:projectAudioChannels">2</property>
    <property name="shotcut:projectFolder">0</property>
    <property name="shotcut:scaleFactor">0.157142</property>
    <track producer="background"/>
    <track producer="playlist0" hide="video"/>
    <track producer="playlist1" hide="video"/>
    <track producer="playlist2" hide="video"/>
    <track producer="playlist3"/>
    <track producer="playlist4"/>
    <track producer="playlist5" hide="audio"/>
    <track producer="playlist6" hide="audio"/>
    <track producer="playlist7" hide="audio"/>
    <track producer="playlist8" hide="audio"/>
    <track producer="playlist9"/>
    <track producer="playlist10"/>
    <track producer="playlist11"/>
    <transition id="transition48">
      <property name="a_track">0</property>
      <property name="b_track">1</property>
      <property name="mlt_service">mix</property>
      <property name="always_active">1</property>
      <property name="sum">1</property>
    </transition>
    <transition id="transition49">
      <property name="a_track">0</property>
      <property name="b_track">2</property>
      <property name="mlt_service">mix</property>
      <property name="always_active">1</property>
      <property name="sum">1</property>
    </transition>
    <transition id="transition50">
      <property name="a_track">0</property>
      <property name="b_track">3</property>
      <property name="mlt_service">mix</property>
      <property name="always_active">1</property>
      <property name="sum">1</property>
    </transition>
    <transition id="transition51">
      <property name="a_track">0</property>
      <property name="b_track">4</property>
      <property name="mlt_service">mix</property>
      <property name="always_active">1</property>
      <property name="sum">1</property>
    </transition>
    <transition id="transition52">
      <property name="a_track">0</property>
      <property name="b_track">4</property>
      <property name="version">0.1</property>
      <property name="mlt_service">frei0r.cairoblend</property>
      <property name="threads">0</property>
      <property name="disable">1</property>
    </transition>
    <transition id="transition53">
      <property name="a_track">0</property>
      <property name="b_track">5</property>
      <property name="mlt_service">mix</property>
      <property name="always_active">1</property>
      <property name="sum">1</property>
    </transition>
    <transition id="transition54">
      <property name="a_track">4</property>
      <property name="b_track">5</property>
      <property name="version">0.1</property>
      <property name="mlt_service">frei0r.cairoblend</property>
      <property name="threads">0</property>
      <property name="disable">0</property>
    </transition>
    <transition id="transition55">
      <property name="a_track">0</property>
      <property name="b_track">6</property>
      <property name="mlt_service">mix</property>
      <property name="always_active">1</property>
      <property name="sum">1</property>
    </transition>
    <transition id="transition56">
      <property name="a_track">4</property>
      <property name="b_track">6</property>
      <property name="version">0.1</property>
      <property name="mlt_service">frei0r.cairoblend</property>
      <property name="threads">0</property>
      <property name="disable">0</property>
    </transition>
    <transition id="transition57">
      <property name="a_track">0</property>
      <property name="b_track">7</property>
      <property name="mlt_service">mix</property>
      <property name="always_active">1</property>
      <property name="sum">1</property>
    </transition>
    <transition id="transition58">
      <property name="a_track">4</property>
      <property name="b_track">7</property>
      <property name="version">0.1</property>
      <property name="mlt_service">frei0r.cairoblend</property>
      <property name="threads">0</property>
      <property name="disable">0</property>
    </transition>
    <transition id="transition59">
      <property name="a_track">0</property>
      <property name="b_track">8</property>
      <property name="mlt_service">mix</property>
      <property name="always_active">1</property>
      <property name="sum">1</property>
    </transition>
    <transition id="transition60">
      <property name="a_track">4</property>
      <property name="b_track">8</property>
      <property name="version">0.1</property>
      <property name="mlt_service">frei0r.cairoblend</property>
      <property name="threads">0</property>
      <property name="disable">0</property>
    </transition>
    <transition id="transition61">
      <property name="a_track">0</property>
      <property name="b_track">9</property>
      <property name="mlt_service">mix</property>
      <property name="always_active">1</property>
      <property name="sum">1</property>
    </transition>
    <transition id="transition62">
      <property name="a_track">4</property>
      <property name="b_track">9</property>
      <property name="version">0.1</property>
      <property name="mlt_service">frei0r.cairoblend</property>
      <property name="threads">0</property>
      <property name="disable">0</property>
    </transition>
    <transition id="transition63">
      <property name="a_track">0</property>
      <property name="b_track">10</property>
      <property name="mlt_service">mix</property>
      <property name="always_active">1</property>
      <property name="sum">1</property>
    </transition>
    <transition id="transition64">
      <property name="a_track">4</property>
      <property name="b_track">10</property>
      <property name="version">0.1</property>
      <property name="mlt_service">frei0r.cairoblend</property>
      <property name="threads">0</property>
      <property name="disable">0</property>
    </transition>
    <transition id="transition65">
      <property name="a_track">0</property>
      <property name="b_track">11</property>
      <property name="mlt_service">mix</property>
      <property name="always_active">1</property>
      <property name="sum">1</property>
    </transition>
    <transition id="transition66">
      <property name="a_track">4</property>
      <property name="b_track">11</property>
      <property name="version">0.1</property>
      <property name="mlt_service">frei0r.cairoblend</property>
      <property name="threads">0</property>
      <property name="disable">0</property>
    </transition>
    <transition id="transition67">
      <property name="a_track">0</property>
      <property name="b_track">12</property>
      <property name="mlt_service">mix</property>
      <property name="always_active">1</property>
      <property name="sum">1</property>
    </transition>
    <transition id="transition68">
      <property name="a_track">4</property>
      <property name="b_track">12</property>
      <property name="version">0.1</property>
      <property name="mlt_service">frei0r.cairoblend</property>
      <property name="threads">0</property>
      <property name="disable">0</property>
    </transition>
  </tractor>
</mlt>
